<?xml version="1.0" encoding="UTF-8"?>
<svg id="Layer_2" data-name="Layer 2" xmlns="http://www.w3.org/2000/svg" viewBox="0 0 362.67 324.53">
  <defs>
    <style>
      .cls-1 {
        fill: #65b7ec;
      }
    </style>
  </defs>
  <g id="_文字" data-name="文字">
    <g>
      <g>
        <path class="cls-1" d="m175.72,4.19c37.27-.22,68.79,31.31,67.54,68.71h6.57c-.11-5.34-.83-10.64-2.07-15.8l24.62,16.96.27,15.78c0,.5.25.96.65,1.26l29.59,21.54c.71.52,1.7.36,2.22-.35l7.6-10.44.04.03,1.03-1.49,8.19-11.25c.52-.71.36-1.71-.35-2.22l-29.59-21.54c-.4-.29-.92-.38-1.4-.24l-17.17,5.22s-.04.02-.06.03l-27.15-18.7c-3.7-11.54-10.14-22.15-18.77-30.55-28.23-28.17-75.31-28.17-103.55,0-13.76,13.38-21.95,32.36-22.34,51.77h6.57c-1.25-37.4,30.28-68.94,67.54-68.71"/>
        <path class="cls-1" d="m362.67,92.93h-8.22l.29,7.24c.13,4.48.51,17.13.64,21.71,1.39,67.35,1.33,135.33-.93,202.65h8.22c-2.43-76.99-2.62-154.61,0-231.6"/>
        <path class="cls-1" d="m0,92.93l.29,7.24c.13,4.48.51,17.13.64,21.71,1.39,67.35,1.33,135.33-.93,202.65h8.22c-2.43-76.99-2.62-154.61,0-231.6H0Z"/>
      </g>
      <g>
        <path class="cls-1" d="m28.13,167.16h4.7v9.35c0,2.77-.16,5.67-.47,8.7-.32,3.03-.97,6.08-1.97,9.12-1,3.05-2.55,5.96-4.65,8.73-.47-.57-1.08-1.15-1.85-1.75-.77-.6-1.48-1.1-2.15-1.5,1.43-1.9,2.57-3.86,3.42-5.88.85-2.02,1.48-4.03,1.9-6.05.42-2.02.7-3.99.85-5.93.15-1.93.23-3.77.23-5.5v-9.3Zm-5.35-3.2h20.7v5h-20.7v-5Zm14.35,10.35h4.85v2.15c-.07,4.1-.14,7.59-.22,10.48-.08,2.88-.19,5.24-.33,7.08-.13,1.83-.3,3.27-.5,4.32-.2,1.05-.45,1.81-.75,2.27-.47.63-.95,1.09-1.45,1.38s-1.08.48-1.75.58c-.6.1-1.37.16-2.3.17-.93.02-1.92,0-2.95-.02-.03-.7-.17-1.51-.4-2.42-.23-.92-.53-1.71-.9-2.38.87.1,1.64.17,2.33.2.68.03,1.22.05,1.62.05.33,0,.61-.05.82-.15.22-.1.43-.3.62-.6.2-.3.37-.89.5-1.77.13-.88.25-2.18.35-3.88.1-1.7.18-3.89.25-6.58.07-2.68.13-5.98.2-9.88v-1Zm-6.6,0h8.35v4.9h-8.35v-4.9Zm.15-18.05h5.15v9.35h-5.15v-9.35Zm17.7-.1l5.35,1.05c-.87,3.5-2.08,6.8-3.62,9.9-1.55,3.1-3.31,5.67-5.28,7.7-.3-.3-.72-.67-1.25-1.1-.53-.43-1.07-.85-1.62-1.25s-1.04-.73-1.47-1c1.87-1.77,3.47-4,4.82-6.7,1.35-2.7,2.38-5.57,3.08-8.6Zm14.6,11.95l3.85,2.85c-1.27,1-2.75,1.99-4.45,2.98-1.7.98-3.51,1.93-5.43,2.85-1.92.92-3.86,1.75-5.82,2.5-1.97.75-3.83,1.39-5.6,1.92-.37-.7-.85-1.48-1.45-2.32-.6-.85-1.18-1.56-1.75-2.12,1.77-.4,3.62-.9,5.57-1.5,1.95-.6,3.87-1.29,5.75-2.08,1.88-.78,3.63-1.61,5.25-2.48,1.62-.87,2.98-1.73,4.08-2.6Zm-15.95,9.1h5.05v25.65h-5.05v-25.65Zm1.3-14.75h19.85v4.85h-19.85v-4.85Zm10.15,12c.5,3.43,1.21,6.71,2.12,9.83.92,3.12,2.12,5.88,3.6,8.27,1.48,2.4,3.31,4.3,5.47,5.7-.4.33-.83.76-1.3,1.27-.47.52-.9,1.07-1.3,1.65-.4.58-.75,1.11-1.05,1.58-2.4-1.77-4.39-4.03-5.97-6.78s-2.87-5.89-3.85-9.42c-.98-3.53-1.76-7.35-2.32-11.45l4.6-.65Zm7.2,2.4l3.8,3.35c-1.4,1.33-2.93,2.68-4.6,4.02-1.67,1.35-3.18,2.49-4.55,3.43l-3.15-3.05c.9-.67,1.87-1.44,2.9-2.32,1.03-.88,2.05-1.8,3.05-2.75,1-.95,1.85-1.84,2.55-2.68Z"/>
        <path class="cls-1" d="m73.73,164.86c1.47,0,3.11-.02,4.93-.05,1.82-.03,3.73-.08,5.75-.12,2.02-.05,4.02-.09,6-.12,1.98-.03,3.85-.06,5.6-.08,1.75-.02,3.31-.02,4.68-.02s2.75,0,4.25-.02c1.5-.02,2.96-.02,4.38-.02s2.71,0,3.88.02c1.17.02,2.07.02,2.7.02l-.05,5.25c-1.5-.07-3.51-.12-6.02-.17-2.52-.05-5.61-.08-9.28-.08-2.23,0-4.53.02-6.88.08-2.35.05-4.68.11-7,.17-2.32.07-4.55.15-6.7.25-2.15.1-4.17.22-6.07.35l-.15-5.45Zm26.85,14.75c0,2.57-.33,4.71-1,6.43-.67,1.72-1.62,3.01-2.85,3.88-1.23.87-2.77,1.3-4.6,1.3-.97,0-1.96-.19-2.97-.57-1.02-.38-1.94-.95-2.78-1.7-.83-.75-1.5-1.68-2-2.8-.5-1.12-.75-2.41-.75-3.88,0-1.83.44-3.43,1.32-4.8.88-1.37,2.06-2.43,3.53-3.2,1.47-.77,3.07-1.15,4.8-1.15,2.13,0,3.92.48,5.35,1.43,1.43.95,2.52,2.23,3.25,3.85.73,1.62,1.1,3.46,1.1,5.52,0,1.63-.26,3.33-.78,5.1-.52,1.77-1.38,3.47-2.57,5.12-1.2,1.65-2.81,3.16-4.82,4.52-2.02,1.37-4.54,2.48-7.58,3.35l-4.75-4.75c2.17-.47,4.16-1.07,5.97-1.8,1.82-.73,3.4-1.66,4.75-2.77,1.35-1.12,2.39-2.46,3.12-4.02.73-1.57,1.1-3.43,1.1-5.6,0-1.8-.41-3.12-1.23-3.98s-1.82-1.27-3.02-1.27c-.7,0-1.38.17-2.03.5-.65.33-1.18.83-1.58,1.48-.4.65-.6,1.44-.6,2.38,0,1.27.43,2.27,1.28,3,.85.73,1.82,1.1,2.93,1.1.9,0,1.67-.26,2.32-.78.65-.52,1.08-1.37,1.3-2.55.21-1.18.09-2.73-.38-4.62l4.15,1.3Zm.95-21.15c-.03.23-.08.62-.12,1.18-.05.55-.09,1.09-.12,1.62s-.05.92-.05,1.15c-.03.67-.06,1.56-.07,2.67-.02,1.12-.03,2.35-.03,3.7s0,2.71.03,4.07c.02,1.37.03,2.65.05,3.85.02,1.2.03,2.2.03,3l-5.55-2.05v-2.4c0-1.03,0-2.18-.03-3.43-.02-1.25-.03-2.49-.05-3.73-.02-1.23-.03-2.35-.05-3.35-.02-1-.04-1.77-.08-2.3-.07-.9-.14-1.73-.22-2.48-.08-.75-.16-1.26-.22-1.52h6.5Z"/>
        <path class="cls-1" d="m127.33,160.81c.67.07,1.38.12,2.15.17.77.05,1.46.08,2.1.08.53,0,1.35-.02,2.45-.05s2.33-.07,3.7-.1c1.37-.03,2.74-.07,4.12-.1,1.38-.03,2.62-.08,3.72-.15,1.1-.07,1.93-.12,2.5-.15.93-.07,1.67-.14,2.22-.23.55-.08.97-.18,1.28-.27l2.95,4.05c-.53.33-1.08.68-1.65,1.05-.57.37-1.12.75-1.65,1.15-.67.47-1.48,1.09-2.45,1.88s-2,1.63-3.1,2.55c-1.1.92-2.18,1.81-3.25,2.67-1.07.87-2.03,1.65-2.9,2.35.93-.3,1.84-.49,2.72-.57.88-.08,1.78-.12,2.68-.12,2.8,0,5.31.53,7.53,1.6,2.22,1.07,3.97,2.53,5.28,4.38,1.3,1.85,1.95,3.98,1.95,6.38,0,2.63-.68,5-2.03,7.1s-3.35,3.76-6,4.98-5.92,1.83-9.82,1.83c-2.3,0-4.34-.33-6.12-.98s-3.18-1.57-4.2-2.75c-1.02-1.18-1.52-2.58-1.52-4.18,0-1.3.36-2.52,1.07-3.65.72-1.13,1.72-2.05,3.03-2.75,1.3-.7,2.8-1.05,4.5-1.05,2.27,0,4.17.46,5.72,1.38,1.55.92,2.74,2.14,3.57,3.67.83,1.53,1.28,3.18,1.35,4.95l-5.2.75c-.07-1.9-.58-3.45-1.55-4.65-.97-1.2-2.27-1.8-3.9-1.8-1,0-1.81.27-2.43.8s-.92,1.15-.92,1.85c0,1,.51,1.8,1.52,2.4,1.02.6,2.36.9,4.03.9,2.8,0,5.18-.35,7.12-1.05,1.95-.7,3.43-1.72,4.43-3.05,1-1.33,1.5-2.93,1.5-4.8,0-1.53-.47-2.89-1.4-4.08-.93-1.18-2.2-2.11-3.8-2.77-1.6-.67-3.4-1-5.4-1s-3.77.24-5.4.73c-1.63.48-3.17,1.16-4.6,2.02-1.43.87-2.83,1.92-4.18,3.17s-2.74,2.64-4.18,4.18l-4.05-4.2c.93-.73,1.98-1.58,3.15-2.55,1.17-.97,2.35-1.95,3.55-2.95,1.2-1,2.33-1.95,3.4-2.85s1.97-1.65,2.7-2.25c.7-.57,1.53-1.25,2.5-2.05.97-.8,1.97-1.63,3-2.5,1.03-.87,2.02-1.69,2.95-2.48.93-.78,1.7-1.44,2.3-1.98-.5,0-1.18.02-2.05.08-.87.05-1.82.09-2.85.12-1.04.03-2.07.07-3.1.12-1.03.05-1.99.1-2.88.15s-1.59.09-2.12.12c-.63.03-1.29.08-1.97.12s-1.31.12-1.88.23l-.2-5.85Z"/>
        <path class="cls-1" d="m169.18,198.56v-36.95h6.6v31.4h15.35v5.55h-21.95Z"/>
        <path class="cls-1" d="m212.68,199.26c-2.13,0-4.07-.32-5.8-.95s-3.21-1.62-4.42-2.95c-1.22-1.33-2.15-3.08-2.8-5.25-.65-2.17-.97-4.75-.97-7.75v-20.75h6.55v21.25c0,2.63.32,4.73.95,6.3.63,1.57,1.51,2.68,2.62,3.35,1.12.67,2.41,1,3.88,1s2.87-.33,4-1c1.13-.67,2.03-1.78,2.67-3.35.65-1.57.98-3.67.98-6.3v-21.25h6.35v20.75c0,3-.33,5.58-.97,7.75-.65,2.17-1.58,3.92-2.8,5.25-1.22,1.33-2.68,2.32-4.4,2.95s-3.66.95-5.82.95Z"/>
        <path class="cls-1" d="m237.08,198.56v-36.95h6.75l11.45,20.7,3.85,7.9h.25c-.2-1.9-.4-3.96-.6-6.17-.2-2.22-.3-4.36-.3-6.43v-16h6.25v36.95h-6.75l-11.4-20.75-3.85-7.8h-.2c.13,1.93.3,3.97.5,6.12.2,2.15.3,4.26.3,6.32v16.1h-6.25Z"/>
        <path class="cls-1" d="m290.13,199.26c-2.33,0-4.5-.42-6.5-1.25-2-.83-3.77-2.07-5.3-3.7-1.53-1.63-2.72-3.63-3.57-6-.85-2.37-1.28-5.07-1.28-8.1s.44-5.73,1.32-8.1c.88-2.37,2.1-4.38,3.65-6.05,1.55-1.67,3.35-2.93,5.4-3.8,2.05-.87,4.24-1.3,6.57-1.3s4.4.48,6.2,1.43c1.8.95,3.28,2.04,4.45,3.27l-3.5,4.2c-.97-.93-2.02-1.7-3.15-2.3s-2.43-.9-3.9-.9c-1.97,0-3.73.54-5.3,1.62-1.57,1.08-2.78,2.62-3.65,4.6-.87,1.98-1.3,4.36-1.3,7.12s.42,5.21,1.25,7.22c.83,2.02,2.01,3.57,3.53,4.65,1.52,1.08,3.29,1.62,5.33,1.62,1.63,0,3.1-.35,4.4-1.05,1.3-.7,2.47-1.62,3.5-2.75l3.5,4.15c-1.5,1.77-3.22,3.11-5.15,4.03-1.93.92-4.1,1.38-6.5,1.38Z"/>
        <path class="cls-1" d="m309.23,198.56v-36.95h6.6v14.85h14.9v-14.85h6.55v36.95h-6.55v-16.35h-14.9v16.35h-6.6Z"/>
        <path class="cls-1" d="m155.08,239.21c-.7.43-1.43.86-2.2,1.27-.77.42-1.58.84-2.45,1.28-.8.4-1.78.88-2.92,1.42-1.15.55-2.38,1.17-3.7,1.85-1.32.68-2.63,1.39-3.95,2.12-1.32.73-2.56,1.48-3.72,2.25-2.17,1.4-3.89,2.86-5.18,4.38-1.28,1.52-1.93,3.17-1.93,4.98s.9,3.32,2.7,4.35c1.8,1.03,4.5,1.55,8.1,1.55,1.77,0,3.63-.08,5.6-.25,1.97-.17,3.88-.38,5.75-.65,1.87-.27,3.5-.58,4.9-.95l-.05,6.45c-1.37.23-2.88.44-4.55.62-1.67.18-3.45.33-5.35.45-1.9.12-3.93.18-6.1.18-2.43,0-4.69-.19-6.77-.58-2.08-.38-3.9-1-5.45-1.85-1.55-.85-2.76-1.99-3.62-3.42-.87-1.43-1.3-3.18-1.3-5.25s.45-3.89,1.35-5.58c.9-1.68,2.12-3.24,3.67-4.67,1.55-1.43,3.31-2.8,5.28-4.1,1.2-.83,2.48-1.63,3.85-2.4,1.37-.77,2.71-1.51,4.03-2.23,1.32-.72,2.55-1.38,3.7-1.98,1.15-.6,2.11-1.12,2.88-1.55.87-.53,1.65-1.02,2.35-1.45.7-.43,1.37-.9,2-1.4l3.1,5.15Zm-25.2-10.25c.8,2.2,1.66,4.32,2.57,6.35.92,2.03,1.83,3.93,2.75,5.7.92,1.77,1.76,3.35,2.53,4.75l-5.05,2.95c-.9-1.47-1.82-3.15-2.78-5.05-.95-1.9-1.9-3.91-2.85-6.02-.95-2.12-1.89-4.23-2.82-6.33l5.65-2.35Z"/>
        <path class="cls-1" d="m174.18,230.06c-.1.33-.22.77-.38,1.3-.15.53-.28,1.07-.4,1.6-.12.53-.21.95-.27,1.25-.17.77-.36,1.76-.58,2.98-.22,1.22-.43,2.57-.65,4.05-.22,1.48-.42,2.99-.6,4.53s-.33,3-.45,4.4c-.12,1.4-.18,2.62-.18,3.65,0,.67.03,1.38.08,2.12.05.75.12,1.48.22,2.17.23-.63.49-1.28.78-1.95.28-.67.57-1.33.85-1.98s.54-1.27.78-1.88l2.8,2.25c-.43,1.3-.9,2.69-1.4,4.17-.5,1.48-.94,2.88-1.32,4.2-.38,1.32-.68,2.42-.88,3.33-.07.33-.12.72-.18,1.17-.05.45-.07.83-.07,1.12.03.23.05.53.05.9s.02.72.05,1.05l-5.05.4c-.5-1.77-.95-4.02-1.35-6.75-.4-2.73-.6-5.8-.6-9.2,0-1.87.08-3.82.25-5.85.17-2.03.37-4.01.6-5.92.23-1.92.47-3.67.7-5.25.23-1.58.42-2.88.55-3.88.1-.67.19-1.41.28-2.23.08-.82.14-1.57.18-2.27l6.2.5Zm24.5-.45c-.07.47-.12.98-.17,1.53-.05.55-.09,1.09-.12,1.62-.04.57-.07,1.31-.1,2.22-.03.92-.05,1.93-.05,3.03v3.35c0,2.17.03,4.23.1,6.2.07,1.97.15,3.8.25,5.5s.19,3.28.28,4.75c.08,1.47.12,2.82.12,4.05s-.17,2.33-.5,3.4c-.33,1.07-.87,2.01-1.6,2.82-.73.82-1.71,1.45-2.93,1.9-1.22.45-2.71.68-4.47.68-3.43,0-6.12-.68-8.05-2.05-1.93-1.37-2.9-3.3-2.9-5.8,0-1.63.44-3.08,1.33-4.33.88-1.25,2.13-2.22,3.75-2.92,1.62-.7,3.56-1.05,5.82-1.05s4.35.25,6.25.75,3.63,1.16,5.2,1.97c1.57.82,2.98,1.71,4.25,2.68,1.27.97,2.4,1.9,3.4,2.8l-3.05,4.75c-1.87-1.77-3.69-3.29-5.47-4.57-1.79-1.28-3.58-2.28-5.4-2.98-1.82-.7-3.69-1.05-5.62-1.05-1.57,0-2.83.3-3.8.9-.97.6-1.45,1.42-1.45,2.45s.48,1.87,1.45,2.4c.97.53,2.18.8,3.65.8,1.13,0,2.03-.19,2.68-.58.65-.38,1.11-.93,1.38-1.65.27-.72.4-1.58.4-2.58,0-.87-.03-2.02-.1-3.47-.07-1.45-.14-3.05-.22-4.8-.08-1.75-.16-3.57-.22-5.45-.07-1.88-.1-3.71-.1-5.48,0-1.87,0-3.57-.03-5.1-.02-1.53-.03-2.68-.03-3.45,0-.4-.03-.92-.1-1.57-.07-.65-.13-1.21-.2-1.68h6.4Zm-18.6,8.55c1.43.13,2.87.24,4.3.32,1.43.08,2.9.12,4.4.12,3.03,0,6.06-.13,9.08-.4,3.02-.27,5.81-.67,8.38-1.2v5.6c-2.63.4-5.45.7-8.45.9-3,.2-6,.32-9,.35-1.47,0-2.91-.03-4.32-.1-1.42-.07-2.86-.15-4.32-.25l-.05-5.35Z"/>
        <path class="cls-1" d="m226.48,255.91c-.2-1.33-.11-2.52.28-3.55.38-1.03.94-1.96,1.68-2.77.73-.82,1.55-1.57,2.45-2.27s1.75-1.38,2.55-2.02c.8-.65,1.46-1.33,2-2.02.53-.7.8-1.47.8-2.3,0-1.07-.26-1.98-.78-2.73-.52-.75-1.27-1.33-2.27-1.75-1-.42-2.22-.62-3.65-.62-1.57,0-3.03.34-4.4,1.03-1.37.68-2.7,1.71-4,3.07l-3.7-3.4c1.63-1.83,3.52-3.3,5.65-4.4s4.53-1.65,7.2-1.65c2.4,0,4.52.38,6.35,1.12,1.83.75,3.28,1.86,4.32,3.32,1.05,1.47,1.58,3.27,1.58,5.4,0,1.23-.27,2.32-.8,3.25-.53.93-1.21,1.77-2.03,2.5-.82.73-1.69,1.45-2.62,2.15-.93.7-1.79,1.41-2.57,2.12s-1.39,1.52-1.82,2.42c-.43.9-.57,1.93-.4,3.1h-5.8Zm2.95,13.05c-1.17,0-2.14-.38-2.93-1.15s-1.18-1.75-1.18-2.95.39-2.22,1.18-2.97,1.76-1.12,2.93-1.12,2.09.38,2.88,1.12c.78.75,1.17,1.74,1.17,2.97s-.39,2.18-1.17,2.95c-.79.77-1.74,1.15-2.88,1.15Z"/>
      </g>
    </g>
  </g>
</svg>