<?xml version="1.0" encoding="UTF-8"?>
<svg id="Layer_2" data-name="Layer 2" xmlns="http://www.w3.org/2000/svg" xmlns:xlink="http://www.w3.org/1999/xlink" viewBox="0 0 172.91 72.49">
  <defs>
    <style>
      .cls-1 {
        fill: url(#_名称未設定グラデーション_4);
      }

      .cls-2 {
        fill: #345ba2;
      }

      .cls-3 {
        clip-path: url(#clippath);
      }

      .cls-4 {
        fill: none;
      }

      .cls-5 {
        fill: #3f3d3c;
      }
    </style>
    <clipPath id="clippath">
      <path class="cls-4" d="m40.57,38.83c0,6.08,3.04,11.7,8.12,15.06l.91.6,1.09-.14c5.11-.64,10.73-.64,15.84,0l1.09.14.91-.6c5.09-3.35,8.13-8.98,8.13-15.06,0-9.94-8.09-18.03-18.05-18.03s-18.05,8.09-18.05,18.03"/>
    </clipPath>
    <linearGradient id="_名称未設定グラデーション_4" data-name="名称未設定グラデーション 4" x1="-544.64" y1="-4578.48" x2="-544.22" y2="-4578.48" gradientTransform="translate(363816.55 43292.53) rotate(90) scale(79.45 -79.45)" gradientUnits="userSpaceOnUse">
      <stop offset="0" stop-color="#c23475"/>
      <stop offset=".08" stop-color="#c5407c"/>
      <stop offset=".72" stop-color="#db9cb1"/>
      <stop offset="1" stop-color="#e4c1c7"/>
    </linearGradient>
  </defs>
  <g id="_ヘッダー_フッター" data-name="ヘッダー・フッター">
    <g>
      <g class="cls-3">
        <rect class="cls-1" x="40.57" y="20.8" width="36.09" height="33.69"/>
      </g>
      <path class="cls-2" d="m38.26,21.54h-3.56c-.41,0-.84.32-.95.72l-3.55,12.22-3.54-12.22c-.11-.4-.55-.72-.96-.72h-3.56c-.41,0-.64.32-.51.71l6.17,18.09v12.4c0,.41.34.75.75.75h3.31c.41,0,.75-.34.75-.75v-12.4l6.17-18.09c.13-.39-.1-.71-.51-.71m-22.33,0h-4.06c-.41,0-.87.31-1.02.69l-6.04,15.28,6.04,15.28c.15.38.61.7,1.02.7h4.06c.41,0,.62-.31.47-.7l-6.04-15.28,6.04-15.28c.15-.38-.06-.69-.47-.69m-11.92,0H.75c-.41,0-.75.34-.75.75v30.46c0,.41.34.75.75.75h3.27c.41,0,.75-.34.75-.75v-30.46c0-.41-.34-.75-.75-.75m104.78,0h-3.27c-.41,0-.75.34-.75.75v30.46c0,.41.34.75.75.75h3.27c.41,0,.75-.34.75-.75v-30.46c0-.41-.34-.75-.75-.75m20.69,0h-14.69c-.41,0-.75.33-.75.74v2.14c0,.41.34.75.75.75h4.97v27.57c0,.41.34.75.75.75h3.27c.41,0,.75-.34.75-.75v-27.57h4.95c.41,0,.75-.34.75-.75v-2.14c0-.41-.34-.74-.75-.74m-37.22,18.02l.58-.21c3.63-1.31,6.06-4.78,6.06-8.63,0-5.06-4.12-9.17-9.18-9.17h-7.54c-.41,0-.75.34-.75.75v30.45c0,.41.34.75.75.75h3.41c.41,0,.75-.34.75-.75v-13.95l8.06,14.05c.2.36.71.65,1.12.65h3.99c.41,0,.58-.29.37-.65l-7.62-13.29Zm-5.91-4.56v-8.55h3.38c2.36,0,4.28,1.92,4.28,4.27s-1.92,4.27-4.28,4.27h-3.38Zm86.57-12.65c0-.41-.34-.74-.75-.74h-3.09c-.41,0-.75.34-.75.74v22.3c0,2.62-2.13,4.74-4.75,4.74s-4.75-2.13-4.75-4.74v-22.56c0-.41-.34-.75-.75-.75h-3.09c-.41,0-.75.34-.75.75v5.62s0,16.94,0,16.94c0,5.14,4.19,9.32,9.33,9.32s9.34-4.18,9.34-9.32v-16.94s0-5.36,0-5.36Zm-31.62-1.21c-5.05,0-8.19,3.45-8.19,9.01,0,4.42,1.24,7.24,8.02,10.38,3.03,1.49,3.28,3,3.28,4.54,0,2.88-1.08,4.27-3.3,4.27s-3.44-1.49-3.44-4.1v-.28c0-.41-.34-.74-.75-.74h-3.21c-.41,0-.75.23-.75.51v1.79c0,3.62,3.04,7.52,7.95,7.52s8.19-3.46,8.19-9.02c0-4.14-1.24-6.85-7.99-10.16l-.03-.02-.03-.02c-2.76-1.86-3.25-3.01-3.25-4.72,0-2.88,1.08-4.27,3.3-4.27s3.44,1.49,3.44,4.1v.28c0,.41.34.75.75.75h3.21c.41,0,.75-.23.75-.51v-1.78c0-3.62-3.04-7.52-7.95-7.52"/>
      <g>
        <polygon class="cls-2" points="5.67 66.32 1.88 66.32 1.88 62.2 .05 62.2 .05 72.15 1.88 72.15 1.88 67.93 5.67 67.93 5.67 72.15 7.51 72.15 7.51 62.2 5.67 62.2 5.67 66.32"/>
        <path class="cls-2" d="m13.71,62.12c-1.09,0-2.01.36-2.76,1.07-1.02.98-1.02,2.08-1.02,3.91v.15c0,1.83,0,2.93,1.02,3.91.75.71,1.67,1.07,2.76,1.07s2.03-.36,2.77-1.07c1.01-.97,1.01-2.04,1.01-3.83v-.3c0-1.78,0-2.86-1.01-3.83-.75-.71-1.68-1.07-2.77-1.07m1.94,5.05c0,1.91-.1,2.42-.55,2.89-.34.34-.85.55-1.39.55s-1.05-.21-1.39-.55c-.46-.47-.56-.99-.56-2.9s.1-2.42.56-2.9c.33-.34.85-.55,1.39-.55s1.06.21,1.39.55c.46.47.55.99.55,2.9"/>
        <polygon class="cls-2" points="19.45 63.81 22.23 63.81 22.23 72.15 24.07 72.15 24.07 63.81 26.84 63.81 26.84 62.2 19.45 62.2 19.45 63.81"/>
        <polygon class="cls-2" points="29.27 72.15 36.02 72.15 36.02 70.54 31.1 70.54 31.1 67.93 35.3 67.93 35.3 66.33 31.1 66.33 31.1 63.81 36.02 63.81 36.02 62.2 29.27 62.2 29.27 72.15"/>
        <polygon class="cls-2" points="40.28 62.2 38.44 62.2 38.44 72.15 45.14 72.15 45.14 70.54 40.28 70.54 40.28 62.2"/>
        <path class="cls-2" d="m69.05,67.11v-.16s-1.69,0-1.69,0v.15c-.01.75-.13,1.26-.4,1.69l-1.88-2.15c.25-.17.6-.39.6-.39.77-.51,1.14-1.11,1.14-1.83,0-1.33-1.07-2.3-2.55-2.3s-2.62.94-2.62,2.29c0,.89.55,1.57.97,2.04-.96.61-1.92,1.39-1.92,2.75,0,1.9,1.27,3.02,3.41,3.02,1.47,0,2.32-.6,2.78-.97l.77.89h2.26l-1.81-2.07c.61-.73.91-1.68.96-2.96m-4.61-1.79s-.2.14-.36.24c-.43-.49-.65-.81-.65-1.14,0-.49.33-.8.84-.8s.85.34.85.82c0,.39-.32.65-.67.88m-.83,2.23l2.21,2.51c-.55.43-1.05.62-1.71.62-.97,0-1.67-.63-1.67-1.5,0-.75.46-1.15,1.18-1.63"/>
        <path class="cls-2" d="m82.53,63.15c-.65-.62-1.59-.95-2.72-.95h-3.69v9.94h3.69c1.13,0,2.07-.33,2.72-.95,1.07-1.03,1.07-2.52,1.07-3.85v-.24s0-.24,0-.24c0-1.32,0-2.68-1.07-3.71m-4.57.66h1.7c.69,0,1.22.2,1.6.6.47.5.5,1.35.5,2.69,0,1.24,0,2.3-.5,2.83-.39.4-.91.6-1.6.6h-1.7v-6.73Z"/>
        <path class="cls-2" d="m89.8,62.12c-1.09,0-2.02.36-2.76,1.07-1.02.98-1.02,2.08-1.02,3.91v.15c0,1.83,0,2.93,1.02,3.91.75.71,1.67,1.07,2.76,1.07s2.02-.36,2.77-1.07c1.01-.97,1.01-2.04,1.01-3.83v-.3c0-1.78,0-2.86-1.01-3.83-.75-.71-1.68-1.07-2.77-1.07m1.94,5.05c0,1.91-.1,2.42-.55,2.89-.33.34-.85.55-1.39.55s-1.06-.21-1.39-.55c-.46-.47-.56-.99-.56-2.9s.1-2.42.56-2.9c.33-.34.85-.55,1.39-.55s1.05.21,1.39.55c.46.47.55.99.55,2.9"/>
        <polygon class="cls-2" points="110.82 68.01 107.97 62.2 106.19 62.2 106.19 72.15 108.02 72.15 108.02 66.19 110.15 70.4 111.48 70.4 113.56 66.2 113.56 72.15 115.39 72.15 115.39 62.2 113.61 62.2 110.82 68.01"/>
        <rect class="cls-2" x="118.28" y="62.2" width="1.84" height="9.95"/>
        <polygon class="cls-2" points="122.54 63.81 125.32 63.81 125.32 72.15 127.15 72.15 127.15 63.81 129.93 63.81 129.93 62.2 122.54 62.2 122.54 63.81"/>
        <path class="cls-2" d="m135.67,62.12c-1.09,0-2.01.36-2.76,1.07-1.02.98-1.02,2.08-1.02,3.91v.15c0,1.83,0,2.93,1.02,3.91.75.71,1.68,1.07,2.76,1.07s2.03-.36,2.77-1.07c1.01-.97,1.01-2.04,1.01-3.83v-.3c0-1.78,0-2.86-1.01-3.83-.74-.71-1.68-1.07-2.77-1.07m1.94,5.05c0,1.91-.1,2.42-.55,2.89-.33.34-.85.55-1.39.55s-1.05-.21-1.39-.55c-.45-.47-.55-.99-.55-2.9s.1-2.42.55-2.9c.33-.34.85-.55,1.39-.55s1.06.21,1.39.55c.46.47.55.99.55,2.9"/>
        <path class="cls-2" d="m149.22,65.17c0-1.77-1.32-2.97-3.28-2.97h-4.06v9.95h1.84v-4.07h1.66l2.13,4.07h2.13l-2.35-4.33c1.2-.39,1.94-1.39,1.94-2.65m-1.83.01c0,.84-.6,1.36-1.56,1.36h-2.11v-2.73h2.11c.96,0,1.56.53,1.56,1.37"/>
        <path class="cls-2" d="m103.35,65.17c0-1.77-1.32-2.97-3.28-2.97h-4.06v9.95h1.84v-4.07h1.66l2.13,4.07h2.13l-2.35-4.33c1.2-.39,1.94-1.39,1.94-2.65m-1.83.01c0,.84-.6,1.36-1.56,1.36h-2.11v-2.73h2.11c.96,0,1.56.53,1.56,1.37"/>
        <rect class="cls-2" x="152.05" y="62.2" width="1.84" height="9.95"/>
        <polygon class="cls-2" points="163.53 63.81 163.53 62.2 156.78 62.2 156.78 72.15 163.53 72.15 163.53 70.54 158.62 70.54 158.62 67.93 162.81 67.93 162.81 66.33 158.62 66.33 158.62 63.81 163.53 63.81"/>
        <path class="cls-2" d="m171.99,63.09c-.67-.67-1.63-1.01-2.85-1.01h-.02c-2.59,0-3.51,1.59-3.51,2.94,0,2,2.03,2.7,3.24,3.11,1.5.51,1.99.86,1.99,1.41,0,.75-.54,1.13-1.62,1.14h-.01c-.68,0-1.17-.15-1.47-.44-.34-.33-.36-.79-.36-.86h-1.89c0,.31.07,1.29.88,2.1.67.67,1.62,1.01,2.85,1.01h.02c2.59,0,3.51-1.59,3.51-2.94,0-2-2.03-2.7-3.24-3.11-1.5-.51-1.99-.86-1.99-1.41,0-.75.55-1.13,1.62-1.13h.01c.68,0,1.17.14,1.47.43.37.35.36.86.36.86h1.89c0-.31-.07-1.3-.87-2.1"/>
        <path class="cls-2" d="m53.6,63.09c-.67-.67-1.63-1.01-2.85-1.01h-.02c-2.59,0-3.51,1.59-3.51,2.94,0,2,2.03,2.7,3.24,3.11,1.5.51,1.99.86,1.99,1.41,0,.75-.55,1.13-1.62,1.14h-.01c-.68,0-1.17-.15-1.47-.44-.34-.33-.36-.79-.36-.86h-1.89c0,.31.07,1.29.87,2.1.67.67,1.63,1.01,2.85,1.01h.02c2.59,0,3.51-1.59,3.51-2.94,0-2-2.03-2.7-3.24-3.11-1.51-.51-1.99-.86-1.99-1.41,0-.75.54-1.13,1.62-1.13h.01c.68,0,1.17.14,1.47.43.36.35.36.86.36.86h1.89c0-.31-.07-1.3-.88-2.1"/>
      </g>
      <path class="cls-5" d="m28.26,1.25c.12-.37.5-.62.9-.62.9,0,1.57.55,1.57,1,0,.32-.22.45-.28.94-.04.25-.07.71-.07,1.17.98.04,2.72-.32,2.85-.79.86.01,1.37.24,1.37.57,0,.3-.36.45-1.28.66-.69.16-1.58.25-2.13.25-.25,0-.57-.09-.83-.2,0,.69.05,1.4.08,2.09.03.44.15,1.16.21,1.82,1.07.24,4.24,1.27,4.24,2.5,0,.3-.22.5-.58.5-.24,0-.45-.12-.71-.37-.53-.57-1.64-1.32-2.87-1.71.03.26.04.53.04.75,0,1.1-.73,1.82-2.57,1.82-1.74,0-2.89-.83-2.89-1.91s1.36-1.83,3-1.83c.45,0,1,.05,1.4.12-.16-1.82-.29-3.34-.29-5.51,0-.92-.09-1.23-.86-1.23-.1,0-.21,0-.28.03l-.03-.04Zm1.5,7.49c-.42-.15-1.1-.28-1.6-.28-1.25,0-2.14.41-2.14,1.15s.78,1.14,2.05,1.14c1.19,0,1.72-.3,1.72-1.25,0-.22-.01-.43-.03-.75"/>
      <path class="cls-5" d="m41.57,2.07c.11-.15.29-.2.44-.2.91,0,1.66.74,1.66,1.4,0,.22-.12.38-.2.55-.2.57-.44,1.29-.44,2.98,0,1.44.8,2.55,1.21,2.55.18,0,.29-.13.63-.6.36-.47,1.11-1.7,1.7-2.73l.25.11c-1.27,2.78-1.58,3.48-1.58,3.75,0,.08.03.16.08.21.15.16.27.4.27.53,0,.29-.27.4-.61.4-.92,0-2.76-1.45-2.76-4.57,0-.5.13-2.83.13-3.15,0-.78-.34-1.12-.78-1.19v-.04Zm7.6.8c2.56.41,3.75,2.43,3.75,3.96,0,.58-.2,1.11-.66,1.11-.26,0-.5-.2-.52-.6-.08-1.91-.96-3.71-2.69-4.21l.12-.26Z"/>
      <path class="cls-5" d="m65.53,9.25c-.1.18-.25.26-.61.26h-2.15v2.48c-.01.07-.34.32-.87.32h-.19v-2.8h-2.5l-.08-.3h2.57v-1.62h-.95v.3s-.15.34-.98.34V3.21l1.04.46h.88v-1.54h-2.48l-.08-.3h2.56V0l1.6.15c-.01.19-.14.28-.54.33v1.35h1l.63-.85,1.19.88c-.09.19-.25.26-.61.26h-2.22v1.54h.87l.45-.58,1.24.88c-.08.11-.29.21-.54.25v3.51s-.29.34-1.02.34v-.49h-1v1.62h1.03l.59-.78,1.13.82Zm-1.76-5.29h-3.01v1.52h3.01v-1.52Zm-3.01,3.34h3.01v-1.53h-3.01v1.53ZM70.11.45l1.31.96c-.09.12-.33.24-.62.29v9.19c0,.78-.2,1.32-1.56,1.44,0-.88-.5-.99-1.47-1.07v-.19h1.73c.2,0,.27-.05.27-.2v-3.42h-2.76c-.2,1.85-.86,3.62-2.87,4.87l-.17-.14c1.84-1.74,2.11-4.01,2.11-6.56V.61l1.2.49h2.34l.49-.65Zm-3.02,5.16c0,.51-.01,1.04-.05,1.56h2.73v-2.77h-2.68v1.22Zm2.68-4.21h-2.68v2.71h2.68V1.4Z"/>
      <path class="cls-5" d="m82.76,10.97c3.53-.57,4.83-2.59,4.83-4.67,0-2.43-1.06-4.38-3.93-4.38-.29,0-.82.05-1.15.13.37.22.65.75.65,1.43,0,2.47-1.72,6.45-3.7,6.45-1.02,0-1.73-1.11-1.73-2.84,0-2.98,2.44-5.57,5.98-5.57,3.26,0,5.07,1.99,5.07,4.84,0,2.53-1.61,4.53-5.94,4.9l-.08-.29Zm-.62-8.83c-1.98.54-3.45,2.47-3.45,4.91,0,.99.29,1.73.8,1.73,1.39,0,2.88-3.56,2.88-5.78,0-.37-.12-.74-.24-.86"/>
      <path class="cls-5" d="m95.6,3.08c.24.34.51.51,1,.51.46,0,1.15-.09,1.56-.17.09-.46.2-1.11.2-1.49,0-.44-.07-.77-.48-.77-.17,0-.34,0-.53.07l-.05-.09c.15-.29.34-.59,1.04-.59.61,0,1.41.32,1.41.75,0,.26-.13.32-.25.53-.11.22-.24.73-.4,1.36,1.48-.44,1.89-.77,2.09-1.19h.12c.55.03,1.32.07,1.32.49,0,.36-.45.58-1.19.84-.81.29-1.8.56-2.52.71-.42,1.62-1.36,4.65-1.69,5.61-.44,1.41-.65,1.99-1.21,1.99-.28,0-.38-.2-.38-.79,0-.17.01-.37.03-.61.53-.71.88-1.48,1.12-2.1.34-.86.99-2.79,1.23-3.95-.52.09-.92.14-1.24.14-1.07,0-1.32-.79-1.32-1.17l.14-.09Zm5.73,4.53c-.24.4-.4.87-.4,1.29,0,1.41,1.62,1.41,2.53,1.41.45,0,.75-.01,1.08-.04.28-.03.5-.11.62-.11.42,0,.98.3.98.66,0,.45-.66.53-1.78.53-2.35,0-3.95-.36-3.95-2.06,0-.58.24-1.23.71-1.81l.2.12Zm.98-1.24c.49-.4,1.11-.84,1.57-1.15-.94-.05-1.91.11-2.9.62l-.15-.18c1.02-.92,2.32-1.29,3.56-1.29.84,0,1.47.36,1.47.73,0,.41-.38.34-.75.36-.75.03-1.65.46-2.61,1.08l-.18-.16Z"/>
      <path class="cls-5" d="m118.2.83c.17-.18.55-.32.75-.32,1.12,0,1.24.51,1.24.94,0,.21-.38,1.64-.54,2.15,2.8.17,4.08,2.01,4.08,4.01,0,2.28-1.72,3.75-5.97,4.07l-.09-.3c3.46-.5,4.88-1.99,4.88-3.81,0-1.93-.98-3.31-3.05-3.47-.5,1.58-1.39,3.29-2.15,4.29.24.21.51.57.51.8,0,.29-.21.42-.41.42-.16,0-.49-.17-.77-.44-.73.73-1.48,1.25-2.53,1.25-.78,0-1.47-.69-1.47-1.91,0-1.29.87-2.53,1.97-3.41-.07-.32-.13-.7-.19-1.02-.18-1.39-.3-1.97-1.06-2.1l-.03-.04c.15-.17.44-.25.74-.25.65,0,1.06.44,1.11.98.04.37.01.87.08,1.54.01.12.04.28.08.42.92-.53,2.09-.96,3.25-1.04.29-1.16.33-1.73.33-1.91,0-.49-.2-.73-.73-.73l-.05-.13Zm-2.09,7.68c-.59-.74-1.02-1.81-1.28-2.76-.82.75-1.27,1.73-1.27,2.61,0,.71.36,1.07.83,1.07.42,0,.99-.15,1.72-.92m-.62-3.3c.21.94.62,2.07,1.19,2.63.78-.98,1.5-2.44,1.86-3.75-1.21.07-2.27.54-3.05,1.12"/>
      <path class="cls-5" d="m133.37,6.43c-.66,1.49-1.27,3.05-1.28,3.51,0,.18.15.49.15.83,0,.46-.21.62-.41.62-.63,0-1.32-1.14-1.32-3.39,0-1.93.46-3.59.71-4.84.04-.19.05-.37.05-.55,0-.13-.01-.25-.01-.37-.03-.46-.38-.9-.65-.92v-.09c.08-.11.28-.13.45-.13.91,0,1.48.87,1.48,1.4,0,.4-.16.58-.26.8-.94,2.24-.94,3.75-.94,4.33,0,.69.07,1.15.16,1.36l.11-.03c.28-.42,1.07-1.82,1.5-2.64l.26.12Zm2.6-.25c-.62.67-1,1.37-1,2.02,0,1.04.78,1.43,2.52,1.43,1.07,0,1.9-.13,2.21-.25.76.13,1.07.41,1.07.75,0,.41-.62.5-2.88.5-2.4,0-3.59-.65-3.59-2.19,0-.87.62-1.73,1.43-2.45l.25.2Zm-1.43-3.33c.37.09.9.11,1.29.11.66,0,1.94-.22,2.57-.49.22-.09.5-.29.62-.29.62,0,1.19.25,1.19.62,0,.3-.46.42-.98.54-.94.2-2.15.34-2.81.34-.62,0-1.37-.08-1.95-.63l.07-.2Z"/>
      <path class="cls-5" d="m147.86,8.55c1.03,0,1.86.83,1.86,1.86s-.83,1.86-1.86,1.86-1.86-.83-1.86-1.86.86-1.86,1.86-1.86m1.45,1.86c0-.79-.65-1.45-1.45-1.45s-1.44.66-1.44,1.45.65,1.45,1.44,1.45c.83,0,1.45-.69,1.45-1.45"/>
    </g>
  </g>
</svg>