<?xml version="1.0" encoding="UTF-8"?>
<svg id="Layer_2" data-name="Layer 2" xmlns="http://www.w3.org/2000/svg" viewBox="0 0 437.77 409.38">
  <defs>
    <style>
      .cls-1 {
        fill: none;
        stroke: #000;
        stroke-linecap: round;
        stroke-linejoin: round;
        stroke-width: 1.65px;
      }

      .cls-2 {
        fill: #80c2ef;
      }

      .cls-3 {
        fill: #533b2b;
      }
    </style>
  </defs>
  <g id="_文字" data-name="文字">
    <g>
      <g>
        <g>
          <g>
            <path d="m163.51,19.45c-.95-.91-2.26-1.46-3.32-1.86l-1.82-.69c-1.64-.62-2.48-.84-3.06-1.38-.36-.33-.55-.76-.55-1.35,0-.62.26-1.16.62-1.53.66-.73,1.6-.84,2.37-.84.69,0,2.26.11,4.08,1.75l2.51-4.08c-2.84-2.11-5.54-2.4-7.21-2.4-2.26,0-4.3.47-6.01,2.22-1.46,1.5-2.11,3.32-2.11,5.47,0,1.16.18,2.88,1.46,4.23.95,1.02,2.26,1.53,3.39,1.93l2.01.69c.69.25,2.18.8,2.84,1.35.51.44.84.95.84,1.75,0,.91-.4,1.57-.87,1.97-.8.69-1.82.84-2.55.84-1.13,0-2.11-.29-3.06-.87-.65-.4-1.64-1.24-2.26-1.86l-2.92,4.01c.91.91,2.33,2.04,3.57,2.66,1.53.77,3.06,1.02,4.81,1.02,1.6,0,4.74-.22,6.89-2.48,1.28-1.31,2.15-3.5,2.15-6.01,0-1.42-.37-3.17-1.79-4.51Z"/>
            <rect x="138.44" y="7.61" width="5.61" height="24.3"/>
            <path d="m128.9,17.59l-1.82-.69c-1.64-.62-2.48-.84-3.06-1.38-.36-.33-.55-.76-.55-1.35,0-.62.26-1.16.62-1.53.66-.73,1.6-.84,2.37-.84.69,0,2.26.11,4.08,1.75l2.51-4.08c-2.84-2.11-5.54-2.4-7.21-2.4-2.26,0-4.3.47-6.01,2.22-1.46,1.5-2.11,3.32-2.11,5.47,0,1.16.18,2.88,1.46,4.23.95,1.02,2.26,1.53,3.39,1.93l2,.69c.69.25,2.19.8,2.85,1.35.51.44.84.95.84,1.75,0,.91-.4,1.57-.87,1.97-.8.69-1.82.84-2.55.84-1.13,0-2.11-.29-3.06-.87-.65-.4-1.64-1.24-2.26-1.86l-2.91,4.01c.91.91,2.33,2.04,3.57,2.66,1.53.77,3.06,1.02,4.81,1.02,1.6,0,4.74-.22,6.89-2.48,1.28-1.31,2.15-3.5,2.15-6.01,0-1.42-.37-3.17-1.79-4.51-.95-.91-2.26-1.46-3.32-1.86Z"/>
            <path d="m100.58,7.61l-9.8,24.3h5.83l1.86-4.59s7.87-1.86,9.09-.15c.04.05.06.1.09.15h0l1.82,4.59h5.83l-9.58-24.3h-5.14Zm-.36,15.1l2.91-7.85,2.73,7.46c-1.67-.17-4.04.12-5.64.39Z"/>
            <path d="m77.06,7.06c-4.85,0-7.87,1.93-9.51,3.57-2.18,2.19-3.75,5.72-3.75,9.22s1.46,6.85,3.79,9.04c1.82,1.75,4.92,3.57,9.48,3.57,4.08,0,7.14-1.38,9.4-3.57,2.62-2.55,3.79-5.87,3.79-9.11,0-3.75-1.49-6.96-3.79-9.18-2.44-2.37-5.61-3.53-9.4-3.53Zm5.32,18.15c-1.17,1.16-2.92,2.07-5.39,2.07-1.9,0-3.64-.51-5.21-2-1.49-1.46-2.22-3.24-2.22-5.46,0-2.7,1.09-4.48,2.15-5.5,1.31-1.31,3.21-2.08,5.32-2.08,2.22,0,4.15.91,5.36,2.08,1.09,1.09,2.11,2.95,2.11,5.46,0,2.81-1.17,4.52-2.11,5.43Z"/>
          </g>
          <g>
            <path class="cls-3" d="m52.16,13.41c-1.7-2.04-3.24-4.18-4.62-6.45-.15-.24-.31-.48-.49-.73-5.87-8.2-19.77-8.31-31.03-.25C4.76,14.04.39,27.23,6.26,35.43c.18.25.36.48.54.7,1.7,2.03,3.24,4.19,4.62,6.45.15.24.31.48.49.73,5.87,8.2,19.77,8.31,31.03.25,11.27-8.07,15.64-21.25,9.77-29.46-.18-.25-.36-.48-.54-.7Z"/>
            <path class="cls-2" d="m39.43,36.68c-2.15,3.61-5.6,4.69-9.88,5.38-3.7.71-7.69.83-11.13-2.41-2.94-2.87-5.2-5.66-6.15-8.79-1.06-3.7.38-9.51,2.03-11.92,2.04-3.34,5.59-3.84,9.84-4.67,4.16-.93,8.66.6,11.68,3.2,2.27,2,5.13,4.69,5.98,8.35.67,2.91-.08,7.1-2.37,10.87Z"/>
          </g>
          <g>
            <path d="m69.33,45.38c-.54.28-.98.33-1.35.33-1.13,0-1.89-.39-2.41-.89-.55-.53-.96-1.34-.96-2.32s.4-1.77.96-2.3c.54-.52,1.33-.88,2.29-.88.4,0,.87.08,1.47.34v1.63c-.31-.33-.78-.65-1.43-.65-.51,0-.93.17-1.25.48-.34.33-.58.83-.58,1.41,0,.63.26,1.08.53,1.35.13.13.57.51,1.32.51.37,0,.86-.1,1.4-.63v1.63Z"/>
            <path d="m75.85,40.2c.58.56.96,1.37.96,2.31,0,.82-.29,1.65-.96,2.3-.57.55-1.34.9-2.37.9-1.15,0-1.93-.46-2.39-.9-.59-.55-.96-1.38-.96-2.28s.39-1.77.95-2.32c.41-.41,1.18-.9,2.4-.9.96,0,1.75.29,2.37.89Zm-3.72.94c-.27.26-.54.71-.54,1.39,0,.56.18,1.01.56,1.38.39.38.84.51,1.31.51.62,0,1.07-.23,1.36-.52.24-.23.53-.66.53-1.37,0-.63-.26-1.1-.53-1.38-.3-.29-.79-.52-1.35-.52s-1.01.19-1.34.52Z"/>
            <path d="m81.22,40.64h-1.98v1.18h1.84v1.19h-1.84v2.55h-1.41v-6.13h3.4v1.19Z"/>
            <path d="m85.86,40.64h-1.98v1.18h1.84v1.19h-1.84v2.55h-1.41v-6.13h3.4v1.19Z"/>
            <path d="m90.48,40.64h-2.05v1.18h1.95v1.19h-1.95v1.36h2.05v1.19h-3.46v-6.13h3.46v1.19Z"/>
            <path d="m95.41,40.64h-2.05v1.18h1.95v1.19h-1.95v1.36h2.05v1.19h-3.46v-6.13h3.46v1.19Z"/>
            <path d="m101.01,45.58h-.83l-2.04-4.1h1.45l1.06,2.18,1.04-2.23h.7l1.04,2.23,1.06-2.18h1.45l-2.04,4.1h-.83l-1.03-2.33-1.03,2.33Z"/>
            <path d="m107.22,38.96c.43,0,.77.34.77.77s-.34.77-.77.77-.77-.34-.77-.77.34-.77.77-.77Zm.66,2.52v4.1h-1.32v-4.1h1.32Z"/>
            <path d="m110.85,42.55v3.03h-1.32v-3.03h-.46v-1.07h.46v-1.32h1.32v1.32h.82v1.07h-.82Z"/>
            <path d="m112.66,38.88h1.32v3.09c.17-.2.34-.34.5-.42.28-.15.5-.17.8-.17.32,0,.8.05,1.16.41.38.38.4.88.4,1.19v2.6h-1.32v-2.1c0-.28,0-.62-.22-.82-.12-.12-.32-.18-.51-.18-.28,0-.45.13-.52.2-.27.26-.28.65-.28.85v2.05h-1.32v-6.69Z"/>
            <path d="m123.02,40.95c-.46-.41-.85-.44-1.03-.44-.19,0-.43.03-.6.21-.09.09-.16.23-.16.39,0,.15.05.26.14.34.15.14.36.19.77.35l.46.17c.27.1.6.24.84.47.36.34.45.78.45,1.14,0,.63-.22,1.18-.54,1.51-.54.57-1.33.62-1.74.62-.44,0-.83-.06-1.21-.26-.31-.16-.67-.44-.9-.67l.73-1.01c.16.16.4.37.57.47.24.15.49.22.77.22.18,0,.44-.04.64-.21.12-.1.22-.27.22-.5,0-.2-.08-.33-.21-.44-.17-.14-.54-.28-.72-.34l-.5-.17c-.28-.1-.62-.23-.85-.49-.32-.34-.37-.77-.37-1.07,0-.54.17-1,.53-1.38.43-.44.95-.56,1.52-.56.42,0,1.1.07,1.82.61l-.63,1.03Z"/>
            <path d="m128.79,45.05c-.37.37-.99.66-1.79.66s-1.42-.29-1.79-.66c-.41-.41-.62-1-.62-1.52s.2-1.11.62-1.52c.37-.37.99-.66,1.79-.66s1.42.29,1.79.66c.41.41.62,1,.62,1.52s-.2,1.11-.62,1.52Zm-2.53-2.3c-.19.19-.3.44-.3.77,0,.38.15.62.3.77.17.17.4.29.75.29.29,0,.54-.1.73-.29.19-.19.3-.44.3-.77s-.11-.58-.3-.77c-.19-.19-.44-.29-.74-.29s-.55.1-.74.29Z"/>
            <path d="m130.31,41.48h1.32v.48c.34-.51.84-.58,1.15-.58.17,0,.5.02.77.18.21.12.39.32.5.57.1-.17.26-.36.52-.52.28-.17.55-.23.87-.23.5,0,.9.15,1.15.39.39.38.42.93.42,1.22v2.59h-1.32v-2.08c0-.21,0-.58-.17-.8-.11-.14-.28-.22-.48-.22-.22,0-.4.1-.51.25-.17.22-.2.54-.2.81v2.04h-1.32v-2.13c0-.28,0-.6-.21-.8-.14-.14-.3-.17-.44-.17-.17,0-.33.05-.46.17-.25.24-.26.7-.26.84v2.09h-1.32v-4.1Z"/>
            <path d="m142.3,43.76h-3.06c0,.22.08.51.25.7.2.22.48.26.68.26s.39-.04.53-.12c.02,0,.17-.11.28-.34l1.25.13c-.18.58-.55.88-.79,1.03-.39.24-.84.3-1.29.3-.62,0-1.16-.11-1.63-.59-.36-.36-.62-.9-.62-1.58,0-.59.21-1.19.62-1.62.5-.5,1.11-.59,1.57-.59s1.12.08,1.63.62c.49.51.58,1.16.58,1.66v.14Zm-1.22-.79s-.07-.29-.27-.48c-.15-.14-.36-.23-.62-.23-.34,0-.54.14-.67.27-.1.11-.19.26-.23.44h1.79Z"/>
            <path d="m144.87,42.55v3.03h-1.32v-3.03h-.46v-1.07h.46v-1.32h1.32v1.32h.82v1.07h-.82Z"/>
            <path d="m146.52,38.88h1.32v3.09c.17-.2.34-.34.5-.42.28-.15.5-.17.8-.17.32,0,.8.05,1.16.41.38.38.4.88.4,1.19v2.6h-1.32v-2.1c0-.28,0-.62-.22-.82-.12-.12-.32-.18-.51-.18-.28,0-.45.13-.52.2-.27.26-.28.65-.28.85v2.05h-1.32v-6.69Z"/>
            <path d="m152.46,38.96c.43,0,.77.34.77.77s-.34.77-.77.77-.77-.34-.77-.77.34-.77.77-.77Zm.66,2.52v4.1h-1.32v-4.1h1.32Z"/>
            <path d="m154.32,41.48h1.32v.49c.4-.51.88-.6,1.27-.6.36,0,.83.06,1.18.41.39.39.41.87.41,1.2v2.59h-1.32v-2.1c0-.27,0-.61-.22-.82-.1-.1-.27-.18-.5-.18-.28,0-.45.11-.55.22-.22.22-.26.51-.26.78v2.1h-1.32v-4.1Z"/>
            <path d="m162.75,41.48h1.32v3.85c0,.58-.03,1.23-.51,1.74-.51.54-1.28.61-1.73.61-.54,0-1.19-.08-1.71-.52-.26-.22-.52-.57-.62-1.08h1.44c.06.21.18.33.29.4.16.1.38.14.57.14.38,0,.57-.14.66-.22.26-.25.27-.68.27-.85v-.47c-.16.26-.47.62-1.22.62-.63,0-1.12-.2-1.5-.58-.33-.34-.6-.84-.6-1.54s.26-1.28.61-1.63c.25-.26.73-.59,1.49-.59s1.07.4,1.22.62v-.48Zm-1.64,1.28c-.2.19-.31.51-.31.76,0,.27.1.54.28.73s.43.29.74.29c.35,0,.58-.14.72-.27.2-.19.32-.48.32-.78,0-.32-.14-.59-.31-.75-.19-.17-.48-.26-.72-.26-.29,0-.56.11-.73.27Z"/>
            <path d="m165.39,44.52h1.34v1.34h-1.34v-1.34Z"/>
          </g>
        </g>
        <g>
          <path d="m272.28,3.63c0-.32-.27-.58-.59-.58h-6.08c-.31,0-.58.26-.58.58h0v11.04h-12.39c-.33,0-.59.26-.59.56v19.08h0c.01.32.26.56.59.56h19.04c.32,0,.58-.27.58-.56l.02-30.68h-.02.02Zm-7.25,23.44c0,.32-.32.58-.71.58h-4.33c-.39,0-.71-.27-.71-.58v-4.6c0-.32.32-.56.7-.56h4.34c.39,0,.71.24.71.56v4.6Z"/>
          <path d="m295.34,14.67h-19.05c-.32,0-.58.26-.58.56v19.08c0,.3.26.56.58.56h19.05c.28,0,.52-.21.57-.47V15.23c0-.3-.27-.56-.57-.56Zm-6.64,12.4c0,.32-.32.58-.72.58h-4.32c-.4,0-.73-.27-.73-.58v-4.6c0-.32.33-.56.71-.56h4.34c.4,0,.72.24.72.56v4.6Z"/>
          <path d="m345.76,14.67h-27.9c-.31,0-.58.26-.58.56v19.08c-.01.3.25.56.57.56h6.06c.32,0,.58-.27.58-.56v-11.84c0-.32.24-.56.55-.56h2.56c.3,0,.57.22.57.54v11.86c0,.3.27.56.58.56h6.07c.32-.02.56-.27.56-.56v-11.82c.02-.3.24-.58.54-.58h2.57c.33,0,.58.3.58.6v11.8c0,.3.25.56.57.56h6.08c.31,0,.56-.27.56-.56V15.23c0-.3-.25-.56-.56-.56Z"/>
          <path d="m412.55,34.31V15.23c0-.3-.27-.56-.58-.56h-16.99c-.31,0-.57.26-.57.56v19.08c0,.3.26.56.57.56h6.07c.33,0,.59-.27.59-.56v-11.87c0-.32.26-.54.56-.54h2.59c.32,0,.52.24.53.56v11.86c0,.3.25.54.56.56h6.08c.32,0,.58-.27.58-.56h0Z"/>
          <path d="m434.12,34.31V15.23c0-.3-.26-.56-.56-.56h-16.98c-.33,0-.58.26-.58.56v19.08c0,.3.26.56.58.56h6.06c.31,0,.59-.27.59-.56v-11.87c0-.32.25-.54.55-.54h2.57c.32,0,.54.24.54.56v11.86c0,.3.28.54.58.56h6.08c.3,0,.56-.27.56-.56h0Z"/>
          <path d="m390.39,14.67h-6.09c-.31,0-.58.26-.58.56v19.08h0c0,.21.13.41.33.5.01,0,.02,0,.03.02h.02c.07.01.13.04.2.04h6.1c.25,0,.49-.19.55-.41V15.23c0-.3-.26-.56-.57-.56Z"/>
          <path d="m370.04,15.23h0c-.03-.32-.28-.56-.58-.56h-6.08c-.29,0-.56.26-.56.56v11.84c0,.32-.32.58-.72.58h-4.39c-.4,0-.7-.27-.7-.58v-11.84c0-.3-.25-.56-.57-.56h-6.08c-.31,0-.58.26-.58.56v19.08c0,.3.27.56.58.56h12.02c.25.04.44.28.44.56v3.46c-.07.25-.3.43-.56.43h-11.9c-.31,0-.58.26-.58.58,0,.02.02.04.02.06h0l-.02,5.94c0,.32.27.57.58.57h19.1c.32,0,.58-.24.58-.57V15.23Z"/>
          <path d="m313.26,14.67h-13.3c-.32,0-.58.26-.58.56v19.08c0,.3.26.56.58.56h6.08c.29,0,.58-.27.58-.56v-11.95c.03-.26.22-.45.51-.45h6.12c.32,0,.56-.28.56-.6v-6.08c0-.3-.24-.56-.56-.56Z"/>
        </g>
        <g>
          <line class="cls-1" x1="229.46" y1="4.71" x2="189.33" y2="44.83"/>
          <line class="cls-1" x1="229.46" y1="44.83" x2="189.33" y2="4.71"/>
        </g>
      </g>
      <g>
        <g>
          <rect x="44.8" y="138.34" width="114.85" height="6.33"/>
          <path d="m169.45,248.01h6.33v-68.13c8.06-7.03,14.5-16.34,19.8-25.17l-9.27-4.81c-3.58,7.88-7.79,15.49-13.16,22.07-5.34,6.54-12.04,12.09-20.13,14.23l.92,4.6c5.7-.97,10.83-3.17,15.5-6.18v63.37Z"/>
          <path d="m176.65,120.31c-1.36,8.49-3.41,16.89-6.9,24.61-3.44,7.61-8.54,14.72-15.98,18.76l1.54,3.17c9.75-4.5,16.34-12.75,21.02-22.18h59.9v-6.33h-57.09c2.16-5.45,3.82-11.1,5.19-16.49l-7.68-1.54Z"/>
          <path d="m256.93,245.57l.94-3.96c-7.88-2.22-15.49-5.27-22.34-9.52-13.35-7.98-22.42-20.62-27.76-34.85,15.34-5.77,28.83-16.26,36.29-31.39l-7.06-3.34c-5.73,13.97-17.23,24.11-30.74,30.32-2.2-6.98-3.55-14.26-4.1-21.49l-8.99.99c1.1,7.96,2.95,15.85,5.74,23.44-2.69.92-5.42,1.7-8.17,2.33l.71,3.44c3.02-.47,6.02-1.13,8.98-1.93,9.96,24.5,30.69,40.6,56.52,45.96"/>
          <path d="m111.09,123.18c17.27-.48,34.41-5.48,50-13.27l-5.16-9.08c-13.59,8.84-28.91,15.33-45.23,17.67l.4,4.68Z"/>
          <path d="m117.01,167.25c.49-4.22.7-8.63.62-13.23l-9.79.15c2.56,45.58-28.45,70.68-68.52,84.2-12.76,4.36-25.96,7.61-39.32,10.1l.73,4.34c13.59-2.08,27.11-4.93,40.37-8.98,37.86-11.38,67.82-32.95,74.92-70.25h27.51c-1.45,33.02-6.89,57.87-27.77,71.8l3.51,5.27c14.71-9.81,28.61-26.13,30.66-78.69v-4.71h-32.92Z"/>
          <path d="m433.13,254.88c-9.52-7.89-22.26-8.68-33.8-9.19-15.73-.09-31.38,2.08-46.4,6.62l47.21-35.37v-6.44h-53.06v6.53h39.94l-54.78,42.63,3.7,6.11c12.96-6.26,27.22-10.12,41.6-12.22,14.06-1.9,29.16-2.59,42.73,1.49,11.16,3.5,15.47,10.22,6,19.17-9.37,8.36-21.12,13.5-33.26,17.12-17.3-11.22-39.8-17.23-58.8-18.49-7.04-.28-14.7-.06-21.35,2.9-9.41,3.76-11.97,15.25-2.71,20.92,19.42,11.27,59.04,8.83,84.26.73,4.25,2.88,8.18,6.18,11.62,10.01,0,0,2.86-2.35,2.86-2.35-2.81-3.34-6.07-6.38-9.61-9.19,11.42-3.77,22.3-9.03,31.34-17.13,6.86-6.07,10.71-16.69,2.51-23.81m-55.8,40.35s-24.27,5.06-51.58.5c-.38-.06-.76-.14-1.14-.24-4.76-1.17-10.56-2.44-13.31-6.16-.57-.78-.96-1.74-.86-2.7.23-2.39,2.47-4.47,4.94-5.48,5.79-2.55,12.22-2.7,18.6-2.62,8.75.27,17.55,1.78,26.12,4.04,9.13,2.53,18.47,5.8,26.99,10.36-3.26.84-6.53,1.6-9.77,2.29"/>
          <path d="m369.23,138.34h-41.21c-1.04-8.48-2.6-16.9-5.67-24.92l-7.6,3.46c1.01,2.45,1.94,5.26,2.61,8.21.94,4.36,1.78,8.79,2.5,13.24h-69.31v6.33h70.22c1.09,8.39,1.63,16.87,1.43,25.28-1.18-.92-2.47-1.74-3.87-2.46-14.75-7.3-37.73-4.06-45.97,11.43-5.73,10.24-2.55,23.46,8.36,28.65,16.02,7.13,39.5-2.24,46.34-18.51.24,1.44.42,2.93.46,4.53.47,6-.9,11.46-3.81,16.65-9.52,15.67-26.83,25.04-43.76,31.26l1.43,4.18c21.2-7.47,48.76-22.42,51.47-47.32.53-6.78-.51-13.78-3.51-19.66,1.04-8.93.54-18.02.04-26.91-.21-2.36-.44-4.73-.67-7.11h40.51v-6.33Zm-47.83,43.66c-2.2,15.11-23.9,25.15-37.71,19.5-7.55-3.44-9.61-12.31-5.68-19.61,2.46-4.87,7.19-8.52,12.37-10.1,12.03-3.96,24.42-2.22,31.42,5.74-.12,1.49-.22,2.99-.4,4.47"/>
        </g>
        <g>
          <path d="m44.99,315.8v-45.33h5.69v40.44h19.85v4.89h-25.54Z"/>
          <path d="m101.76,316.61c-2.31,0-4.45-.33-6.43-.99-1.98-.66-3.7-1.75-5.16-3.28-1.46-1.52-2.61-3.54-3.43-6.06-.83-2.51-1.24-5.57-1.24-9.15v-26.65h5.69v26.78c0,3.63.47,6.48,1.42,8.56.95,2.08,2.22,3.57,3.8,4.45,1.59.89,3.37,1.33,5.35,1.33s3.83-.44,5.44-1.33c1.61-.89,2.9-2.37,3.87-4.45.97-2.08,1.45-4.94,1.45-8.56v-26.78h5.5v26.65c0,3.59-.4,6.64-1.21,9.15-.8,2.52-1.95,4.54-3.43,6.06-1.48,1.53-3.22,2.62-5.19,3.28-1.98.66-4.12.99-6.43.99Z"/>
          <path d="m137.38,315.8v-45.33h5.81l16.57,28.57,4.88,9.34h.31c-.21-2.27-.39-4.64-.56-7.11-.17-2.47-.25-4.89-.25-7.24v-23.56h5.44v45.33h-5.87l-16.51-28.63-4.88-9.28h-.25c.12,2.27.27,4.59.43,6.96.16,2.37.25,4.75.25,7.14v23.81h-5.38Z"/>
          <path d="m206.27,316.61c-2.8,0-5.41-.53-7.82-1.58-2.41-1.05-4.5-2.59-6.28-4.61-1.77-2.02-3.15-4.48-4.14-7.39-.99-2.91-1.48-6.19-1.48-9.86s.5-6.96,1.51-9.86c1.01-2.91,2.42-5.37,4.24-7.39,1.81-2.02,3.94-3.57,6.37-4.64,2.43-1.07,5.09-1.61,7.98-1.61s5.19.57,7.3,1.7c2.1,1.13,3.81,2.42,5.13,3.86l-3.09,3.71c-1.2-1.28-2.56-2.31-4.08-3.09-1.53-.78-3.26-1.17-5.2-1.17-2.84,0-5.34.74-7.48,2.23-2.14,1.48-3.81,3.6-5.01,6.34-1.2,2.74-1.79,5.99-1.79,9.74s.58,7.14,1.73,9.93c1.15,2.78,2.78,4.93,4.88,6.43,2.1,1.51,4.6,2.26,7.48,2.26,2.14,0,4.07-.45,5.78-1.36,1.71-.91,3.29-2.16,4.73-3.77l3.15,3.65c-1.77,2.06-3.79,3.66-6.06,4.79-2.27,1.13-4.88,1.7-7.85,1.7Z"/>
          <path d="m235.76,315.8v-45.33h5.69v18.98h21.15v-18.98h5.75v45.33h-5.75v-21.4h-21.15v21.4h-5.69Z"/>
        </g>
      </g>
      <g>
        <path d="m47.4,385.8h2.76v5.85c0,1.82-.1,3.74-.31,5.77-.21,2.03-.65,4.06-1.32,6.1-.67,2.04-1.69,3.99-3.08,5.85-.29-.33-.65-.66-1.1-1-.45-.34-.86-.63-1.23-.87.94-1.29,1.7-2.63,2.27-4,.57-1.37,1-2.75,1.28-4.13.29-1.38.48-2.73.58-4.04s.15-2.55.15-3.72v-5.82Zm-3.65-1.84h13.55v2.89h-13.55v-2.89Zm9.67,6.71h2.83v1.32c-.04,2.72-.09,5.03-.15,6.92-.06,1.9-.13,3.45-.23,4.67-.1,1.22-.21,2.17-.35,2.84-.13.68-.3,1.16-.49,1.45-.29.42-.59.71-.9.87-.32.16-.7.28-1.13.35-.4.04-.91.07-1.53.08-.62.01-1.27,0-1.92-.02-.02-.42-.1-.89-.25-1.41s-.32-.99-.54-1.38c.61.07,1.17.1,1.66.11.49.01.87.02,1.13.02.22,0,.41-.03.56-.08.15-.05.29-.18.39-.38.15-.2.27-.59.36-1.18.09-.59.16-1.45.23-2.58.07-1.13.12-2.59.18-4.39.05-1.8.1-4,.15-6.61v-.59Zm-4.6,0h5.66v2.83h-5.66v-2.83Zm.36-11.87h2.99v6.15h-2.99v-6.15Zm11.54-.07l3.06.62c-.57,2.26-1.36,4.39-2.37,6.38-1.01,2-2.15,3.67-3.42,5.03-.18-.2-.42-.42-.72-.67-.31-.25-.62-.49-.95-.72-.33-.23-.61-.42-.86-.58,1.23-1.18,2.29-2.66,3.19-4.44.9-1.78,1.59-3.65,2.07-5.62Zm9.57,7.76l2.24,1.64c-.81.66-1.78,1.3-2.91,1.94-1.13.64-2.33,1.25-3.6,1.84-1.27.59-2.55,1.13-3.85,1.63-1.29.49-2.52.92-3.68,1.27-.2-.42-.48-.87-.84-1.36-.36-.49-.71-.9-1.04-1.23,1.16-.26,2.38-.6,3.67-1,1.28-.41,2.55-.87,3.8-1.38,1.25-.51,2.41-1.06,3.49-1.63,1.07-.57,1.98-1.14,2.73-1.71Zm-10.52,5.89h2.96v16.9h-2.96v-16.9Zm.66-9.41h13.12v2.83h-13.12v-2.83Zm6.48,7.63c.35,2.32.84,4.53,1.46,6.63.62,2.09,1.44,3.95,2.43,5.56s2.22,2.89,3.67,3.83c-.22.18-.47.41-.76.71s-.54.61-.77.95c-.23.34-.43.64-.61.9-1.58-1.14-2.9-2.61-3.96-4.42-1.06-1.81-1.92-3.88-2.58-6.22-.66-2.33-1.18-4.85-1.58-7.55l2.7-.39Zm5.2,1.61l2.2,1.94c-.9.9-1.91,1.8-3.04,2.7-1.13.9-2.15,1.66-3.08,2.27l-1.84-1.78c.59-.44,1.24-.95,1.94-1.53.7-.58,1.39-1.19,2.07-1.83.68-.64,1.26-1.23,1.74-1.78Z"/>
        <path d="m80.25,384.65c.94-.02,2-.04,3.17-.07,1.17-.02,2.42-.05,3.73-.08,1.32-.03,2.62-.07,3.93-.1,1.3-.03,2.55-.05,3.73-.07,1.18-.01,2.24-.02,3.16-.02h9.9l-.07,3.09c-.94-.04-2.22-.08-3.83-.12-1.61-.03-3.63-.05-6.07-.05-1.45,0-2.94.01-4.47.03-1.54.02-3.08.06-4.62.11-1.54.05-3.04.12-4.47.18-1.44.07-2.77.14-4,.23l-.1-3.16Zm17.5,9.6c0,1.62-.21,2.97-.64,4.03-.43,1.06-1.04,1.86-1.83,2.4-.79.54-1.74.81-2.86.81-.68,0-1.34-.12-1.99-.36-.65-.24-1.24-.61-1.78-1.1-.54-.49-.96-1.1-1.28-1.81-.32-.71-.48-1.53-.48-2.45,0-1.16.28-2.19.84-3.07.56-.89,1.3-1.58,2.24-2.09.93-.5,1.95-.76,3.04-.76,1.36,0,2.49.31,3.4.92.91.61,1.59,1.44,2.06,2.48.46,1.04.69,2.22.69,3.54,0,1.07-.17,2.19-.49,3.34-.33,1.15-.88,2.26-1.64,3.34-.77,1.07-1.8,2.06-3.11,2.94-1.3.89-2.93,1.62-4.88,2.19l-2.79-2.76c1.47-.31,2.79-.72,3.98-1.23,1.18-.51,2.2-1.15,3.06-1.91.86-.76,1.52-1.66,1.99-2.7.47-1.04.71-2.25.71-3.63s-.29-2.27-.87-2.86c-.58-.59-1.29-.89-2.12-.89-.5,0-.99.12-1.45.36-.46.24-.83.59-1.12,1.05s-.43,1.02-.43,1.68c0,.92.3,1.64.9,2.15.6.52,1.3.77,2.09.77.64,0,1.18-.18,1.63-.54s.76-.93.94-1.71c.17-.78.13-1.77-.13-2.98l2.33.85Zm.49-13.98c-.02.13-.05.36-.08.69-.03.33-.06.66-.08.99-.02.33-.03.57-.03.72-.02.42-.04.99-.05,1.73-.01.73-.02,1.54-.02,2.42s0,1.76.02,2.65.02,1.72.03,2.5c.01.78.02,1.43.02,1.96l-3.19-1.32v-1.5c0-.65,0-1.38-.02-2.2-.01-.82-.02-1.64-.03-2.45-.01-.81-.02-1.56-.03-2.24-.01-.68-.03-1.19-.05-1.55-.04-.53-.09-1.02-.15-1.48-.05-.46-.09-.77-.12-.92h3.78Z"/>
        <path d="m118.56,381.92c.42.04.86.08,1.33.1.47.02.9.03,1.3.03.33,0,.86,0,1.59-.02.73-.01,1.57-.03,2.5-.05.93-.02,1.86-.05,2.78-.08.92-.03,1.75-.07,2.48-.12.73-.04,1.28-.08,1.63-.1.59-.04,1.05-.09,1.37-.13.32-.04.56-.1.74-.16l1.81,2.37c-.33.22-.67.44-1.02.66-.35.22-.7.47-1.05.76-.42.31-.96.73-1.63,1.27-.67.54-1.39,1.13-2.15,1.78-.77.65-1.52,1.28-2.27,1.89-.75.61-1.41,1.16-2.01,1.64.66-.22,1.32-.37,1.97-.44.66-.08,1.32-.11,1.97-.11,1.82,0,3.45.35,4.9,1.05,1.45.7,2.59,1.64,3.42,2.83s1.25,2.55,1.25,4.11c0,1.73-.46,3.28-1.36,4.64-.91,1.36-2.23,2.42-3.95,3.19-1.72.77-3.81,1.15-6.26,1.15-1.51,0-2.84-.21-3.98-.62-1.14-.42-2.02-1-2.65-1.76s-.94-1.63-.94-2.61c0-.81.22-1.57.67-2.29.45-.71,1.08-1.28,1.91-1.71s1.77-.64,2.84-.64c1.49,0,2.73.3,3.73.9,1,.6,1.76,1.4,2.3,2.38s.83,2.06.87,3.22l-2.99.43c-.07-1.32-.44-2.39-1.13-3.22-.69-.83-1.62-1.25-2.78-1.25-.7,0-1.28.19-1.73.56-.45.37-.67.81-.67,1.32,0,.72.37,1.29,1.1,1.71.73.42,1.68.62,2.84.62,1.86,0,3.45-.24,4.77-.71,1.32-.47,2.31-1.16,2.99-2.07.68-.91,1.02-2.01,1.02-3.3,0-1.03-.31-1.95-.92-2.76-.61-.81-1.46-1.44-2.53-1.89-1.07-.45-2.3-.67-3.68-.67s-2.52.15-3.6.44c-1.08.3-2.1.72-3.04,1.28-.94.56-1.87,1.25-2.78,2.07-.91.82-1.85,1.76-2.81,2.81l-2.4-2.43c.66-.53,1.38-1.12,2.17-1.78.79-.66,1.58-1.32,2.38-1.99.8-.67,1.56-1.3,2.27-1.91.71-.6,1.31-1.1,1.79-1.5.46-.37,1.02-.83,1.68-1.36.66-.54,1.34-1.1,2.04-1.69.7-.59,1.37-1.16,2.01-1.69.64-.54,1.16-.99,1.58-1.36-.35.02-.83.04-1.45.07-.61.02-1.29.05-2.02.08-.74.03-1.47.07-2.22.1-.75.03-1.43.07-2.04.1-.61.03-1.08.06-1.41.08-.39.02-.81.05-1.23.08-.43.03-.83.07-1.2.12l-.1-3.39Z"/>
        <path d="m172.66,390.76c-.11.18-.21.37-.31.59-.1.22-.17.41-.21.56-.46,1.6-1.07,3.2-1.84,4.8-.77,1.6-1.77,3.07-2.99,4.41-1.69,1.89-3.55,3.38-5.57,4.47-2.03,1.1-4.09,1.94-6.2,2.53l-2.57-2.96c2.39-.5,4.57-1.27,6.54-2.29,1.97-1.02,3.63-2.23,4.97-3.63.94-.99,1.72-2.06,2.32-3.22.6-1.16,1.05-2.28,1.33-3.35h-16.74c-.39,0-.92.01-1.56.03-.65.02-1.29.05-1.92.1v-3.42c.66.07,1.28.12,1.88.16.59.04,1.13.07,1.61.07h16.84c.46,0,.87-.03,1.23-.08.36-.05.65-.13.87-.21l2.33,1.45Zm-21.77-9.04c.44.04.94.08,1.5.11.56.03,1.11.05,1.66.05h12.79c.53,0,1.09-.02,1.69-.05.6-.03,1.11-.07,1.53-.11v3.39c-.42-.04-.92-.07-1.51-.08-.59-.01-1.17-.02-1.74-.02h-12.76c-.53,0-1.07,0-1.63.02-.56.01-1.07.04-1.53.08v-3.39Z"/>
        <path d="m180.45,404.02c1.84-.28,3.54-.66,5.1-1.13,1.56-.47,2.99-1.01,4.29-1.61,1.3-.6,2.48-1.22,3.54-1.86,1.75-1.07,3.37-2.31,4.85-3.72,1.48-1.4,2.78-2.85,3.9-4.34,1.12-1.49,2.01-2.94,2.66-4.34l2.01,3.58c-.79,1.43-1.76,2.85-2.91,4.28-1.15,1.43-2.45,2.79-3.9,4.09-1.45,1.3-3.03,2.48-4.74,3.54-1.1.68-2.3,1.34-3.6,1.97-1.3.64-2.71,1.21-4.21,1.71-1.5.5-3.1.91-4.79,1.22l-2.2-3.39Zm3.39-22c.59.39,1.27.88,2.04,1.46.77.58,1.55,1.2,2.35,1.86.8.66,1.56,1.29,2.29,1.91.72.61,1.3,1.16,1.74,1.64l-2.6,2.66c-.42-.44-.97-.97-1.64-1.59-.68-.62-1.41-1.27-2.19-1.94-.78-.67-1.55-1.3-2.32-1.91-.77-.6-1.46-1.11-2.07-1.53l2.4-2.57Z"/>
        <path d="m212.61,391.16c.39.04.85.08,1.38.12.53.03,1.05.05,1.58.05h21.74c.24,0,.53,0,.87-.02.34-.01.68-.03,1.02-.05.34-.02.63-.04.87-.07v3.35c-.39-.04-.83-.07-1.32-.08-.48-.01-.94-.02-1.38-.02h-21.77c-.5,0-1.03,0-1.56.02-.54.01-1.01.04-1.43.08v-3.39Zm2.5-7.83c.85.02,1.92.02,3.21,0,1.28-.02,2.63-.07,4.04-.15,1.41-.08,2.71-.2,3.9-.38.77-.11,1.56-.24,2.38-.38.82-.14,1.61-.3,2.37-.46.76-.16,1.45-.34,2.07-.53.62-.19,1.15-.38,1.56-.58l2.14,2.89c-.44.11-.84.21-1.2.3-.36.09-.67.16-.94.23-.66.18-1.39.35-2.2.51-.81.16-1.67.32-2.56.48-.9.15-1.78.3-2.63.43-1.23.15-2.53.27-3.91.36-1.38.09-2.71.15-4,.2-1.28.04-2.42.08-3.4.1l-.82-3.03Zm1.68,22.53c1.89-.88,3.45-1.94,4.69-3.19,1.24-1.25,2.17-2.72,2.78-4.41.61-1.69.92-3.62.92-5.79v-7.14l3.39-.43v7.53c0,2.26-.27,4.35-.82,6.26-.55,1.92-1.44,3.66-2.68,5.21-1.24,1.56-2.91,2.95-5.01,4.18l-3.26-2.24Z"/>
        <path d="m271.05,384.65c-.11.26-.21.56-.31.9-.1.34-.19.67-.28,1-.18.83-.41,1.77-.69,2.8-.29,1.03-.63,2.09-1.04,3.19-.41,1.1-.87,2.17-1.4,3.21-.53,1.04-1.12,2-1.78,2.88-1.01,1.29-2.14,2.5-3.4,3.62-1.26,1.12-2.69,2.12-4.29,3.01-1.6.89-3.4,1.65-5.39,2.29l-2.83-3.09c2.17-.53,4.04-1.18,5.62-1.96,1.58-.78,2.95-1.67,4.13-2.66,1.17-1,2.21-2.07,3.11-3.21.77-.96,1.42-2.04,1.97-3.22.55-1.18,1.01-2.37,1.38-3.57.37-1.19.62-2.3.76-3.3h-16.15c-.7,0-1.37.01-1.99.03-.62.02-1.15.06-1.56.1v-3.68c.31.04.67.08,1.08.12.42.03.84.07,1.28.1s.83.05,1.18.05h15.95c.28,0,.62-.02,1-.05.38-.03.75-.09,1.1-.18l2.53,1.64Z"/>
        <path d="m277.99,403.59c.39.04.82.08,1.27.11.45.03.86.05,1.23.05h18.19c.44,0,.86-.02,1.25-.05.39-.03.76-.07,1.08-.11v3.45c-.33-.07-.73-.1-1.2-.11-.47-.01-.85-.02-1.13-.02h-18.19c-.37,0-.78,0-1.22.02-.44.01-.87.05-1.28.11v-3.45Zm1.64-14.44c.35.04.76.08,1.23.11s.86.05,1.17.05h15.13c.39,0,.81-.02,1.23-.05s.82-.07,1.17-.11v3.29c-.37-.04-.77-.07-1.2-.08-.43-.01-.83-.02-1.2-.02h-15.13c-.29,0-.67,0-1.15.02-.48.01-.9.04-1.25.08v-3.29Zm8.06,16.38v-14.54h3.39v14.54h-3.39Z"/>
        <path d="m336.56,384.28c-.15.18-.33.4-.54.67-.21.27-.39.51-.54.71-.46.81-1.1,1.76-1.92,2.86-.82,1.1-1.75,2.2-2.79,3.3-1.04,1.11-2.15,2.08-3.34,2.91l-2.73-2.2c.72-.42,1.43-.92,2.12-1.5.69-.58,1.34-1.19,1.94-1.83.6-.64,1.13-1.25,1.59-1.86.46-.6.81-1.15,1.05-1.63h-18.02c-.66,0-1.29.02-1.91.05-.61.03-1.27.08-1.97.15v-3.65c.61.07,1.25.13,1.91.2.66.07,1.32.1,1.97.1h18.38c.24,0,.54,0,.9-.02.36-.01.71-.04,1.05-.08.34-.04.6-.09.77-.13l2.07,1.94Zm-13.29,4.37c0,1.71-.04,3.33-.13,4.87-.09,1.53-.29,2.99-.61,4.36-.32,1.37-.81,2.65-1.46,3.85-.66,1.2-1.55,2.32-2.66,3.37s-2.54,2.02-4.28,2.89l-3.03-2.47c.48-.15,1-.37,1.56-.64.56-.27,1.09-.6,1.59-.97,1.18-.77,2.14-1.6,2.86-2.5.72-.9,1.27-1.87,1.63-2.91.36-1.04.61-2.16.76-3.37.14-1.21.21-2.49.21-3.85,0-.44-.01-.87-.03-1.28-.02-.42-.08-.87-.16-1.35h3.75Z"/>
        <path d="m343.92,380.11h3.06v29.2h-3.06v-29.2Zm1.58,4.51h8.81v2.14h-8.81v-2.14Zm.3-4.51h10.46v11.35h-10.46v-2.3h7.53v-6.77h-7.53v-2.27Zm3.16,18.84h17.33v2.6h-17.33v-2.6Zm3.88-4.7h2.66v6.12c0,.53-.06,1.16-.18,1.91-.12.75-.35,1.54-.67,2.38-.33.84-.78,1.66-1.35,2.45-.57.79-1.32,1.49-2.24,2.1-.22-.29-.53-.61-.92-.97-.39-.36-.76-.65-1.08-.87,1.03-.64,1.81-1.39,2.35-2.25.54-.87.91-1.73,1.12-2.58.21-.86.31-1.58.31-2.17v-6.12Zm-3.32-.89h16.15v2.5h-16.15v-2.5Zm20.42-13.25v2.27h-8.12v6.84h8.12v2.27h-11.08v-11.38h11.08Zm-10.52,14.01h2.8v14.57h-2.8v-14.57Zm1.32-9.5h8.85v2.14h-8.85v-2.14Zm7.63-4.51h3.09v25.39c0,.83-.1,1.5-.31,1.99-.21.49-.58.87-1.1,1.13-.55.26-1.25.43-2.1.49-.86.07-1.92.1-3.19.1-.02-.29-.08-.61-.18-.99-.1-.37-.21-.75-.33-1.13-.12-.38-.26-.71-.41-.97.83.02,1.62.03,2.37.03h1.51c.24-.02.41-.08.51-.18.1-.1.15-.27.15-.51v-25.35Z"/>
        <path d="m386.12,378.89l2.96.89c-.72,1.86-1.57,3.72-2.53,5.56-.96,1.84-2.01,3.57-3.12,5.2-1.12,1.62-2.27,3.06-3.45,4.31-.11-.26-.26-.59-.46-.99-.2-.39-.41-.8-.64-1.22-.23-.42-.43-.73-.61-.95,1.05-1.05,2.07-2.26,3.04-3.62.97-1.36,1.88-2.83,2.71-4.41.83-1.58,1.53-3.17,2.1-4.77Zm-3.29,8.71l2.93-2.93.03.03v24.53h-2.96v-21.64Zm9.47-.69l2.99.85c-.55,1.25-1.2,2.48-1.94,3.7s-1.54,2.35-2.38,3.4c-.84,1.05-1.71,2-2.58,2.83-.18-.22-.41-.46-.69-.72-.29-.26-.58-.53-.87-.81-.3-.27-.56-.5-.81-.67,1.29-1.01,2.49-2.28,3.6-3.81,1.11-1.53,2-3.12,2.68-4.77Zm-2.43-6.87h2.86v4.28h12.79v-4.28h2.99v6.91h-18.65v-6.91Zm.82,10.65h18.32v2.47h-15.32v16.05h-2.99v-18.51Zm1.61,14.7h17.07v2.47h-17.07v-2.47Zm.03-9.77h15.69v2.3h-15.69v-2.3Zm0,4.83h15.69v2.33h-15.69v-2.33Zm5.1-21.47h3.06v6.94h-3.06v-6.94Zm2.66,8.09l3.25.76c-.44.9-.88,1.78-1.32,2.65-.44.87-.84,1.61-1.22,2.22l-2.43-.69c.22-.48.44-1.01.66-1.59.22-.58.42-1.16.61-1.74.19-.58.33-1.11.44-1.59Zm-1.35,5.29h2.96v14.21h-2.96v-14.21Z"/>
      </g>
    </g>
  </g>
</svg>