<?xml version="1.0" encoding="UTF-8"?>
<svg id="Layer_2" data-name="Layer 2" xmlns="http://www.w3.org/2000/svg" viewBox="0 0 645.08 122.77">
  <defs>
    <style>
      .cls-1 {
        fill: #65b7ec;
        opacity: .8;
      }

      .cls-2 {
        fill: #fff;
        stroke: #fff;
        stroke-linecap: round;
        stroke-linejoin: round;
        stroke-width: .63px;
      }
    </style>
  </defs>
  <g id="_文字" data-name="文字">
    <polygon class="cls-1" points="645.08 122.77 645.08 0 0 0 67.53 61.39 0 122.77 645.08 122.77"/>
    <g>
      <path class="cls-2" d="m220.42,45.19c.36.3-.12,2.28-1.32,6-1.26,3.66-2.34,8.22-3.36,13.5-1.02,5.34-1.38,8.4-1.26,9.18.06.78-.18,1.2-.72,1.38-.54.18-1.2.12-1.8-.18-.66-.3-.48-2.94.54-8.04,1.02-5.1,2.46-11.34,4.38-18.78.36-1.26.96-2.28,1.68-2.94.9-.36,1.44-.42,1.86-.12Zm26.4,25.98c-.66-1.56-1.32-4.8-2.1-9.66-.72-4.86-1.92-10.8-3.42-17.76,0-.66.12-1.26.36-1.62.24-.42.72-.48,1.5-.18.78.24,1.26.78,1.44,1.44,1.08,9.3,2.88,18.6,5.52,27.72.6.66.3,1.2-.78,1.68-1.14.48-1.98-.06-2.52-1.62Z"/>
      <path class="cls-2" d="m280.06,47.05c-.36-.3-1.92-.6-4.5-.84-2.64-.18-5.04-.54-7.32-1.02-2.28-.48-3.6-.9-3.96-1.32-.42-.42-.24-.9.54-1.56.66-.6,1.5-.66,2.4-.18.84.42,2.52.72,4.98.9s4.68.42,6.72.78c1.98.36,3.12.9,3.36,1.56.18.72-.06,1.32-.84,1.8-.48.18-.96.12-1.38-.12Zm23.46,7.56c.3.48.24,1.02-.06,1.56-.36.54-3,2.64-7.86,6.3-4.92,3.72-10.02,6.78-15.36,9.3-5.28,2.52-8.4,3.78-9.3,3.78s-1.26-.42-.96-1.26c.18-.9.9-1.38,2.04-1.56,1.08-.18,2.22-.48,3.24-.9,9.6-5.04,18.6-10.86,27.06-17.46.48-.36.9-.3,1.2.24Z"/>
      <path class="cls-2" d="m327.76,60.25c.06,5.58.6,11.04,1.74,16.38.06,1.2-.3,1.86-1.02,1.92-.66.12-1.14-.24-1.32-1.08-1.74-10.2-2.28-18.42-1.86-24.84.36-6.3.72-10.44.9-12.48-.12-1.02.3-1.62,1.2-1.74.84-.12,1.32.3,1.26,1.2-.78,5.88-1.02,11.94-.9,18.12,2.88.06,6.06-.24,9.42-.84,3.3-.66,6-1.02,8.16-1.08,2.22-.06,3.24.06,3.24.36s-.3.84-.84,1.44c-.6.66-1.86.84-3.72.54-5.22.54-10.62,1.26-16.26,2.1Z"/>
      <path class="cls-2" d="m385.66,47.05c-.36-.3-1.92-.6-4.5-.84-2.64-.18-5.04-.54-7.32-1.02-2.28-.48-3.6-.9-3.96-1.32-.42-.42-.24-.9.54-1.56.66-.6,1.5-.66,2.4-.18.84.42,2.52.72,4.98.9s4.68.42,6.72.78c1.98.36,3.12.9,3.36,1.56.18.72-.06,1.32-.84,1.8-.48.18-.96.12-1.38-.12Zm23.46,7.56c.3.48.24,1.02-.06,1.56-.36.54-3,2.64-7.86,6.3-4.92,3.72-10.02,6.78-15.36,9.3-5.28,2.52-8.4,3.78-9.3,3.78s-1.26-.42-.96-1.26c.18-.9.9-1.38,2.04-1.56,1.08-.18,2.22-.48,3.24-.9,9.6-5.04,18.6-10.86,27.06-17.46.48-.36.9-.3,1.2.24Z"/>
      <path class="cls-2" d="m458.62,51.43c.9,1.5-.18,4.62-3.12,9.24-3,4.62-5.58,8.94-7.68,12.72s-3.6,6.06-4.44,6.54c-.9.54-1.5.78-1.8.66-.36-.06-.6-.48-.72-1.14-.18-.66.96-2.76,3.54-6.36,2.52-3.54,5.22-7.86,8.1-12.84,2.82-4.98,3.84-7.86,3.24-8.46-3.96-1.86-9.66-.78-17.16,3.12-7.5,3.96-11.4,6-11.7,6.24-.36.3-.72.36-.96.24-.3-.12-.66-.36-.96-.66-.36-.3-.42-.84-.18-1.44.18-.66.54-1.02.96-1.02.36,0,4.08-1.68,10.92-5.1s12.24-4.98,16.14-4.68c2.4,0,4.32,1.02,5.82,2.94Zm-6.18-11.82c-.9.12-1.38-.12-1.32-.84-7.74.9-13.5,1.86-17.1,3.06-3.54,1.2-5.58,1.86-5.82,1.92-.3.12-.78,0-1.32-.3-.54-.3-.84-.6-.84-.84,0-.18.18-.6.54-1.26.3-.66,1.08-1.02,2.28-1.08s3.06-.36,5.7-.84c2.58-.54,5.82-1.14,9.6-1.92,3.84-.66,6.84-1.08,9.24-1.14,2.28-.06,2.94.42,2.04,1.44-1.14,1.08-2.1,1.68-3,1.8Z"/>
      <path class="cls-2" d="m480.22,72.67c-.36-.42-.42-.78-.18-1.2.18-.42,1.2-1.8,2.94-4.14,1.68-2.28,4.62-6.12,8.64-11.64,4.08-5.46,8.1-9.96,12.06-13.5,3.9-3.42,6-4.92,6.3-4.26.24.66.36,1.14.36,1.44s-1.02,1.2-2.94,2.64c-1.92,1.38-4.5,3.9-7.74,7.62-.66,9.54-.48,16.74.54,21.48.96,4.8,1.44,7.32,1.56,7.5.12.24-.12.54-.6.84-.6.3-1.2.3-1.8,0-.6-.3-1.26-2.88-1.98-7.68-.72-4.74-.96-11.04-.66-18.84-4.38,5.16-8.46,10.68-12.18,16.62,0,.84-.66,1.68-1.92,2.58-1.26.78-2.04.96-2.4.54Z"/>
      <path class="cls-2" d="m562.54,70.99c3.24,2.16,4.86,3.54,4.92,3.96.06.54-.3.9-1.02,1.2-.84.3-2.88-.84-6.18-3.36-3.3-2.46-8.16-5.04-14.58-7.68-3.12,4.56-5.34,7.92-6.66,10.32-1.38,2.4-2.28,3.84-2.58,4.26-.36.42-.78.6-1.2.48-.48-.06-.84-.3-1.08-.6-.24-.36.18-1.62,1.32-3.72,1.08-2.04,3.9-6.36,8.34-12.9,4.38-6.48,7.74-11.82,10.08-15.84,2.28-4.08,3.18-6.6,2.76-7.62-9.3,2.7-16.02,5.16-20.1,7.44-4.14,2.28-6.48,3.3-7.02,3.18-.54-.12-.96-.48-1.14-1.14-.24-.66.3-1.2,1.5-1.56,1.26-.3,3.72-1.56,7.5-3.6,3.84-2.04,10.02-4.2,18.66-6.48,1.56-.42,2.88.24,3.72,2.16,0,1.98-.6,3.78-1.68,5.46-1.14,1.74-4.68,7.5-10.74,17.4,6.9,3.6,11.94,6.48,15.18,8.64Z"/>
    </g>
  </g>
</svg>