<?xml version="1.0" encoding="UTF-8"?>
<svg id="Layer_2" data-name="Layer 2" xmlns="http://www.w3.org/2000/svg" viewBox="0 0 475.41 43.2">
  <defs>
    <style>
      .cls-1 {
        opacity: .8;
      }

      .cls-2 {
        fill: #533b2b;
        stroke: #533b2b;
        stroke-linecap: round;
        stroke-linejoin: round;
        stroke-width: .85px;
      }
    </style>
  </defs>
  <g id="_文字" data-name="文字">
    <g class="cls-1">
      <path class="cls-2" d="m25.35,16.58c.66,1.1-.13,3.39-2.29,6.78-2.2,3.39-4.09,6.56-5.63,9.33s-2.64,4.44-3.26,4.8c-.66.4-1.1.57-1.32.48-.26-.04-.44-.35-.53-.84-.13-.48.7-2.02,2.6-4.66,1.85-2.6,3.83-5.77,5.94-9.42,2.07-3.65,2.82-5.76,2.38-6.21-2.91-1.36-7.09-.57-12.59,2.29-5.5,2.9-8.36,4.4-8.58,4.58-.26.22-.53.26-.7.18-.22-.09-.48-.26-.71-.48-.26-.22-.31-.62-.13-1.06.13-.48.4-.75.7-.75.26,0,2.99-1.23,8.01-3.74,5.02-2.51,8.98-3.65,11.84-3.43,1.76,0,3.17.75,4.27,2.16Zm-4.53-8.67c-.66.09-1.01-.09-.97-.62-5.68.66-9.9,1.36-12.54,2.24-2.6.88-4.09,1.36-4.27,1.41-.22.09-.57,0-.97-.22-.4-.22-.62-.44-.62-.62,0-.13.13-.44.4-.92.22-.48.79-.75,1.67-.79.88-.04,2.24-.26,4.18-.62,1.89-.4,4.27-.84,7.04-1.41,2.82-.48,5.02-.79,6.78-.84,1.67-.04,2.16.31,1.5,1.06-.84.79-1.54,1.23-2.2,1.32Z"/>
      <path class="cls-2" d="m49.5,13.36c-.26-.22-1.41-.44-3.3-.62-1.94-.13-3.7-.4-5.37-.75-1.67-.35-2.64-.66-2.9-.97-.31-.31-.18-.66.4-1.14.48-.44,1.1-.48,1.76-.13.62.31,1.85.53,3.65.66,1.8.13,3.43.31,4.93.57,1.45.26,2.29.66,2.46,1.14.13.53-.04.97-.62,1.32-.35.13-.7.09-1.01-.09Zm17.21,5.54c.22.35.18.75-.04,1.14-.26.4-2.2,1.94-5.76,4.62-3.61,2.73-7.35,4.97-11.27,6.82-3.87,1.85-6.16,2.77-6.82,2.77s-.92-.31-.7-.92c.13-.66.66-1.01,1.5-1.14.79-.13,1.63-.35,2.38-.66,7.04-3.7,13.64-7.96,19.85-12.81.35-.26.66-.22.88.18Z"/>
      <path class="cls-2" d="m80.88,27.8c-2.42.97-3.7,1.41-3.83,1.32-.18-.09-.4-.4-.62-.92-.18-.44,1.01-1.14,3.7-2.02,2.73-.88,6.69-2.07,11.97-3.61.13-3.39-.44-6.47-1.67-9.33-.18-.31-.18-.62,0-.88.18-.22.53-.44.97-.62.48-.09.88.04,1.19.62.26.57.53,1.67.84,3.34.31,1.67.53,3.78.75,6.29,6.25-1.76,9.51-2.51,9.68-2.16.09.4.09.75,0,1.01-.18.31-.48.53-.97.62-.48.09-3.43.88-8.89,2.33.31,3.7.04,6.56-.79,8.58-.79,2.02-1.76,3.57-2.77,4.62-1.1,1.06-1.76,1.72-2.11,1.98-.35.18-.7.18-1.01-.13-.4-.35-.31-.88.18-1.58.53-.75,1.45-1.8,2.73-3.12,1.23-1.32,1.89-4.53,1.89-9.68-5.1,1.28-8.84,2.38-11.22,3.34Zm-2.86-13.64c-.22-.66,1.45-1.72,4.97-3.3,3.52-1.58,6.91-3.08,10.17-4.53,3.3-1.41,5.11-2.02,5.37-1.89.31.18.44.4.4.7-.09.31-.35.7-.71,1.06-.4.4-.75.7-.97.84-.26.18-1.01.26-2.29.26-5.46,2.38-10.69,4.88-15.8,7.61-.57.13-.97-.09-1.14-.75Z"/>
      <path class="cls-2" d="m113.04,29.95c-.09-.18.57-2.6,2.02-7.17,1.45-4.49,3.57-8.76,6.42-12.72,2.82-3.92,4.36-5.99,4.53-6.21s.48-.18.92.13c.44.31.26,1.01-.57,2.07-.79,1.01-1.89,2.55-3.3,4.67-3.56,5.46-6.38,11.49-8.49,18.04.48.18.66.44.53.79-.13.35-.48.66-1.1.97-.62-.13-.92-.35-.97-.57Zm8.93-15.93c.13-.09.35-.13.75-.13.35,0,.53.13.53.44s-.31,2.33-.88,6.07c-.53,3.74-.62,7.48-.13,11.22.44,3.79.79,5.99,1.01,6.69.22.66.48,1.06.7,1.23.18.13.22.31.18.48-.04.13-.35.35-.88.57-.57.22-.97.22-1.14,0-.22-.22-.75-2.68-1.58-7.26-.79-4.62-.44-10.74.97-18.53.18-.44.35-.7.48-.79Zm23.5-4.75c1.8-.4,3.17-.57,4.09-.57s1.5.09,1.8.26c.22.18.31.44.22.75-.13.26-.26.53-.48.7-.22.18-.66.4-1.28.66-.57.31-.97.44-1.19.44s-.4-.35-.48-1.01c-.88.04-1.72.22-2.42.48.44,7.88.62,13.82.57,18-.04,4.18-.31,7.17-.88,8.98-.57,1.85-1.45,2.38-2.73,1.58-1.23-.79-2.11-1.5-2.51-2.11-.48-.57-.66-1.01-.57-1.23s.44-.22,1.06-.04c.66.22,1.58.75,2.73,1.54.84-3.74,1.14-7.66.97-11.66,0-4.88-.31-9.64-.97-14.35-5.54,1.54-9.51,2.99-11.97,4.4-2.42,1.41-3.7,2.11-3.83,2.02-.18-.09-.4-.4-.7-.97-.31-.48.92-1.41,3.65-2.73,2.68-1.32,6.91-2.82,12.67-4.53-.22-2.42-.35-4.09-.35-4.97,0-.79,0-1.41.04-1.8.04-.35.31-.44.88-.31.53.13.84.53.97,1.19l.71,5.28Zm-13.33,14.04c1.63.4,2.95.75,4,1.06.97.26,1.58.57,1.76.84.13.31.13.62,0,.92-.13.26-.35.4-.66.26-.31-.09-.7-.26-1.28-.62-.57-.31-1.19-.44-1.85-.4-.71.09-1.23.13-1.67.13-.48,0-.97-.26-1.45-.79-.92-1.28-.53-1.76,1.14-1.41Z"/>
      <path class="cls-2" d="m168.17,7.2c-.35-.4-.26-.75.26-1.01.48-.18,1.01-.09,1.67.26.66.4,1.5,1.1,2.64,2.07,2.07-1.1,3.92-2.29,5.59-3.43.75-.48,1.23-.4,1.45.22.22.62-.44,1.28-2.02,2.11-1.58.79-2.73,1.58-3.34,2.24,1.41,1.28,3.04,2.55,4.8,3.79,1.76-1.32,2.9-2.02,3.56-2.11,1.32.35.57,1.41-2.24,3.12,1.36,1.41,2.38,2.73,3.21,3.92.79,1.19.92,2.51.44,3.96-1.89,1.8-3.52,2.73-4.88,2.77-1.41.04-1.94-.13-1.58-.53.35-.35,1.32-1.01,2.9-1.85,1.58-.79,2.07-1.98,1.41-3.52-.79-1.58-1.85-2.77-3.08-3.56-4.31,2.55-7.96,4.88-10.91,7-.44.26-.84.31-1.23.13-.4-.13-.66-.35-.7-.66-.04-.31.22-.62.79-.92,3.56-1.94,7.22-4.09,10.87-6.51-1.5-1.14-3.26-2.46-5.19-4-4,2.68-6.51,4.36-7.39,4.97-.92.7-1.58.88-2.07.53-.48-.35-.57-.62-.35-.84.22-.18,2.95-2.07,8.23-5.68-1.54-1.28-2.46-2.07-2.82-2.46Zm5.02,30.8c-2.24-.7-3.92-1.41-4.97-2.07-1.1-.62-1.72-1.06-1.8-1.28-.09-.22-.04-.53.13-.88.13-.26.35-.44.62-.44.18,0,.62.22,1.28.66.66.48,1.89,1.06,3.83,1.67,1.94.66,3.17.97,3.74.88.53-.04.97.13,1.28.53.31.35.4.79.26,1.28-.66.48-2.11.4-4.36-.35Z"/>
      <path class="cls-2" d="m196.2,16.84c-.26-.13-.4-.53-.4-1.1,0-.53,2.38-1.89,7.08-4.05,4.71-2.11,9.11-3.48,13.16-3.92,4.05-.48,6.21-.48,6.47-.09.22.35-.09,2.91-.97,7.53-.84,4.58-2.2,9.07-4.14,13.33-1.94,4.36-3.21,6.73-3.74,7.17-.57.48-.97.66-1.14.44-.22-.18-.4-.4-.48-.7-.18-.22.79-2.29,2.9-6.21s4.05-10.47,5.76-19.76c-1.58-.53-4.53-.22-8.67.84-4.22,1.1-9.2,3.34-15.01,6.78-.31,0-.62-.09-.84-.26Zm34.33-13.55c.4,1.89.04,3.56-1.1,4.97-1.14,1.45-2.11,2.16-2.91,2.16-.84.04-1.45-.09-1.89-.35-.48-.22-1.06-.88-1.72-1.98-.75-1.06-.66-2.51.22-4.44.88-1.94,2.55-2.99,5.06-3.17,1.14,0,1.98.92,2.33,2.82Zm-1.32-.09c-.84-.97-1.8-1.23-2.77-.75-1.06.48-1.8,1.28-2.33,2.24-.22,1.45-.13,2.42.31,2.99.44.53,1.19.92,2.29,1.1,1.85-1.5,2.68-3.39,2.51-5.59Z"/>
      <path class="cls-2" d="m263.61,16.58c.66,1.1-.13,3.39-2.29,6.78-2.2,3.39-4.09,6.56-5.63,9.33s-2.64,4.44-3.26,4.8c-.66.4-1.1.57-1.32.48-.26-.04-.44-.35-.53-.84-.13-.48.7-2.02,2.6-4.66,1.85-2.6,3.83-5.77,5.94-9.42,2.07-3.65,2.82-5.76,2.38-6.21-2.91-1.36-7.09-.57-12.59,2.29-5.5,2.9-8.36,4.4-8.58,4.58-.26.22-.53.26-.7.18-.22-.09-.48-.26-.71-.48-.26-.22-.31-.62-.13-1.06.13-.48.4-.75.7-.75.26,0,2.99-1.23,8.01-3.74,5.02-2.51,8.98-3.65,11.84-3.43,1.76,0,3.17.75,4.27,2.16Zm-4.53-8.67c-.66.09-1.01-.09-.97-.62-5.68.66-9.9,1.36-12.54,2.24-2.6.88-4.09,1.36-4.27,1.41-.22.09-.57,0-.97-.22-.4-.22-.62-.44-.62-.62,0-.13.13-.44.4-.92.22-.48.79-.75,1.67-.79.88-.04,2.24-.26,4.18-.62,1.89-.4,4.27-.84,7.04-1.41,2.82-.48,5.02-.79,6.78-.84,1.67-.04,2.16.31,1.5,1.06-.84.79-1.54,1.23-2.2,1.32Z"/>
      <path class="cls-2" d="m286.66,13.36c-.26-.22-1.41-.44-3.3-.62-1.94-.13-3.7-.4-5.37-.75-1.67-.35-2.64-.66-2.9-.97-.31-.31-.18-.66.4-1.14.48-.44,1.1-.48,1.76-.13.62.31,1.85.53,3.65.66,1.8.13,3.43.31,4.93.57,1.45.26,2.29.66,2.46,1.14.13.53-.04.97-.62,1.32-.35.13-.7.09-1.01-.09Zm17.21,5.54c.22.35.18.75-.04,1.14-.26.4-2.2,1.94-5.76,4.62-3.61,2.73-7.35,4.97-11.27,6.82-3.87,1.85-6.16,2.77-6.82,2.77s-.92-.31-.7-.92c.13-.66.66-1.01,1.5-1.14.79-.13,1.63-.35,2.38-.66,7.04-3.7,13.64-7.96,19.85-12.81.35-.26.66-.22.88.18Z"/>
      <path class="cls-2" d="m315.09,20.62c-1.19.66-1.94.92-2.29.75-.35-.13-.53-.44-.53-.79,0-.4.92-1.1,2.69-2.11,1.76-1.01,4.31-2.46,7.66-4.4.66-2.86,1.19-4.75,1.54-5.76.31-.97.7-1.72,1.23-2.2.48-.53.75-.4.75.31,0,.79-.04,1.45-.09,1.89-.09.48-.48,1.94-1.14,4.31,1.85-1.01,3.26-1.89,4.14-2.6.92-.66,1.58-.88,1.98-.62.4.26.48.7.18,1.41-.31.7-1.06,1.19-2.24,1.58-1.19.4-2.73,1.36-4.58,2.9-.66,2.73-1.1,5.76-1.23,9.11,3.17-2.51,5.63-4.14,7.48-4.97,1.8-.79,2.77-.97,2.9-.48.13.44-.92,1.32-3.12,2.55-2.16,1.23-4.58,2.95-7.26,5.15-.22,3.26.18,5.59,1.32,7.08,1.1,1.58,2.86,2.16,5.28,1.8,2.38-.26,4.67-1.54,6.82-3.74,2.16-2.11,3.08-3.56,2.86-4.27-.26-.75-.48-1.23-.66-1.58-.18-.35.04-.66.66-.92.57-.26,1.23.26,1.85,1.54.66,1.32-.22,3.26-2.64,5.85-2.46,2.64-5.33,4.22-8.62,4.84-3.34.62-5.59-.22-6.87-2.51-1.19-2.38-1.8-4.71-1.8-7-2.03,1.14-3.43,2.11-4.22,2.82-.88.79-1.5,1.1-1.94.92s-.57-.62-.35-1.32c.18-.66,2.38-2.33,6.51-4.97.35-3.56.62-6.38.75-8.58-3.52,1.98-5.85,3.3-7,4Z"/>
      <path class="cls-2" d="m359.88,5.71c.92-.04,1.89.44,2.86,1.41.97.97,1.41,3.34,1.37,7.08-.04,3.74-.35,7.3-.84,10.74-.53,3.43-.88,5.24-1.06,5.46-.22.22-1.36.97-3.3,2.29.84.53,1.63,1.14,2.55,1.89.88.75,1.58,1.14,2.16,1.23.53.09.75.35.57.79-.13.44-.84.53-2.07.31-1.28-.22-2.64-1.28-4.18-3.04-1.94,1.89-3.17,3.43-3.83,4.66-.66,1.19-1.14,1.85-1.54,1.94-.44.09-.75,0-.97-.31-.22-.31-.22-.62.09-.92.26-.26.62-.84,1.06-1.58.4-.7,1.19-1.85,2.33-3.34-.53-.13-1.19,0-1.85.4-.62.4-1.06.4-1.19.09-.13-.31,0-.7.48-1.14.44-.4,2.95-1.63,7.61-3.56-.18-.44-.04-.79.35-1.06.35-.26.71-1.76,1.01-4.53-3.12,1.36-5.68,2.9-7.61,4.67-.22.79-.18,1.54.04,2.2.22.62.18,1.1-.22,1.32-.4.22-.7.22-1.06,0-.4-.22-.53-.7-.48-1.32.04-.66.09-1.32.09-1.94-.4-.31-.57-.62-.53-1.01.04-.35.22-.62.53-.79-.4-6.87-.66-12.1-.7-15.62s.22-5.28.84-5.28.97.57,1.19,1.63c1.85-1.32,3.96-2.2,6.29-2.64Zm-6.51,6.91c.04,1.94.09,3.79.22,5.63,1.85-2.24,3.52-3.56,5.02-4.05,1.41-.48,2.24-.66,2.46-.57.22.09.44.35.57.79s.13.66-.09.7c-.22.04-1.19.31-2.95.97-1.76.66-3.39,2.33-4.8,5.06,0,2.07.09,4,.22,5.76,2.33-1.5,4.88-2.82,7.7-4.05.48-4.58.53-9.11.13-13.55-.75-1.23-1.67-1.76-2.86-1.67-1.14.09-2.16.44-3.04,1.14-1.76.66-2.64,1.89-2.6,3.83Zm34.11,20.16c1.28.53,2.02.88,2.2,1.1.13.22.13.48,0,.75-.18.26-.44.44-.79.53-.4.09-1.36-.26-3.04-1.1-1.67-.79-3.61-1.94-5.81-3.43-1.41,1.5-2.42,2.68-2.95,3.52-.48.88-1.01,1.32-1.54,1.36-.48.04-.84-.09-1.06-.48-.22-.4-.22-.66,0-.75.22-.09,1.54-1.58,4.05-4.49-3.96-2.95-6.03-4.49-6.16-4.71-.13-.22-.22-.44-.22-.62,0-.22.18-.53.57-.92.4-.4,2.64,1.1,6.91,4.53,2.55-3.96,4.05-7.17,4.53-9.55.44-2.42.48-3.74.09-3.96-.44-.22-2.11.4-5.06,1.85s-5.15,3.61-6.6,6.47c-1.45,2.9-2.73,4.44-3.7,4.75-.48,2.9-.53,5.1-.22,6.51s.44,2.33.44,2.68-.44.57-1.28.75c-.79.18-1.19-2.11-1.1-6.91.09-4.75.97-11.44,2.55-19.89-.4.13-.97.4-1.58.88-.66.44-1.19.7-1.54.75-.35.04-.62,0-.84-.13-.22-.13-.31-.35-.26-.57.04-.18,1.23-1.06,3.61-2.46,2.33-1.41,4.66-2.82,7.08-4.14s3.65-2.02,3.74-2.07.35-.04.84.04c.4.09.48.4.31.88-.26.44-1.36,1.14-3.21,2.07-1.89.88-4.27,2.2-7.22,4.05,1.06.48,1.32,1.28.97,2.42-.44,1.14-.88,3.17-1.36,6.12-.44,2.9-.71,5.1-.71,6.6,3.21-6.69,8.1-10.87,14.65-12.54.31-.04.71.04,1.23.35.53.31.84.62.97,1.01.4,5.37-1.23,10.39-4.93,14.96,2.99,2.02,5.11,3.26,6.43,3.78Z"/>
      <path class="cls-2" d="m397.5,32.33c-.13-2.02,0-4.36.4-7.08.35-2.68.79-3.96,1.28-3.83.44.18.84.35,1.1.48.22.18.31.44.22.75-.09.26-.31,1.63-.7,3.87-.4,2.29-.57,3.87-.44,4.71.09.79.22,1.28.4,1.32.18.09.35.26.53.48.13.26.18.48.09.62-.09.09-.4.35-.88.7-1.23.75-1.89.04-1.98-2.02Zm3.3-6.03c-.44-.57-.13-1.41.92-2.46s3.92-2.51,8.49-4.18c4.62-1.67,8.84-2.24,12.58-1.58,3.74.66,5.77,1.41,6.07,2.38.31.97.48,1.98.57,3.04.04,1.06-.48,3.12-1.58,6.16.35,1.28.4,2.02.18,2.16-.26.13-.53.18-.75.09-.26-.09-.53-.18-.79-.4-.31-.18-.44-.79-.31-1.85l.53-1.89c.75-2.55.97-4.58.66-6.07-4.31-2.33-8.98-2.64-14.08-.88-4.49.57-7.88,2.02-10.25,4.31-1.06,1.32-1.85,1.72-2.24,1.19Zm.7-14.57c-.13-.53.97-1.19,3.17-1.89,2.16-.62,5.1-1.58,8.8-2.82.31-2.42.48-4.05.62-4.88.13-.84.22-1.36.35-1.5.13-.13.35-.22.75-.22.35,0,.53.13.66.31.13.22.13.75,0,1.54-.13.75-.26,2.07-.53,3.92,1.32-.31,2.95-.79,4.88-1.41,1.89-.57,3.17-.84,3.92-.75.71.09,1.06.22,1.19.31.13.18.26.35.4.57.13.22-.48.48-1.8.7-1.32.26-4.22,1.01-8.67,2.29-.13,1.54-.22,3.34-.22,5.41,2.55-.84,4.62-1.45,6.21-1.85,1.63-.4,2.64-.57,3.12-.44s.57.4.4.75c-.22.4-1.58.88-4.01,1.45-2.46.53-4.53,1.28-6.29,2.11-1.76.92-3.43,1.5-5.02,1.72-1.58.18-2.55.13-2.86-.18-.26-.35-.04-.66.71-.97.75-.31,1.54-.53,2.42-.66.79-.13,1.89-.48,3.12-1.06.48-1.28.75-3.04.7-5.33-4.71,1.32-8.32,2.51-10.78,3.48-.7.18-1.1-.04-1.23-.62Zm4.36,27.37c1.14-1.85,1.94-4.49,2.24-7.92.26-3.43.66-5.28,1.19-5.5.53-.22.84-.22.92.04.13.31.04,2.11-.13,5.46-.26,3.34-1.06,6.16-2.38,8.49-1.32,2.29-2.42,3.17-3.21,2.73-.26-.4.22-1.45,1.37-3.3Zm18.09.62c1.06-.7,2.38-2.16,3.96-4.27,1.54-2.07,2.46-3.21,2.86-3.26s.75.13,1.06.53c.31.4-.57,1.72-2.55,4-1.98,2.33-3.61,3.83-4.88,4.53-1.32.75-2.16,1.23-2.55,1.41-.4.13-.88.13-1.63.04-.75-.18-1.54-1.06-2.46-2.64-.92-1.58-1.5-4.53-1.72-8.8-.22-4.31,0-6.56.57-6.69.57-.13.97-.09,1.06.13.13.22.22,2.46.18,6.73-.04,4.22.88,7.31,2.73,9.24,1.14.09,2.33-.22,3.39-.97Z"/>
      <path class="cls-2" d="m458.22,1.48c.18.04.31.18.4.31.09.13.13.4.18.66.04.31.04.88.09,1.72.04.79.04,1.67,0,2.6-.04.97,0,2.42.04,4.44l1.19-.35c4.88-1.41,8.14-2.07,9.77-1.85,1.63.22,2.6.48,2.91.84.26.4.75,1.5,1.45,3.26.66,1.76.88,2.86.66,3.26-.88,2.6-1.94,4.44-2.99,5.37-1.06.92-1.76,1.41-2.07,1.41s-.53-.09-.66-.22c-.09-.13-.09-.44.22-.92.31-.48.88-1.14,1.72-1.85-3.3.88-7.35,2.2-12.01,3.87,0,1.89.04,3.87.13,5.94.09,2.02.13,3.92.18,5.68.04,1.76.13,3.04.31,3.83.18.84.22,1.36.26,1.54.04.22,0,.44-.09.57-.13.13-.26.26-.48.4-.22.13-.4.13-.62,0-.22-.13-.35-.26-.4-.4-.04-.13-.13-.48-.18-.97-.04-.53-.13-1.98-.35-4.36s-.31-4.44-.35-6.29c-.04-1.85-.09-3.61-.13-5.28l-3.52,1.32c-2.95,1.32-4.71,1.94-5.32,1.8-.66-.13-1.1-.18-1.36-.22-.22-.04-1.01-1.23-2.29-3.48-1.32-2.29-1.98-4.36-2.02-6.12-.04-1.76.04-2.86.31-3.26.26-.4.53-.53.88-.31.35.22.57.4.66.62s.13,1.06.13,2.6c1.94-1.41,4.67-2.86,8.14-4.36,1.19-.53,2.55-1.06,4.22-1.58-.04-2.73-.13-4.62-.18-5.68-.04-1.1-.09-1.8-.13-2.29-.04-.48,0-.84.13-1.14.13-.26.31-.53.62-.84.22-.22.44-.31.57-.26Zm-.92,21.47c-.04-2.2-.09-5.37-.09-9.46-1.72.53-3.12,1.06-4.31,1.58-2.9,1.67-5.54,3.04-7.79,4.18,1.36,4.84,2.86,7.08,4.53,6.82,2.42-1.06,4.93-2.07,7.66-3.12Zm14.79-10.91c-.57-1.01-1.85-1.5-3.83-1.36-1.98.13-4.67.84-8.14,2.07l-1.19.26c.13,4.09.18,7.17.18,9.37,4.18-1.58,8.62-3.12,13.42-4.66.53-1.19.4-3.08-.44-5.68Z"/>
    </g>
  </g>
</svg>