<?xml version="1.0" encoding="UTF-8"?>
<svg id="Layer_2" data-name="Layer 2" xmlns="http://www.w3.org/2000/svg" viewBox="0 0 79.21 79.2">
  <defs>
    <style>
      .cls-1 {
        fill: #84c5f0;
      }
    </style>
  </defs>
  <g id="_文字" data-name="文字">
    <g>
      <path class="cls-1" d="m67.98,79.2H11.22c-6.16,0-11.22-5.06-11.22-11.22V11.22C0,5.06,5.06,0,11.22,0h56.76c2.97.11,5.94,1.32,8.14,3.63,2.09,2.09,3.19,4.95,3.08,7.59v56.76c0,6.16-5.06,11.22-11.22,11.22Zm0-78.32H11.22C5.5.88.88,5.5.88,11.22v56.76c0,5.72,4.62,10.34,10.34,10.34h56.76c5.72,0,10.34-4.62,10.34-10.34V11.22c0-2.53-.99-5.06-2.86-7.04-1.98-2.09-4.73-3.3-7.48-3.3Z"/>
      <g>
        <g>
          <path class="cls-1" d="m15.73,65.01h-2.64l.22.11c0,.11-.11.22-.22.22-.22,2.2-.77,4.4-2.53,5.72-.11-.33-.55-.88-.88-1.1,1.65-1.32,2.09-2.86,2.2-4.84h-3.08v-1.54h6.93v1.43Zm-.88-3.74h-5.28v-1.54h5.28v1.54Z"/>
          <path class="cls-1" d="m23.76,63.69c0,.11-.11.11-.11.22-.77,4.07-2.09,6.05-4.62,7.15-.11-.44-.44-.99-.66-1.32,2.09-.77,3.52-2.64,3.96-4.95h-5.17v-1.54h5.61l.11-.11.88.55Zm-.99-2.42h-4.84v-1.54h4.84v1.54Z"/>
          <path class="cls-1" d="m30.47,60.83c0,.11-.11.22-.11.22-.44,1.76-.88,2.97-1.65,4.4.88,1.1,2.09,2.86,2.86,4.07l-.99,1.32c-.66-1.21-1.87-3.19-2.64-4.07-.77,1.43-1.87,3.08-2.97,4.07-.22-.33-.55-.99-.77-1.32,2.09-1.76,3.85-4.95,4.62-7.81h-3.85v-1.65h4.51l.22-.11.77.88Z"/>
          <path class="cls-1" d="m37.18,60.17h3.19v1.43h-6.27v2.31c0,2.2-.11,5.5-.88,7.59-.22-.22-.66-.77-.88-.88.77-1.87.77-4.73.77-6.71v-3.74h3.08v-1.21l1.32.11c0,.11-.11.22-.22.22v.88h-.11Zm1.98,1.65c0,.11-.11.22-.22.22v.66h1.32v1.32h-1.32v2.2h-1.32v.77h2.2v2.64c0,1.32-.33,1.54-1.65,1.54,0-.44-.11-.99-.22-1.43h.77q.11,0,.11-.22v-1.32h-1.21v3.3h-.99v-3.3h-1.1v2.86h-.99v-4.18h2.09v-.77h-1.32v-2.2h-1.1v-1.21h1.1v-.99l1.21.11c0,.11-.11.22-.22.22v.66h1.65v-.99l1.21.11Zm-1.21,3.08v-.88h-1.65v.88h1.65Z"/>
          <path class="cls-1" d="m40.59,65.78c.66-.99,1.76-3.08,2.31-4.07.33-.44.55-.66.88-.66s.55.33.88.66c.99,1.43,2.86,4.4,3.96,6.71l-.88,1.32c-.99-2.31-2.86-5.5-3.52-6.49-.22-.22-.33-.44-.33-.44-.11,0-.22.11-.33.44-.33.55-1.32,2.53-1.87,3.41,0,.11,0,.33-.11.44l-.99-1.32Zm6.49-6.6c.55,0,.88.66.88,1.43s-.44,1.43-.88,1.43c-.55,0-.88-.66-.88-1.43-.11-.88.33-1.43.88-1.43Zm.55,1.43c0-.55-.22-.99-.55-.99s-.66.44-.66.99.22.99.66.99c.33-.11.55-.55.55-.99Z"/>
          <path class="cls-1" d="m50.05,62.81c.22.77.55,1.98.66,2.86l-.88.33c-.11-.88-.33-1.98-.55-2.86l.77-.33Zm4.95.33c0,.11-.11.22-.22.22-.66,3.96-1.98,6.27-3.96,7.48-.11-.22-.33-.77-.55-1.1,1.87-1.1,3.08-3.19,3.63-7.15l1.1.55Zm-2.97-.88c.22.77.33,2.09.44,2.97l-.88.33c-.11-.88-.22-2.09-.44-2.97l.88-.33Z"/>
          <path class="cls-1" d="m61.49,66.77c-.66-.66-1.87-1.43-2.64-1.98v6.27h-1.1v-11.77l1.43.11c0,.11-.11.33-.22.33v3.74l.22-.44c.99.55,2.2,1.43,3.08,2.09l-.77,1.65Z"/>
          <path class="cls-1" d="m70.84,59.73v1.65h-.99v8.03c0,1.76-.55,1.98-2.53,1.98-.11-.44-.22-1.21-.44-1.65h1.1c.66,0,.77,0,.77-.44v-8.03h-5.72v-1.65h7.81v.11Zm-3.3,8.36h-2.64v.99h-.99v-6.27h3.63v5.28Zm-.99-3.63h-1.65v2.2h1.65v-2.2Z"/>
        </g>
        <rect class="cls-1" x="33.22" y="52.69" width="10.34" height="1.32"/>
        <g>
          <path class="cls-1" d="m12.43,30.58c-.11-.77-.88-1.21-1.65-1.1s-1.21.88-1.1,1.65l2.64,12.98v9.24c0,.77.66,1.32,1.32,1.32.77,0,1.32-.66,1.32-1.32v-8.03h8.14v8.03c0,.77.66,1.32,1.32,1.32.77,0,1.32-.66,1.32-1.32v-10.78h-10.89l-2.42-11.99Z"/>
          <path class="cls-1" d="m51.59,32.45h-12.54v-15.4h24.09s-20.79-10.12-24.75-10.12-24.75,10.12-24.75,10.12h24.09v15.29h-12.65c-.77,0-1.32.66-1.32,1.32,0,.77.66,1.32,1.32,1.32h11.88v18.26h2.75v-18.15h11.88c.77,0,1.32-.66,1.32-1.32,0-.77-.55-1.32-1.32-1.32Z"/>
          <path class="cls-1" d="m59.95,43.78l.11.22,4.95-3.85c-1.43-1.87-2.53-3.3-2.53-3.3-.22-.33-.66-.33-.88.11l-.22.44c-.22.44-.66.66-1.21.55l-4.29-.99c-.44-.11-.77.22-.66.66l.33,1.87c.11.44.55.88.99.99l2.42.55c.44.11.44.22,0,.11h-1.32c-.44,0-.66.33-.44.66.22.44.77.77,1.21.88h.33c.33.33.88.66,1.21,1.1Z"/>
          <path class="cls-1" d="m74.25,44.66c-.11-.66-.44-.33-.55-.11s-1.1,2.2-2.64,3.41c-.99-1.21-3.19-4.07-5.17-6.6l-4.95,3.74.66.88c-.77,1.98-2.2,6.16-2.2,6.16-.22.55.11,1.1.66,1.32.55.22.99-.11,1.21-.66l2.09-4.29.66.99c-.22.33-.44.66-.44,1.1v.44h-.11c-2.2,0-2.31,2.42-.11,2.42h6.82c2.31,0,2.97-1.76,2.31-3.63.77-.88,2.31-2.97,1.76-5.17Z"/>
        </g>
      </g>
    </g>
  </g>
</svg>