<?xml version="1.0" encoding="UTF-8"?>
<svg id="Layer_2" data-name="Layer 2" xmlns="http://www.w3.org/2000/svg" viewBox="0 0 290.13 259.63">
  <defs>
    <style>
      .cls-1 {
        fill: #65b7ec;
      }
    </style>
  </defs>
  <g id="_文字" data-name="文字">
    <g>
      <g>
        <path class="cls-1" d="m140.58,3.35c29.82-.17,55.03,25.05,54.03,54.97h5.26c-.09-4.27-.66-8.51-1.65-12.64l19.7,13.57.22,12.62c0,.4.2.77.52,1.01l23.67,17.23c.57.41,1.36.29,1.78-.28l6.08-8.35.03.02.82-1.19,6.55-9c.41-.57.29-1.36-.28-1.78l-23.67-17.23c-.32-.23-.74-.31-1.12-.19l-13.74,4.17s-.03.02-.05.03l-21.72-14.96c-2.96-9.23-8.11-17.72-15.02-24.44-22.58-22.54-60.25-22.54-82.84,0-11,10.71-17.56,25.89-17.88,41.42h5.26c-1-29.92,24.22-55.15,54.03-54.97"/>
        <path class="cls-1" d="m290.13,74.35h-6.58l.23,5.79c.11,3.59.41,13.71.51,17.37,1.12,53.88,1.06,108.27-.74,162.12h6.58c-1.95-61.59-2.1-123.68,0-185.28"/>
        <path class="cls-1" d="m0,74.35l.23,5.79c.11,3.59.4,13.71.51,17.37,1.12,53.88,1.06,108.27-.74,162.12h6.57c-1.95-61.59-2.1-123.68,0-185.28H0Z"/>
      </g>
      <g>
        <path class="cls-1" d="m22.51,133.73h3.76v7.48c0,2.21-.13,4.53-.38,6.96-.25,2.43-.78,4.86-1.58,7.3-.8,2.44-2.04,4.77-3.72,6.98-.37-.45-.87-.92-1.48-1.4-.61-.48-1.19-.88-1.72-1.2,1.15-1.52,2.06-3.09,2.74-4.7.68-1.61,1.19-3.23,1.52-4.84.33-1.61.56-3.19.68-4.74.12-1.55.18-3.01.18-4.4v-7.44Zm-4.28-2.56h16.56v4h-16.56v-4Zm11.48,8.28h3.88v1.72c-.05,3.28-.11,6.07-.18,8.38s-.15,4.19-.26,5.66c-.11,1.47-.24,2.62-.4,3.46-.16.84-.36,1.45-.6,1.82-.37.51-.76.87-1.16,1.1-.4.23-.87.38-1.4.46-.48.08-1.09.13-1.84.14-.75.01-1.53,0-2.36-.02-.03-.56-.13-1.21-.32-1.94s-.43-1.37-.72-1.9c.69.08,1.31.13,1.86.16.55.03.98.04,1.3.04.27,0,.49-.04.66-.12.17-.08.34-.24.5-.48.16-.24.29-.71.4-1.42.11-.71.2-1.74.28-3.1.08-1.36.15-3.11.2-5.26.05-2.15.11-4.78.16-7.9v-.8Zm-5.28,0h6.68v3.92h-6.68v-3.92Zm.12-14.44h4.12v7.48h-4.12v-7.48Zm14.16-.08l4.28.84c-.69,2.8-1.66,5.44-2.9,7.92-1.24,2.48-2.65,4.53-4.22,6.16-.24-.24-.57-.53-1-.88-.43-.35-.86-.68-1.3-1-.44-.32-.83-.59-1.18-.8,1.49-1.41,2.78-3.2,3.86-5.36,1.08-2.16,1.9-4.45,2.46-6.88Zm11.68,9.56l3.08,2.28c-1.01.8-2.2,1.59-3.56,2.38-1.36.79-2.81,1.55-4.34,2.28-1.53.73-3.09,1.4-4.66,2-1.57.6-3.07,1.11-4.48,1.54-.29-.56-.68-1.18-1.16-1.86-.48-.68-.95-1.25-1.4-1.7,1.41-.32,2.9-.72,4.46-1.2,1.56-.48,3.09-1.03,4.6-1.66s2.91-1.29,4.2-1.98c1.29-.69,2.38-1.39,3.26-2.08Zm-12.76,7.28h4.04v20.52h-4.04v-20.52Zm1.04-11.8h15.88v3.88h-15.88v-3.88Zm8.12,9.6c.4,2.75.97,5.37,1.7,7.86.73,2.49,1.69,4.7,2.88,6.62,1.19,1.92,2.65,3.44,4.38,4.56-.32.27-.67.61-1.04,1.02-.37.41-.72.85-1.04,1.32-.32.47-.6.89-.84,1.26-1.92-1.41-3.51-3.22-4.78-5.42-1.27-2.2-2.29-4.71-3.08-7.54-.79-2.83-1.41-5.88-1.86-9.16l3.68-.52Zm5.76,1.92l3.04,2.68c-1.12,1.07-2.35,2.14-3.68,3.22-1.33,1.08-2.55,1.99-3.64,2.74l-2.52-2.44c.72-.53,1.49-1.15,2.32-1.86.83-.71,1.64-1.44,2.44-2.2.8-.76,1.48-1.47,2.04-2.14Z"/>
        <path class="cls-1" d="m58.99,131.89c1.17,0,2.49-.01,3.94-.04,1.45-.03,2.99-.06,4.6-.1s3.21-.07,4.8-.1c1.59-.03,3.08-.05,4.48-.06,1.4-.01,2.65-.02,3.74-.02s2.2,0,3.4-.02c1.2-.01,2.37-.02,3.5-.02s2.17,0,3.1.02c.93.01,1.65.02,2.16.02l-.04,4.2c-1.2-.05-2.81-.1-4.82-.14-2.01-.04-4.49-.06-7.42-.06-1.79,0-3.62.02-5.5.06-1.88.04-3.75.09-5.6.14-1.85.05-3.64.12-5.36.2s-3.34.17-4.86.28l-.12-4.36Zm21.48,11.8c0,2.05-.27,3.77-.8,5.14-.53,1.37-1.29,2.41-2.28,3.1-.99.69-2.21,1.04-3.68,1.04-.77,0-1.57-.15-2.38-.46-.81-.31-1.55-.76-2.22-1.36-.67-.6-1.2-1.35-1.6-2.24-.4-.89-.6-1.93-.6-3.1,0-1.47.35-2.75,1.06-3.84.71-1.09,1.65-1.95,2.82-2.56,1.17-.61,2.45-.92,3.84-.92,1.71,0,3.13.38,4.28,1.14,1.15.76,2.01,1.79,2.6,3.08.59,1.29.88,2.77.88,4.42,0,1.31-.21,2.67-.62,4.08-.41,1.41-1.1,2.78-2.06,4.1-.96,1.32-2.25,2.53-3.86,3.62s-3.63,1.99-6.06,2.68l-3.8-3.8c1.73-.37,3.33-.85,4.78-1.44,1.45-.59,2.72-1.33,3.8-2.22,1.08-.89,1.91-1.97,2.5-3.22.59-1.25.88-2.75.88-4.48,0-1.44-.33-2.5-.98-3.18-.65-.68-1.46-1.02-2.42-1.02-.56,0-1.1.13-1.62.4-.52.27-.94.66-1.26,1.18s-.48,1.15-.48,1.9c0,1.01.34,1.81,1.02,2.4.68.59,1.46.88,2.34.88.72,0,1.34-.21,1.86-.62.52-.41.87-1.09,1.04-2.04.17-.95.07-2.18-.3-3.7l3.32,1.04Zm.76-16.92c-.03.19-.06.5-.1.94s-.07.87-.1,1.3c-.03.43-.04.73-.04.92-.03.53-.05,1.25-.06,2.14s-.02,1.88-.02,2.96,0,2.17.02,3.26c.01,1.09.03,2.12.04,3.08.01.96.02,1.76.02,2.4l-4.44-1.64v-1.92c0-.83,0-1.74-.02-2.74s-.03-1.99-.04-2.98c-.01-.99-.03-1.88-.04-2.68s-.03-1.41-.06-1.84c-.05-.72-.11-1.38-.18-1.98s-.13-1.01-.18-1.22h5.2Z"/>
        <path class="cls-1" d="m101.87,128.65c.53.05,1.11.1,1.72.14s1.17.06,1.68.06c.43,0,1.08-.01,1.96-.04.88-.03,1.87-.05,2.96-.08,1.09-.03,2.19-.05,3.3-.08,1.11-.03,2.1-.07,2.98-.12.88-.05,1.55-.09,2-.12.75-.05,1.34-.11,1.78-.18.44-.07.78-.14,1.02-.22l2.36,3.24c-.43.27-.87.55-1.32.84-.45.29-.89.6-1.32.92-.53.37-1.19.87-1.96,1.5-.77.63-1.6,1.31-2.48,2.04s-1.75,1.45-2.6,2.14c-.85.69-1.63,1.32-2.32,1.88.75-.24,1.47-.39,2.18-.46.71-.07,1.42-.1,2.14-.1,2.24,0,4.25.43,6.02,1.28,1.77.85,3.18,2.02,4.22,3.5s1.56,3.18,1.56,5.1c0,2.11-.54,4-1.62,5.68-1.08,1.68-2.68,3.01-4.8,3.98-2.12.97-4.74,1.46-7.86,1.46-1.84,0-3.47-.26-4.9-.78-1.43-.52-2.55-1.25-3.36-2.2-.81-.95-1.22-2.06-1.22-3.34,0-1.04.29-2.01.86-2.92.57-.91,1.38-1.64,2.42-2.2,1.04-.56,2.24-.84,3.6-.84,1.81,0,3.34.37,4.58,1.1,1.24.73,2.19,1.71,2.86,2.94.67,1.23,1.03,2.55,1.08,3.96l-4.16.6c-.05-1.52-.47-2.76-1.24-3.72-.77-.96-1.81-1.44-3.12-1.44-.8,0-1.45.21-1.94.64-.49.43-.74.92-.74,1.48,0,.8.41,1.44,1.22,1.92.81.48,1.89.72,3.22.72,2.24,0,4.14-.28,5.7-.84,1.56-.56,2.74-1.37,3.54-2.44.8-1.07,1.2-2.35,1.2-3.84,0-1.23-.38-2.31-1.12-3.26-.75-.95-1.76-1.69-3.04-2.22-1.28-.53-2.72-.8-4.32-.8s-3.01.19-4.32.58c-1.31.39-2.53.93-3.68,1.62-1.15.69-2.26,1.54-3.34,2.54s-2.19,2.11-3.34,3.34l-3.24-3.36c.75-.59,1.59-1.27,2.52-2.04.93-.77,1.88-1.56,2.84-2.36.96-.8,1.87-1.56,2.72-2.28.85-.72,1.57-1.32,2.16-1.8.56-.45,1.23-1,2-1.64.77-.64,1.57-1.31,2.4-2,.83-.69,1.61-1.35,2.36-1.98.75-.63,1.36-1.15,1.84-1.58-.4,0-.95.02-1.64.06-.69.04-1.45.07-2.28.1-.83.03-1.65.06-2.48.1s-1.59.08-2.3.12c-.71.04-1.27.07-1.7.1-.51.03-1.03.06-1.58.1s-1.05.1-1.5.18l-.16-4.68Z"/>
        <path class="cls-1" d="m135.35,158.85v-29.56h5.28v25.12h12.28v4.44h-17.56Z"/>
        <path class="cls-1" d="m170.15,159.41c-1.71,0-3.25-.25-4.64-.76-1.39-.51-2.57-1.29-3.54-2.36-.97-1.07-1.72-2.47-2.24-4.2s-.78-3.8-.78-6.2v-16.6h5.24v17c0,2.11.25,3.79.76,5.04.51,1.25,1.21,2.15,2.1,2.68.89.53,1.93.8,3.1.8s2.29-.27,3.2-.8c.91-.53,1.62-1.43,2.14-2.68.52-1.25.78-2.93.78-5.04v-17h5.08v16.6c0,2.4-.26,4.47-.78,6.2-.52,1.73-1.27,3.13-2.24,4.2-.97,1.07-2.15,1.85-3.52,2.36-1.37.51-2.93.76-4.66.76Z"/>
        <path class="cls-1" d="m189.67,158.85v-29.56h5.4l9.16,16.56,3.08,6.32h.2c-.16-1.52-.32-3.17-.48-4.94-.16-1.77-.24-3.49-.24-5.14v-12.8h5v29.56h-5.4l-9.12-16.6-3.08-6.24h-.16c.11,1.55.24,3.18.4,4.9.16,1.72.24,3.41.24,5.06v12.88h-5Z"/>
        <path class="cls-1" d="m232.11,159.41c-1.87,0-3.6-.33-5.2-1-1.6-.67-3.01-1.65-4.24-2.96-1.23-1.31-2.18-2.91-2.86-4.8-.68-1.89-1.02-4.05-1.02-6.48s.35-4.59,1.06-6.48c.71-1.89,1.68-3.51,2.92-4.84,1.24-1.33,2.68-2.35,4.32-3.04,1.64-.69,3.39-1.04,5.26-1.04s3.52.38,4.96,1.14c1.44.76,2.63,1.63,3.56,2.62l-2.8,3.36c-.77-.75-1.61-1.36-2.52-1.84s-1.95-.72-3.12-.72c-1.57,0-2.99.43-4.24,1.3-1.25.87-2.23,2.09-2.92,3.68-.69,1.59-1.04,3.49-1.04,5.7s.33,4.17,1,5.78c.67,1.61,1.61,2.85,2.82,3.72,1.21.87,2.63,1.3,4.26,1.3,1.31,0,2.48-.28,3.52-.84s1.97-1.29,2.8-2.2l2.8,3.32c-1.2,1.41-2.57,2.49-4.12,3.22-1.55.73-3.28,1.1-5.2,1.1Z"/>
        <path class="cls-1" d="m247.39,158.85v-29.56h5.28v11.88h11.92v-11.88h5.24v29.56h-5.24v-13.08h-11.92v13.08h-5.28Z"/>
        <path class="cls-1" d="m124.07,191.37c-.56.35-1.15.69-1.76,1.02-.61.33-1.27.67-1.96,1.02-.64.32-1.42.7-2.34,1.14-.92.44-1.91.93-2.96,1.48-1.05.55-2.11,1.11-3.16,1.7-1.05.59-2.05,1.19-2.98,1.8-1.73,1.12-3.11,2.29-4.14,3.5-1.03,1.21-1.54,2.54-1.54,3.98s.72,2.65,2.16,3.48c1.44.83,3.6,1.24,6.48,1.24,1.41,0,2.91-.07,4.48-.2,1.57-.13,3.11-.31,4.6-.52s2.8-.47,3.92-.76l-.04,5.16c-1.09.19-2.31.35-3.64.5-1.33.15-2.76.27-4.28.36-1.52.09-3.15.14-4.88.14-1.95,0-3.75-.15-5.42-.46-1.67-.31-3.12-.8-4.36-1.48-1.24-.68-2.21-1.59-2.9-2.74-.69-1.15-1.04-2.55-1.04-4.2s.36-3.11,1.08-4.46c.72-1.35,1.7-2.59,2.94-3.74,1.24-1.15,2.65-2.24,4.22-3.28.96-.67,1.99-1.31,3.08-1.92,1.09-.61,2.17-1.21,3.22-1.78,1.05-.57,2.04-1.1,2.96-1.58s1.69-.89,2.3-1.24c.69-.43,1.32-.81,1.88-1.16.56-.35,1.09-.72,1.6-1.12l2.48,4.12Zm-20.16-8.2c.64,1.76,1.33,3.45,2.06,5.08.73,1.63,1.47,3.15,2.2,4.56.73,1.41,1.41,2.68,2.02,3.8l-4.04,2.36c-.72-1.17-1.46-2.52-2.22-4.04-.76-1.52-1.52-3.13-2.28-4.82-.76-1.69-1.51-3.38-2.26-5.06l4.52-1.88Z"/>
        <path class="cls-1" d="m139.35,184.05c-.08.27-.18.61-.3,1.04-.12.43-.23.85-.32,1.28-.09.43-.17.76-.22,1-.13.61-.29,1.41-.46,2.38-.17.97-.35,2.05-.52,3.24-.17,1.19-.33,2.39-.48,3.62-.15,1.23-.27,2.4-.36,3.52-.09,1.12-.14,2.09-.14,2.92,0,.53.02,1.1.06,1.7s.1,1.18.18,1.74c.19-.51.39-1.03.62-1.56.23-.53.45-1.06.68-1.58.23-.52.43-1.02.62-1.5l2.24,1.8c-.35,1.04-.72,2.15-1.12,3.34-.4,1.19-.75,2.31-1.06,3.36-.31,1.05-.54,1.94-.7,2.66-.05.27-.1.58-.14.94s-.06.66-.06.9c.03.19.04.43.04.72s.01.57.04.84l-4.04.32c-.4-1.41-.76-3.21-1.08-5.4-.32-2.19-.48-4.64-.48-7.36,0-1.49.07-3.05.2-4.68.13-1.63.29-3.21.48-4.74.19-1.53.37-2.93.56-4.2.19-1.27.33-2.3.44-3.1.08-.53.15-1.13.22-1.78.07-.65.11-1.26.14-1.82l4.96.4Zm19.6-.36c-.05.37-.1.78-.14,1.22s-.07.87-.1,1.3c-.03.45-.05,1.05-.08,1.78-.03.73-.04,1.54-.04,2.42v2.68c0,1.73.03,3.39.08,4.96.05,1.57.12,3.04.2,4.4s.15,2.63.22,3.8c.07,1.17.1,2.25.1,3.24s-.13,1.87-.4,2.72c-.27.85-.69,1.61-1.28,2.26-.59.65-1.37,1.16-2.34,1.52-.97.36-2.17.54-3.58.54-2.75,0-4.89-.55-6.44-1.64s-2.32-2.64-2.32-4.64c0-1.31.35-2.46,1.06-3.46.71-1,1.71-1.78,3-2.34,1.29-.56,2.85-.84,4.66-.84s3.48.2,5,.6,2.91.93,4.16,1.58c1.25.65,2.39,1.37,3.4,2.14,1.01.77,1.92,1.52,2.72,2.24l-2.44,3.8c-1.49-1.41-2.95-2.63-4.38-3.66-1.43-1.03-2.87-1.82-4.32-2.38-1.45-.56-2.95-.84-4.5-.84-1.25,0-2.27.24-3.04.72s-1.16,1.13-1.16,1.96.39,1.49,1.16,1.92c.77.43,1.75.64,2.92.64.91,0,1.62-.15,2.14-.46.52-.31.89-.75,1.1-1.32.21-.57.32-1.26.32-2.06,0-.69-.03-1.62-.08-2.78-.05-1.16-.11-2.44-.18-3.84-.07-1.4-.13-2.85-.18-4.36-.05-1.51-.08-2.97-.08-4.38,0-1.49,0-2.85-.02-4.08-.01-1.23-.02-2.15-.02-2.76,0-.32-.03-.74-.08-1.26-.05-.52-.11-.97-.16-1.34h5.12Zm-14.88,6.84c1.15.11,2.29.19,3.44.26,1.15.07,2.32.1,3.52.1,2.43,0,4.85-.11,7.26-.32,2.41-.21,4.65-.53,6.7-.96v4.48c-2.11.32-4.36.56-6.76.72s-4.8.25-7.2.28c-1.17,0-2.33-.03-3.46-.08-1.13-.05-2.29-.12-3.46-.2l-.04-4.28Z"/>
        <path class="cls-1" d="m181.19,204.73c-.16-1.07-.09-2.01.22-2.84.31-.83.75-1.57,1.34-2.22.59-.65,1.24-1.26,1.96-1.82.72-.56,1.4-1.1,2.04-1.62.64-.52,1.17-1.06,1.6-1.62.43-.56.64-1.17.64-1.84,0-.85-.21-1.58-.62-2.18-.41-.6-1.02-1.07-1.82-1.4-.8-.33-1.77-.5-2.92-.5-1.25,0-2.43.27-3.52.82-1.09.55-2.16,1.37-3.2,2.46l-2.96-2.72c1.31-1.47,2.81-2.64,4.52-3.52,1.71-.88,3.63-1.32,5.76-1.32,1.92,0,3.61.3,5.08.9s2.62,1.49,3.46,2.66c.84,1.17,1.26,2.61,1.26,4.32,0,.99-.21,1.85-.64,2.6-.43.75-.97,1.41-1.62,2-.65.59-1.35,1.16-2.1,1.72-.75.56-1.43,1.13-2.06,1.7-.63.57-1.11,1.22-1.46,1.94-.35.72-.45,1.55-.32,2.48h-4.64Zm2.36,10.44c-.93,0-1.71-.31-2.34-.92-.63-.61-.94-1.4-.94-2.36s.31-1.78.94-2.38c.63-.6,1.41-.9,2.34-.9s1.67.3,2.3.9c.63.6.94,1.39.94,2.38s-.31,1.75-.94,2.36c-.63.61-1.39.92-2.3.92Z"/>
      </g>
    </g>
  </g>
</svg>