<?xml version="1.0" encoding="UTF-8"?>
<svg id="Layer_2" data-name="Layer 2" xmlns="http://www.w3.org/2000/svg" viewBox="0 0 322.19 42.98">
  <defs>
    <style>
      .cls-1 {
        fill: #65b7ec;
        stroke: #65b7ec;
        stroke-linecap: round;
        stroke-linejoin: round;
        stroke-width: .68px;
      }

      .cls-2 {
        opacity: .8;
      }
    </style>
  </defs>
  <g id="_文字" data-name="文字">
    <g class="cls-2">
      <path class="cls-1" d="m7.91,28.24c.62-.79,1.45-1.67,2.46-2.6,1.06-.97,1.85-1.45,2.42-1.5.57-.04.97.09,1.06.44.13.4.04.62-.22.66-.31.04-1.1.62-2.29,1.67-1.19,1.06-2.38,2.33-3.43,3.74-.13,3.08-.18,5.46-.18,7.08s-.09,2.6-.31,2.9c-.22.26-.53.31-.88.18-.4-.09-.53-.92-.35-2.38.18-1.45.18-3.56,0-6.34-2.07,1.5-3.43,2.51-4.14,3.08-.7.53-1.14.66-1.36.44-.22-.22-.35-.48-.31-.88s.62-.92,1.67-1.54c1.06-.66,2.51-1.76,4.22-3.34v-15.8c-1.85.88-3.21,1.45-4.09,1.8-.92.35-1.45.31-1.76-.18-.31-.48.18-.92,1.32-1.5,1.14-.57,2.68-1.23,4.53-2.11.13-3.96.22-6.56.26-7.83.09-1.23.18-2.02.22-2.2.04-.22.26-.31.66-.26.4.04.62.26.66.53.04.31.09,1.1.09,2.29s-.04,3.39-.18,6.65c2.51-1.28,4.31-2.2,5.41-2.77,1.06-.57,1.67-.53,1.72.22s-.09,1.01-.48.88c-.4-.09-2.6,1.1-6.65,3.56-.13,6.87-.13,11.88-.09,15.09Zm13.42-5.24c2.73-.97,5.06-1.76,6.91-2.38,1.85-.57,3.43-1.06,4.75-1.45,1.32-.4,2.16-.53,2.46-.53s.53.04.75.09c.22,0,.4.13.62.31.22.18.26.35.22.48-.04.13-.18.31-.35.44-.18.13-.4.22-.62.18s-.4-.04-.62,0-.57.13-1.06.26c-.44.13-1.32.4-2.51.84-1.23.44-2.82.97-4.75,1.58.04.75.04,1.58-.09,2.55-.13.92-.26,2.29-.4,4,1.72-.7,2.82-1.19,3.39-1.45.53-.22.92-.4,1.23-.48.31-.09.62-.18.97-.22.4-.04.66-.04.79.04.13.09.22.35.26.75.04.44,0,.7-.04.84s-.22.13-.44.04c-.22-.09-.53-.09-.84.04-.35.13-1.36.48-2.95,1.01-1.58.57-2.42.88-2.55.88.04,1.58.13,3.3.18,5.15.35.13,1.23.35,2.46.7s2.9.84,4.88,1.58c1.94.7,3.21,1.1,3.7,1.23.44.13.92.22,1.41.26.44.04.75.13.97.18.22.04.35.18.4.4.04.22-.04.44-.31.66-.26.26-.53.4-.79.35-.31-.04-.75-.13-1.41-.35-.62-.22-1.1-.26-1.45-.26s-1.23-.26-2.68-.79c-1.5-.53-2.64-.92-3.48-1.1-.88-.22-1.89-.48-3.08-.75-1.14-.26-2.2-.53-3.08-.84-.92-.26-1.63-.62-2.2-1.01s-1.41-1.06-2.6-1.98c-.53,2.2-.84,3.65-.84,4.44,0,.75-.09,1.32-.31,1.67-.22.35-.4.48-.57.53-.13.04-.31,0-.53-.09-.22-.04-.31-.35-.35-.92-.04-.57,0-1.01.04-1.45s.53-2.07,1.32-4.88c.84-2.77,1.23-4.27,1.28-4.49.04-.22.18-.48.48-.79.31-.31.57-.4.84-.35.26,0,.26.62-.04,1.76-.31,1.1-.57,2.16-.88,3.21.48,0,1.06.18,1.67.53.66.31,1.23.66,1.63,1.06.44.4.79.62,1.06.75.26.09.62.22,1.06.4-.31-4.14-.4-6.69-.26-7.57.13-.84.35-2.42.7-4.71-3.96,1.32-6.29,2.07-6.95,2.24-.7.18-1.19.31-1.41.35-.26.04-.48,0-.7-.22-.22-.22-.18-.53.13-1.01.35-.18,1.89-.7,4.58-1.72Zm-2.86-14.39c-.04-3.48.22-5.28.88-5.41.62-.13.97.04,1.01.53.04.44,0,1.19-.18,2.11,2.55-2.07,5.28-3.17,8.36-3.21,1.54.22,2.6.57,3.26,1.01.62.44,1.01,1.54,1.14,3.34.13,1.8-.35,4.4-1.41,7.7.84-.48,1.36-.62,1.5-.44.13.18.18.44.13.79-.04.31-.84.75-2.33,1.28-.84,1.76-1.54,2.38-2.07,1.72-2.16.88-3.92,1.41-5.37,1.54-1.41.13-2.11-.04-2.11-.44-1.85-3.56-2.77-7.04-2.82-10.52Zm2.51,5.37c2.86-1.76,5.85-3.3,9.02-4.53.35-.22.7-.13,1.19.22.22-1.41.22-2.55-.09-3.39-.31-.79-.57-1.36-.84-1.67-4.09-.66-7.39.44-9.99,3.34,0,1.94.22,3.96.7,6.03Zm9.86-3.08c-3.12,1.23-6.29,2.77-9.55,4.53.35,1.06.75,1.89,1.14,2.6,2.29-.31,4.49-1.01,6.69-2.16.88-1.5,1.41-3.12,1.72-4.97Z"/>
      <path class="cls-1" d="m53.32,39.42v-1.06l-.35-.35.35-.31v-.4l-.4-.35v-.66l.4-.4v-.44l-.4-.35v-1.14l-.35-.4v-.22l.35-.4v-.84l-.35-.4v-9.9l.35-.35v-2.2l.4-.35v-1.14l.4-.4v-2.24l.35-.31v-1.28l-.35-.4-.35.4v.4l-.4.4v.35l-.4.35v.4l-1.1,1.14v1.14h-.44l-.26.31v.4l-.4.35v.35l-.35.4v.35l-.4.35v.4l-.35.4v1.06l-.35.35v.35l-.4.35v.44l-.35.4v.4l.35.4v.31l-.79.79h-.4l-.35.35h-.26l-.44-.4v-.44l-.31-.22.31-.35v-.75l.35-.4v-.75l.4-.4v-.66l.35-.35v-.4l.35-.4v-.7l.79-.79v-.35l.35-.35v-.75l.75-.79v-.31l.35-.4v-.35l.75-.79v-.31l.35-.4v-.75l.75-.75v-.35l.75-.75v-.4l.35-.35v-.75l1.14-1.1v-.4l1.1-1.1v-.35l.4-.4v-.35l1.1-1.1v-.4l1.54-1.54h.35l.4-.4h.66l.4.44v1.41l-2.55,2.6v.35l-.79.75v.4l-1.45,1.5v.35l-.4.4v.44l.35.35.44-.44h.26l.35.4h.44v.48l.31.22-.31.35v.4l-.35.35v.4l-.35.4v1.06l-.4.35v1.89l-.35.4v.7l-.4.4v1.85l-.35.35v11.22l.35.4v2.55l.4.4v1.41l.75.75v1.06h-.88l-.35.4h-.92l-.13-.18-.35-.31Zm27.55-1.67h-.44l-1.1-1.1h-.35l-.44-.44v-.44l-.26-.26h-.4l-2.64-2.6h-.44v-.48l-.35-.35v-.35l-1.1-1.1v-.35l-.4-.4v-2.2l-.31-.35-.75.7v.35l-.4.4v.35l-.4.35v.4l-.31.4v.35l-.79.75v.35l-.35.4v.75l-.4.4v.31l-.7.79v.35l-.4.4v.35l-.35.35v1.5l-.44.44h-1.85v-.44l-.35-.35v-.26l.35-.35v-.79l.4-.35v-.4l.35-.35v-.4l1.1-1.1v-1.14l.79-.7v-.4l.35-.35v-.4l.4-.35v-.35l.35-.4v-.53l-.4-.35-.4.48h-.35l-.4.35h-1.1l-.75.79h-.4l-.31.31h-.44l-.35.4h-.31l-.7.75h-.4l-.4.4h-1.8v-.44l-.4-.4v-.26l.44-.44h.44l.35-.35h.31l.4-.4h.35l.4-.35h.44l.31-.4h.35l.7-.7h.7l.4-.4h.44l.35-.4h.35l.35-.35h.4l.4-.31-.48-.44v-3.39l-.4-.35v-7.75l-.31-.4v-1.45l-.35-.35h-.84l-.4.4h-.31l-.4.4h-1.1l-.31.31h-.4l-.4.4h-.26l-.4-.4h-.35l-.44-.4v-.66l.44-.44h1.1l.4-.31h1.14l.35-.4h1.01l.4-.4h.4l.31-.31v-4.14h1.45l.44.44v1.1l.4.35v1.14l.26.31h.84l.4-.35h.35l.35-.4h.75l.4-.4h.75l.31-.26v-.4l.35-.35v-1.14l.4-.35v-1.19h1.5v.44l.4.4v.26l-.4.35v.88l.26.31h.92l.35-.4h1.1l.35-.4h2.6v.44l.35.4v.62l-.44.44h-.66l-.35-.4h-.84l-.4.4h-.75l-.35.4h-1.1l-.35.35h-.44l-.26.31v1.5l-.4.4v2.95l-.35.4v3.3l-.4.44.4.4v.26l-.35.4v1.8l-.4.35v1.28l.31.26h.84l.75-.75h.79l.35-.35h.35l.4-.35h.35l.35-.35h.75l.4-.4h1.36l.84.79v.26l-.84.79h-.75l-.35.4h-1.14l-.35.35h-.4l-.35.4h-.79l-.35.35h-.31l-.4.35h-.35l-.4.4h-.44l-.31.4h-.35l-.35.35h-.4l-.66.66v.88l.22.31h1.19l.79.75v.4l.35.4v.35l.79.75v.35l4.75,4.75h.35l.4.4h.4l.75.79v.4l.4.35v.26l-.44.35h-1.41l-.09-.13-.22-.13Zm-10.03-12.67h.31l.4-.35h.35l.7-.66v-5.54l.35-.4v-3.7l.4-.4v-1.58l-.31-.35.31-.22v-1.67l-.44-.35-.31.44h-1.14l-.4.4h-.7l-.4.4h-.44l-.62.7.35.4v.31l-.31.35v1.23l.22.31-.22.31v.44l.31.4v4.09l.4.4v4.36l.35.4v.44l.44.35.4-.48Z"/>
      <path class="cls-1" d="m99.61,19.22c-.13,3.21-.57,6.56-1.36,9.95-1.06,4.27-1.94,7.52-2.73,9.64-.75,2.07-1.23,3.26-1.41,3.43-.18.13-.4.26-.62.35-.22.13-.48,0-.79-.4-.31-.44.4-2.99,2.11-7.7,1.72-4.71,2.77-11.79,3.26-21.34-1.41.35-2.29.53-2.51.53s-.44-.09-.62-.22c-.22-.13-.22-.4-.09-.79.13-.4,1.54-1.1,4.22-2.07,2.73-1.01,6.69-2.38,11.88-4.05-1.67-1.36-2.82-2.46-3.43-3.34-.66-.84-1.01-1.36-1.06-1.58-.04-.22,0-.53.22-.84s.44-.44.7-.44.48.09.7.18c.22.18.88.92,1.94,2.24,1.1,1.32,1.98,2.38,2.82,3.17,3.08-1.1,5.41-1.85,6.91-2.24,1.5-.4,2.6-.48,3.17-.35.62.13.57.62-.18,1.36-.7.79-1.19,1.1-1.5.92-.31-.18-2.42.31-6.29,1.5-3.92,1.19-8.98,2.95-15.09,5.32.18,2.2.09,4.49-.26,6.78Zm13.91-4v1.85c.31-.13.92-.35,1.8-.75.92-.4,1.8-.79,2.68-1.19.84-.35,1.5-.62,1.94-.75.44-.13.92-.31,1.5-.48.57-.13,1.06.04,1.36.57.35.53,0,.88-.97,1.14-1.01.26-2.55.84-4.58,1.67-2.02.88-3.3,1.41-3.83,1.5-.04,1.58-.04,2.73.04,3.52.09.75.22,1.85.4,3.17,2.07-1.06,4.22-1.85,6.47-2.46.7-.13,1.5-.04,2.24.26.79.31,1.36.97,1.72,1.85.62,2.9.4,6.03-.62,9.29.62.31.79.62.53.97-.31.4-.7.66-1.23.75-1.5,1.76-2.33,2.11-2.64,1.01-5.72,1.85-9.51,3.08-11.27,3.65-1.76.53-2.77.79-2.99.75-.18-.04-.35-.22-.48-.57-.13-.35.09-.7.7-1.06-1.67-4.05-2.42-7.04-2.38-9.02.04-1.94.22-2.95.57-3.04.35-.04.7.04,1.01.31.31.31.44.7.35,1.23-.09.53-.09,1.01.04,1.45,2.02-1.8,4.22-3.34,6.51-4.62-.31-1.32-.48-3.04-.57-5.19-.09-2.16-.04-4.27.09-6.42.13-2.16.53-3.26,1.19-3.3.62-.04.79.48.57,1.67-.13,1.06-.18,1.85-.18,2.24Zm9.33,12.76c-.13-1.89-.48-2.99-1.14-3.21-.66-.22-2.42.18-5.32,1.28-2.95,1.06-6.25,3.39-9.99,6.95.18,1.67.84,3.78,1.98,6.25,4.44-1.23,8.71-2.51,12.89-3.96,1.23-2.9,1.72-5.37,1.58-7.3Z"/>
      <path class="cls-1" d="m132.61,19.39c-.4-.53.04-2.33,1.19-5.37,1.19-3.04,2.46-5.76,3.79-8.1,1.36-2.24,2.16-3.56,2.42-3.74.22-.22.79,0,1.58.7,3.61,1.76,6.51,3.34,8.67,4.71,2.2,1.32,2.86,2.2,1.94,2.6-.88.44-1.54.57-1.94.4-.35-.13-.53-.35-.44-.62.09-.22-.66-.88-2.16-2.02-1.5-1.06-3.96-2.16-7.3-3.3-2.55,4.14-4.14,7.35-4.8,9.68-.62,2.33-.79,3.65-.53,3.96.26.35-.09.84-1.06,1.54-.53.22-.97.09-1.36-.44Zm16.77,1.41c.66-.13.97.09.97.62s-.26.92-.84,1.14c-.62.31-1.14.48-1.72.62s-1.72.53-3.56,1.23c-1.85.75-3.7,1.45-5.5,2.11-1.8.7-2.82.97-3.04.79-.18-.18-.22-.48-.18-.92,0-.35.53-.75,1.58-1.06,1.01-.31,2.38-.84,4.09-1.54l.4-4.93c-2.2.84-3.96,1.72-5.28,2.68s-1.98,1.06-1.94.35c.04-.75.13-1.19.26-1.32.13-.18.31-.31.48-.4.13-.04.7-.35,1.76-.92,1.01-.53,2.6-1.28,4.71-2.29.09-1.72.18-2.99.22-3.78.04-.84.18-1.32.31-1.5.13-.13.44-.22.79-.22.4,0,.62.18.7.48.04.31,0,.92-.13,1.8-.18.92-.22,1.72-.18,2.46.22-.18,1.01-.44,2.24-.84,1.23-.35,1.76-.22,1.63.53-.13.75-.7,1.14-1.8,1.28-1.06.13-1.76.44-2.16.92l-.26,4.97,4.53-1.63c.57-.31,1.19-.53,1.89-.66Zm-12.98,18.22c-.13-1.72-.18-2.99-.22-3.92-.04-.92.22-2.33.75-4.27.48-1.89.92-1.85,1.32.13.75-.44,1.54-.88,2.46-1.23.88-.4,1.76-.84,2.64-1.36.88-.48,1.8-.84,2.9-.97,1.06-.13,1.72.48,1.94,1.76.18,1.28.18,2.33-.13,3.04-.31.79-.44,1.85-.4,3.21.04,1.41-.48,1.76-1.58,1.14l-4.36,2.46-2.73,1.14c-1.63.88-2.51.57-2.6-1.14Zm1.72-.53l7.75-3.52c.57-1.89.79-3.39.75-4.4-.04-1.01-.53-1.41-1.5-1.19-.97.26-3.3,1.5-6.95,3.78-.44,1.85-.44,3.61-.04,5.32Zm29.88-22.53c.97,1.23,2.02,3.17,3.04,5.72,1.06,2.55,1.5,5.9,1.36,9.95-.13,4.09-.44,6.29-.92,6.56-.48.22-.79.35-.84.35-.09,0-.26-.4-.44-1.19-.26-.7-.22-1.85.09-3.34.44-2.86.44-5.63,0-8.32-2.73.7-4.84,1.94-6.42,3.52.22,2.33.4,4.22.53,5.63s-.13,2.2-.75,2.24c-.62,0-.92-.53-1.06-1.76-.13-1.19-.31-2.99-.62-5.37-2.6,1.36-5.02,2.9-7.3,4.66.22,1.41.48,2.24.88,2.46.31.18.4.44.26.75-.09.31-.31.62-.62.92-.31.26-.57.4-.7.4-.18,0-.53-.53-1.01-1.67-.53-1.1-.84-2.77-.97-5.02-.48-4.84-.53-8.54-.09-11,.48-2.46.79-3.78.97-3.92.13-.13.4-.13.75,0,.4.13.48.35.35.66-.18.31-.18.62,0,.92,1.8-1.5,3.87-2.9,6.21-4.14-.22-2.02-.44-4-.57-5.94-2.55.97-4.45,1.72-5.72,2.2-1.23.48-1.98.53-2.11.18-.18-.4-.22-.62-.13-.7.09-.09.84-.4,2.25-.88,1.41-.44,3.3-1.23,5.76-2.38-.04-.92-.04-1.85-.04-2.86s.22-1.58.7-1.8c.44-.22.84-.22,1.14,0,.31.22.31.75.09,1.54-.22.84-.31,1.58-.18,2.24,1.5-.75,2.82-1.1,3.83-1.01,1.01.13,1.32.44,1.01,1.1-.31.66-.62,1.06-.92,1.06-.31.09-.57-.04-.75-.48-1.19,0-2.2.4-3.12,1.1,0,1.94.18,3.96.48,6.07,2.11-.31,3.96.22,5.59,1.54Zm-13.99,9.73c2.55-1.23,4.97-2.6,7.17-4.14-.04-1.58-.18-3.26-.4-4.97-2.55,1.41-4.75,3.17-6.56,5.28l-.22,3.83Zm7.35-2.46c-2.33,1.5-4.71,2.9-7.13,4.31-.22,1.63-.13,3.34.26,5.15,2.73-1.8,5.1-3.3,7.26-4.53-.09-1.8-.22-3.43-.4-4.93Zm4.22-4.44c.75-.48,1.63-.53,2.68-.09-1.36-2.24-3.26-3.26-5.63-2.95-.04,1.76.09,3.34.31,4.84.97-.66,1.89-1.28,2.64-1.8Zm2.95.53c.04.13,0,.26-.22.44-.22.22-.4.44-.62.75-.22.26-.48.4-.79.31-.26-.09-.53-.18-.66-.26-1.1.4-2.07,1.06-3.08,1.89.13,1.45.31,3.12.48,4.97,2.16-1.41,4.31-2.64,6.42-3.52-.31-1.72-.79-3.26-1.54-4.58Zm5.24-9.55c.04.18.04.31,0,.4-.04.13-.31.22-.79.31s-.75.13-.88.13-.44-.66-.88-1.94c-.48-1.23-.79-2.55-.88-3.83-.18-1.23-.31-2.02-.4-2.29s.13-.44.66-.66c.57-.22.88-.22.97-.09.04.18.22.92.44,2.29.22,1.32.48,2.99.97,4.97.48.31.75.53.79.7Z"/>
      <path class="cls-1" d="m184,29.21c-.26-6.42-.22-11.18.18-14.3.4-3.12.66-4.8.75-5.06.09-.22.35-.26.7-.13.4.18.66.4.75.62.04.26-.13,2.42-.57,6.51-.44,4.05-.35,8.01.26,11.93s1.01,6.2,1.19,6.73c.13.62-.13.7-.79.31-1.63-1.89-2.46-4.09-2.46-6.6Zm30.72,3.7c-.31.13-.66.09-1.06-.13-.44-.22-.88-.66-1.36-1.36-.53-.75-1.06-1.32-1.67-1.67-.66-.4-1.5-.57-2.64-.57-1.23,3.3-3.17,5.32-5.81,6.07-2.6.7-4.4.84-5.46.35-1.06-.44-1.67-.97-1.8-1.45s-.22-1.1-.22-2.02c0-.84.48-1.67,1.54-2.38,1.01-.75,2.29-1.36,3.92-1.8,1.58-.48,3.65-.7,6.16-.7.4-4,.26-8.67-.4-14.13-4.49,2.38-7.66,4.36-9.51,5.85-1.85,1.54-2.9,2.33-3.12,2.38-.26.09-.48-.04-.7-.35-.22-.31-.31-.53-.22-.7.04-.13,1.06-1.06,3.08-2.64,1.98-1.58,5.37-3.61,10.17-6.07,0-.7-.26-1.54-.84-2.42s-.66-1.5-.26-1.89c.4-.4.79-.48,1.14-.35.26.18.84,1.32,1.63,3.48,1.58-1.01,2.9-1.72,3.96-2.07,1.01-.31,1.67-.4,1.89-.26.22.18.31.44.26.75-.09.35-.62.7-1.67,1.06-1.06.4-2.42,1.14-4.18,2.2.62,4.53.88,9.59.75,15.18,2.99.48,5.06,1.85,6.34,4.14.31.88.35,1.41.09,1.54Zm-8.62-3.92c-1.28-.18-3.17.04-5.63.66-2.42.57-3.78,1.8-3.92,3.56,0,.44.26.79.84.92.57.18,1.85.09,3.92-.22,2.86-1.58,4.49-3.26,4.8-4.93Z"/>
      <path class="cls-1" d="m223.42,11.43c-.4-.48.18-1.06,1.67-1.8,1.5-.7,3.74-1.36,6.69-1.94,2.99-.57,4.97-1.1,6.16-1.54,1.1-.35,1.85-.62,2.16-.75.31-.13.44.04.53.44.09.35.09.7,0,.92-.09.26-.22.53-.53.79-.31.22-.7.35-1.28.35-.44.09-2.24.44-5.33,1.06-3.08.62-5.81,1.36-8.1,2.38-.97.53-1.58.53-1.98.09Zm10.74,22.58c4.36-1.54,8.27-3.04,11.84-4.53,3.56-1.54,5.41-2.24,5.63-2.24s.44.09.62.31c.13.22.13.48-.04.79-.18.31-2.42,1.41-6.65,3.34-4.27,1.94-10.12,3.92-17.51,5.98-.66.13-1.41.04-2.16-.26s-1.14-.66-1.19-1.06.04-.7.31-.88c.22-.13.53-.22.79-.22,1.19.75,3.96.31,8.36-1.23Z"/>
      <path class="cls-1" d="m267.03,13.37c-4.97,2.99-7.66,4.22-8.01,3.74-.4-.44-.53-.84-.35-1.23.18-.35,3.04-1.89,8.58-4.66.26-1.85.31-3.17.13-3.92-.18-.75.18-1.32,1.01-1.63.84-.35,1.1,1.23.7,4.71,3.17-1.8,5.76-2.82,7.79-3.12,1.98-.31,3.12-.26,3.43.13.31.35.31.66,0,.97-.31.31-1.54.57-3.74.79s-4.66,1.32-7.48,3.26c-.48,4.09-.62,8.32-.48,12.76,4.36-.75,7.88-1.41,10.65-2.02,2.73-.62,4.71-.44,5.94.57,1.41,1.63,1.76,3.56,1.06,5.81-.7,1.8-2.11,3.56-4.27,5.32-2.2,1.76-3.56,2.73-4.14,2.86-.53.13-.92,0-1.14-.4-.22-.35-.26-.62-.13-.7.13-.09,1.58-1.32,4.36-3.56,2.68-2.29,4.05-4.75,4.05-7.35-1.41-1.19-3.92-1.32-7.61-.4-3.7.88-6.38,1.54-8.05,1.85-1.67.35-2.64.09-2.82-.79.13-4.62.31-8.98.53-12.98Z"/>
      <path class="cls-1" d="m299.37,24.02c.35-3.3.53-6.12.53-8.49.31-.62.75-.88,1.32-.7.57.18.84.62.84,1.41-.84,3.83-1.06,7.83-.75,11.97.31.62,2.29.22,5.85-1.1s6.56-2.11,9.07-2.33c2.51-.22,4.18.18,5.06,1.14.88.92.75,2.42-.44,4.49-1.14,2.07-2.68,3.78-4.58,5.19-1.89,1.45-2.99,2.16-3.39,2.2-.4.09-.7,0-.92-.31-.22-.31-.18-.7.13-1.28.31-.57,1.14-1.14,2.42-1.8,1.23-.66,2.51-1.76,3.65-3.26,1.14-1.5,1.67-2.82,1.58-3.92-2.42-.97-5.15-.88-8.23.22-3.17,1.1-5.63,1.98-7.52,2.51-1.94.57-3.12.7-3.57.35-1.1-.92-1.45-3.04-1.06-6.29Zm12.01-12.37c-.18-.13-.26-.4-.26-.79s-.31-.84-.97-1.28c-2.2-1.1-3.87-1.67-4.93-1.76-1.06-.04-1.76-.18-2.16-.48-.4-.26-.62-.48-.66-.66-.09-.13-.09-.4.04-.75.09-.31.22-.53.4-.62.13-.09,1.19.13,3.12.62,1.94.48,3.79,1.32,5.63,2.42,1.85,1.14,2.51,1.89,2.07,2.38-.4.48-.84.79-1.23,1.01-.57.13-.88.09-1.06-.09Z"/>
    </g>
  </g>
</svg>