<?xml version="1.0" encoding="UTF-8"?>
<svg id="Layer_2" data-name="Layer 2" xmlns="http://www.w3.org/2000/svg" viewBox="0 0 435.29 304.14">
  <defs>
    <style>
      .cls-1 {
        fill: #65b7ec;
        stroke: #65b7ec;
        stroke-linecap: round;
        stroke-linejoin: round;
        stroke-width: .6px;
      }

      .cls-2 {
        opacity: .8;
      }
    </style>
  </defs>
  <g id="_背景" data-name="背景">
    <g class="cls-2">
      <path class="cls-1" d="m22.5,15c.75-.14,1.55-.28,2.49-.38.89-.09,1.65.09,2.21.61.52.52.75,1.41.71,2.87-.05,1.41-.47,2.58-1.17,3.67-.75,1.03-1.32,1.69-1.69,2.02-.42.28-1.27.38-2.49.33-1.22-.05-2.54.05-3.81.38-.14,1.88-.24,3.48-.28,4.61,3.9-.8,6.3-1.27,7.1-1.41.85-.14,2.12-.24,3.9-.24s3.05.24,3.71.71c.71.52,1.27,1.36,1.69,2.49.38,1.17.47,2.35.23,3.57-.19,1.27-.61,2.82-1.27,4.7s-1.27,3.34-1.93,4.32c-.66.94-1.13,1.41-1.46,1.27s-.38-.61-.05-1.46c.33-.89.66-1.69.99-2.58.38-.85.75-1.83,1.08-2.87.33-1.08.61-2.35.75-3.76.19-1.46,0-2.54-.52-3.29-.56-.71-1.6-1.13-3.01-1.22-1.41-.09-2.54-.05-3.38.09s-2.21.47-4.14.85c-1.93.42-3.2.75-3.9.94-.14,1.27-.28,3.1-.42,5.5-.14,2.4-.23,4.04-.28,4.98-.05.99,0,1.79.09,2.44.09.71-.05,1.18-.38,1.46-.38.33-.75.19-1.08-.33-.33-.56-.52-1.08-.52-1.55,0-.42.05-1.17.09-2.11.05-.99.14-2.4.19-4.18.05-1.79.14-3.43.19-4.75-.33.33-.8.8-1.6,1.46-.8.71-2.96,2.63-6.58,5.83-3.62,3.24-5.64,4.89-6.06,4.93-.38.05-.66-.19-.8-.7-.14-.52,1.08-1.83,3.67-3.95,2.58-2.11,4.61-3.85,6.11-5.26,1.5-1.41,2.58-2.4,3.15-2.96-1.22.14-2.49.28-3.71.52-1.22.23-2.02,0-2.26-.66-.23-.71-.28-1.13-.05-1.36.24-.23.52-.75.89-1.69.38-.89.47-1.6.28-2.12-.19-.52-.33-.99-.38-1.6-.05-.61.94-1.03,3.1-1.32,2.16-.33,3.76-.61,4.89-.85.14-.89.23-1.74.28-2.44.05-.66.14-1.22.28-1.65.09-.42.24-.71.42-1.03-4.09.75-6.44,1.22-7.05,1.27-.61.05-1.03-.23-1.18-.85-.19-.56,2.3-1.32,7.61-2.16,2.77-.56,4.56-.94,5.31-1.08ZM6.33,5.46c-.24.99-.33,2.11-.19,3.52,3.67-1.88,6.53-3.24,8.51-4.04,1.97-.75,3.05-1.08,3.29-.94.23.14.33.38.33.56,0,.23-.09.52-.33.75-.24.23-1.46.89-3.71,1.93-.52,2.4-.47,4.42.09,6.06.56,1.65.61,2.63.09,2.87-.52.19-1.03-.38-1.69-1.83-.66-1.41-.89-3.52-.71-6.25-.94.33-1.83.7-2.54,1.03-.75.33-1.88.94-3.43,1.69.14,1.46.33,2.58.66,3.52.33.99.14,1.55-.56,1.69-.66.14-1.08.05-1.22-.38s-.38-1.74-.61-4.09c-.23-2.35-.14-4.65.33-6.91.47-2.21.99-3.48,1.46-3.71.52-.24.85.19.89,1.17-.19,1.27-.42,2.35-.66,3.34Zm4.32,20.58c.42.71.56,1.5.38,2.4-.19.94-.52,1.69-1.03,2.4,1.46-.33,3.52-.75,6.34-1.27.05-.71.14-1.46.19-2.26.05-.85.14-1.65.19-2.44-3.24.7-5.26,1.08-6.06,1.17Zm8.65-8.51c-.14,1.13-.23,2.77-.38,4.93,1.46.05,3.24-.05,5.31-.28,1.03-1.22,1.6-2.16,1.74-2.96.14-.8.05-1.69-.28-2.82-1.83.23-3.99.61-6.39,1.13Zm9.82-10.67c-.94.33-1.93.61-2.96.85-1.03.23-1.93.14-2.68-.38-1.13-1.6-1.69-2.91-1.6-4.04.09-1.08.28-1.83.52-2.26.23-.42.56-.61.94-.71.42-.09.8,0,1.13.24.33.19.28.8-.24,1.69-.52.85-.28,2.21.66,3.9.56.14,1.88-.23,3.85-1.03,1.69-.89,3.53-1.97,5.41-3.2.75-.33,1.17-.14,1.36.52.19.61-.14.99-.89,1.13-1.13.42-2.16,1.13-3.15,2.11-.38,2.02-.71,3.57-.89,4.65-.19,1.13-.56,1.79-1.08,1.97-.47.23-.7,0-.66-.56-.05-1.41.05-3.05.28-4.89Z"/>
      <path class="cls-1" d="m78.47,5.46c.24-.42.56-.61,1.08-.61s.85.28,1.03.89c-1.22,1.79-3.34,5.03-6.39,9.87-3.1,4.79-5.73,9.78-7.99,14.85-2.26,5.12-3.53,7.94-3.85,8.46-.33.52-.89.85-1.64,1.03-.8.19-1.03-.14-.8-.89,4.93-11.98,11.09-23.17,18.56-33.6Z"/>
      <path class="cls-1" d="m101.22,13.64c-.47-.28.33-1.32,2.44-3.24,2.12-1.88,5.41-3.29,9.87-4.32,2.49-.61,3.85-.56,4.09.14.24.66.28,1.79.19,3.2-.09,1.41-.61,2.96-1.55,4.61-.99,1.6-1.65,2.3-2.02,2.16-.42-.19-1.27.05-2.68.71-1.41.71-3.24,2.12-5.5,4.32-.61,2.16-.85,4.42-.71,6.77,2.07-.47,4.04-1.27,5.92-2.3,1.88-1.08,3.76-1.22,5.69-.42,1.27.89,1.97,2.07,2.21,3.48.24,1.41-.14,3.43-1.08,6.16-1.03,2.73-2.12,5.03-3.29,7-1.22,1.97-1.97,3.01-2.35,3.06-.38.05-.61-.05-.71-.24-.14-.19-.19-.42-.24-.75-.05-.28.28-.75.89-1.41.56-.66,1.46-2.07,2.58-4.28,1.17-2.21,1.93-4.61,2.35-7.33.38-2.73-.52-4.09-2.77-4.14-3.62,1.22-6.25,2.16-7.8,2.82-1.64.61-2.58.89-3.01.85-.42-.05-.61-.8-.61-2.3s.42-3.38,1.27-5.78c-.42-.28-.66-.71-.75-1.22-.14-.52.05-.89.56-1.03,2.82-2.4,6.3-4.65,10.48-6.72.23-1.08.61-2.07,1.03-3.05.42-1.03.38-1.97-.09-2.73-5.55.56-10.01,2.58-13.25,6.06-.28.23-.66.23-1.17-.05Zm18.56,27.96c-.24-.38-.28-.75-.14-1.17.09-.42,3.62-2.16,10.62-5.26-.05-2.21-.09-4.37-.09-6.53-2.4.89-4.14,1.55-5.26,2.07-1.08.52-1.83.52-2.16-.05-.33-.56.19-1.08,1.69-1.6,1.41-.52,3.34-1.27,5.73-2.26.05-1.5.05-3.34,0-5.5-2.73,1.13-5.08,2.49-6.96,3.95.47.89.89,1.41,1.22,1.5.28.09.38.33.28.75-.14.42-.52.75-1.03,1.08-.52.33-1.27-.75-2.3-3.34-1.03-2.58-1.32-6.06-.8-10.48,0-.66.28-1.08.99-1.22.66-.14,1.41-.47,2.4-.99.89-.47,2.16-.94,3.67-1.46-2.02-.38-3.43-1.41-4.23-3.2-.52-.94-.99-1.83-1.55-2.82-.61-.94-.71-1.6-.28-2.02.42-.42.75-.52,1.08-.38.28.14.56.56.8,1.22.23.61.61,1.6,1.13,2.82.47,1.27,1.55,2.35,3.24,3.29.85-.19,1.18,0,.85.52,2.02-.33,4.18-.56,6.49-.7-.56-.19-.71-.47-.61-.89.14-.42.47-1.22.99-2.49-.14-1.65.05-2.63.56-3.15.47-.52.89-.75,1.13-.75s.42.19.52.52c.09.33.05,1.08-.19,2.16-.23,1.13-.8,2.63-1.64,4.61,2.12.42,3.52,1.22,4.32,2.4.71,1.13,1.08,2.87,1.03,5.12s-.61,4.61-1.64,6.96c-1.08,2.4-1.65,3.67-1.88,3.81-.24.14-.47.23-.8.28-.33.05-.52-.14-.75-.52-.24-.42-.09-.94.38-1.65-1.27.38-2.68.89-4.23,1.5.05,3.15,0,5.31-.05,6.39,6.34-2.91,9.78-4.23,10.15-3.99.38.28.52.61.47,1.03-.09.42-.33.61-.71.61-.42,0-3.71,1.41-9.82,4.28-.14,2.63-.05,4.65.14,6.06.24,1.46.28,2.21.14,2.35-.14.14-.47.33-1.08.52-.61.19-.99-.52-1.08-2.02-.19-1.5-.28-3.43-.24-5.69-3.2,1.41-5.88,2.58-8.08,3.67-1.41.75-2.16.99-2.4.66Zm11.14-29.04c.42-.47.8-.52,1.13-.14.33.42.47,1.13.38,2.16-.09,1.08-.14,2.3-.14,3.76,2.3-1.03,4.75-1.79,7.29-2.26-.24-.94-.52-1.83-.89-2.58-.33-.8-1.08-1.36-2.16-1.74-4.51-.99-9.26.42-14.24,4.23-.47,2.3-.38,4.65.33,7.05,2.68-1.32,5.17-2.63,7.52-3.76.14-3.99.42-6.2.8-6.72Zm-1.46-6.77c-.19-1.13-.33-1.97-.47-2.63-.14-.66-.19-1.08-.05-1.41.09-.33.33-.52.75-.61.38-.09.71.09.94.61.24.52.38,1.22.33,2.26-.05.99.38,2.3,1.22,3.9.66,0,1.08.09,1.22.24.14.14.14.28,0,.42-.14.14-.47.28-.94.38-.52.09-.89.05-1.22-.14-.99-.89-1.6-1.93-1.79-3.01Zm9.87,11.94c-2.4.94-4.75,1.83-7,2.54-.05,2.02-.09,3.9-.05,5.73,1.6-.75,3.38-1.46,5.45-2.02.94-2.07,1.5-4.18,1.6-6.25Z"/>
      <path class="cls-1" d="m157.06,31.31c-.28-6.86-.24-11.94.19-15.27s.71-5.12.8-5.4c.09-.23.38-.28.75-.14.42.19.71.42.8.66.05.28-.14,2.58-.61,6.96-.47,4.32-.38,8.55.28,12.74.66,4.18,1.08,6.63,1.27,7.19.14.66-.14.75-.85.33-1.74-2.02-2.63-4.37-2.63-7.05Zm32.8,3.95c-.33.14-.71.09-1.13-.14-.47-.23-.94-.7-1.46-1.46-.56-.8-1.13-1.41-1.79-1.79-.71-.42-1.6-.61-2.82-.61-1.32,3.52-3.38,5.69-6.2,6.49-2.77.75-4.7.89-5.83.38-1.13-.47-1.79-1.03-1.93-1.55-.14-.52-.24-1.17-.24-2.16,0-.89.52-1.79,1.64-2.54,1.08-.8,2.44-1.46,4.18-1.93,1.69-.52,3.9-.75,6.58-.75.42-4.28.28-9.26-.42-15.09-4.79,2.54-8.18,4.65-10.15,6.25-1.97,1.65-3.1,2.49-3.34,2.54-.28.09-.52-.05-.75-.38s-.33-.56-.24-.75c.05-.14,1.13-1.13,3.29-2.82,2.12-1.69,5.73-3.85,10.86-6.49,0-.75-.28-1.65-.89-2.58-.61-.94-.71-1.6-.28-2.02s.85-.52,1.22-.38c.28.19.89,1.41,1.74,3.71,1.69-1.08,3.1-1.83,4.23-2.21,1.08-.33,1.79-.42,2.02-.28.24.19.33.47.28.8-.09.38-.66.75-1.79,1.13-1.13.42-2.58,1.22-4.46,2.35.66,4.84.94,10.25.8,16.21,3.2.52,5.4,1.97,6.77,4.42.33.94.38,1.5.09,1.65Zm-9.21-4.18c-1.36-.19-3.38.05-6.02.71-2.58.61-4.04,1.93-4.18,3.81,0,.47.28.85.89.99.61.19,1.97.09,4.18-.23,3.05-1.69,4.79-3.48,5.12-5.26Z"/>
      <path class="cls-1" d="m11.45,89.49c.05,4.37.47,8.65,1.36,12.83.05.94-.24,1.46-.8,1.5-.52.09-.89-.19-1.03-.85-1.36-7.99-1.79-14.43-1.46-19.46.28-4.93.56-8.18.71-9.78-.09-.8.24-1.27.94-1.36.66-.09,1.03.23.99.94-.61,4.61-.8,9.35-.71,14.19,2.26.05,4.75-.19,7.38-.66,2.58-.52,4.7-.8,6.39-.85,1.74-.05,2.54.05,2.54.28s-.24.66-.66,1.13c-.47.52-1.46.66-2.91.42-4.09.42-8.32.99-12.74,1.65Zm14.43-15.56c.38.85.71,1.5.99,2.07.24.56.42,1.08.66,1.5.19.47.09.8-.28.94-.33.19-.7.23-1.08.14-.38-.09-.85-.8-1.41-2.02-.61-1.22-.94-2.44-.94-3.67-.05-1.22,0-1.93.09-2.21.09-.23.52-.33,1.22-.28.66.05.89.61.56,1.55-.23.52-.19,1.22.19,1.97Zm6.25,2.35c.19,0,.28.24.28.71,0,.42-.42.66-1.22.61-.8,0-1.46-.99-1.88-3.06-.38-2.07-.47-3.76-.24-5.12.19-1.41.71-2.02,1.41-1.93.66.14.85.52.61,1.13-.38,2.4-.09,4.93.75,7.66h.28Z"/>
      <path class="cls-1" d="m82.75,88.32c-.05.52-.71.8-1.93.94-1.22.14-4.65.09-10.2-.05s-12.64-.23-21.34-.38c-.85-.14-1.03-.52-.52-1.17.52-.56,1.79-.85,3.76-.75,1.97.09,8.27.28,19.03.61,7.47,0,11.23.28,11.19.8Z"/>
      <path class="cls-1" d="m104.23,98.75c2.96.66,6.02,1.27,9.16,1.88,3.15.56,4.84,1.08,5.12,1.41.23.33.19.7-.14,1.13-.28.42-2.02.23-5.08-.61-3.05-.89-6.16-1.55-9.21-1.93-3.1-.42-4.79-.75-5.12-1.03-.33-.23-.33-.7,0-1.36.52-.33,2.26-.19,5.26.52Zm15.84-21.24c-.09.33-.33.61-.66.75-.33.19-.85.14-1.5-.14-.71-.23-2.54-.8-5.55-1.69-2.96-.89-5.83-1.27-8.51-1.32-2.73,0-4.23-.19-4.46-.56s-.19-.85.19-1.32c.38-.52,2.26-.56,5.59-.05,3.34.47,8.27,1.6,14.76,3.34.14.33.19.71.14.99Zm-9.96,11.98c-2.3-.47-4.42-.89-6.39-1.22-1.97-.33-3.1-.75-3.38-1.22-.33-.52-.28-.94.19-1.32s2.21-.19,5.22.61c2.96.75,5.87,1.65,8.55,2.58,2.73.89,4.14,1.5,4.18,1.83.05.28-.28.7-.94,1.22-.75.52-1.41.28-2.07-.66-1.27-.66-3.1-1.32-5.36-1.83Z"/>
      <path class="cls-1" d="m173.7,88.32c-.05.52-.71.8-1.93.94-1.22.14-4.65.09-10.2-.05-5.54-.14-12.64-.23-21.34-.38-.85-.14-1.03-.52-.52-1.17.52-.56,1.79-.85,3.76-.75s8.27.28,19.03.61c7.47,0,11.23.28,11.19.8Z"/>
      <path class="cls-1" d="m184.46,99.22c-.28-.33-.33-.61-.14-.94.14-.33.94-1.41,2.3-3.24,1.32-1.79,3.62-4.79,6.77-9.12,3.2-4.28,6.34-7.8,9.45-10.57,3.05-2.68,4.7-3.85,4.93-3.34.19.52.28.89.28,1.13s-.8.94-2.3,2.07c-1.5,1.08-3.53,3.05-6.06,5.97-.52,7.47-.38,13.11.42,16.83.75,3.76,1.13,5.73,1.22,5.87.09.19-.09.42-.47.66-.47.23-.94.23-1.41,0s-.99-2.26-1.55-6.02c-.56-3.71-.75-8.65-.52-14.76-3.43,4.04-6.63,8.37-9.54,13.02,0,.66-.52,1.32-1.5,2.02-.99.61-1.6.75-1.88.42Z"/>
      <path class="cls-1" d="m237.99,79.16c-.28-.24-1.5-.47-3.52-.66-2.07-.14-3.95-.42-5.73-.8-1.79-.38-2.82-.71-3.1-1.03-.33-.33-.19-.7.42-1.22.52-.47,1.17-.52,1.88-.14.66.33,1.97.56,3.9.71s3.67.33,5.26.61c1.55.28,2.44.71,2.63,1.22.14.56-.05,1.03-.66,1.41-.38.14-.75.09-1.08-.09Zm18.38,5.92c.24.38.19.8-.05,1.22-.28.42-2.35,2.07-6.16,4.93-3.85,2.91-7.85,5.31-12.03,7.28-4.14,1.97-6.58,2.96-7.28,2.96s-.99-.33-.75-.99c.14-.7.71-1.08,1.6-1.22.85-.14,1.74-.38,2.54-.71,7.52-3.95,14.57-8.51,21.2-13.68.38-.28.71-.23.94.19Z"/>
      <path class="cls-1" d="m302.62,77.6c3.43,3.1,4.98,4.89,4.79,5.31-.24.38-.56.56-.94.47-.38-.05-2.35-1.64-5.97-4.79-3.62-3.2-8.32-6.2-14.15-9.12-4.37,5.26-7.8,10.01-10.34,14.33-2.58,4.32-3.95,6.67-4.18,7.05-.24.33-.56.56-1.03.61-.47.09-.71-.14-.75-.7-.05-.56.42-1.69,1.5-3.43,1.03-1.69,1.74-2.77,2.07-3.38l.99-1.69c.38-.61,1.5-2.3,3.38-5.12s4.32-5.83,7.47-9.07c.56-.75,1.22-.94,1.88-.52.61.52,1.32.99,2.07,1.5,5.36,2.63,9.78,5.5,13.21,8.55Zm-11.84,12.12c1.32-.56,2.58-1.08,3.62-1.65,1.08-.52,1.97-.75,2.77-.66.75.14,1.18.38,1.27.75s-.05.8-.38,1.22c-.33.47-.89.61-1.69.42-.75-.19-1.64-.05-2.63.42-.94.47-1.93,1.03-2.96,1.74.14,4.65.24,7.19.28,7.71s.09,1.03.14,1.55c.05.56-.33.8-1.08.75-.71-.05-1.08-.61-1.13-1.65-.05-1.08-.09-3.48-.14-7.38-2.44.85-4.23,1.6-5.36,2.26-1.17.71-1.79.99-1.97.85-.19-.09-.33-.33-.42-.75-.09-.38-.09-.56,0-.66.09-.05.75-.42,1.97-1.13,1.22-.66,3.15-1.6,5.88-2.82v-5.4c-3.53,1.36-6.16,2.3-7.8,2.96-1.65.71-2.54.89-2.68.75-.14-.19-.24-.42-.38-.71-.09-.28-.09-.47,0-.56.14-.09,1.74-.8,4.7-2.16,3.01-1.32,6.11-2.54,9.26-3.76,3.2-1.13,5.03-1.69,5.45-1.6.38.09.71.38.85.85.14.42.14.85,0,1.22-.14.38-.85.56-2.12.61-1.22.05-3.05.61-5.45,1.83.19,1.93.19,3.57,0,4.98Zm-5.78,15.6c3.43-1.17,6.91-2.35,10.53-3.43,3.57-1.08,5.78-1.6,6.63-1.6.89.05,1.41.24,1.74.56.33.42.24.85-.23,1.27-.42.47-1.22.66-2.35.66s-1.93.05-2.35.09-2.3.61-5.64,1.65c-3.38,1.03-6.58,2.11-9.73,3.2-3.2,1.08-4.89,1.5-5.22,1.17-.28-.28-.23-.66.28-1.13.8-.42,2.91-1.22,6.34-2.44Zm-.05-7.24c.52,1.13,1.03,2.16,1.55,3.01.52.89.66,1.46.33,1.65-.33.14-.66.05-1.03-.23-.42-.33-.8-.75-1.17-1.27-.38-.47-.66-.85-.8-1.17-.19-.33-.38-.71-.61-1.17-.23-.42-.42-.94-.61-1.55-.19-.56.05-.99.66-1.27.61.23,1.18.89,1.69,2.02Zm9.73,1.83c-.14.66-.38,1.03-.61,1.27-.23.23-.52.19-.89-.05s-.47-.71-.24-1.6c.24-.8.99-2.26,2.35-4.28,1.32-2.02,2.12-3.15,2.35-3.48.19-.28.61-.28,1.22-.05s.19,1.22-1.27,3.05c-1.83,2.77-2.77,4.46-2.91,5.12Z"/>
      <path class="cls-1" d="m328.14,89.59c-1.93,1.46-3.48,2.63-4.65,3.38-1.27.8-1.97,1.08-2.3.85-.33-.24-.42-.52-.28-.85.14-.28.99-.99,2.44-2.11,1.41-1.17,2.87-2.3,4.37-3.48,1.46-1.13,2.35-1.79,2.68-1.93s.52.19.47.94c.09.71-.85,1.74-2.73,3.2Zm-4.56-13.35c1.41-1.03,3.01-1.88,4.7-2.4,1.69-.47,2.82-.66,3.24-.52.38.09.42.52.09,1.22-.42.71-.85,1.03-1.27,1.18-.42.14-.66.09-.75-.14-.14-.23-.85-.09-2.11.38-1.36.47-2.44,1.17-3.43,2.02-.94.89-1.6,1.36-1.83,1.46-.28.09-.47,0-.71-.19-.24-.23-.42-.52-.52-.85.24-.38,1.08-1.08,2.58-2.16Zm8.65,19.69c.05.61-.66,1.5-2.11,2.68-1.41,1.13-2.87,2.21-4.32,3.2-1.5.94-2.35,1.5-2.63,1.6-.28.09-.56-.14-.8-.66-.28-.56.38-1.41,1.97-2.49,1.6-1.13,3.1-2.16,4.46-3.2,1.32-.99,2.3-1.65,2.82-1.88.33-.14.56.14.61.75Zm27.82,4.37c.24.14.33.42.24.71-.09.33-.42.66-1.03.89-.56.23-.94.33-1.08.23-.19-.09-1.79-.8-4.79-2.07-2.96-1.27-7.05-4.09-12.22-8.37-.94,4.94-1.5,8.55-1.6,10.95-.14,2.35-.42,3.67-.75,3.85-.38.19-.8.19-1.27-.05-.52-.23-.38-2.73.47-7.47.89-4.7,1.55-11.51,2.02-20.3-1.83,1.46-2.68,2.49-2.58,2.96.09.52-.05.85-.47.89s-.85-.05-1.17-.38c-.28-.33-.38-.71-.19-1.08.09-.42.8-1.32,1.97-2.63,1.13-1.32,2.96-3.01,5.5-5.03,2.49-1.97,5.08-3.15,7.71-3.48,2.58-.33,4.42.52,5.26,2.44.89,1.93.89,4.14,0,6.58-.85,2.4-1.65,4.23-2.35,5.36s-1.13,1.03-1.27-.23c-3.01,2.21-5.97,4.51-8.93,6.91,1.93,2.02,5.88,4.7,11.75,7.85,2.91.8,4.51,1.32,4.79,1.46Zm-6.63-19.6c1.03-2.21,1.41-4.14,1.13-5.83-.28-1.69-1.69-2.49-4.23-2.35-2.58.14-5.31,1.6-8.22,4.51-.42,4.23-.66,8.55-.85,12.92,4.46-3.05,8.55-6.16,12.17-9.26Z"/>
      <path class="cls-1" d="m406.39,82.4c1.64,6.06,1.17,10.95-1.41,14.76-2.63,3.81-4.09,5.73-4.51,5.69s-.71-.33-.89-.94c-.19-.61.33-1.5,1.5-2.73,1.13-1.17,2.3-3.24,3.48-6.2,1.13-3.01,1.08-6.34-.09-10.06-1.27-3.71-2.73-5.92-4.51-6.67-1.79-.71-3.48-.85-5.08-.38.38.42.38,1.32.09,2.73-.38,1.41-1.74,5.08-4.09,11.09-2.4,6.02-4.75,9.45-7.05,10.34-2.35.85-3.81,1.27-4.42,1.13-.71-.09-1.5-.94-2.4-2.63-.94-1.65-1.08-4.14-.38-7.43,2.96-10.06,9.49-15.88,19.5-17.53,5.12-.14,8.55,2.82,10.25,8.84Zm-26.6,5.87c-1.97,5.08-1.93,8.74.14,11,2.21-.42,3.9-1.41,5.17-3.1,1.17-1.64,2.54-4.18,4.18-7.61,1.6-3.43,2.91-7.61,4-12.69-7,3.2-11.51,7.33-13.49,12.41Z"/>
      <path class="cls-1" d="m18.13,134.9c.09.19.19.42.24.75.05.33.05.85-.09,1.65-.14.8-.47,1.93-.99,3.43-.56,1.6-.99,2.73-1.27,3.52-.28.75-.61,1.74-1.08,2.77-.47,1.08-.89,1.97-1.27,2.73.38.8.66,1.36.89,1.64.23.28.42.56.66.75.24.28,1.69,1.69,4.42,4.18,2.77,2.54,4.56,4.14,5.41,4.84.8.71,1.74,1.36,2.73,2.12,1.03.75,2.26,1.79,3.76,3.01,1.55,1.27,2.49,2.07,2.96,2.44.47.42.8.75,1.03.99.24.33.42.56.52.8s.09.42.05.56-.19.23-.38.28c-.19.05-.42,0-.66-.09-.19-.09-.47-.23-.71-.38-.23-.14-.85-.56-1.69-1.17-.89-.66-2.26-1.74-4.14-3.24-1.88-1.46-4.28-3.52-7.19-6.2-2.87-2.58-4.89-4.46-6.02-5.59-1.17-1.03-2.07-2.02-2.82-2.77-.52.94-1.03,2.16-1.74,3.62-.71,1.5-1.36,2.91-2.12,4.28s-1.36,2.58-1.97,3.71c-.61,1.13-1.03,2.02-1.36,2.63-.33.7-.85,1.55-1.5,2.49-.61.99-1.03,1.65-1.27,2.02-.24.42-.47.7-.8.94-.28.14-.47.28-.61.33-.14.05-.24-.05-.28-.19-.05-.09-.14-.38-.19-.75s.28-1.13.99-2.21c.66-1.08,1.41-2.35,2.12-3.71.75-1.32,1.97-3.85,3.81-7.57,1.79-3.67,3.05-6.44,3.95-8.27,1.79-3.71,2.91-6.2,3.43-7.52.52-1.36.94-2.77,1.36-4.32.42-1.5.66-2.44.71-2.68.05-.24.14-.33.24-.38.09-.05.23.05.47.19.19.09.33.24.42.38Z"/>
      <path class="cls-1" d="m54.6,145.8c-.09,1.03-.42,1.6-.94,1.69-.47.09-.85-.24-.99-.94-.14-.66.05-1.64.61-2.87,1.65-5.64,2.68-8.98,3.15-9.82.47-.89.8-1.46.89-1.69.14-.23.38-.33.61-.28.23.09.52.19.75.33.23.14.23.38-.05.8-.28.42-.42.75-.47,1.03s-.85,2.58-2.54,7.05c5.31-1.83,9.96-3.34,14.15-4.61,4.18-1.17,6.3-1.88,6.39-2.02.09-.09.19.05.28.56s.05.99-.14,1.32c-.19.33-.7.85-1.46,1.5-.8.66-1.27.8-1.41.52-.14-.33-.09-.66.09-1.03-6.06,1.55-10.29,2.77-12.64,3.57-2.4.89-4.32,1.65-5.78,2.35-.24.71-.42,1.5-.52,2.54Zm7.14,5.36c1.5-.42,3.15-.85,4.84-1.32,1.69-.47,3.85-1.17,6.39-2.02,2.49-.89,4.04-1.17,4.65-.89.61.28.94,1.08,1.08,2.4.14,1.32.33,3.1.71,5.4s.8,4.23,1.22,5.73c.38,1.5,1.08,3.2,2.07,4.98.94,1.79,1.79,3.29,2.54,4.46.8,1.27,1.41,2.07,1.79,2.49.42.42.66.89.66,1.36s-.24.66-.75.56c-.47-.09-1.08-.56-1.79-1.36-.66-.89-1.6-2.16-2.68-3.85-1.13-1.69-1.88-3.1-2.3-4.14-.42-1.03-.85-2.26-1.27-3.71-.38-1.41-.71-2.96-1.03-4.56-.33-1.55-.56-3.1-.75-4.61-.19-1.55-.24-2.44-.24-2.87-.38.05-.85.09-1.41.14-.52.09-1.5.33-2.82.7-1.36.33-4,1.08-7.99,2.16-3.99,1.17-6.44,1.97-7.38,2.54-.99.56-1.69.47-2.16-.28-.52-.66.14-1.22,1.83-1.6,1.69-.8,3.29-1.32,4.79-1.74Zm-4.18,22.37c-.47-.42-.28-1.5.52-3.2.85-1.65,2.3-3.9,4.37-6.72-2.77-2.35-4.37-3.62-4.79-3.67-.38,0-.89-.09-1.41-.24-.52-.14-.66-.42-.33-.85s.85-.71,1.55-.85c.75-.05,2.77,1.17,6.06,3.76.89-1.03,1.65-2.02,2.26-3.1.66-.99,1.36-1.65,2.07-1.97.75-.28,1.17-.14,1.27.42.14.56-.19,1.13-1.08,1.79-.89.71-1.79,2.02-2.77,4,3.76,3.62,5.78,5.55,6.02,5.83.28.33.38.66.33.99s-.33.52-.75.56c-.47.05-2.77-1.88-6.96-5.78-2.16,3.24-3.57,5.64-4.32,7.19-.85,1.65-1.5,2.21-2.02,1.83Zm.05-27.12c-.05-.14.05-.24.23-.38.19-.14,1.5-.52,3.95-1.22,2.44-.61,4.37-1.13,5.78-1.5,1.46-.38,2.44-.66,3.15-.85.66-.14,1.74-.38,3.2-.71s2.21-.14,2.26.56c.05.66-.38,1.08-1.17,1.17-.75.09-1.64.24-2.49.42-.89.19-3.1.71-6.63,1.65-3.53.94-5.59,1.46-6.2,1.5-.56.09-.99.14-1.22.09s-.42-.14-.61-.28c-.14-.14-.19-.28-.23-.47Z"/>
      <path class="cls-1" d="m106.58,142.32c-.42-.52.19-1.13,1.79-1.93,1.6-.75,3.99-1.46,7.14-2.07,3.2-.61,5.31-1.18,6.58-1.65,1.17-.38,1.97-.66,2.3-.8.33-.14.47.05.56.47.09.38.09.75,0,.99-.09.28-.24.56-.56.85-.33.23-.75.38-1.36.38-.47.09-2.4.47-5.69,1.13-3.29.66-6.2,1.46-8.65,2.54-1.03.56-1.69.56-2.12.09Zm11.47,24.11c4.65-1.64,8.84-3.24,12.64-4.84,3.81-1.64,5.78-2.4,6.02-2.4s.47.09.66.33c.14.23.14.52-.05.85-.19.33-2.58,1.5-7.1,3.57-4.56,2.07-10.81,4.18-18.71,6.39-.71.14-1.5.05-2.3-.28-.8-.33-1.22-.71-1.27-1.13-.05-.42.05-.75.33-.94.24-.14.56-.23.85-.23,1.27.8,4.23.33,8.93-1.32Zm18.42-29.14c.33.85.66,1.5.94,2.07.24.56.47,1.03.71,1.5.19.47.09.8-.28.94-.38.19-.75.23-1.13.14-.33-.09-.8-.8-1.41-2.02-.61-1.27-.89-2.44-.89-3.67-.05-1.22,0-1.93.09-2.21.05-.23.47-.33,1.17-.28.71.05.89.61.61,1.55-.24.52-.19,1.17.19,1.97Zm6.2,2.35c.19,0,.28.23.28.71,0,.42-.42.66-1.17.61-.85,0-1.46-.99-1.88-3.06-.42-2.07-.52-3.76-.28-5.17.23-1.36.75-2.02,1.41-1.88.7.14.89.52.66,1.13-.42,2.4-.14,4.93.71,7.66h.28Z"/>
      <path class="cls-1" d="m172.62,134.43c0,.28-.05.99-.14,2.11-.05,1.18-.09,2.58-.14,4.37-.05,1.79,0,3.1.09,3.9.05.85.23,2.3.56,4.37,1.46-.14,3.43-.33,5.97-.66s4.14-.38,4.89-.33c.71.09,1.32.33,1.79.66.47.33.85.75,1.17,1.22.33.42.61.8.8,1.13.19.33.33.66.38.99.05.38.09.99.14,1.88.05.85,0,1.74-.05,2.63-.05.94-.19,1.88-.38,2.96-.19,1.03-.42,2.35-.75,4-.33,1.6-.66,2.73-.99,3.43-.38.66-.71,1.08-.94,1.32s-.66.47-1.22.75c-.61.28-1.22.52-1.88.61-.71.14-1.88.47-3.67.89-1.83.42-3.71.85-5.78,1.17-2.02.38-4.09.75-6.25,1.17-2.16.42-3.48.61-3.95.66-.52,0-.94,0-1.32-.09-.33-.09-.61-.33-.85-.66-.24-.33-.09-.61.33-.75.38-.14,1.6-.38,3.52-.61,1.93-.28,3.95-.61,6.11-1.03,2.16-.42,3.81-.71,4.93-.89,1.18-.23,2.4-.52,3.67-.85,1.32-.33,2.21-.61,2.73-.75.52-.14,1.27-.38,2.26-.75.19-.61.38-1.13.52-1.46.09-.28.33-.85.61-1.55.28-.66.52-1.55.66-2.49.14-.99.28-1.83.33-2.4-1.88.38-3.76.75-5.64,1.22-1.88.47-4.89,1.22-9.02,2.21-4.14,1.03-6.63,1.6-7.52,1.79-.89.19-1.5.28-1.83.33s-.61,0-.85-.05c-.19-.05-.33-.14-.38-.28-.05-.14-.09-.28-.09-.42s.05-.28.19-.38c.09-.14.24-.23.47-.28.24-.05,2.07-.56,5.55-1.5,3.53-.89,6.49-1.65,8.93-2.16,2.44-.56,4.51-1.03,6.2-1.41,1.69-.38,3.06-.52,4.18-.52.19-1.65.23-2.73.14-3.38-.09-.61-.28-1.27-.52-1.88-.24-.56-.61-1.22-1.13-1.83-.94-.33-1.74-.47-2.21-.47-.52,0-1.5.05-2.82.14-1.32.09-2.73.23-4.04.42-1.32.19-2.4.33-3.05.47-.71.14-1.46.33-2.21.61-.8.23-1.88.66-3.38,1.27-1.46.61-2.49.99-3.1,1.27-.61.28-1.22.71-1.88,1.32-.66.56-1.17.85-1.69.8-.52-.05-.85-.19-1.03-.47-.19-.24-.24-.42-.24-.56.05-.14.33-.38.85-.8.52-.42.99-.75,1.32-.94.38-.24.75-.47,1.13-.66s.94-.47,1.79-.85c.8-.33,2.07-.85,3.71-1.46,1.64-.61,2.91-1.03,3.76-1.27-.19-.71-.42-2.26-.66-4.75-.19-2.49-.28-4.28-.24-5.31.05-1.08.09-2.35.14-3.85s.19-2.4.33-2.73c.14-.33.56-.23,1.27.28.28.42.42.8.42,1.13Zm-11.84,3.52c.14.14.23.42.38.94.14.52.23.85.38,1.08.14.23.38.47.7.85.33.38.61.8.89,1.22.28.38.71,1.08,1.22,2.07.47.94.85,1.55,1.03,1.79.19.23.28.42.23.66-.05.24-.19.38-.47.42-.28.05-.47.05-.71-.09-.23-.14-.47-.33-.71-.56-.23-.19-.66-.7-1.13-1.41-.52-.66-.94-1.27-1.17-1.69-.23-.42-.52-.94-.8-1.6-.33-.66-.61-1.36-.89-2.16-.28-.8-.19-1.32.23-1.65.42-.05.71,0,.8.14Zm23.78-1.03c-.52.89-1.27,2.11-2.16,3.62-.85,1.55-1.36,2.68-1.46,3.38-.09.66-.19,1.13-.33,1.27-.14.14-.28.28-.38.33-.14.05-.33.09-.47.05-.14-.05-.33-.09-.47-.23-.14-.14-.28-.23-.38-.33-.09-.09-.14-.23-.14-.47s0-.42.05-.75c.05-.33.09-.66.23-1.03.14-.38.89-1.64,2.21-3.81,1.32-2.16,2.12-3.38,2.26-3.62s.42-.52.8-.75c.42-.19.71-.05.89.66.14.24-.09.85-.66,1.69Z"/>
      <path class="cls-1" d="m209.28,165.16c-2.21,1.69-3.43,2.49-3.67,2.35-.28-.14-.47-.28-.56-.52-.09-.23.24-.75,1.03-1.6.75-.89,2.44-2.02,4.98-3.48.09-4.04,0-8.13-.28-12.17-2.49.75-4.23,1.55-5.17,2.35-.99.75-1.69,1.17-2.21,1.17s-.8-.14-.94-.38c-.14-.23-.09-.56.14-.94.19-.42.94-.94,2.21-1.55,1.27-.56,3.29-1.41,5.97-2.44,0-2.96.09-5.12.28-6.44.14-1.32.28-2.16.38-2.44.09-.23.42-.38.94-.38.47,0,.75.14.85.38.09.28,0,1.08-.24,2.3-.28,1.27-.33,3.2-.09,5.73,2.87-1.18,4.89-1.97,6.06-2.3,1.17-.33,1.69-.23,1.65.38s-.71,1.08-2.02,1.41c-1.27.33-3.2,1.13-5.78,2.26.14,3.43.28,7.28.38,11.56,1.83-1.17,3.24-2.02,4.28-2.44.99-.38,1.69-.8,2.07-1.22.33-.42.56-.28.66.38.09.7-.05,1.03-.42,1.13-4.79,2.91-8.27,5.22-10.48,6.91Zm11.33-11.56c-.47.47-.89.75-1.32.89-.42.19-.75.09-.99-.23-.24-.28,0-.89.7-1.79.75-.8,1.97-1.88,3.67-3.2,0-2.73.05-4.61.14-5.59.09-1.03.19-1.6.28-1.79.05-.19.24-.42.52-.66.23-.23.52-.28.75-.14.23.19.38.61.38,1.27-.05.71-.14,2.4-.38,5.12,3.34-2.21,5.69-3.62,7.05-4.23.05-2.4.05-4.14.05-5.22-.05-1.13,0-1.79.09-2.02.05-.23.33-.33.71-.23.42.09.71.28.8.52.09.19.19.85.33,1.88.14.99.14,2.35.05,4.09,1.88-.89,3.99-1.65,6.3-2.3,2.26-.71,4.23.09,5.97,2.3.47,5.08.05,9.12-1.46,12.08-.85,1.69-1.69,2.73-2.54,2.96-.89.28-1.55.33-1.93.14-.42-.14-.66-.47-.66-.89s.05-.75.14-1.03c.09-.23.28-.38.56-.38.19,0,.42.14.61.38.14.28.71-.38,1.6-1.88.94-1.55,1.55-3.71,1.74-6.63.24-2.82-.09-4.61-1.13-5.26-3.24.19-6.3,1.03-9.12,2.54-.42,4.28-.56,7.52-.47,9.73.09,2.16.28,3.38.52,3.57.24.19.28.38.14.47-.19.19-.38.52-.52.94-.19.42-.38.75-.52.89-.19.14-.47.14-.75,0-.33-.14-.52-.28-.52-.38s0-4.79.05-14.05c-1.6.33-3.85,1.79-6.86,4.32.14,6.2.85,10.43,2.07,12.88,1.27,2.44,3.34,4.14,6.2,5.17,2.91,1.08,5.55.85,7.99-.56,2.44-1.46,3.99-2.44,4.7-2.96.66-.47,1.17-.75,1.5-.75s.61.19.75.47c.14.38-.19,1.03-1.13,1.93-.94.99-2.63,2.02-4.98,3.24-2.16.94-4.28,1.32-6.3,1.17s-4.23-.89-6.58-2.26c-2.35-1.32-4.04-3.99-4.98-7.9-1.03-3.9-1.41-6.67-1.17-8.37-.89.66-1.6,1.27-2.07,1.74Z"/>
      <path class="cls-1" d="m9.48,205.11c0,1.79.05,3.15.09,4.14.66-.19,1.36-.28,2.07-.28,1.74.28,2.91.66,3.62,1.13.66.47,1.08,1.46,1.32,3.1.24,1.6-.28,4.18-1.41,7.85.89-.47,1.46-.61,1.6-.42.14.19.19.42.14.8s-.89.89-2.49,1.5c-.94,2.02-1.74,2.63-2.3,1.93-.61.19-1.22.47-1.83.71-.05,1.13-.14,2.11-.19,3.05,3.99-2.02,6.16-2.91,6.53-2.63.38.28.52.61.42.94-.09.38-.33.56-.71.56s-2.49.99-6.34,2.87c-.24,2.54-.28,4.51-.14,5.88.14,1.32.19,2.11.05,2.26-.14.14-.42.28-1.03.42-.61.14-.94-.47-.99-1.93-.05-1.41-.05-3.29.09-5.55-.94.52-2.49,1.22-4.56,2.12-1.36.75-2.12.94-2.3.52-.19-.42-.24-.8-.09-1.17.14-.33,2.49-1.5,7.05-3.48.05-1.5.09-2.58.09-3.2-.66.19-1.5.33-2.54.42-.99.09-1.5-.09-1.5-.61-2.02-3.9-3.05-7.61-3.2-11.04-.14-3.48.19-5.31.85-5.45.71-.14,1.08.05,1.13.61s0,1.32-.14,2.4c1.6-1.41,3.24-2.4,5.03-2.96-.05-.94-.14-2.26-.24-3.95-1.69.42-2.91.8-3.81,1.08-.85.28-1.6.42-2.26.42-.71,0-1.08-.23-1.17-.75s.28-.85,1.13-1.03c.8-.14,1.64-.33,2.49-.47.89-.14,2.07-.47,3.62-.99-.19-3.15-.28-4.98-.33-5.45-.05-.47.28-.8.89-.99.66-.24.99-.05.99.47,0,.56.14,2.4.38,5.5,1.5-.66,3.29-1.13,5.31-1.46,2.02-.33,3.05-.24,3.15.23.09.47.09.75.05.85-.05.09-.56.23-1.46.33-.94.14-2.21.47-3.85.99l-3.2.75Zm-5.73,15.23c3.1-2.02,6.3-3.71,9.73-5.08.38-.19.8-.14,1.32.28.24-1.6.19-2.63-.19-3.15s-.71-.94-1.03-1.17c-1.41-.28-3.15-.19-5.26.23-2.12.47-3.95,1.65-5.45,3.48.14,1.27.42,3.06.89,5.4Zm10.67-3.48c-3.34,1.41-6.81,3.1-10.29,5.12.38,1.08.8,2.07,1.22,2.87,2.49-.33,4.89-1.13,7.24-2.4.89-1.64,1.5-3.52,1.83-5.59Zm7.75,10.81c-.47-6.44-.47-12.36,0-17.81.47-5.45.75-8.27.8-8.41.05-.19.28-.23.61-.14.38.09.66.19.85.38.19.19.24,1.13.09,2.77,1.65-1.13,3.1-2.26,4.42-3.2,1.27-.99,2.3-1.27,3.2-.8.89.47,1.46.94,1.83,1.36.38.47.61,2.02.66,4.7s.05,6.67,0,12.17c1.27-.38,1.13.28-.38,1.93,0,4.98.14,8.93.42,11.8.28,2.82.09,4.18-.56,4.04-.66-.14-1.03-1.46-1.22-3.85-.19-2.44-.38-5.97-.56-10.62-2.82,1.46-5.55,2.96-8.18,4.42.14,2.96.52,5.17,1.08,6.53.61,1.41.75,2.26.38,2.63s-.66.66-.89.85c-1.27.56-2.07-2.3-2.54-8.74Zm1.88-3.57c3.1-1.13,5.83-2.63,8.27-4.32,0-2.77.05-5.36.19-7.71-3.34,1.97-6.16,3.76-8.55,5.4-.24,2.26-.24,4.46.09,6.63Zm-.09-9.07c2.96-1.88,5.83-3.81,8.74-5.64.14-2.16.14-4.04.05-5.59-.09-1.5-.99-1.79-2.68-.8-1.69.94-3.52,2.35-5.55,4.23-.38,2.54-.56,5.17-.56,7.8Z"/>
      <path class="cls-1" d="m83.41,207.89c3.95,3.52,5.73,5.4,5.31,5.69-.38.28-.75.38-1.13.23-.38-.14-2.63-1.97-6.77-5.59s-8.93-6.91-14.29-10.01c-4.89,5.45-8.37,10.06-10.43,13.82-2.07,3.76-3.2,5.78-3.38,6.11-.19.33-.47.52-.85.66-.42.14-.66-.05-.8-.47-.19-.42-.09-.99.33-1.6.38-.66.66-1.27.89-1.79l3.1-5.08c.33-.56,1.36-2.12,3.01-4.7,1.6-2.63,3.99-5.55,7.05-8.69.94-.52,1.69-.47,2.3.05.61.52,1.27.99,1.93,1.5,5.22,3.1,9.73,6.34,13.72,9.87Zm-1.88,16.4c.38.52-.33,1.36-2.02,2.68-1.69,1.36-3.85,3.62-6.44,6.86,5.36,2.4,8.98,3.81,10.95,4.28,1.97.47,2.58.94,1.83,1.55-.8.61-3.05.19-6.86-1.22-3.81-1.46-6.72-2.73-8.74-3.85-2.11,2.11-3.85,3.24-5.26,3.38-1.46.14-2.49.19-3.2.23-.66.05-1.36-.89-2.02-2.77-.66-1.88-.8-4.32-.47-7.38.33-3.1.71-5.5,1.03-7.28.33-1.79.66-3.57,1.03-5.22-.75.14-1.36.42-1.79.94-.38.52-.75.75-1.03.89-.33.14-.61-.19-.85-.89-.24-.75,1.13-1.93,4-3.52,2.91-1.65,5.22-2.73,6.81-3.29-.8-.33-1.36-.52-1.65-.7-.33-.19-.89-.56-1.74-1.13-.89-.52-1.27-1.03-1.03-1.55.19-.52.56-.66,1.13-.42.61.24,1.22.47,1.83.75.56.28.99.52,1.32.71.28.14.61.42.94.75s.71.71,1.03,1.08c.75-.19,1.93-.33,3.48-.38,1.5-.05,2.44,0,2.73.23s.52.38.85.61c.33.24.56.99.71,2.3.14,1.32-.42,3.29-1.64,6.02.47.71.61,1.08.56,1.18-.05.14-1.22.89-3.52,2.3-2.3,1.46-4.61,2.68-7.05,3.81-2.44,1.18-4.04,1.6-4.84,1.27-.33,2.26-.47,4.09-.47,5.5s.42,3.06,1.41,4.94c2.58-.38,4.79-1.41,6.67-3.01-1.74-1.22-2.87-2.02-3.43-2.44-.61-.42-.99-.75-1.27-1.08-.33-.33-.28-.75.14-1.27.42-.47.71-.61.94-.42.24.14.8.61,1.64,1.32.89.7,2.3,1.69,4.37,2.96,2.58-3.34,5.4-6.39,8.6-9.16.52-.19.89-.05,1.32.47Zm-19.74,1.17c3.52-1.6,7.1-3.2,10.57-4.84,1.32-.89,2.07-1.65,2.21-2.44.14-.8.42-1.69.94-2.82-4.75,1.83-9.16,3.9-13.16,6.16-.19.89-.38,2.16-.56,3.95Zm.09-10.34c.52-.24.89-.28,1.17-.05.24.19.14,1.65-.47,4.32,2.58-1.22,4.75-2.3,6.63-3.29,1.83-.99,4.09-1.83,6.81-2.58.14-1.22.14-1.97,0-2.26-.14-.23-.33-.47-.52-.66-5.26-.24-9.82,1.22-13.63,4.51Z"/>
      <path class="cls-1" d="m110.25,236.37c-.33.05-.66-.14-.94-.61-.28-.47.61-2.26,2.63-5.31,2.02-3.1,5.08-7.75,9.26-14.15-1.08-.8-2.07-1.65-2.91-2.73-.89-.99-1.32-1.88-1.32-2.54,0-.71.05-1.13.14-1.32.09-.14.28-.23.56-.23.24,0,.47.09.66.23.14.19.47.66.85,1.46.42.75,1.46,1.83,3.06,3.1,3.67-4.75,6.44-8.27,8.37-10.62,1.93-2.3,3.01-3.52,3.24-3.67.19-.14.38,0,.56.33.09.33.14.66.05.94-.14.28-1.08,1.64-2.82,3.99-1.74,2.3-4.37,5.78-7.85,10.25,3.15,2.49,5.64,4.37,7.42,5.59,1.79,1.32,2.73,2.02,2.82,2.16.05.19-.05.47-.28.8-.23.38-.47.61-.66.66-.19.09-1.13-.52-2.91-1.79-1.79-1.27-4.28-3.15-7.43-5.64-3.85,5.69-6.58,10.01-8.22,12.92-1.69,2.87-2.82,4.65-3.34,5.36-.28.42-.61.71-.94.8Z"/>
      <path class="cls-1" d="m151.84,232.18c-.42-.47-.56-.8-.38-.99.14-.14,2.54-1.22,7.14-3.29,4.61-2.07,9.35-3.71,14.38-4.98,4.98-1.27,7.57-1.97,7.75-2.16.14-.19.42,0,.75.47.33.52-.42,1.17-2.35,1.93-1.97.8-4.84,1.6-8.55,2.44-6.16,1.69-11.94,3.99-17.39,6.91-.52.23-.99.14-1.36-.33Zm20.91-28.2c.23.42.28.8.14,1.03-.19.28-1.79.85-4.89,1.79-3.05.94-6.06,2.11-9.02,3.43-3.01,1.36-4.65,1.97-4.89,1.79-.19-.14-.38-.42-.47-.75-.09-.28-.09-.56,0-.75.09-.14.94-.56,2.54-1.22,1.65-.61,4.65-1.79,9.12-3.38,4.7-1.69,7.24-2.35,7.47-1.93Z"/>
      <path class="cls-1" d="m217.27,228.28c-1.6-.42-5.69.05-12.17,1.32-6.49,1.32-9.87,1.88-10.15,1.74s-.38-.47-.24-.85c.09-.42.38-.7.8-.8s1.74-.38,3.76-.85c2.07-.38,5.26-1.03,9.49-1.93,2.4-3.52,3.57-7.52,3.43-11.84-.42-.99-1.74-1.13-4.09-.38-2.35.71-4.28,1.46-5.78,2.26-1.5.75-2.35,1.03-2.44.75-.09-.28-.14-.61-.09-.99,0-.42,1.03-1.08,3.1-2.02,2.02-.94,4.04-1.55,6.11-1.97,1.97-.42,3.24-.42,3.67-.09.38.38.89.94,1.41,1.74.52.75.56,2.07.14,3.81-.42,1.79-.94,3.38-1.41,4.79-.56,1.5-1.03,2.68-1.41,3.67,3.01-.23,5.36-.33,7.05-.19,1.69.14,2.58.33,2.77.47.19.19.09.61-.23,1.27-.85.47-2.12.52-3.71.09Z"/>
      <path class="cls-1" d="m263.47,218.32c-.05.52-.71.8-1.93.94-1.22.14-4.65.09-10.2-.05s-12.64-.23-21.34-.38c-.85-.14-1.03-.52-.52-1.17.52-.56,1.79-.85,3.76-.75,1.97.09,8.27.28,19.03.61,7.47,0,11.23.28,11.19.8Z"/>
      <path class="cls-1" d="m301.87,229.88c-.23.33-1.6,1.27-3.9,2.87-2.4,1.6-4.89,2.49-7.52,2.73-2.58.23-4.14.19-4.7-.24-.61-.38-1.32-1.27-2.26-2.73-.94-1.5-.71-4.46.66-8.93-1.41-.61-2.63-2.07-3.76-4.32-1.17-2.21-.99-5.5.52-9.68-2.35.8-4.14,1.5-5.22,2.02-1.08.56-1.88.56-2.3-.05-.42-.56.19-1.17,1.79-1.83,1.6-.56,3.76-1.36,6.49-2.3,1.27-2.87,2.44-4.75,3.48-5.69,1.03-.85,1.69-1.27,2.07-1.17.38.14.61.33.71.56.09.28-.19.75-.8,1.5s-1.41,1.93-2.4,3.57c3.81-1.6,6.67-2.82,8.6-3.76,1.93-.89,2.96-.99,3.2-.38.19.71-.19,1.22-1.03,1.6-.94.42-1.55.85-1.93,1.32-.42.47-.75.61-1.03.42-.28-.14-1.22,0-2.82.56s-3.53,1.41-5.83,2.58c-.61.61-1.22,2.44-1.88,5.59-.71,3.15.38,5.59,3.15,7.38,1.64-2.3,3.29-3.95,4.89-4.94,1.6-.99,3.01-1.5,4.32-1.6,1.32-.05,1.93.14,1.97.52.05.47-.09,1.08-.52,1.83-.42.8-1.32,1.74-2.73,3.01-1.41,1.22-3.34,2.11-5.78,2.68-1.97,2.68-2.49,5.73-1.41,9.12.52,1.08,1.55,1.65,3.05,1.65,3.43-.56,5.87-1.32,7.33-2.35,1.41-.99,2.12-1.64,2.12-1.97,0-.28.28-.52.85-.66.56-.19,1.08-.23,1.69-.09.85.47,1.17.85.94,1.17Zm-12.55-9.59c1.69-.8,3.05-1.79,4.18-3.01-1.88.42-3.29,1.46-4.18,3.01Z"/>
      <path class="cls-1" d="m4.12,288.02c-.24-.52.05-1.41.89-2.54.8-1.17,2.58-2.54,5.36-4.23.52-4.46.94-7.85,1.22-10.15.33-2.26.56-3.52.66-3.81.09-.23.47-.47,1.08-.66.56-.14.94-.05,1.13.28.14.33,0,1.46-.52,3.43-.47,1.97-.89,5.12-1.22,9.49,4.37-2.91,8.74-5.08,13.21-6.49,1.88-.56,3.38.09,4.61,1.97,1.6,6.49,1.74,11.8.33,15.98-1.46,4.18-2.3,6.53-2.63,7.14s-.71.94-1.03,1.03c-.28.09-.71.05-1.13-.14-.47-.14.24-2.4,2.12-6.67,1.88-4.28,2.16-9.45.85-15.56-.19-1.36-.89-2.16-2.07-2.3-5.12,1.5-9.96,3.99-14.62,7.43-.14,5.12-.14,9.07.09,11.84.19,2.82.33,4.46.42,4.98.09.52,0,.75-.28.75h-1.03c-.38,0-.61-.09-.66-.38-.09-.23-.24-1.46-.47-3.57-.24-2.07-.28-6.11-.14-12.03-1.32.42-2.58,1.41-3.81,2.87-1.32,1.46-2.11,1.93-2.35,1.32Z"/>
      <path class="cls-1" d="m50.42,277.87c-.28-.14-.42-.56-.42-1.18,0-.56,2.54-2.02,7.57-4.32,5.03-2.26,9.73-3.71,14.05-4.18,4.32-.52,6.63-.52,6.91-.09.23.38-.09,3.1-1.03,8.04-.89,4.89-2.35,9.68-4.42,14.24-2.07,4.65-3.43,7.19-3.99,7.66-.61.52-1.03.7-1.22.47-.23-.19-.42-.42-.52-.75-.19-.23.85-2.44,3.1-6.63s4.32-11.19,6.16-21.1c-1.69-.56-4.84-.24-9.26.89-4.51,1.18-9.82,3.57-16.03,7.24-.33,0-.66-.09-.89-.28Z"/>
      <path class="cls-1" d="m98.97,279.28c.33-.94.71-1.27.99-1.13.33.09,2.02-.23,5.08-1.13,2.96-.85,6.11-1.65,9.31-2.35,3.15-.66,5.03-.85,5.64-.61s.71.61.38,1.13c-.38.52-.89.8-1.5.85-.71.05-1.69.19-3.1.38-1.41.23-3.05.61-4.98,1.13-.24,2.68-.28,5.4-.05,8.18.19,2.73.47,5.31.85,7.75,3.2-.99,5.83-1.55,7.9-1.6,2.07,0,3.1.19,3.01.75-.14.61-.42.94-.94,1.03-.47.09-1.13.09-1.93.05-.75-.05-2.91.33-6.44,1.27-3.57.89-6.72,1.97-9.54,3.15-2.82,1.27-4.32,1.69-4.46,1.46-.19-.28-.19-.71-.05-1.32.14-.52,1.32-1.22,3.67-2.07,2.3-.8,4.56-1.55,6.72-2.16-.28-.14-.56-1.6-.71-4.37-.14-2.77-.23-6.63-.23-11.61-3.43.75-6.44,1.6-8.88,2.4-.85.14-1.08-.23-.71-1.17Z"/>
      <path class="cls-1" d="m168.2,274.11c-.09,2.07-.09,3.85.05,5.45.09,1.6.52,3.67,1.27,6.2.75,2.49,1.74,5.45,2.91,8.74,1.13,3.29,2.02,4.42,2.54,3.34.47-1.03.99-1.32,1.46-.8.47.52.33,1.41-.38,2.73-.71,1.36-1.36,1.88-2.07,1.55s-1.17-.89-1.6-1.74c-.42-.89-1.32-3.2-2.77-6.91-1.41-3.71-2.4-6.96-2.91-9.73-.52-2.77-.75-5.69-.66-8.79.09-3.15.14-5.17.19-6.06.05-.94.14-2.02.28-3.34-.66.19-1.88.47-3.76.85s-4.18.99-6.81,1.88c-2.63.89-6.53,2.26-11.7,4.09-.38,3.99-1.08,8.84-2.26,14.66-1.13,5.83-2.07,10.06-2.73,12.78-.71,2.68-1.27,4.23-1.55,4.61-.38.33-.75.28-1.17-.19-.38-.56-.42-1.03-.19-1.36.23-.33.94-2.58,2.07-6.77,1.17-4.18,2.44-11.89,3.85-23.08-.47.28-.94.42-1.36.38-.42-.05-.66-.14-.66-.28,0-.09.19-.47.52-1.08.33-.61,1.13-.99,2.35-1.32,1.22-.33,2.49-.7,3.62-1.13,4.65-1.6,9.12-3.1,13.54-4.51,4.42-1.46,7.05-2.11,7.85-2.07s.94,1.79.38,5.22c-.14,2.4-.24,4.61-.28,6.67Zm-13.35-.52c.28.42.47,1.65.52,3.67,1.79-.94,3.24-1.41,4.28-1.55,1.08-.14,2.07.47,3.05,1.69.94,1.22,1.13,2.91.56,4.98,1.03.23.89,1.03-.42,2.3-.33,1.17-.61,1.74-.8,1.74s-.61.05-1.32.09c-1.41.94-3.24,2.21-5.54,3.85-.05,2.07.19,4.18.61,6.34,1.88-1.32,3.62-2.54,5.12-3.48-.38-.38-.66-.75-.85-1.13-.19-.33-.05-.66.42-.94.47-.28.89-.23,1.27.14s.94,1.08,1.69,2.26c.75,1.13,1.41,1.88,1.97,2.26.56.33.71.75.42,1.27-.28.52-.66.66-1.22.47-.61-.19-1.55-1.17-2.96-2.87-4.65,3.34-7.71,5.59-9.12,6.77-1.41,1.13-2.35,1.6-2.82,1.41-.47-.19-.56-.61-.23-1.27.23-.71.8-1.32,1.69-1.83.85-.47,1.69-1.03,2.44-1.6-.19-2.16-.47-4.28-.75-6.3-1.41.71-2.49,1.22-3.1,1.55-.61.33-1.17.52-1.6.66-.42.14-.99-.89-1.69-3.24-.71-2.35-.75-4.65-.24-6.91.56-2.3.99-3.85,1.32-4.7.28-.85.61-1.03.99-.71.38.38.52,1.13.47,2.21,1.32-.75,2.63-1.55,4.04-2.3-.05-1.88-.14-3.24-.19-4.04-1.79.89-3.34,1.6-4.75,2.11-1.41.56-2.16.66-2.3.33-.09-.33.09-.66.71-1.08.61-.42,1.13-.75,1.6-1.08.52-.33,2.54-1.17,6.06-2.68,3.52-1.55,5.45-2.35,5.69-2.49.24-.14.66-.33,1.27-.52.56-.19,1.03-.09,1.27.28s.05.89-.66,1.55c-2.68.99-4.98,1.88-6.91,2.77Zm-1.88,16.07v-9.31c-1.13.61-2.4,1.46-3.9,2.4-1.6,3.48-1.55,6.3.19,8.46,1.74-.94,2.96-1.41,3.71-1.55Zm2.16-1.6c2.16-1.65,4.09-2.91,5.78-3.85.94-1.5.94-3.05,0-4.65-.61-1.32-1.41-1.83-2.58-1.64-1.13.19-2.16.66-3.01,1.46-.42,2.91-.52,5.83-.19,8.69Z"/>
      <path class="cls-1" d="m189.35,268.8c.52.09.8.33.89.66.05.33-.33,2.54-1.08,6.63-.85,4.04-.99,8.22-.38,12.5.56,4.28.99,6.58,1.17,6.81.24.23.38.56.38.99s-.23.75-.71.89c-.52.19-1.03-.19-1.55-1.18-.47-.89-.85-2.26-1.03-4.18-1.03-7.66-.61-15.18,1.27-22.46.14-.52.52-.75,1.03-.66Zm7.75,9.4c-.23-.66.19-1.27,1.17-1.83,1.03-.52,2.44-1.41,4.23-2.54,1.79-1.17,4.75-2.54,8.83-4.04.99-.28,1.64-.05,1.93.61.19.75.33,1.27.33,1.5s-.28.66-.89,1.36c-.66.71-1.22.89-1.6.56-.42-.33-.09-.94.94-1.79-3.05.28-6.49,1.93-10.25,4.7-2.91,1.6-4.46,2.07-4.7,1.46Zm4.28,15.79c.99.05,2.87-.28,5.59-1.08,2.68-.75,5.41-1.55,8.08-2.54,2.58-.89,4.09-1.13,4.28-.66.24.42.24.8,0,1.03-.19.28-2.02.94-5.45,1.93-3.43,1.08-6.34,1.93-8.69,2.73-2.4.75-3.81.99-4.32.7-.52-.23-.85-.52-.99-.85-.05-.89.42-1.32,1.5-1.27Z"/>
      <path class="cls-1" d="m233.62,277.77c-.05-.38,1.83-1.55,5.64-3.52,3.81-1.93,7.85-3.43,12.22-4.51,4.28-1.13,7.14-1.6,8.51-1.46,1.36.09,2.35.85,3.05,2.16.47.85.38,1.69-.28,2.49-.75.85-1.79,2.16-3.24,3.95-1.41,1.83-2.87,3.34-4.28,4.56-1.46,1.18-2.4,1.74-2.82,1.65-.42-.09-.61-.42-.52-.94.09-.47.52-.99,1.32-1.5.75-.52,1.93-1.55,3.43-3.05s3.1-3.71,4.79-6.63c-1.97-.8-4.14-.94-6.53-.38-2.44.61-4.98,1.41-7.57,2.35-2.68,1.03-5.4,2.3-8.13,3.9-2.77,1.6-4.37,2.3-4.79,2.02-.47-.33-.75-.66-.8-1.08Zm13.82,1.36c0-1.03-.09-2.16-.24-3.34-.19-1.22.05-1.88.61-2.07.61-.14,1.13.05,1.55.61.38.61.52,1.08.38,1.32-.14.28-.24,1.88-.28,4.84-.05,3.01.05,6.11.33,9.35.33,3.24.61,4.98.85,5.22.24.28.47.52.66.66.14.14.14.38,0,.61-.19.28-.56.66-1.08,1.13-.52.47-.89.38-1.22-.19-1.22-6.11-1.69-12.17-1.55-18.14Z"/>
      <path class="cls-1" d="m283.26,269.6c.19-.71.61-.85,1.17-.52.61.33.8.85.61,1.46-.33,2.21-.61,5.4-.8,9.59-.23,4.14.42,9.07,1.83,14.71,1.36.52,3.9-.28,7.66-2.35,3.71-2.07,7.05-4.18,9.92-6.39,2.91-2.16,4.46-3.29,4.65-3.29.14,0,.33.14.52.38.14.28.23.56.23.8s-1.64,1.69-4.93,4.28c-3.24,2.63-6.77,4.79-10.57,6.39-3.81,1.65-6.11,2.58-7,2.77-.85.19-1.36,0-1.5-.56-3.06-8.88-3.67-17.95-1.79-27.26Z"/>
      <path class="cls-1" d="m337.87,274.16c-.28-.24-1.5-.47-3.52-.66-2.07-.14-3.95-.42-5.73-.8-1.79-.38-2.82-.71-3.1-1.03-.33-.33-.19-.7.42-1.22.52-.47,1.17-.52,1.88-.14.66.33,1.97.56,3.9.71s3.67.33,5.26.61c1.55.28,2.44.71,2.63,1.22.14.56-.05,1.03-.66,1.41-.38.14-.75.09-1.08-.09Zm18.38,5.92c.24.38.19.8-.05,1.22-.28.42-2.35,2.07-6.16,4.93-3.85,2.91-7.85,5.31-12.03,7.28-4.14,1.97-6.58,2.96-7.28,2.96s-.99-.33-.75-.99c.14-.7.71-1.08,1.6-1.22.85-.14,1.74-.38,2.54-.71,7.52-3.95,14.57-8.51,21.2-13.68.38-.28.71-.23.94.19Z"/>
      <path class="cls-1" d="m385.81,269.13c.33.47.47.94.38,1.32-.09.42-.24.75-.33.89-.19.19-.52.09-.94-.23-.42-.33-.99-.33-1.64,0-.71.33-1.93.89-3.71,1.64-1.79.8-3.2,1.46-4.18,1.93-1.08.52-1.69.71-1.93.52-.28-.19-.42-.56-.47-1.08-.05-.56,1.46-1.46,4.56-2.63,3.05-1.18,5.03-1.93,6.02-2.26,1.13-.52,1.88-.52,2.26-.09Zm1.64,11.61c-.42.05-1.64.66-3.76,1.83-2.16,1.22-3.95,2.26-5.4,3.24-1.46.94-2.4,1.36-2.91,1.27-.52-.09-.85-.38-.89-.89-.05-.47.14-.75.66-.89.47-.09,1.6-.75,3.43-1.88,1.79-1.17,3.67-2.26,5.55-3.29,1.88-.99,3.15-1.46,3.67-1.32.47.14.71.56.71,1.27-.33.42-.66.66-1.03.66Zm7.57,3.24c2.68-2.82,4.37-4.28,4.89-4.42.56-.14.75.33.52,1.36-.23,1.08-.7,1.69-1.46,1.88-.8.19-1.93,1.22-3.43,3.05-1.6,1.88-4.28,4.28-8.18,7.33-3.9,3.05-6.06,4.56-6.44,4.46-.42-.05-.71-.28-.85-.66-.14-.38,0-.85.61-1.36,6.86-5.03,11.61-8.88,14.33-11.66Zm-1.93-14.48c.38.85.66,1.5.94,2.07.24.56.47,1.03.71,1.5.19.47.09.8-.28.94-.38.19-.75.23-1.08.14-.38-.09-.85-.8-1.46-2.02-.56-1.27-.89-2.44-.89-3.71-.05-1.17,0-1.93.09-2.16.09-.24.52-.33,1.17-.28.71.05.94.56.61,1.55-.23.52-.19,1.18.19,1.97Zm6.25,2.35c.19,0,.23.23.23.66,0,.47-.38.71-1.17.66-.8,0-1.46-.99-1.88-3.05s-.52-3.76-.28-5.17c.24-1.36.75-2.02,1.41-1.88.71.14.89.52.66,1.13-.42,2.35-.14,4.93.75,7.66h.28Z"/>
      <path class="cls-1" d="m430.88,295.91c-.14-1.32-.09-2.07.14-2.21.23-.14.52-.14.75,0,.19.14.66.8,1.27,2.02.61,1.18.89,2.02.89,2.54s-.24.89-.75,1.03c-.56.19-.94.09-1.08-.24-.66-.71-1.08-1.74-1.22-3.15Zm2.21-9.16c-.33-.05-.66-.38-.99-1.03-.33-.66-.38-2.58-.14-5.83.24-3.29.42-6.16.52-8.69.09-2.54.23-3.95.42-4.18.14-.24.52-.38.99-.38.52,0,.85.14,1.03.38.14.23.05,1.88-.28,4.98-.33,3.05-.7,7.38-.99,12.97-.09,1.22-.28,1.83-.56,1.79Z"/>
    </g>
  </g>
</svg>