<?xml version="1.0" encoding="UTF-8"?>
<svg id="Layer_2" data-name="Layer 2" xmlns="http://www.w3.org/2000/svg" viewBox="0 0 594.04 53.78">
  <defs>
    <style>
      .cls-1 {
        opacity: .8;
      }

      .cls-2 {
        fill: #533b2b;
        stroke: #533b2b;
        stroke-linecap: round;
        stroke-linejoin: round;
        stroke-width: .85px;
      }
    </style>
  </defs>
  <g id="_文字" data-name="文字">
    <g class="cls-1">
      <path class="cls-2" d="m31.57,20.61c.82,1.38-.17,4.23-2.86,8.47-2.75,4.23-5.11,8.19-7.04,11.66s-3.3,5.55-4.07,5.99c-.82.5-1.38.71-1.65.61-.33-.05-.55-.44-.66-1.04-.17-.61.88-2.53,3.25-5.83,2.31-3.24,4.78-7.2,7.42-11.77,2.58-4.56,3.52-7.21,2.97-7.75-3.63-1.71-8.85-.71-15.73,2.86-6.87,3.63-10.45,5.5-10.72,5.72-.33.28-.66.33-.88.22-.27-.11-.6-.33-.88-.61-.33-.28-.38-.77-.17-1.32.17-.6.5-.93.88-.93.33,0,3.74-1.54,10.01-4.67,6.27-3.13,11.22-4.56,14.79-4.29,2.2,0,3.96.94,5.33,2.7Zm-5.67-10.83c-.83.11-1.26-.11-1.21-.77-7.09.82-12.37,1.71-15.67,2.8-3.25,1.1-5.12,1.71-5.33,1.76-.27.11-.71,0-1.21-.28-.49-.28-.77-.55-.77-.77,0-.17.16-.55.49-1.15.28-.61.99-.94,2.09-.99s2.8-.33,5.22-.77c2.37-.5,5.33-1.04,8.8-1.76,3.52-.61,6.27-.99,8.47-1.04,2.09-.06,2.7.38,1.87,1.32-1.04.99-1.92,1.54-2.75,1.65Z"/>
      <path class="cls-2" d="m61.77,16.59c-.33-.27-1.76-.55-4.12-.77-2.42-.16-4.62-.49-6.71-.93-2.09-.44-3.3-.83-3.63-1.21-.38-.38-.22-.82.49-1.43.61-.55,1.38-.6,2.2-.16.77.38,2.31.66,4.56.82,2.26.17,4.29.38,6.16.71,1.81.33,2.86.82,3.08,1.43.17.66-.05,1.21-.77,1.65-.44.16-.88.11-1.26-.11Zm21.5,6.93c.28.44.22.94-.05,1.43-.33.5-2.75,2.42-7.21,5.78-4.51,3.41-9.18,6.21-14.08,8.52-4.84,2.31-7.7,3.46-8.52,3.46s-1.15-.39-.88-1.16c.17-.83.83-1.26,1.87-1.43.99-.16,2.04-.44,2.97-.82,8.8-4.62,17.05-9.95,24.8-16,.44-.33.82-.27,1.1.22Z"/>
      <path class="cls-2" d="m100.99,34.63c-3.02,1.21-4.62,1.76-4.78,1.65-.22-.11-.5-.5-.77-1.16-.22-.55,1.27-1.43,4.62-2.53,3.41-1.1,8.36-2.58,14.96-4.51.17-4.23-.55-8.08-2.09-11.66-.22-.38-.22-.77,0-1.1.22-.28.66-.55,1.21-.77.6-.11,1.1.05,1.48.77.33.71.66,2.09,1.04,4.18s.66,4.73.93,7.86c7.81-2.2,11.88-3.13,12.1-2.69.11.5.11.93,0,1.26-.22.38-.61.66-1.21.77-.6.11-4.29,1.1-11.11,2.92.38,4.62.05,8.19-.99,10.72-.99,2.53-2.2,4.46-3.46,5.77-1.38,1.32-2.2,2.15-2.64,2.48-.44.22-.88.22-1.27-.17-.49-.44-.38-1.1.22-1.98.66-.93,1.81-2.25,3.41-3.9,1.54-1.65,2.37-5.66,2.37-12.1-6.38,1.59-11.05,2.97-14.02,4.18Zm-3.57-17.05c-.28-.82,1.81-2.14,6.21-4.12,4.4-1.98,8.63-3.85,12.7-5.66,4.12-1.76,6.38-2.53,6.71-2.36.38.22.55.49.49.88-.11.38-.44.88-.88,1.32-.5.5-.94.88-1.21,1.04-.33.22-1.26.33-2.86.33-6.82,2.97-13.36,6.1-19.74,9.51-.71.17-1.21-.11-1.43-.94Z"/>
      <path class="cls-2" d="m141.19,37.32c-.11-.22.71-3.24,2.53-8.96,1.81-5.61,4.45-10.94,8.03-15.89,3.52-4.89,5.45-7.48,5.67-7.75.22-.28.6-.22,1.15.16.55.38.33,1.27-.71,2.58-.99,1.26-2.37,3.19-4.12,5.83-4.46,6.82-7.97,14.35-10.61,22.55.61.22.82.55.66.99-.17.44-.61.82-1.38,1.21-.77-.17-1.15-.44-1.21-.72Zm11.16-19.91c.17-.11.44-.17.94-.17.44,0,.66.17.66.55s-.38,2.91-1.1,7.59c-.66,4.67-.77,9.35-.17,14.02.55,4.73.99,7.48,1.27,8.36.27.83.6,1.32.88,1.54.22.17.28.38.22.6-.05.17-.44.44-1.1.71-.71.28-1.21.28-1.43,0-.28-.27-.94-3.35-1.98-9.07-.99-5.77-.55-13.42,1.21-23.15.22-.55.44-.88.61-.99Zm29.37-5.94c2.25-.5,3.96-.71,5.11-.71s1.87.11,2.26.33c.27.22.38.55.27.93-.16.33-.33.66-.6.88-.28.22-.83.5-1.6.82-.71.39-1.21.55-1.48.55s-.5-.44-.61-1.27c-1.1.06-2.14.28-3.02.61.55,9.84.77,17.27.71,22.49-.06,5.22-.39,8.96-1.1,11.22-.71,2.31-1.81,2.97-3.41,1.98-1.54-.99-2.64-1.87-3.13-2.64-.61-.71-.82-1.27-.71-1.54s.55-.27,1.32-.05c.82.27,1.98.93,3.41,1.92,1.04-4.67,1.43-9.57,1.21-14.57,0-6.1-.38-12.04-1.21-17.93-6.93,1.92-11.88,3.74-14.96,5.5-3.03,1.76-4.62,2.64-4.79,2.53-.22-.11-.49-.49-.88-1.21-.38-.61,1.15-1.76,4.56-3.41,3.35-1.65,8.63-3.52,15.84-5.66-.28-3.02-.44-5.11-.44-6.21,0-.99,0-1.76.06-2.25.05-.44.38-.55,1.1-.38.66.17,1.04.66,1.21,1.48l.88,6.6Zm-16.66,17.54c2.04.49,3.69.93,5,1.32,1.21.33,1.98.71,2.2,1.04.16.38.16.77,0,1.16-.17.33-.44.49-.83.33-.38-.11-.88-.33-1.59-.77-.71-.38-1.48-.55-2.31-.5-.88.11-1.54.17-2.09.17-.6,0-1.21-.33-1.81-.99-1.15-1.6-.66-2.2,1.43-1.76Z"/>
      <path class="cls-2" d="m210.1,8.89c-.44-.5-.33-.93.33-1.26.61-.22,1.27-.11,2.09.33.83.49,1.87,1.38,3.3,2.58,2.58-1.38,4.89-2.86,6.98-4.29.94-.61,1.54-.49,1.82.28.27.77-.55,1.59-2.53,2.64-1.98.99-3.41,1.98-4.18,2.8,1.76,1.6,3.79,3.19,5.99,4.73,2.2-1.65,3.63-2.53,4.45-2.64,1.65.44.71,1.76-2.8,3.9,1.71,1.76,2.97,3.41,4.02,4.89.99,1.49,1.15,3.13.55,4.95-2.36,2.26-4.4,3.41-6.1,3.46-1.76.05-2.42-.16-1.98-.66.44-.44,1.65-1.26,3.63-2.31,1.98-.99,2.58-2.47,1.76-4.4-.99-1.98-2.31-3.46-3.85-4.45-5.39,3.19-9.96,6.1-13.64,8.74-.55.33-1.04.38-1.54.17-.5-.17-.83-.44-.88-.83-.05-.38.28-.77.99-1.16,4.45-2.42,9.02-5.11,13.58-8.14-1.87-1.43-4.07-3.08-6.49-5-5,3.35-8.14,5.44-9.24,6.21-1.16.88-1.98,1.1-2.59.66-.6-.44-.71-.77-.44-1.04.28-.22,3.69-2.58,10.28-7.09-1.92-1.59-3.08-2.58-3.52-3.08Zm6.27,38.5c-2.8-.88-4.89-1.76-6.21-2.58-1.38-.77-2.15-1.32-2.26-1.6s-.05-.66.17-1.1c.16-.33.44-.55.77-.55.22,0,.77.27,1.59.83.83.6,2.37,1.32,4.79,2.09,2.42.82,3.96,1.21,4.67,1.1.66-.05,1.21.16,1.6.66.38.44.49.99.33,1.59-.83.61-2.64.5-5.45-.44Z"/>
      <path class="cls-2" d="m245.14,20.94c-.33-.17-.49-.66-.49-1.38,0-.66,2.97-2.37,8.85-5.06,5.88-2.64,11.38-4.34,16.44-4.89,5.06-.61,7.75-.61,8.08-.11.28.44-.11,3.63-1.21,9.4-1.04,5.72-2.75,11.33-5.17,16.66-2.42,5.45-4.02,8.41-4.68,8.96-.71.6-1.21.82-1.43.55-.27-.22-.49-.5-.6-.88-.22-.28.99-2.86,3.63-7.75,2.64-4.89,5.06-13.09,7.2-24.69-1.98-.66-5.66-.28-10.83,1.04-5.28,1.37-11.49,4.18-18.75,8.47-.38,0-.77-.11-1.04-.33Zm42.89-16.94c.5,2.36.05,4.45-1.38,6.21-1.43,1.82-2.64,2.7-3.63,2.7-1.04.05-1.81-.11-2.37-.44-.6-.28-1.32-1.1-2.14-2.47-.93-1.32-.82-3.13.28-5.55s3.19-3.74,6.32-3.96c1.43,0,2.47,1.15,2.91,3.52Zm-1.65-.11c-1.04-1.21-2.26-1.54-3.46-.93-1.32.6-2.26,1.59-2.92,2.8-.27,1.81-.16,3.02.38,3.74.55.66,1.49,1.16,2.86,1.38,2.31-1.87,3.35-4.23,3.13-6.98Z"/>
      <path class="cls-2" d="m329.4,20.61c.83,1.38-.16,4.23-2.86,8.47-2.75,4.23-5.11,8.19-7.04,11.66-1.92,3.46-3.3,5.55-4.07,5.99-.83.5-1.38.71-1.65.61-.33-.05-.55-.44-.66-1.04-.17-.61.88-2.53,3.24-5.83,2.31-3.24,4.79-7.2,7.42-11.77,2.59-4.56,3.52-7.21,2.97-7.75-3.63-1.71-8.85-.71-15.73,2.86-6.88,3.63-10.45,5.5-10.72,5.72-.33.28-.66.33-.88.22-.28-.11-.61-.33-.88-.61-.33-.28-.39-.77-.17-1.32.17-.6.49-.93.88-.93.33,0,3.74-1.54,10.01-4.67,6.27-3.13,11.22-4.56,14.79-4.29,2.2,0,3.96.94,5.33,2.7Zm-5.66-10.83c-.82.11-1.26-.11-1.21-.77-7.09.82-12.37,1.71-15.67,2.8-3.24,1.1-5.11,1.71-5.33,1.76-.28.11-.71,0-1.21-.28-.5-.28-.77-.55-.77-.77,0-.17.17-.55.5-1.15.28-.61.99-.94,2.09-.99s2.8-.33,5.22-.77c2.36-.5,5.33-1.04,8.8-1.76,3.52-.61,6.27-.99,8.47-1.04,2.09-.06,2.69.38,1.87,1.32-1.04.99-1.93,1.54-2.75,1.65Z"/>
      <path class="cls-2" d="m358.22,16.59c-.33-.27-1.76-.55-4.12-.77-2.42-.16-4.62-.49-6.71-.93-2.09-.44-3.3-.83-3.63-1.21-.38-.38-.22-.82.5-1.43.6-.55,1.37-.6,2.2-.16.77.38,2.31.66,4.56.82,2.25.17,4.29.38,6.16.71,1.81.33,2.86.82,3.08,1.43.16.66-.05,1.21-.77,1.65-.44.16-.88.11-1.27-.11Zm21.5,6.93c.28.44.22.94-.05,1.43-.33.5-2.75,2.42-7.2,5.78-4.51,3.41-9.18,6.21-14.08,8.52-4.84,2.31-7.7,3.46-8.53,3.46s-1.15-.39-.88-1.16c.16-.83.82-1.26,1.87-1.43.99-.16,2.04-.44,2.97-.82,8.8-4.62,17.05-9.95,24.8-16,.44-.33.83-.27,1.1.22Z"/>
      <path class="cls-2" d="m393.75,25.67c-1.48.83-2.42,1.16-2.86.94-.44-.17-.66-.55-.66-.99,0-.49,1.16-1.38,3.36-2.64s5.39-3.08,9.57-5.5c.82-3.57,1.48-5.94,1.92-7.2.39-1.21.88-2.14,1.54-2.75.61-.66.93-.5.93.38,0,.99-.05,1.81-.11,2.36-.11.6-.61,2.42-1.43,5.39,2.31-1.27,4.07-2.37,5.17-3.25,1.15-.83,1.98-1.1,2.47-.77.49.33.61.88.22,1.76-.38.88-1.32,1.49-2.8,1.98-1.48.5-3.41,1.71-5.72,3.63-.82,3.41-1.38,7.21-1.54,11.38,3.96-3.13,7.04-5.17,9.35-6.21,2.26-.99,3.46-1.21,3.63-.61.16.55-1.16,1.65-3.9,3.19-2.7,1.54-5.72,3.69-9.07,6.44-.28,4.07.22,6.98,1.65,8.85,1.37,1.98,3.57,2.69,6.6,2.25,2.97-.33,5.83-1.92,8.52-4.67,2.7-2.64,3.85-4.46,3.58-5.33-.33-.94-.61-1.54-.83-1.98-.22-.44.05-.82.83-1.15.71-.33,1.54.33,2.31,1.92.83,1.65-.28,4.07-3.3,7.31-3.08,3.3-6.65,5.28-10.78,6.05-4.18.77-6.98-.27-8.58-3.13-1.48-2.97-2.26-5.88-2.26-8.74-2.53,1.43-4.29,2.64-5.28,3.52-1.1.99-1.87,1.38-2.42,1.16-.55-.22-.71-.77-.44-1.65.22-.82,2.97-2.91,8.14-6.21.44-4.45.77-7.97.94-10.72-4.4,2.47-7.31,4.12-8.74,5Z"/>
      <path class="cls-2" d="m449.74,7.02c1.15-.05,2.37.55,3.57,1.76s1.76,4.18,1.71,8.85-.44,9.13-1.04,13.42c-.66,4.29-1.1,6.54-1.32,6.82-.28.28-1.71,1.21-4.12,2.86,1.04.66,2.04,1.43,3.19,2.37,1.1.93,1.98,1.43,2.69,1.54.66.11.94.44.71.99-.16.55-1.04.66-2.58.38-1.6-.28-3.3-1.59-5.22-3.79-2.42,2.37-3.96,4.29-4.79,5.83-.82,1.48-1.43,2.31-1.92,2.42-.55.11-.94,0-1.21-.38-.28-.39-.28-.77.11-1.16.33-.33.77-1.04,1.32-1.98.49-.88,1.48-2.31,2.91-4.18-.66-.17-1.48,0-2.31.49-.77.5-1.32.5-1.48.11-.16-.38,0-.88.61-1.43.55-.5,3.68-2.03,9.51-4.45-.22-.55-.05-.99.44-1.32.44-.33.88-2.2,1.27-5.66-3.9,1.71-7.09,3.63-9.51,5.83-.28.99-.22,1.92.05,2.75.28.77.22,1.38-.28,1.65s-.88.28-1.32,0c-.49-.28-.66-.88-.6-1.65.05-.82.11-1.65.11-2.42-.5-.38-.71-.77-.66-1.26.05-.44.28-.77.66-.99-.5-8.58-.82-15.12-.88-19.52-.05-4.4.28-6.6,1.04-6.6s1.21.71,1.49,2.04c2.31-1.65,4.95-2.75,7.86-3.3Zm-8.14,8.63c.05,2.42.11,4.73.28,7.04,2.31-2.8,4.4-4.46,6.27-5.06,1.76-.6,2.8-.83,3.08-.71s.55.44.71.99c.17.55.17.83-.11.88-.28.05-1.48.38-3.69,1.21-2.2.83-4.23,2.92-5.99,6.32,0,2.58.11,5,.28,7.2,2.91-1.87,6.1-3.52,9.62-5.06.61-5.72.66-11.38.17-16.94-.94-1.54-2.09-2.2-3.57-2.09-1.43.11-2.7.55-3.79,1.43-2.2.83-3.3,2.37-3.24,4.79Zm42.62,25.19c1.59.66,2.53,1.1,2.75,1.38.16.28.16.61,0,.94-.22.33-.55.55-.99.66-.5.11-1.71-.33-3.79-1.38-2.09-.99-4.51-2.42-7.26-4.29-1.76,1.87-3.02,3.35-3.68,4.4-.61,1.1-1.27,1.65-1.92,1.71-.61.05-1.04-.11-1.32-.61-.28-.49-.28-.82,0-.93.28-.11,1.92-1.98,5.06-5.61-4.95-3.69-7.53-5.61-7.7-5.88-.16-.28-.27-.55-.27-.77,0-.28.22-.66.71-1.16.49-.5,3.3,1.38,8.63,5.67,3.19-4.95,5.06-8.96,5.66-11.93.55-3.03.61-4.67.11-4.95-.55-.28-2.64.49-6.32,2.31-3.69,1.82-6.44,4.51-8.25,8.08-1.81,3.63-3.41,5.55-4.62,5.94-.61,3.63-.66,6.38-.28,8.14s.55,2.92.55,3.36-.55.71-1.6.93c-.99.22-1.48-2.64-1.38-8.63.11-5.94,1.21-14.3,3.19-24.86-.49.17-1.21.5-1.98,1.1-.83.55-1.48.88-1.93.94-.44.05-.77,0-1.04-.17-.27-.17-.38-.44-.33-.71.06-.22,1.54-1.32,4.51-3.08,2.91-1.76,5.83-3.52,8.85-5.17,3.03-1.65,4.56-2.53,4.68-2.58.11-.06.44-.06,1.04.05.49.11.6.49.38,1.1-.33.55-1.71,1.43-4.02,2.58-2.36,1.1-5.33,2.75-9.02,5.06,1.32.6,1.65,1.59,1.21,3.02-.55,1.43-1.1,3.96-1.71,7.64-.55,3.63-.88,6.38-.88,8.25,4.01-8.36,10.12-13.58,18.31-15.67.38-.05.88.05,1.54.44s1.04.77,1.21,1.27c.49,6.71-1.54,12.98-6.16,18.7,3.74,2.53,6.38,4.07,8.03,4.73Z"/>
      <path class="cls-2" d="m496.77,40.3c-.16-2.53,0-5.45.5-8.85.44-3.36.99-4.95,1.59-4.79.55.22,1.04.44,1.38.61.28.22.38.55.28.93-.11.33-.38,2.03-.88,4.84-.5,2.86-.71,4.84-.55,5.88.11.99.28,1.59.49,1.65.22.11.44.33.66.6.17.33.22.61.11.77-.11.11-.5.44-1.1.88-1.54.94-2.37.05-2.48-2.53Zm4.12-7.53c-.55-.72-.16-1.76,1.15-3.08,1.38-1.38,4.89-3.13,10.62-5.22,5.77-2.09,11.05-2.8,15.73-1.98,4.68.83,7.21,1.76,7.59,2.97.38,1.21.61,2.47.71,3.79.05,1.32-.61,3.9-1.98,7.7.44,1.6.5,2.53.22,2.7-.33.17-.66.22-.94.11-.33-.11-.66-.22-.99-.49-.38-.22-.55-.99-.38-2.31l.66-2.36c.94-3.19,1.21-5.72.83-7.59-5.39-2.91-11.22-3.3-17.6-1.1-5.61.71-9.84,2.53-12.81,5.39-1.32,1.65-2.31,2.14-2.8,1.49Zm.88-18.2c-.17-.66,1.21-1.49,3.96-2.37,2.7-.77,6.38-1.98,11-3.52.38-3.03.61-5.06.77-6.1.17-1.04.28-1.71.44-1.87s.44-.27.93-.27c.44,0,.66.17.83.39.16.27.16.93,0,1.92-.17.94-.33,2.58-.66,4.89,1.65-.38,3.68-.99,6.1-1.76,2.37-.71,3.96-1.04,4.89-.94.88.11,1.32.28,1.48.39.17.22.33.44.5.71.16.27-.61.6-2.26.88-1.65.33-5.28,1.26-10.83,2.86-.16,1.92-.27,4.18-.27,6.76,3.19-1.04,5.77-1.81,7.75-2.31,2.03-.5,3.3-.71,3.9-.55.61.17.71.5.49.94-.28.49-1.98,1.1-5,1.81-3.08.66-5.66,1.59-7.86,2.64-2.2,1.16-4.29,1.87-6.27,2.14-1.98.22-3.19.17-3.57-.22-.33-.44-.05-.82.88-1.21.94-.38,1.93-.66,3.03-.83.99-.16,2.36-.6,3.9-1.32.61-1.59.94-3.79.88-6.65-5.88,1.65-10.39,3.13-13.47,4.34-.88.22-1.38-.05-1.54-.77Zm5.44,34.21c1.43-2.31,2.42-5.61,2.8-9.9.33-4.29.82-6.6,1.48-6.88.66-.27,1.04-.27,1.16.05.16.39.05,2.64-.17,6.82-.33,4.18-1.32,7.7-2.97,10.61-1.65,2.86-3.03,3.96-4.02,3.41-.33-.5.28-1.81,1.71-4.12Zm22.6.77c1.32-.88,2.97-2.69,4.95-5.33,1.93-2.58,3.08-4.01,3.58-4.07.49-.05.93.17,1.32.66.38.5-.71,2.14-3.19,5-2.47,2.92-4.51,4.78-6.1,5.66-1.65.93-2.7,1.54-3.19,1.76-.5.17-1.1.17-2.04.06-.94-.22-1.92-1.32-3.08-3.3-1.15-1.98-1.87-5.66-2.14-11-.28-5.39,0-8.19.71-8.36.71-.16,1.21-.11,1.32.17.17.27.28,3.08.22,8.41-.05,5.28,1.1,9.13,3.41,11.55,1.43.11,2.92-.27,4.23-1.21Z"/>
      <path class="cls-2" d="m572.67,1.74c.22.06.38.22.49.38.11.17.17.5.22.83.05.38.05,1.1.11,2.14.06.99.06,2.09,0,3.24-.05,1.21,0,3.03.06,5.55l1.48-.44c6.1-1.76,10.17-2.58,12.21-2.31,2.04.28,3.25.61,3.63,1.04.33.49.93,1.87,1.81,4.07.82,2.2,1.1,3.58.82,4.07-1.1,3.24-2.42,5.55-3.74,6.71-1.32,1.16-2.2,1.76-2.59,1.76s-.66-.11-.82-.28c-.11-.16-.11-.55.28-1.15s1.1-1.43,2.14-2.31c-4.12,1.1-9.18,2.75-15.01,4.84,0,2.37.05,4.84.17,7.42.11,2.53.16,4.89.22,7.09s.17,3.79.38,4.78c.22,1.04.28,1.71.33,1.92.05.27,0,.55-.11.72-.16.16-.33.33-.61.49-.27.17-.49.17-.77,0s-.44-.33-.49-.49c-.05-.17-.17-.61-.22-1.21-.05-.66-.16-2.47-.44-5.44-.28-2.97-.38-5.55-.44-7.87-.06-2.31-.11-4.51-.17-6.6l-4.4,1.65c-3.69,1.65-5.88,2.42-6.65,2.26-.83-.17-1.38-.22-1.71-.28-.28-.05-1.27-1.54-2.86-4.34-1.65-2.86-2.47-5.44-2.53-7.64-.06-2.2.05-3.57.38-4.07.33-.49.66-.66,1.1-.38.44.28.71.5.82.77s.17,1.32.17,3.25c2.42-1.76,5.83-3.58,10.17-5.45,1.49-.66,3.19-1.32,5.28-1.98-.05-3.41-.16-5.77-.22-7.09-.05-1.37-.11-2.25-.17-2.86-.05-.6,0-1.04.17-1.43.16-.33.38-.66.77-1.04.28-.27.55-.38.71-.33Zm-1.15,26.84c-.05-2.75-.11-6.71-.11-11.82-2.14.66-3.9,1.32-5.39,1.98-3.63,2.09-6.93,3.79-9.73,5.22,1.7,6.05,3.57,8.85,5.66,8.52,3.02-1.32,6.16-2.59,9.57-3.91Zm18.48-13.64c-.71-1.27-2.31-1.87-4.78-1.71s-5.83,1.04-10.17,2.58l-1.48.33c.16,5.12.22,8.96.22,11.71,5.22-1.98,10.78-3.9,16.77-5.83.66-1.48.49-3.85-.55-7.09Z"/>
    </g>
  </g>
</svg>