<?xml version="1.0" encoding="UTF-8"?>
<svg id="Layer_2" data-name="Layer 2" xmlns="http://www.w3.org/2000/svg" viewBox="0 0 600 561.09">
  <defs>
    <style>
      .cls-1 {
        fill: none;
        stroke: #000;
        stroke-linecap: round;
        stroke-linejoin: round;
        stroke-width: 2.27px;
      }

      .cls-2 {
        fill: #80c2ef;
      }

      .cls-3 {
        fill: #533b2b;
      }
    </style>
  </defs>
  <g id="_文字" data-name="文字">
    <g>
      <g>
        <g>
          <g>
            <path d="m224.1,26.66c-1.3-1.25-3.1-2-4.54-2.55l-2.49-.95c-2.25-.85-3.4-1.15-4.2-1.9-.5-.45-.75-1.05-.75-1.85,0-.85.35-1.59.85-2.09.9-1,2.2-1.15,3.24-1.15.95,0,3.1.15,5.6,2.4l3.44-5.6c-3.89-2.9-7.59-3.29-9.89-3.29-3.1,0-5.9.65-8.24,3.04-2,2.05-2.9,4.54-2.9,7.5,0,1.59.25,3.94,2,5.79,1.3,1.4,3.1,2.1,4.64,2.65l2.75.95c.95.35,2.99,1.1,3.89,1.85.7.6,1.15,1.3,1.15,2.4,0,1.25-.55,2.15-1.2,2.7-1.1.95-2.5,1.15-3.5,1.15-1.55,0-2.9-.4-4.2-1.2-.89-.55-2.25-1.7-3.09-2.55l-4,5.49c1.25,1.25,3.19,2.8,4.89,3.64,2.1,1.05,4.2,1.4,6.59,1.4,2.2,0,6.49-.3,9.44-3.4,1.75-1.8,2.95-4.79,2.95-8.24,0-1.95-.5-4.34-2.45-6.19Z"/>
            <rect x="189.75" y="10.43" width="7.69" height="33.31"/>
            <path d="m176.66,24.11l-2.49-.95c-2.25-.85-3.4-1.15-4.2-1.9-.5-.45-.75-1.05-.75-1.85,0-.85.35-1.59.85-2.09.9-1,2.2-1.15,3.24-1.15.95,0,3.1.15,5.6,2.4l3.44-5.6c-3.89-2.9-7.59-3.29-9.89-3.29-3.1,0-5.9.65-8.24,3.04-2,2.05-2.9,4.54-2.9,7.5,0,1.59.25,3.94,2,5.79,1.3,1.4,3.1,2.1,4.64,2.65l2.74.95c.95.35,3,1.1,3.9,1.85.7.6,1.15,1.3,1.15,2.4,0,1.25-.55,2.15-1.2,2.7-1.1.95-2.5,1.15-3.5,1.15-1.55,0-2.9-.4-4.2-1.2-.89-.55-2.25-1.7-3.1-2.55l-3.99,5.49c1.25,1.25,3.19,2.8,4.89,3.64,2.1,1.05,4.2,1.4,6.59,1.4,2.2,0,6.49-.3,9.44-3.4,1.75-1.8,2.95-4.79,2.95-8.24,0-1.95-.5-4.34-2.45-6.19-1.3-1.25-3.1-2-4.54-2.55Z"/>
            <path d="m137.86,10.43l-13.43,33.31h7.99l2.54-6.29s10.78-2.55,12.46-.21c.05.07.09.14.12.21h0l2.49,6.29h7.99l-13.14-33.31h-7.04Zm-.49,20.7l3.99-10.76,3.74,10.23c-2.29-.24-5.53.17-7.73.53Z"/>
            <path d="m105.61,9.68c-6.64,0-10.79,2.65-13.04,4.89-2.99,3-5.14,7.84-5.14,12.64s2,9.39,5.19,12.39c2.5,2.4,6.74,4.89,12.99,4.89,5.59,0,9.78-1.9,12.88-4.89,3.6-3.5,5.2-8.04,5.2-12.49,0-5.14-2.04-9.53-5.2-12.58-3.35-3.25-7.69-4.84-12.88-4.84Zm7.29,24.87c-1.6,1.59-4,2.84-7.39,2.84-2.6,0-4.99-.7-7.14-2.74-2.04-2-3.04-4.45-3.04-7.49,0-3.7,1.5-6.14,2.94-7.54,1.8-1.8,4.39-2.85,7.29-2.85,3.05,0,5.69,1.25,7.34,2.85,1.5,1.5,2.9,4.05,2.9,7.49,0,3.85-1.6,6.19-2.9,7.45Z"/>
          </g>
          <g>
            <path class="cls-3" d="m71.49,18.38c-2.33-2.79-4.44-5.73-6.33-8.84-.2-.33-.42-.66-.67-1.01-8.05-11.24-27.09-11.4-42.53-.34C6.52,19.25.53,37.32,8.58,48.57c.25.34.49.66.74.96,2.32,2.78,4.44,5.74,6.33,8.84.2.33.42.66.67,1.01,8.05,11.24,27.09,11.4,42.53.34,15.44-11.06,21.43-29.13,13.39-40.37-.25-.34-.49-.66-.74-.96Z"/>
            <path class="cls-2" d="m54.05,50.28c-2.95,4.95-7.68,6.43-13.55,7.37-5.08.97-10.55,1.14-15.26-3.3-4.03-3.94-7.13-7.76-8.43-12.04-1.46-5.07.52-13.03,2.78-16.34,2.8-4.58,7.66-5.26,13.48-6.4,5.7-1.27,11.88.82,16.01,4.38,3.11,2.74,7.03,6.43,8.2,11.44.92,3.99-.1,9.72-3.25,14.89Z"/>
          </g>
          <g>
            <path d="m95.03,62.2c-.74.38-1.35.45-1.85.45-1.55,0-2.59-.53-3.3-1.22-.76-.73-1.31-1.84-1.31-3.18s.55-2.43,1.31-3.16c.74-.72,1.82-1.21,3.13-1.21.55,0,1.2.11,2.01.47v2.24c-.43-.45-1.07-.89-1.96-.89-.7,0-1.27.23-1.71.65-.47.45-.79,1.13-.79,1.94,0,.87.35,1.48.73,1.85.18.18.78.7,1.81.7.5,0,1.18-.14,1.93-.87v2.23Z"/>
            <path d="m103.96,55.1c.79.77,1.31,1.88,1.31,3.17,0,1.12-.4,2.27-1.31,3.15-.78.76-1.84,1.23-3.25,1.23-1.57,0-2.64-.63-3.27-1.23-.81-.76-1.31-1.89-1.31-3.12s.54-2.43,1.3-3.18c.57-.57,1.61-1.23,3.29-1.23,1.31,0,2.4.4,3.25,1.22Zm-5.1,1.28c-.37.35-.74.97-.74,1.9,0,.77.25,1.38.77,1.89.54.52,1.15.69,1.8.69.86,0,1.46-.31,1.86-.72.33-.31.73-.91.73-1.88,0-.87-.35-1.51-.73-1.89-.42-.4-1.08-.72-1.85-.72s-1.38.26-1.84.72Z"/>
            <path d="m111.31,55.71h-2.72v1.62h2.52v1.64h-2.52v3.5h-1.94v-8.4h4.66v1.64Z"/>
            <path d="m117.68,55.71h-2.72v1.62h2.52v1.64h-2.52v3.5h-1.94v-8.4h4.66v1.64Z"/>
            <path d="m124.01,55.71h-2.81v1.62h2.67v1.64h-2.67v1.86h2.81v1.64h-4.75v-8.4h4.75v1.64Z"/>
            <path d="m130.77,55.71h-2.81v1.62h2.67v1.64h-2.67v1.86h2.81v1.64h-4.75v-8.4h4.75v1.64Z"/>
            <path d="m138.44,62.47h-1.13l-2.79-5.61h1.99l1.45,2.98,1.42-3.06h.96l1.42,3.06,1.45-2.98h1.99l-2.79,5.61h-1.13l-1.41-3.2-1.41,3.2Z"/>
            <path d="m146.96,53.4c.59,0,1.06.47,1.06,1.06s-.47,1.06-1.06,1.06-1.06-.47-1.06-1.06.47-1.06,1.06-1.06Zm.91,3.45v5.61h-1.81v-5.61h1.81Z"/>
            <path d="m151.93,58.31v4.15h-1.81v-4.15h-.63v-1.46h.63v-1.81h1.81v1.81h1.12v1.46h-1.12Z"/>
            <path d="m154.41,53.29h1.81v4.23c.23-.28.47-.47.68-.58.38-.2.69-.24,1.09-.24.44,0,1.1.06,1.59.57.52.52.55,1.21.55,1.64v3.56h-1.81v-2.88c0-.39-.01-.84-.3-1.12-.16-.16-.44-.25-.7-.25-.39,0-.62.18-.72.28-.37.35-.38.89-.38,1.17v2.81h-1.81v-9.18Z"/>
            <path d="m168.61,56.12c-.63-.57-1.17-.6-1.41-.6-.26,0-.59.04-.82.29-.13.13-.21.31-.21.53,0,.2.06.35.19.47.2.19.49.26,1.06.48l.63.24c.36.14.82.33,1.15.64.49.47.62,1.07.62,1.56,0,.87-.3,1.62-.74,2.08-.74.78-1.82.86-2.38.86-.6,0-1.13-.09-1.66-.35-.43-.21-.92-.6-1.23-.92l1.01-1.38c.21.21.55.5.78.64.33.2.67.3,1.06.3.25,0,.6-.05.88-.29.16-.14.3-.37.3-.68,0-.28-.11-.45-.29-.6-.23-.19-.74-.38-.98-.47l-.69-.24c-.39-.14-.84-.31-1.17-.67-.44-.47-.5-1.06-.5-1.46,0-.74.23-1.37.73-1.89.59-.6,1.3-.77,2.08-.77.58,0,1.51.1,2.49.83l-.87,1.41Z"/>
            <path d="m176.51,61.75c-.5.5-1.36.91-2.45.91s-1.95-.4-2.45-.91c-.57-.57-.84-1.37-.84-2.09s.28-1.52.84-2.09c.5-.5,1.36-.91,2.45-.91s1.95.4,2.45.91c.57.57.84,1.37.84,2.09s-.28,1.52-.84,2.09Zm-3.47-3.15c-.26.26-.42.6-.42,1.06,0,.52.2.84.42,1.06.23.23.55.4,1.03.4.4,0,.74-.14,1.01-.4.26-.26.42-.6.42-1.06s-.15-.79-.42-1.06c-.26-.26-.6-.4-1.02-.4s-.76.14-1.02.4Z"/>
            <path d="m178.6,56.85h1.81v.66c.47-.7,1.15-.79,1.57-.79.24,0,.68.03,1.06.25.29.16.53.44.68.78.14-.23.35-.49.72-.72.39-.24.76-.31,1.2-.31.68,0,1.23.2,1.57.53.54.52.58,1.27.58,1.67v3.55h-1.81v-2.84c0-.29,0-.79-.24-1.1-.15-.19-.39-.3-.65-.3-.3,0-.55.14-.7.34-.24.3-.28.74-.28,1.11v2.79h-1.81v-2.92c0-.38-.01-.82-.29-1.09-.19-.19-.42-.23-.6-.23-.24,0-.45.06-.63.23-.34.33-.35.96-.35,1.15v2.87h-1.81v-5.61Z"/>
            <path d="m195.03,59.97h-4.19c0,.3.11.7.34.96.28.3.65.35.93.35s.54-.05.73-.16c.02-.01.24-.15.39-.47l1.71.18c-.25.79-.76,1.21-1.08,1.41-.54.33-1.15.41-1.77.41-.84,0-1.59-.15-2.24-.81-.49-.49-.84-1.23-.84-2.16,0-.81.29-1.64.86-2.22.68-.68,1.52-.81,2.15-.81s1.54.11,2.23.84c.67.7.79,1.59.79,2.28v.19Zm-1.67-1.08c-.01-.05-.1-.4-.36-.65-.2-.19-.49-.31-.86-.31-.47,0-.74.19-.92.37-.14.15-.26.35-.31.6h2.45Z"/>
            <path d="m198.55,58.31v4.15h-1.81v-4.15h-.63v-1.46h.63v-1.81h1.81v1.81h1.12v1.46h-1.12Z"/>
            <path d="m200.82,53.29h1.81v4.23c.23-.28.47-.47.68-.58.38-.2.69-.24,1.09-.24.44,0,1.1.06,1.59.57.52.52.55,1.21.55,1.64v3.56h-1.81v-2.88c0-.39-.01-.84-.3-1.12-.16-.16-.44-.25-.7-.25-.39,0-.62.18-.72.28-.37.35-.38.89-.38,1.17v2.81h-1.81v-9.18Z"/>
            <path d="m208.96,53.4c.59,0,1.06.47,1.06,1.06s-.47,1.06-1.06,1.06-1.06-.47-1.06-1.06.47-1.06,1.06-1.06Zm.91,3.45v5.61h-1.81v-5.61h1.81Z"/>
            <path d="m211.51,56.85h1.81v.67c.55-.7,1.21-.82,1.74-.82.49,0,1.13.09,1.61.57.53.53.57,1.2.57,1.65v3.55h-1.81v-2.88c0-.36-.01-.83-.3-1.12-.14-.14-.36-.25-.69-.25-.38,0-.62.15-.76.3-.3.3-.35.7-.35,1.07v2.88h-1.81v-5.61Z"/>
            <path d="m223.06,56.85h1.81v5.27c0,.79-.04,1.69-.69,2.39-.69.74-1.75.83-2.37.83-.74,0-1.64-.11-2.34-.72-.35-.3-.72-.78-.84-1.48h1.98c.08.29.25.45.4.55.21.14.52.19.78.19.52,0,.78-.19.91-.3.35-.34.37-.93.37-1.17v-.64c-.21.35-.64.84-1.67.84-.87,0-1.54-.28-2.05-.79-.45-.47-.82-1.15-.82-2.11s.35-1.75.83-2.24c.34-.35.99-.81,2.04-.81s1.47.54,1.67.84v-.66Zm-2.25,1.75c-.28.26-.43.7-.43,1.04,0,.37.14.74.39,1.01s.59.4,1.02.4c.48,0,.79-.19.98-.37.28-.26.44-.65.44-1.07,0-.44-.19-.81-.43-1.03-.26-.24-.65-.35-.98-.35-.4,0-.77.15-.99.37Z"/>
            <path d="m226.68,61.03h1.84v1.84h-1.84v-1.84Z"/>
          </g>
        </g>
        <g>
          <path d="m373.18,4.98c0-.44-.37-.79-.81-.79h-8.34c-.43,0-.79.35-.79.79h0v15.13h-16.98c-.45,0-.81.36-.81.77v26.15h0c.02.44.36.77.81.77h26.09c.44,0,.79-.36.79-.77l.03-42.04h-.03.03Zm-9.93,32.12c0,.44-.44.8-.97.8h-5.93c-.53,0-.98-.36-.98-.8v-6.3c0-.44.43-.77.96-.77h5.94c.53,0,.97.33.97.77v6.3Z"/>
          <path d="m404.8,20.11h-26.11c-.44,0-.8.36-.8.77v26.15c0,.41.36.77.8.77h26.11c.39,0,.72-.28.79-.64v-26.28c0-.41-.37-.77-.79-.77Zm-9.1,16.99c0,.44-.43.8-.98.8h-5.93c-.55,0-1-.36-1-.8v-6.3c0-.44.45-.77.98-.77h5.95c.55,0,.98.33.98.77v6.3Z"/>
          <path d="m473.9,20.11h-38.24c-.43,0-.8.36-.8.77l-.02,26.15c0,.41.36.77.8.77h8.31c.44,0,.8-.36.8-.77v-16.23c0-.44.33-.77.76-.77h3.51c.41,0,.78.31.78.74v16.25c0,.41.37.77.8.77h8.32c.44-.03.77-.36.77-.77v-16.2c.03-.41.34-.79.74-.79h3.53c.46,0,.8.41.8.82v16.17c0,.41.34.77.79.77h8.34c.42,0,.77-.36.77-.77v-26.15c0-.41-.34-.77-.77-.77Z"/>
          <path d="m565.44,47.02v-26.15c0-.41-.37-.77-.8-.77h-23.28c-.42,0-.78.36-.78.77v26.15c0,.41.36.77.78.77h8.32c.45,0,.81-.36.81-.77v-16.28c0-.44.36-.74.77-.74h3.55c.43,0,.71.33.73.77v16.25c0,.41.35.74.77.77h8.33c.43,0,.8-.36.8-.77h0Z"/>
          <path d="m595,47.02v-26.15c0-.41-.35-.77-.77-.77h-23.27c-.45,0-.8.36-.8.77v26.15c0,.41.36.77.8.77h8.31c.42,0,.8-.36.8-.77v-16.28c0-.44.34-.74.75-.74h3.53c.43,0,.74.33.74.77v16.25c0,.41.38.74.79.77h8.34c.41,0,.77-.36.77-.77h0Z"/>
          <path d="m535.07,20.11h-8.34c-.43,0-.79.36-.79.77v26.15h0c0,.28.18.57.45.69.01,0,.02,0,.04.03h.03c.1.02.18.05.27.05h8.36c.35,0,.67-.26.76-.56v-26.36c0-.41-.36-.77-.77-.77Z"/>
          <path d="m507.17,20.87v-.02h0c-.04-.42-.39-.75-.79-.75h-8.34c-.4,0-.77.36-.77.77v16.23c0,.44-.44.8-.98.8h-6.02c-.55,0-.96-.36-.96-.8v-16.23c0-.41-.35-.77-.78-.77h-8.34c-.42,0-.79.36-.79.77v26.15c0,.41.37.77.79.77h16.48c.35.06.6.38.6.76v4.74c-.1.34-.41.59-.77.59h-16.3c-.42,0-.79.36-.79.79,0,.02.02.06.02.08h0l-.02,8.15c0,.44.37.78.79.78h26.18c.43,0,.79-.33.79-.78V20.87Z"/>
          <path d="m429.35,20.11h-18.22c-.44,0-.79.36-.79.77v26.15c0,.41.36.77.79.77h8.34c.4,0,.8-.36.8-.77v-16.38c.05-.36.3-.61.7-.61h8.39c.44,0,.77-.39.77-.82v-8.34c0-.41-.33-.77-.77-.77Z"/>
        </g>
        <g>
          <line class="cls-1" x1="314.49" y1="6.45" x2="259.49" y2="61.45"/>
          <line class="cls-1" x1="314.49" y1="61.45" x2="259.49" y2="6.45"/>
        </g>
      </g>
      <g>
        <g>
          <rect x="61.4" y="189.61" width="157.41" height="8.68"/>
          <path d="m232.25,339.92h8.68v-93.37c11.04-9.64,19.87-22.4,27.13-34.49l-12.7-6.59c-4.9,10.8-10.68,21.23-18.03,30.25-7.32,8.96-16.5,16.57-27.59,19.51l1.27,6.31c7.81-1.32,14.85-4.35,21.25-8.46v86.85Z"/>
          <path d="m242.11,164.9c-1.87,11.63-4.68,23.15-9.45,33.73-4.72,10.43-11.71,20.17-21.9,25.71l2.11,4.34c13.36-6.17,22.39-17.48,28.8-30.4h82.1v-8.68h-78.24c2.97-7.48,5.24-15.21,7.11-22.6l-10.52-2.11Z"/>
          <path d="m352.14,336.58l1.29-5.43c-10.8-3.04-21.23-7.22-30.62-13.05-18.3-10.94-30.73-28.26-38.04-47.76,21.03-7.91,39.51-22.28,49.73-43.02l-9.68-4.58c-7.85,19.15-23.62,33.04-42.13,41.55-3.01-9.57-4.87-19.54-5.62-29.45l-12.33,1.35c1.51,10.91,4.04,21.73,7.87,32.12-3.68,1.25-7.42,2.34-11.2,3.19l.97,4.72c4.14-.65,8.25-1.54,12.3-2.64,13.65,33.57,42.06,55.64,77.46,63"/>
          <path d="m152.26,168.84c23.67-.66,47.17-7.51,68.53-18.19l-7.08-12.44c-18.63,12.12-39.62,21.01-62,24.22l.55,6.41Z"/>
          <path d="m160.37,229.23c.67-5.79.96-11.83.85-18.14l-13.41.2c3.51,62.47-38.99,96.87-93.91,115.41-17.49,5.97-35.59,10.43-53.89,13.84l1,5.95c18.63-2.85,37.16-6.76,55.33-12.3,51.89-15.6,92.95-45.17,102.68-96.28h37.7c-1.98,45.26-9.44,79.32-38.06,98.4l4.81,7.22c20.17-13.45,39.21-35.82,42.03-107.85v-6.45h-45.13Z"/>
          <path d="m593.65,349.34c-13.05-10.81-30.51-11.9-46.32-12.6-21.55-.12-43.02,2.85-63.6,9.07l64.71-48.48v-8.82h-72.72v8.94h54.74l-75.09,58.43,5.07,8.37c17.76-8.57,37.31-13.86,57.01-16.76,19.27-2.6,39.96-3.55,58.57,2.04,15.3,4.79,21.2,14.01,8.22,26.27-12.84,11.45-28.95,18.51-45.59,23.46-23.71-15.37-54.55-23.61-80.58-25.35-9.65-.39-20.15-.09-29.26,3.97-12.9,5.15-16.41,20.9-3.71,28.68,26.62,15.44,80.92,12.1,115.48,1,5.82,3.95,11.21,8.47,15.93,13.71,0,0,3.92-3.22,3.92-3.22-3.86-4.57-8.32-8.75-13.18-12.59,15.65-5.17,30.56-12.38,42.95-23.48,9.41-8.31,14.67-22.87,3.44-32.63m-76.47,55.31s-33.26,6.93-70.69.68c-.53-.09-1.04-.2-1.56-.32-6.52-1.61-14.48-3.34-18.24-8.45-.79-1.07-1.31-2.38-1.18-3.7.32-3.27,3.39-6.12,6.77-7.51,7.93-3.5,16.75-3.7,25.49-3.58,11.99.37,24.06,2.44,35.8,5.54,12.52,3.47,25.32,7.95,37,14.2-4.47,1.16-8.95,2.19-13.38,3.14"/>
          <path d="m506.06,189.61h-56.48c-1.43-11.63-3.56-23.16-7.77-34.15l-10.42,4.75c1.39,3.36,2.65,7.22,3.58,11.26,1.3,5.98,2.44,12.04,3.42,18.15h-94.99v8.68h96.24c1.49,11.5,2.24,23.12,1.97,34.65-1.62-1.25-3.39-2.39-5.3-3.38-20.21-10.01-51.71-5.57-63.01,15.66-7.85,14.03-3.5,32.15,11.46,39.26,21.95,9.77,54.14-3.06,63.51-25.37.33,1.97.58,4.01.64,6.21.64,8.22-1.23,15.71-5.23,22.82-13.05,21.48-36.78,34.32-59.97,42.85l1.96,5.72c29.06-10.24,66.83-30.72,70.55-64.86.72-9.29-.69-18.89-4.81-26.95,1.42-12.23.74-24.7.06-36.89-.29-3.24-.6-6.49-.92-9.74h55.53v-8.68Zm-65.55,59.84c-3.02,20.71-32.76,34.46-51.68,26.73-10.35-4.72-13.17-16.87-7.79-26.88,3.37-6.67,9.85-11.68,16.95-13.85,16.48-5.43,33.47-3.04,43.07,7.87-.17,2.05-.31,4.1-.55,6.13"/>
        </g>
        <g>
          <path d="m61.66,432.84v-62.13h7.8v55.43h27.21v6.7h-35Z"/>
          <path d="m139.47,433.94c-3.17,0-6.1-.45-8.82-1.36-2.71-.9-5.07-2.4-7.08-4.49-2.01-2.09-3.57-4.86-4.7-8.31-1.13-3.45-1.69-7.63-1.69-12.54v-36.53h7.8v36.7c0,4.97.65,8.89,1.95,11.74,1.3,2.85,3.04,4.89,5.21,6.1,2.17,1.22,4.62,1.82,7.33,1.82s5.25-.61,7.46-1.82c2.2-1.21,3.97-3.25,5.3-6.1,1.33-2.85,1.99-6.77,1.99-11.74v-36.7h7.54v36.53c0,4.92-.55,9.1-1.65,12.54-1.1,3.45-2.67,6.22-4.7,8.31-2.03,2.09-4.41,3.59-7.12,4.49-2.71.9-5.65,1.36-8.81,1.36Z"/>
          <path d="m188.29,432.84v-62.13h7.97l22.71,39.16,6.7,12.8h.42c-.28-3.11-.54-6.36-.76-9.75-.23-3.39-.34-6.7-.34-9.92v-32.29h7.46v62.13h-8.05l-22.63-39.24-6.7-12.71h-.34c.17,3.11.37,6.29.59,9.54.22,3.25.34,6.51.34,9.79v32.63h-7.37Z"/>
          <path d="m282.71,433.94c-3.84,0-7.42-.72-10.72-2.16s-6.17-3.54-8.6-6.31c-2.43-2.77-4.32-6.14-5.68-10.13-1.36-3.98-2.03-8.49-2.03-13.52s.69-9.54,2.08-13.52c1.38-3.98,3.32-7.36,5.81-10.13,2.49-2.77,5.4-4.89,8.73-6.36,3.33-1.47,6.98-2.2,10.93-2.2s7.12.78,10,2.33c2.88,1.56,5.23,3.32,7.04,5.3l-4.24,5.09c-1.64-1.75-3.5-3.16-5.59-4.24-2.09-1.07-4.46-1.61-7.12-1.61-3.9,0-7.32,1.02-10.26,3.05-2.94,2.03-5.23,4.93-6.87,8.69-1.64,3.76-2.46,8.21-2.46,13.35s.79,9.79,2.37,13.6c1.58,3.81,3.81,6.75,6.7,8.81,2.88,2.06,6.3,3.09,10.25,3.09,2.94,0,5.58-.62,7.92-1.86,2.34-1.24,4.51-2.97,6.48-5.17l4.32,5c-2.43,2.83-5.2,5.02-8.31,6.57-3.11,1.55-6.7,2.33-10.76,2.33Z"/>
          <path d="m323.13,432.84v-62.13h7.8v26.02h28.99v-26.02h7.88v62.13h-7.88v-29.33h-28.99v29.33h-7.8Z"/>
        </g>
      </g>
      <g>
        <path d="m64.96,528.77h3.79v8.02c0,2.49-.14,5.13-.43,7.91-.29,2.78-.89,5.57-1.8,8.36-.92,2.79-2.32,5.47-4.21,8.02-.39-.45-.89-.91-1.51-1.38s-1.18-.86-1.69-1.19c1.29-1.77,2.33-3.6,3.11-5.48.78-1.88,1.37-3.76,1.76-5.66s.65-3.74.79-5.54c.13-1.8.2-3.5.2-5.09v-7.98Zm-5-2.52h18.57v3.97h-18.57v-3.97Zm13.25,9.19h3.88v1.8c-.06,3.73-.13,6.89-.2,9.49-.08,2.6-.18,4.73-.32,6.4-.13,1.67-.29,2.97-.47,3.9-.18.93-.41,1.59-.68,1.98-.39.57-.8.97-1.24,1.19-.44.23-.95.38-1.55.47-.54.06-1.24.1-2.1.11-.86.01-1.74,0-2.64-.02-.03-.57-.14-1.22-.34-1.94-.2-.72-.44-1.35-.74-1.89.84.09,1.6.14,2.28.16.68.02,1.19.02,1.55.02.3,0,.56-.04.77-.11.21-.07.39-.25.54-.52.21-.27.38-.81.5-1.62.12-.81.23-1.99.32-3.54.09-1.55.17-3.55.25-6.02.08-2.46.14-5.48.2-9.06v-.81Zm-6.31,0h7.75v3.88h-7.75v-3.88Zm.5-16.27h4.1v8.43h-4.1v-8.43Zm15.82-.09l4.19.86c-.78,3.1-1.86,6.01-3.25,8.74-1.38,2.73-2.95,5.03-4.69,6.9-.24-.27-.57-.58-.99-.92-.42-.34-.86-.68-1.31-.99-.45-.32-.84-.58-1.17-.79,1.68-1.62,3.14-3.65,4.37-6.08,1.23-2.43,2.18-5,2.84-7.71Zm13.12,10.64l3.06,2.25c-1.11.9-2.44,1.79-3.99,2.66-1.55.87-3.19,1.71-4.94,2.52-1.74.81-3.5,1.56-5.27,2.23-1.77.68-3.46,1.25-5.05,1.73-.27-.57-.65-1.19-1.15-1.87-.5-.68-.97-1.24-1.42-1.69,1.59-.36,3.27-.82,5.03-1.37,1.76-.56,3.49-1.19,5.21-1.89,1.71-.71,3.3-1.45,4.78-2.23,1.47-.78,2.72-1.56,3.74-2.34Zm-14.42,8.07h4.06v23.17h-4.06v-23.17Zm.9-12.89h17.98v3.88h-17.98v-3.88Zm8.88,10.46c.48,3.19,1.15,6.21,2.01,9.08.86,2.87,1.97,5.41,3.33,7.62s3.04,3.96,5.03,5.25c-.3.24-.65.56-1.04.97-.39.41-.74.84-1.06,1.31s-.59.88-.83,1.24c-2.16-1.56-3.97-3.58-5.43-6.06-1.46-2.48-2.64-5.32-3.54-8.52s-1.62-6.65-2.16-10.34l3.7-.54Zm7.12,2.21l3.02,2.66c-1.23,1.23-2.62,2.46-4.17,3.7-1.55,1.23-2.95,2.27-4.21,3.11l-2.52-2.43c.81-.6,1.7-1.3,2.66-2.1.96-.8,1.91-1.63,2.84-2.5.93-.87,1.73-1.68,2.39-2.43Z"/>
        <path d="m109.99,527.19c1.29-.03,2.74-.06,4.35-.09,1.61-.03,3.31-.07,5.12-.11,1.8-.04,3.6-.09,5.39-.14,1.79-.04,3.49-.07,5.12-.09,1.62-.01,3.07-.02,4.33-.02h13.57l-.09,4.24c-1.29-.06-3.04-.11-5.25-.16-2.21-.04-4.98-.07-8.32-.07-1.98,0-4.03.02-6.13.04-2.1.03-4.21.08-6.33.16-2.12.08-4.16.16-6.13.25-1.97.09-3.79.2-5.48.32l-.14-4.33Zm23.98,13.16c0,2.22-.29,4.06-.88,5.52-.59,1.46-1.42,2.55-2.5,3.29-1.08.74-2.39,1.1-3.92,1.1-.93,0-1.84-.17-2.73-.5-.89-.33-1.7-.83-2.43-1.51-.74-.68-1.32-1.5-1.76-2.48-.44-.98-.65-2.1-.65-3.36,0-1.59.38-3,1.15-4.21.77-1.22,1.79-2.17,3.07-2.86,1.28-.69,2.67-1.04,4.17-1.04,1.86,0,3.42.42,4.67,1.26,1.25.84,2.19,1.98,2.82,3.4.63,1.43.95,3.04.95,4.85,0,1.47-.23,3-.68,4.57-.45,1.58-1.2,3.1-2.25,4.57-1.05,1.47-2.47,2.82-4.26,4.03-1.79,1.22-4.02,2.22-6.69,3l-3.83-3.79c2.01-.42,3.83-.98,5.45-1.69,1.62-.71,3.02-1.58,4.19-2.61s2.08-2.27,2.73-3.7c.65-1.43.97-3.09.97-4.98s-.4-3.11-1.19-3.92c-.8-.81-1.77-1.22-2.91-1.22-.69,0-1.35.17-1.98.5-.63.33-1.14.81-1.53,1.44-.39.63-.59,1.4-.59,2.3,0,1.26.41,2.25,1.24,2.95.83.71,1.78,1.06,2.86,1.06.87,0,1.61-.25,2.23-.74s1.04-1.28,1.29-2.34c.24-1.07.18-2.43-.18-4.08l3.2,1.17Zm.68-19.16c-.03.18-.07.5-.11.95s-.08.9-.11,1.35c-.03.45-.05.78-.05.99-.03.57-.05,1.36-.07,2.37-.02,1.01-.02,2.11-.02,3.31s0,2.41.02,3.63c.01,1.22.03,2.36.04,3.43.01,1.07.02,1.96.02,2.68l-4.37-1.8v-2.05c0-.89,0-1.89-.02-3.02-.01-1.13-.03-2.25-.04-3.36-.02-1.11-.03-2.13-.04-3.06-.02-.93-.04-1.64-.07-2.12-.06-.72-.13-1.4-.2-2.03s-.13-1.05-.16-1.26h5.18Z"/>
        <path d="m162.5,523.45c.57.06,1.18.11,1.83.14.65.03,1.24.04,1.78.04.45,0,1.18,0,2.19-.02,1.01-.01,2.15-.04,3.43-.07,1.28-.03,2.55-.07,3.81-.11,1.26-.05,2.4-.1,3.4-.16,1.01-.06,1.75-.1,2.23-.14.81-.06,1.43-.12,1.87-.18.43-.06.77-.14,1.01-.23l2.48,3.25c-.45.3-.92.6-1.4.9-.48.3-.96.65-1.44,1.04-.57.42-1.32,1-2.23,1.74-.92.74-1.9,1.55-2.95,2.43-1.05.89-2.09,1.75-3.11,2.59-1.02.84-1.94,1.59-2.75,2.25.9-.3,1.8-.5,2.7-.61.9-.1,1.8-.16,2.71-.16,2.49,0,4.73.48,6.71,1.44,1.98.96,3.55,2.25,4.69,3.88,1.14,1.62,1.71,3.5,1.71,5.63,0,2.37-.62,4.49-1.87,6.36-1.25,1.86-3.05,3.32-5.41,4.37-2.36,1.05-5.22,1.58-8.59,1.58-2.07,0-3.89-.29-5.45-.86-1.56-.57-2.77-1.38-3.63-2.41s-1.28-2.23-1.28-3.58c0-1.11.31-2.16.92-3.13.62-.98,1.49-1.76,2.61-2.34s2.43-.88,3.9-.88c2.04,0,3.75.41,5.12,1.24,1.37.83,2.42,1.92,3.15,3.27s1.13,2.82,1.19,4.42l-4.1.59c-.09-1.8-.61-3.27-1.55-4.42-.95-1.14-2.22-1.71-3.81-1.71-.96,0-1.75.26-2.37.77-.62.51-.92,1.11-.92,1.8,0,.99.5,1.77,1.51,2.34,1.01.57,2.31.86,3.9.86,2.55,0,4.73-.32,6.54-.97,1.8-.65,3.17-1.59,4.1-2.84.93-1.25,1.4-2.76,1.4-4.53,0-1.41-.42-2.67-1.26-3.79-.84-1.11-2-1.98-3.47-2.59-1.47-.62-3.15-.92-5.05-.92s-3.45.2-4.94.61-2.88.99-4.17,1.76-2.56,1.71-3.81,2.84c-1.25,1.13-2.53,2.41-3.85,3.85l-3.29-3.34c.9-.72,1.89-1.53,2.97-2.43,1.08-.9,2.17-1.81,3.27-2.73,1.1-.92,2.13-1.79,3.11-2.61.98-.83,1.8-1.51,2.46-2.05.63-.51,1.4-1.13,2.3-1.87.9-.74,1.83-1.51,2.79-2.32.96-.81,1.88-1.58,2.75-2.32.87-.74,1.59-1.36,2.16-1.87-.48.03-1.14.06-1.98.09-.84.03-1.77.07-2.77.11-1.01.04-2.02.09-3.04.14s-1.95.09-2.79.14c-.84.04-1.49.08-1.94.11-.54.03-1.1.07-1.69.11-.59.05-1.13.1-1.64.16l-.14-4.64Z"/>
        <path d="m236.64,535.58c-.15.24-.29.51-.43.81-.14.3-.23.56-.29.77-.63,2.19-1.47,4.39-2.52,6.58-1.05,2.19-2.42,4.21-4.1,6.04-2.31,2.58-4.86,4.63-7.64,6.13-2.78,1.5-5.61,2.66-8.5,3.47l-3.52-4.06c3.27-.69,6.26-1.73,8.97-3.13,2.71-1.4,4.97-3.06,6.81-4.98,1.29-1.35,2.35-2.82,3.18-4.42.83-1.59,1.43-3.12,1.83-4.6h-22.94c-.54,0-1.25.02-2.14.05-.89.03-1.77.08-2.64.14v-4.69c.9.09,1.76.17,2.57.23.81.06,1.55.09,2.21.09h23.08c.63,0,1.19-.04,1.69-.11.5-.07.89-.17,1.19-.29l3.2,1.98Zm-29.84-12.4c.6.06,1.28.11,2.05.16s1.52.07,2.28.07h17.53c.72,0,1.49-.02,2.32-.07.83-.04,1.52-.1,2.1-.16v4.64c-.57-.06-1.26-.1-2.07-.11-.81-.01-1.61-.02-2.39-.02h-17.49c-.72,0-1.46,0-2.23.02-.77.02-1.46.05-2.1.11v-4.64Z"/>
        <path d="m247.33,553.74c2.52-.39,4.85-.91,6.99-1.56,2.13-.65,4.09-1.38,5.88-2.21,1.79-.83,3.4-1.67,4.84-2.55,2.4-1.47,4.62-3.17,6.65-5.09,2.03-1.92,3.81-3.91,5.34-5.95,1.53-2.04,2.75-4.03,3.65-5.95l2.75,4.91c-1.08,1.95-2.41,3.91-3.99,5.86-1.58,1.95-3.36,3.82-5.34,5.61-1.98,1.79-4.15,3.4-6.49,4.85-1.5.93-3.15,1.83-4.94,2.7-1.79.87-3.71,1.65-5.77,2.34-2.06.69-4.25,1.25-6.56,1.67l-3.02-4.64Zm4.64-30.15c.81.54,1.74,1.21,2.79,2.01,1.05.8,2.13,1.65,3.22,2.55s2.14,1.77,3.13,2.61,1.79,1.59,2.39,2.25l-3.56,3.65c-.57-.6-1.32-1.33-2.25-2.19s-1.93-1.74-3-2.66c-1.07-.92-2.13-1.79-3.18-2.61-1.05-.83-2-1.52-2.84-2.1l3.29-3.52Z"/>
        <path d="m291.41,536.12c.54.06,1.17.11,1.89.16.72.05,1.44.07,2.16.07h29.79c.33,0,.73,0,1.19-.02.46-.02.93-.04,1.4-.07.47-.03.86-.06,1.19-.09v4.6c-.54-.06-1.14-.1-1.8-.11-.66-.01-1.29-.02-1.89-.02h-29.84c-.69,0-1.41,0-2.14.02-.74.02-1.39.05-1.96.11v-4.64Zm3.43-10.73c1.17.03,2.64.03,4.39,0,1.76-.03,3.61-.1,5.54-.2,1.94-.1,3.72-.28,5.34-.52,1.05-.15,2.14-.32,3.27-.52s2.21-.41,3.25-.63c1.04-.23,1.98-.47,2.84-.72.86-.25,1.57-.52,2.14-.79l2.93,3.97c-.6.15-1.15.29-1.65.41-.5.12-.92.23-1.28.32-.9.24-1.91.47-3.02.7-1.11.23-2.28.44-3.52.65-1.23.21-2.43.41-3.61.59-1.68.21-3.47.38-5.36.5-1.89.12-3.72.21-5.48.27-1.76.06-3.31.11-4.67.14l-1.13-4.15Zm2.3,30.87c2.58-1.2,4.73-2.66,6.42-4.37s2.97-3.73,3.81-6.04c.84-2.31,1.26-4.96,1.26-7.93v-9.78l4.64-.59v10.32c0,3.1-.38,5.96-1.13,8.59-.75,2.63-1.98,5.01-3.67,7.14-1.7,2.13-3.99,4.04-6.87,5.72l-4.46-3.06Z"/>
        <path d="m371.5,527.19c-.15.36-.29.77-.43,1.24-.14.47-.26.92-.38,1.37-.24,1.14-.56,2.42-.95,3.83-.39,1.41-.86,2.87-1.42,4.37-.56,1.5-1.2,2.97-1.92,4.39-.72,1.43-1.53,2.74-2.43,3.94-1.38,1.77-2.94,3.43-4.67,4.96-1.73,1.53-3.69,2.91-5.88,4.12-2.19,1.22-4.66,2.26-7.39,3.13l-3.88-4.24c2.97-.72,5.54-1.62,7.71-2.68,2.16-1.07,4.05-2.28,5.66-3.65,1.61-1.37,3.03-2.83,4.26-4.39,1.05-1.32,1.95-2.79,2.71-4.42.75-1.62,1.38-3.25,1.89-4.89.51-1.64.86-3.15,1.04-4.53h-22.13c-.96,0-1.87.02-2.73.04-.86.03-1.57.08-2.14.14v-5.05c.42.06.92.11,1.49.16.57.04,1.16.09,1.76.14.6.04,1.14.07,1.62.07h21.86c.39,0,.85-.02,1.37-.07.53-.05,1.03-.13,1.51-.25l3.47,2.25Z"/>
        <path d="m381.01,553.16c.54.06,1.12.11,1.74.16.62.04,1.18.07,1.69.07h24.92c.6,0,1.17-.02,1.71-.07.54-.05,1.04-.1,1.49-.16v4.73c-.45-.09-1-.14-1.65-.16-.65-.02-1.16-.02-1.55-.02h-24.92c-.51,0-1.07,0-1.67.02-.6.01-1.19.07-1.76.16v-4.73Zm2.25-19.79c.48.06,1.04.11,1.69.16.65.04,1.18.07,1.6.07h20.73c.54,0,1.1-.02,1.69-.07.59-.05,1.12-.1,1.6-.16v4.51c-.51-.06-1.06-.1-1.64-.11-.59-.01-1.13-.02-1.65-.02h-20.73c-.39,0-.92,0-1.58.02-.66.02-1.23.05-1.71.11v-4.51Zm11.04,22.45v-19.92h4.64v19.92h-4.64Z"/>
        <path d="m461.29,526.7c-.21.24-.46.55-.74.92-.29.38-.53.7-.74.97-.63,1.11-1.51,2.42-2.64,3.92-1.13,1.5-2.4,3.01-3.83,4.53-1.43,1.52-2.95,2.85-4.58,3.99l-3.74-3.02c.99-.57,1.96-1.25,2.91-2.05.95-.8,1.83-1.63,2.66-2.5.83-.87,1.56-1.72,2.19-2.55.63-.83,1.11-1.57,1.44-2.23h-24.7c-.9,0-1.77.02-2.61.07-.84.04-1.74.11-2.71.2v-5c.84.09,1.71.18,2.61.27s1.8.14,2.7.14h25.2c.33,0,.74,0,1.24-.02.5-.02.98-.05,1.44-.11.46-.06.82-.12,1.06-.18l2.84,2.66Zm-18.21,5.99c0,2.34-.06,4.57-.18,6.67-.12,2.1-.4,4.09-.83,5.97-.44,1.88-1.1,3.64-2.01,5.27-.9,1.64-2.12,3.18-3.65,4.62s-3.49,2.76-5.86,3.97l-4.15-3.38c.66-.21,1.38-.5,2.14-.88.77-.38,1.49-.82,2.19-1.33,1.62-1.05,2.93-2.19,3.92-3.43.99-1.23,1.74-2.56,2.23-3.99.5-1.43.84-2.97,1.04-4.62.2-1.65.29-3.41.29-5.27,0-.6-.02-1.19-.04-1.76-.03-.57-.11-1.19-.23-1.85h5.14Z"/>
        <path d="m471.38,520.97h4.19v40.02h-4.19v-40.02Zm2.16,6.17h12.08v2.93h-12.08v-2.93Zm.41-6.17h14.33v15.55h-14.33v-3.16h10.32v-9.28h-10.32v-3.11Zm4.33,25.83h23.75v3.56h-23.75v-3.56Zm5.32-6.45h3.65v8.38c0,.72-.08,1.59-.25,2.61-.17,1.02-.47,2.11-.92,3.27-.45,1.16-1.07,2.28-1.85,3.36-.78,1.08-1.8,2.04-3.07,2.88-.3-.39-.72-.83-1.26-1.33-.54-.5-1.04-.89-1.49-1.19,1.41-.87,2.49-1.9,3.22-3.09.74-1.19,1.25-2.37,1.53-3.54.29-1.17.43-2.16.43-2.98v-8.38Zm-4.55-1.22h22.13v3.43h-22.13v-3.43Zm27.99-18.16v3.11h-11.13v9.38h11.13v3.11h-15.19v-15.59h15.19Zm-14.42,19.2h3.83v19.97h-3.83v-19.97Zm1.8-13.03h12.12v2.93h-12.12v-2.93Zm10.46-6.17h4.24v34.8c0,1.14-.14,2.05-.43,2.73s-.79,1.19-1.51,1.56c-.75.36-1.71.59-2.88.68-1.17.09-2.63.14-4.37.14-.03-.39-.11-.84-.25-1.35-.14-.51-.29-1.03-.45-1.56-.17-.53-.35-.97-.56-1.33,1.14.03,2.22.05,3.25.05h2.07c.33-.03.56-.11.7-.25.13-.14.2-.37.2-.7v-34.75Z"/>
        <path d="m529.21,519.31l4.06,1.22c-.99,2.55-2.15,5.09-3.47,7.62-1.32,2.52-2.75,4.9-4.28,7.12-1.53,2.22-3.11,4.19-4.73,5.9-.15-.36-.36-.81-.63-1.35-.27-.54-.56-1.1-.88-1.67-.32-.57-.59-1.01-.83-1.31,1.44-1.44,2.83-3.09,4.17-4.96,1.34-1.86,2.58-3.88,3.72-6.04,1.14-2.16,2.1-4.34,2.88-6.54Zm-4.51,11.94l4.01-4.01.04.04v33.62h-4.06v-29.66Zm12.98-.95l4.1,1.17c-.75,1.71-1.64,3.4-2.66,5.07-1.02,1.67-2.11,3.22-3.27,4.67-1.16,1.44-2.34,2.73-3.54,3.88-.24-.3-.56-.63-.95-.99-.39-.36-.79-.73-1.19-1.1-.41-.38-.77-.68-1.1-.92,1.77-1.38,3.42-3.12,4.94-5.23,1.52-2.1,2.74-4.28,3.67-6.54Zm-3.34-9.42h3.92v5.86h17.53v-5.86h4.1v9.47h-25.56v-9.47Zm1.13,14.6h25.11v3.38h-21v22h-4.1v-25.38Zm2.21,20.15h23.39v3.38h-23.39v-3.38Zm.04-13.39h21.5v3.16h-21.5v-3.16Zm0,6.63h21.5v3.2h-21.5v-3.2Zm6.99-29.43h4.19v9.51h-4.19v-9.51Zm3.65,11.09l4.46,1.04c-.6,1.23-1.2,2.44-1.8,3.63-.6,1.19-1.16,2.2-1.67,3.04l-3.34-.95c.3-.66.6-1.39.9-2.19.3-.8.58-1.59.83-2.39.25-.8.46-1.52.61-2.19Zm-1.85,7.26h4.06v19.47h-4.06v-19.47Z"/>
      </g>
    </g>
  </g>
</svg>