<?xml version="1.0" encoding="UTF-8"?>
<svg id="Layer_2" data-name="Layer 2" xmlns="http://www.w3.org/2000/svg" viewBox="0 0 200 180.81">
  <g id="_文字" data-name="文字">
    <g>
      <path d="m96.91,2.31c20.55-.12,37.93,17.26,37.25,37.89h3.63c-.06-2.94-.46-5.86-1.14-8.71l13.58,9.35.15,8.7c0,.28.14.53.36.69l16.32,11.88c.39.29.94.2,1.23-.19l4.19-5.76h.02s.57-.81.57-.81l4.52-6.21c.29-.39.2-.94-.19-1.23l-16.32-11.88c-.22-.16-.51-.21-.77-.13l-9.47,2.88s-.02.01-.04.02l-14.97-10.31c-2.04-6.36-5.59-12.21-10.35-16.85-15.57-15.54-41.53-15.54-57.1,0-7.59,7.38-12.1,17.85-12.32,28.55h3.63c-.69-20.62,16.7-38.02,37.25-37.89"/>
      <path d="m101.95,172.66c-.63,0-1.13.22-1.5.66v-2.95h-1.29v8.13h1.17l.06-.62c.37.48.9.73,1.57.73s1.24-.26,1.64-.79c.4-.53.6-1.23.6-2.12v-.07c0-.93-.2-1.66-.6-2.18-.4-.52-.95-.78-1.65-.78m.96,3.08c0,.61-.12,1.06-.34,1.36-.22.3-.53.45-.93.45-.56,0-.96-.25-1.19-.75v-2.36c.23-.49.62-.73,1.18-.73.42,0,.73.16.95.47.22.31.33.78.33,1.4v.16Z"/>
      <path d="m108.21,176.65l-1.21-3.89h-1.39l2.01,5.7-.19.49c-.09.28-.23.48-.39.59-.16.12-.41.18-.73.18l-.24-.02v1c.23.06.43.1.62.1.84,0,1.43-.48,1.78-1.45l2.28-6.6h-1.37l-1.16,3.89Z"/>
      <path d="m163.64,172.18l-.87-.33c-.79-.3-1.19-.4-1.47-.67-.17-.16-.26-.37-.26-.65,0-.3.12-.56.3-.73.32-.35.77-.4,1.14-.4.33,0,1.08.05,1.96.84l1.21-1.96c-1.36-1.01-2.66-1.15-3.46-1.15-1.09,0-2.07.23-2.89,1.07-.7.72-1.02,1.59-1.02,2.63,0,.56.09,1.38.7,2.03.45.49,1.08.74,1.63.93l.96.33c.33.12,1.05.38,1.36.65.24.21.4.45.4.84,0,.44-.19.75-.42.94-.39.33-.88.4-1.23.4-.54,0-1.01-.14-1.47-.42-.31-.19-.79-.59-1.08-.89l-1.4,1.93c.44.44,1.12.98,1.71,1.28.74.37,1.47.49,2.31.49.77,0,2.27-.1,3.31-1.19.61-.63,1.03-1.68,1.03-2.89,0-.68-.18-1.52-.86-2.17-.45-.44-1.09-.7-1.59-.89"/>
      <rect x="153.19" y="167.39" width="2.69" height="11.67"/>
      <path d="m148.61,172.18l-.87-.33c-.79-.3-1.19-.4-1.47-.67-.17-.16-.26-.37-.26-.65,0-.3.12-.56.3-.73.32-.35.77-.4,1.14-.4.33,0,1.08.05,1.96.84l1.21-1.96c-1.36-1.01-2.66-1.15-3.46-1.15-1.08,0-2.07.23-2.89,1.07-.7.72-1.02,1.59-1.02,2.63,0,.56.09,1.38.7,2.03.45.49,1.08.74,1.63.93l.96.33c.33.12,1.05.38,1.37.65.24.21.4.45.4.84,0,.44-.19.75-.42.94-.39.33-.88.4-1.23.4-.54,0-1.02-.14-1.47-.42-.31-.19-.79-.59-1.09-.89l-1.4,1.93c.44.44,1.12.98,1.71,1.28.74.37,1.47.49,2.31.49.77,0,2.27-.1,3.31-1.19.61-.63,1.03-1.68,1.03-2.89,0-.68-.18-1.52-.86-2.17-.45-.44-1.09-.7-1.59-.89"/>
      <path d="m135.01,167.39l-4.71,11.67h2.8l.89-2.2s3.78-.9,4.37-.07c.02.02.03.05.04.07h0l.87,2.2h2.8l-4.6-11.67h-2.47Zm-.17,7.25l1.4-3.77,1.31,3.58c-.8-.08-1.94.06-2.71.19"/>
      <path d="m123.71,167.13c-2.33,0-3.78.93-4.57,1.71-1.05,1.05-1.8,2.75-1.8,4.43s.7,3.29,1.82,4.34c.88.84,2.36,1.71,4.55,1.71,1.96,0,3.43-.67,4.51-1.71,1.26-1.23,1.82-2.82,1.82-4.38,0-1.8-.72-3.34-1.82-4.41-1.17-1.14-2.69-1.7-4.51-1.7m2.55,8.71c-.56.56-1.4,1-2.59,1-.91,0-1.75-.24-2.5-.96-.72-.7-1.07-1.56-1.07-2.62,0-1.3.52-2.15,1.03-2.64.63-.63,1.54-1,2.55-1,1.07,0,2,.44,2.57,1,.52.52,1.01,1.42,1.01,2.62,0,1.35-.56,2.17-1.01,2.61"/>
      <path d="m168.66,175.81c-.35.34-.61.85-.61,1.47s.26,1.14.61,1.48c.33.32.81.57,1.53.57.23,0,.51-.04.86-.21v-1.03c-.34.34-.66.4-.89.4-.48,0-.76-.25-.84-.33-.18-.17-.34-.46-.34-.86,0-.37.15-.69.37-.9.2-.2.47-.3.79-.3.42,0,.71.2.91.42v-1.04c-.38-.16-.68-.22-.94-.22-.61,0-1.11.23-1.46.56"/>
      <path d="m173.69,175.25c-.78,0-1.26.31-1.53.57-.35.35-.6.92-.6,1.48s.23,1.1.61,1.45c.29.28.79.57,1.52.57.65,0,1.15-.22,1.51-.57.42-.41.61-.94.61-1.46,0-.6-.24-1.12-.61-1.47-.39-.38-.9-.57-1.51-.57m.85,2.91c-.19.19-.47.33-.87.33-.3,0-.58-.08-.84-.32-.24-.23-.36-.52-.36-.88,0-.43.18-.72.34-.88.21-.21.51-.33.85-.33.36,0,.67.15.86.33.18.18.34.47.34.88,0,.45-.19.73-.34.87"/>
      <polygon points="176.45 179.24 177.35 179.24 177.35 177.61 178.52 177.61 178.52 176.85 177.35 176.85 177.35 176.1 178.61 176.1 178.61 175.34 176.45 175.34 176.45 179.24"/>
      <polygon points="179.41 179.24 180.31 179.24 180.31 177.61 181.48 177.61 181.48 176.85 180.31 176.85 180.31 176.1 181.57 176.1 181.57 175.34 179.41 175.34 179.41 179.24"/>
      <polygon points="182.31 179.24 184.51 179.24 184.51 178.48 183.21 178.48 183.21 177.61 184.45 177.61 184.45 176.85 183.21 176.85 183.21 176.1 184.51 176.1 184.51 175.34 182.31 175.34 182.31 179.24"/>
      <polygon points="185.45 179.24 187.65 179.24 187.65 178.48 186.35 178.48 186.35 177.61 187.59 177.61 187.59 176.85 186.35 176.85 186.35 176.1 187.65 176.1 187.65 175.34 185.45 175.34 185.45 179.24"/>
      <rect x="41.79" y="78.35" width="39.88" height="2.2"/>
      <path d="m85.07,116.43h2.2v-23.66c2.8-2.44,5.03-5.67,6.87-8.74l-3.22-1.67c-1.24,2.74-2.7,5.38-4.57,7.66-1.85,2.27-4.18,4.2-6.99,4.94l.32,1.6c1.98-.34,3.76-1.1,5.38-2.14v22Z"/>
      <path d="m87.57,72.09c-.47,2.95-1.19,5.86-2.39,8.55-1.2,2.64-2.97,5.11-5.55,6.51l.53,1.1c3.38-1.56,5.67-4.43,7.3-7.7h20.8v-2.2h-19.82c.75-1.89,1.33-3.85,1.8-5.73l-2.67-.53Z"/>
      <path d="m115.45,115.58l.33-1.37c-2.74-.77-5.38-1.83-7.76-3.31-4.64-2.77-7.79-7.16-9.64-12.1,5.33-2.01,10.01-5.64,12.6-10.9l-2.45-1.16c-1.99,4.85-5.98,8.37-10.67,10.53-.76-2.42-1.23-4.95-1.42-7.46l-3.12.34c.38,2.76,1.02,5.5,1.99,8.14-.93.32-1.88.59-2.84.81l.25,1.19c1.05-.16,2.09-.39,3.12-.67,3.46,8.51,10.66,14.1,19.62,15.96"/>
      <path d="m64.81,73.09c6-.17,11.95-1.9,17.36-4.61l-1.79-3.15c-4.72,3.07-10.04,5.32-15.71,6.14l.14,1.62Z"/>
      <path d="m66.86,88.39c.17-1.47.24-3,.21-4.59l-3.4.05c.89,15.83-9.88,24.54-23.79,29.24-4.43,1.51-9.02,2.64-13.65,3.51l.25,1.51c4.72-.72,9.42-1.71,14.02-3.12,13.15-3.95,23.55-11.44,26.01-24.39h9.55c-.5,11.47-2.39,20.09-9.64,24.93l1.22,1.83c5.11-3.41,9.93-9.07,10.65-27.32v-1.63h-11.43Z"/>
      <polygon points="24.18 130.68 23 129.6 23 127.75 24.42 126.45 29.79 126.45 32.01 128.47 33.81 126.83 30.93 124.21 23.28 124.21 20.36 126.87 20.36 130.48 23 132.88 30.2 133.33 31.39 134.41 31.39 136.49 29.96 137.79 23.95 137.79 21.63 135.67 19.82 137.31 22.81 140.02 31.1 140.02 34.03 137.37 34.03 133.53 31.38 131.13 24.18 130.68"/>
      <polygon points="53.14 135.76 49.51 124.21 47.34 124.21 43.7 135.76 40.17 124.37 40.12 124.21 37.38 124.21 42.37 140.02 44.79 140.02 48.4 128.61 51.98 140.02 54.38 140.02 59.36 124.21 56.73 124.21 53.14 135.76"/>
      <polygon points="63.69 140.02 76.87 140.02 76.87 137.79 66.33 137.79 66.33 133.16 75.62 133.16 75.62 130.92 66.33 130.92 66.33 126.45 76.87 126.45 76.87 124.21 63.69 124.21 63.69 140.02"/>
      <polygon points="81.46 140.02 94.63 140.02 94.63 137.79 84.1 137.79 84.1 133.16 93.39 133.16 93.39 130.92 84.1 130.92 84.1 126.45 94.63 126.45 94.63 124.21 81.46 124.21 81.46 140.02"/>
      <polygon points="97.76 126.45 103.45 126.45 103.45 140.02 106.09 140.02 106.09 126.45 111.78 126.45 111.78 124.21 97.76 124.21 97.76 126.45"/>
      <polygon points="128.45 137.37 128.45 133.53 125.81 131.13 118.61 130.68 117.42 129.6 117.42 127.75 118.85 126.45 124.21 126.45 126.44 128.47 128.24 126.83 125.36 124.21 117.7 124.21 114.78 126.87 114.78 130.48 117.43 132.88 124.63 133.33 125.81 134.41 125.81 136.49 124.39 137.79 118.38 137.79 116.05 135.68 114.25 137.31 117.23 140.02 125.53 140.02 128.45 137.37"/>
      <path d="m200,51.25h-4.53l.16,3.99c.07,2.47.28,9.45.35,11.97.77,37.14.73,74.63-.51,111.76h4.53c-1.34-42.46-1.44-85.26,0-127.72"/>
      <path d="m0,51.25l.16,3.99c.07,2.47.28,9.45.35,11.97.77,37.14.73,74.63-.51,111.76h4.53c-1.34-42.46-1.44-85.26,0-127.72H0Z"/>
      <path d="m176.63,118.82c-3.31-2.74-7.73-3.01-11.74-3.19-5.46-.03-10.9.72-16.11,2.3l16.39-12.28v-2.24h-18.42v2.27h13.87l-19.02,14.8,1.28,2.12c4.5-2.17,9.45-3.51,14.44-4.24,4.88-.66,10.12-.9,14.84.52,3.88,1.21,5.37,3.55,2.08,6.65-3.25,2.9-7.33,4.69-11.55,5.94-6.01-3.89-13.82-5.98-20.42-6.42-2.44-.1-5.11-.02-7.41,1.01-3.27,1.31-4.16,5.3-.94,7.26,6.74,3.91,20.5,3.07,29.26.25,1.47,1,2.84,2.15,4.04,3.47l.99-.82c-.98-1.16-2.11-2.22-3.34-3.19,3.96-1.31,7.74-3.14,10.88-5.95,2.38-2.11,3.72-5.8.87-8.27m-19.37,14.01s-8.43,1.76-17.91.17c-.13-.02-.26-.05-.39-.08-1.65-.41-3.67-.85-4.62-2.14-.2-.27-.33-.6-.3-.94.08-.83.86-1.55,1.71-1.9,2.01-.89,4.24-.94,6.46-.91,3.04.09,6.1.62,9.07,1.4,3.17.88,6.41,2.01,9.37,3.6-1.13.29-2.27.55-3.39.79"/>
      <path d="m154.44,78.35h-14.31c-.36-2.95-.9-5.87-1.97-8.65l-2.64,1.2c.35.85.67,1.83.91,2.85.33,1.51.62,3.05.87,4.6h-24.07v2.2h24.38c.38,2.91.57,5.86.5,8.78-.41-.32-.86-.61-1.34-.86-5.12-2.54-13.1-1.41-15.96,3.97-1.99,3.56-.89,8.14,2.9,9.95,5.56,2.48,13.72-.78,16.09-6.43.08.5.15,1.02.16,1.57.16,2.08-.31,3.98-1.32,5.78-3.31,5.44-9.32,8.69-15.19,10.86l.5,1.45c7.36-2.6,16.93-7.78,17.87-16.43.18-2.35-.18-4.78-1.22-6.83.36-3.1.19-6.26.01-9.34-.07-.82-.15-1.64-.23-2.47h14.07v-2.2Zm-16.61,15.16c-.76,5.25-8.3,8.73-13.09,6.77-2.62-1.2-3.34-4.27-1.97-6.81.85-1.69,2.49-2.96,4.3-3.51,4.18-1.38,8.48-.77,10.91,1.99-.04.52-.08,1.04-.14,1.55"/>
    </g>
  </g>
</svg>