<?xml version="1.0" encoding="UTF-8"?>
<svg id="Layer_2" data-name="Layer 2" xmlns="http://www.w3.org/2000/svg" viewBox="0 0 338.84 712.28">
  <defs>
    <style>
      .cls-1 {
        fill: #65b7ec;
        stroke: #65b7ec;
        stroke-linecap: round;
        stroke-linejoin: round;
        stroke-width: .85px;
      }
    </style>
  </defs>
  <g id="_文字" data-name="文字">
    <g>
      <path class="cls-1" d="m316.69,19.19c.96-.18,1.98-.36,3.18-.48,1.14-.12,2.1.12,2.82.78.66.66.96,1.8.9,3.66-.06,1.8-.6,3.3-1.5,4.68-.96,1.32-1.68,2.16-2.16,2.58-.54.36-1.62.48-3.18.42-1.56-.06-3.24.06-4.86.48-.18,2.4-.3,4.44-.36,5.88,4.98-1.02,8.04-1.62,9.06-1.8,1.08-.18,2.7-.3,4.98-.3s3.9.3,4.74.9c.9.66,1.62,1.74,2.16,3.18.48,1.5.6,3,.3,4.56-.24,1.62-.78,3.6-1.62,6-.84,2.4-1.62,4.26-2.46,5.52-.84,1.2-1.44,1.8-1.86,1.62-.42-.18-.48-.78-.06-1.86.42-1.14.84-2.16,1.26-3.3.48-1.08.96-2.34,1.38-3.66.42-1.38.78-3,.96-4.8.24-1.86,0-3.24-.66-4.2-.72-.9-2.04-1.44-3.84-1.56-1.8-.12-3.24-.06-4.32.12-1.08.18-2.82.6-5.28,1.08-2.46.54-4.08.96-4.98,1.2-.18,1.62-.36,3.96-.54,7.02-.18,3.06-.3,5.16-.36,6.36-.06,1.26,0,2.28.12,3.12.12.9-.06,1.5-.48,1.86-.48.42-.96.24-1.38-.42-.42-.72-.66-1.38-.66-1.98,0-.54.06-1.5.12-2.7.06-1.26.18-3.06.24-5.34.06-2.28.18-4.38.24-6.06-.42.42-1.02,1.02-2.04,1.86-1.02.9-3.78,3.36-8.4,7.44-4.62,4.14-7.2,6.24-7.74,6.3-.48.06-.84-.24-1.02-.9-.18-.66,1.38-2.34,4.68-5.04,3.3-2.7,5.88-4.92,7.8-6.72s3.3-3.06,4.02-3.78c-1.56.18-3.18.36-4.74.66-1.56.3-2.58,0-2.88-.84-.3-.9-.36-1.44-.06-1.74.3-.3.66-.96,1.14-2.16.48-1.14.6-2.04.36-2.7-.24-.66-.42-1.26-.48-2.04-.06-.78,1.2-1.32,3.96-1.68,2.76-.42,4.8-.78,6.24-1.08.18-1.14.3-2.22.36-3.12.06-.84.18-1.56.36-2.1.12-.54.3-.9.54-1.32-5.22.96-8.22,1.56-9,1.62-.78.06-1.32-.3-1.5-1.08-.24-.72,2.94-1.68,9.72-2.76,3.54-.72,5.82-1.2,6.78-1.38Zm-20.64-12.18c-.3,1.26-.42,2.7-.24,4.5,4.68-2.4,8.34-4.14,10.86-5.16,2.52-.96,3.9-1.38,4.2-1.2.3.18.42.48.42.72,0,.3-.12.66-.42.96s-1.86,1.14-4.74,2.46c-.66,3.06-.6,5.64.12,7.74.72,2.1.78,3.36.12,3.66-.66.24-1.32-.48-2.16-2.34-.84-1.8-1.14-4.5-.9-7.98-1.2.42-2.34.9-3.24,1.32-.96.42-2.4,1.2-4.38,2.16.18,1.86.42,3.3.84,4.5.42,1.26.18,1.98-.72,2.16-.84.18-1.38.06-1.56-.48-.18-.54-.48-2.22-.78-5.22-.3-3-.18-5.94.42-8.82.6-2.82,1.26-4.44,1.86-4.74.66-.3,1.08.24,1.14,1.5-.24,1.62-.54,3-.84,4.26Zm5.52,26.28c.54.9.72,1.92.48,3.06-.24,1.2-.66,2.16-1.32,3.06,1.86-.42,4.5-.96,8.1-1.62.06-.9.18-1.86.24-2.88.06-1.08.18-2.1.24-3.12-4.14.9-6.72,1.38-7.74,1.5Zm11.04-10.86c-.18,1.44-.3,3.54-.48,6.3,1.86.06,4.14-.06,6.78-.36,1.32-1.56,2.04-2.76,2.22-3.78.18-1.02.06-2.16-.36-3.6-2.34.3-5.1.78-8.16,1.44Zm12.54-13.62c-1.2.42-2.46.78-3.78,1.08-1.32.3-2.46.18-3.42-.48-1.44-2.04-2.16-3.72-2.04-5.16.12-1.38.36-2.34.66-2.88.3-.54.72-.78,1.2-.9.54-.12,1.02,0,1.44.3.42.24.36,1.02-.3,2.16-.66,1.08-.36,2.82.84,4.98.72.18,2.4-.3,4.92-1.32,2.16-1.14,4.5-2.52,6.9-4.08.96-.42,1.5-.18,1.74.66.24.78-.18,1.26-1.14,1.44-1.44.54-2.76,1.44-4.02,2.7-.48,2.58-.9,4.56-1.14,5.94-.24,1.44-.72,2.28-1.38,2.52-.6.3-.9,0-.84-.72-.06-1.8.06-3.9.36-6.24Z"/>
      <path class="cls-1" d="m322.15,70.2c.3-.54.72-.78,1.38-.78s1.08.36,1.32,1.14c-1.56,2.28-4.26,6.42-8.16,12.6-3.96,6.12-7.32,12.48-10.2,18.96-2.88,6.54-4.5,10.14-4.92,10.8-.42.66-1.14,1.08-2.1,1.32-1.02.24-1.32-.18-1.02-1.14,6.3-15.3,14.16-29.58,23.7-42.9Z"/>
      <path class="cls-1" d="m285.19,137.43c-.6-.36.42-1.68,3.12-4.14,2.7-2.4,6.9-4.2,12.6-5.52,3.18-.78,4.92-.72,5.22.18.3.84.36,2.28.24,4.08-.12,1.8-.78,3.78-1.98,5.88-1.26,2.04-2.1,2.94-2.58,2.76-.54-.24-1.62.06-3.42.9-1.8.9-4.14,2.7-7.02,5.52-.78,2.76-1.08,5.64-.9,8.64,2.64-.6,5.16-1.62,7.56-2.94,2.4-1.38,4.8-1.56,7.26-.54,1.62,1.14,2.52,2.64,2.82,4.44.3,1.8-.18,4.38-1.38,7.86-1.32,3.48-2.7,6.42-4.2,8.94-1.56,2.52-2.52,3.84-3,3.9s-.78-.06-.9-.3c-.18-.24-.24-.54-.3-.96-.06-.36.36-.96,1.14-1.8.72-.84,1.86-2.64,3.3-5.46,1.5-2.82,2.46-5.88,3-9.36.48-3.48-.66-5.22-3.54-5.28-4.62,1.56-7.98,2.76-9.96,3.6-2.1.78-3.3,1.14-3.84,1.08s-.78-1.02-.78-2.94.54-4.32,1.62-7.38c-.54-.36-.84-.9-.96-1.56-.18-.66.06-1.14.72-1.32,3.6-3.06,8.04-5.94,13.38-8.58.3-1.38.78-2.64,1.32-3.9.54-1.32.48-2.52-.12-3.48-7.08.72-12.78,3.3-16.92,7.74-.36.3-.84.3-1.5-.06Zm23.7,35.7c-.3-.48-.36-.96-.18-1.5.12-.54,4.62-2.76,13.56-6.72-.06-2.82-.12-5.58-.12-8.34-3.06,1.14-5.28,1.98-6.72,2.64-1.38.66-2.34.66-2.76-.06-.42-.72.24-1.38,2.16-2.04,1.8-.66,4.26-1.62,7.32-2.88.06-1.92.06-4.26,0-7.02-3.48,1.44-6.48,3.18-8.88,5.04.6,1.14,1.14,1.8,1.56,1.92.36.12.48.42.36.96-.18.54-.66.96-1.32,1.38-.66.42-1.62-.96-2.94-4.26s-1.68-7.74-1.02-13.38c0-.84.36-1.38,1.26-1.56.84-.18,1.8-.6,3.06-1.26,1.14-.6,2.76-1.2,4.68-1.86-2.58-.48-4.38-1.8-5.4-4.08-.66-1.2-1.26-2.34-1.98-3.6-.78-1.2-.9-2.04-.36-2.58s.96-.66,1.38-.48c.36.18.72.72,1.02,1.56.3.78.78,2.04,1.44,3.6.6,1.62,1.98,3,4.14,4.2,1.08-.24,1.5,0,1.08.66,2.58-.42,5.34-.72,8.28-.9-.72-.24-.9-.6-.78-1.14.18-.54.6-1.56,1.26-3.18-.18-2.1.06-3.36.72-4.02.6-.66,1.14-.96,1.44-.96s.54.24.66.66c.12.42.06,1.38-.24,2.76-.3,1.44-1.02,3.36-2.1,5.88,2.7.54,4.5,1.56,5.52,3.06.9,1.44,1.38,3.66,1.32,6.54-.06,2.88-.78,5.88-2.1,8.88-1.38,3.06-2.1,4.68-2.4,4.86-.3.18-.6.3-1.02.36s-.66-.18-.96-.66c-.3-.54-.12-1.2.48-2.1-1.62.48-3.42,1.14-5.4,1.92.06,4.02,0,6.78-.06,8.16,8.1-3.72,12.48-5.4,12.96-5.1.48.36.66.78.6,1.32-.12.54-.42.78-.9.78-.54,0-4.74,1.8-12.54,5.46-.18,3.36-.06,5.94.18,7.74.3,1.86.36,2.82.18,3-.18.18-.6.42-1.38.66-.78.24-1.26-.66-1.38-2.58-.24-1.92-.36-4.38-.3-7.26-4.08,1.8-7.5,3.3-10.32,4.68-1.8.96-2.76,1.26-3.06.84Zm14.22-37.08c.54-.6,1.02-.66,1.44-.18.42.54.6,1.44.48,2.76-.12,1.38-.18,2.94-.18,4.8,2.94-1.32,6.06-2.28,9.3-2.88-.3-1.2-.66-2.34-1.14-3.3-.42-1.02-1.38-1.74-2.76-2.22-5.76-1.26-11.82.54-18.18,5.4-.6,2.94-.48,5.94.42,9,3.42-1.68,6.6-3.36,9.6-4.8.18-5.1.54-7.92,1.02-8.58Zm-1.86-8.64c-.24-1.44-.42-2.52-.6-3.36-.18-.84-.24-1.38-.06-1.8.12-.42.42-.66.96-.78.48-.12.9.12,1.2.78.3.66.48,1.56.42,2.88-.06,1.26.48,2.94,1.56,4.98.84,0,1.38.12,1.56.3.18.18.18.36,0,.54-.18.18-.6.36-1.2.48-.66.12-1.14.06-1.56-.18-1.26-1.14-2.04-2.46-2.28-3.84Zm12.6,15.24c-3.06,1.2-6.06,2.34-8.94,3.24-.06,2.58-.12,4.98-.06,7.32,2.04-.96,4.32-1.86,6.96-2.58,1.2-2.64,1.92-5.34,2.04-7.98Z"/>
      <path class="cls-1" d="m290.47,219.98c-.36-8.76-.3-15.24.24-19.5s.9-6.54,1.02-6.9c.12-.3.48-.36.96-.18.54.24.9.54,1.02.84.06.36-.18,3.3-.78,8.88-.6,5.52-.48,10.92.36,16.26s1.38,8.46,1.62,9.18c.18.84-.18.96-1.08.42-2.22-2.58-3.36-5.58-3.36-9Zm41.88,5.04c-.42.18-.9.12-1.44-.18-.6-.3-1.2-.9-1.86-1.86-.72-1.02-1.44-1.8-2.28-2.28-.9-.54-2.04-.78-3.6-.78-1.68,4.5-4.32,7.26-7.92,8.28-3.54.96-6,1.14-7.44.48-1.44-.6-2.28-1.32-2.46-1.98-.18-.66-.3-1.5-.3-2.76,0-1.14.66-2.28,2.1-3.24,1.38-1.02,3.12-1.86,5.34-2.46,2.16-.66,4.98-.96,8.4-.96.54-5.46.36-11.82-.54-19.26-6.12,3.24-10.44,5.94-12.96,7.98-2.52,2.1-3.96,3.18-4.26,3.24-.36.12-.66-.06-.96-.48-.3-.42-.42-.72-.3-.96.06-.18,1.44-1.44,4.2-3.6,2.7-2.16,7.32-4.92,13.86-8.28,0-.96-.36-2.1-1.14-3.3-.78-1.2-.9-2.04-.36-2.58.54-.54,1.08-.66,1.56-.48.36.24,1.14,1.8,2.22,4.74,2.16-1.38,3.96-2.34,5.4-2.82,1.38-.42,2.28-.54,2.58-.36.3.24.42.6.36,1.02-.12.48-.84.96-2.28,1.44-1.44.54-3.3,1.56-5.7,3,.84,6.18,1.2,13.08,1.02,20.7,4.08.66,6.9,2.52,8.64,5.64.42,1.2.48,1.92.12,2.1Zm-11.76-5.34c-1.74-.24-4.32.06-7.68.9-3.3.78-5.16,2.46-5.34,4.86,0,.6.36,1.08,1.14,1.26.78.24,2.52.12,5.34-.3,3.9-2.16,6.12-4.44,6.54-6.72Z"/>
      <path class="cls-1" d="m207.59,31.28c.06,5.58.6,11.04,1.74,16.38.06,1.2-.3,1.86-1.02,1.92-.66.12-1.14-.24-1.32-1.08-1.74-10.2-2.28-18.42-1.86-24.84.36-6.3.72-10.44.9-12.48-.12-1.02.3-1.62,1.2-1.74.84-.12,1.32.3,1.26,1.2-.78,5.88-1.02,11.94-.9,18.12,2.88.06,6.06-.24,9.42-.84,3.3-.66,6-1.02,8.16-1.08,2.22-.06,3.24.06,3.24.36s-.3.84-.84,1.44c-.6.66-1.86.84-3.72.54-5.22.54-10.62,1.26-16.26,2.1Zm18.42-19.86c.48,1.08.9,1.92,1.26,2.64.3.72.54,1.38.84,1.92.24.6.12,1.02-.36,1.2-.42.24-.9.3-1.38.18-.48-.12-1.08-1.02-1.8-2.58-.78-1.56-1.2-3.12-1.2-4.68-.06-1.56,0-2.46.12-2.82.12-.3.66-.42,1.56-.36.84.06,1.14.78.72,1.98-.3.66-.24,1.56.24,2.52Zm7.98,3c.24,0,.36.3.36.9,0,.54-.54.84-1.56.78-1.02,0-1.86-1.26-2.4-3.9-.48-2.64-.6-4.8-.3-6.54.24-1.8.9-2.58,1.8-2.46.84.18,1.08.66.78,1.44-.48,3.06-.12,6.3.96,9.78h.36Z"/>
      <path class="cls-1" d="m216.41,108.31c-.72-.06-1.14-.78-1.26-2.4-.18-1.56-.12-5.88,0-12.96.18-7.14.36-16.2.54-27.3.18-1.08.66-1.32,1.5-.66.78.66,1.14,2.28,1.02,4.8-.12,2.52-.42,10.62-.78,24.36,0,9.54-.36,14.22-1.02,14.16Z"/>
      <path class="cls-1" d="m209.93,163.01c3.78.84,7.68,1.62,11.7,2.4,4.02.72,6.18,1.38,6.54,1.8.3.42.24.9-.18,1.44-.36.54-2.58.3-6.48-.78-3.9-1.14-7.86-1.98-11.76-2.46-3.96-.54-6.12-.96-6.54-1.32-.42-.3-.42-.9,0-1.74.66-.42,2.88-.24,6.72.66Zm20.22-27.12c-.12.42-.42.78-.84.96-.42.24-1.08.18-1.92-.18-.9-.3-3.24-1.02-7.08-2.16-3.78-1.14-7.44-1.62-10.86-1.68-3.48,0-5.4-.24-5.7-.72-.3-.48-.24-1.08.24-1.68.48-.66,2.88-.72,7.14-.06,4.26.6,10.56,2.04,18.84,4.26.18.42.24.9.18,1.26Zm-12.72,15.3c-2.94-.6-5.64-1.14-8.16-1.56-2.52-.42-3.96-.96-4.32-1.56-.42-.66-.36-1.2.24-1.68s2.82-.24,6.66.78c3.78.96,7.5,2.1,10.92,3.3,3.48,1.14,5.28,1.92,5.34,2.34.06.36-.36.9-1.2,1.56-.96.66-1.8.36-2.64-.84-1.62-.84-3.96-1.68-6.84-2.34Z"/>
      <path class="cls-1" d="m216.41,228.31c-.72-.06-1.14-.78-1.26-2.4-.18-1.56-.12-5.88,0-12.96.18-7.14.36-16.2.54-27.3.18-1.08.66-1.32,1.5-.66.78.66,1.14,2.28,1.02,4.8-.12,2.52-.42,10.62-.78,24.36,0,9.54-.36,14.22-1.02,14.16Z"/>
      <path class="cls-1" d="m201.65,283.3c-.36-.42-.42-.78-.18-1.2.18-.42,1.2-1.8,2.94-4.14,1.68-2.28,4.62-6.12,8.64-11.64,4.08-5.46,8.1-9.96,12.06-13.5,3.9-3.42,6-4.92,6.3-4.26.24.66.36,1.14.36,1.44s-1.02,1.2-2.94,2.64c-1.92,1.38-4.5,3.9-7.74,7.62-.66,9.54-.48,16.74.54,21.48.96,4.8,1.44,7.32,1.56,7.5.12.24-.12.54-.6.84-.6.3-1.2.3-1.8,0-.6-.3-1.26-2.88-1.98-7.68-.72-4.74-.96-11.04-.66-18.84-4.38,5.16-8.46,10.68-12.18,16.62,0,.84-.66,1.68-1.92,2.58-1.26.78-2.04.96-2.4.54Z"/>
      <path class="cls-1" d="m212.69,318.02c-.36-.3-1.92-.6-4.5-.84-2.64-.18-5.04-.54-7.32-1.02-2.28-.48-3.6-.9-3.96-1.32-.42-.42-.24-.9.54-1.56.66-.6,1.5-.66,2.4-.18.84.42,2.52.72,4.98.9,2.46.18,4.68.42,6.72.78,1.98.36,3.12.9,3.36,1.56.18.72-.06,1.32-.84,1.8-.48.18-.96.12-1.38-.12Zm23.46,7.56c.3.48.24,1.02-.06,1.56-.36.54-3,2.64-7.86,6.3-4.92,3.72-10.02,6.78-15.36,9.3-5.28,2.52-8.4,3.78-9.3,3.78s-1.26-.42-.96-1.26c.18-.9.9-1.38,2.04-1.56,1.08-.18,2.22-.48,3.24-.9,9.6-5.04,18.6-10.86,27.06-17.46.48-.36.9-.3,1.2.24Z"/>
      <path class="cls-1" d="m233.99,375.95c4.38,3.96,6.36,6.24,6.12,6.78-.3.48-.72.72-1.2.6-.48-.06-3-2.1-7.62-6.12-4.62-4.08-10.62-7.92-18.06-11.64-5.58,6.72-9.96,12.78-13.2,18.3-3.3,5.52-5.04,8.52-5.34,9-.3.42-.72.72-1.32.78-.6.12-.9-.18-.96-.9-.06-.72.54-2.16,1.92-4.38,1.32-2.16,2.22-3.54,2.64-4.32l1.26-2.16c.48-.78,1.92-2.94,4.32-6.54,2.4-3.6,5.52-7.44,9.54-11.58.72-.96,1.56-1.2,2.4-.66.78.66,1.68,1.26,2.64,1.92,6.84,3.36,12.48,7.02,16.86,10.92Zm-15.12,15.48c1.68-.72,3.3-1.38,4.62-2.1,1.38-.66,2.52-.96,3.54-.84.96.18,1.5.48,1.62.96s-.06,1.02-.48,1.56c-.42.6-1.14.78-2.16.54-.96-.24-2.1-.06-3.36.54-1.2.6-2.46,1.32-3.78,2.22.18,5.94.3,9.18.36,9.84.06.66.12,1.32.18,1.98.06.72-.42,1.02-1.38.96-.9-.06-1.38-.78-1.44-2.1-.06-1.38-.12-4.44-.18-9.42-3.12,1.08-5.4,2.04-6.84,2.88-1.5.9-2.28,1.26-2.52,1.08-.24-.12-.42-.42-.54-.96-.12-.48-.12-.72,0-.84.12-.06.96-.54,2.52-1.44,1.56-.84,4.02-2.04,7.5-3.6v-6.9c-4.5,1.74-7.86,2.94-9.96,3.78-2.1.9-3.24,1.14-3.42.96-.18-.24-.3-.54-.48-.9-.12-.36-.12-.6,0-.72.18-.12,2.22-1.02,6-2.76,3.84-1.68,7.8-3.24,11.82-4.8,4.08-1.44,6.42-2.16,6.96-2.04.48.12.9.48,1.08,1.08.18.54.18,1.08,0,1.56s-1.08.72-2.7.78c-1.56.06-3.9.78-6.96,2.34.24,2.46.24,4.56,0,6.36Zm-7.38,19.92c4.38-1.5,8.82-3,13.44-4.38,4.56-1.38,7.38-2.04,8.46-2.04,1.14.06,1.8.3,2.22.72.42.54.3,1.08-.3,1.62-.54.6-1.56.84-3,.84s-2.46.06-3,.12c-.54.06-2.94.78-7.2,2.1-4.32,1.32-8.4,2.7-12.42,4.08-4.08,1.38-6.24,1.92-6.66,1.5-.36-.36-.3-.84.36-1.44,1.02-.54,3.72-1.56,8.1-3.12Zm-.06-9.24c.66,1.44,1.32,2.76,1.98,3.84.66,1.14.84,1.86.42,2.1-.42.18-.84.06-1.32-.3-.54-.42-1.02-.96-1.5-1.62-.48-.6-.84-1.08-1.02-1.5-.24-.42-.48-.9-.78-1.5-.3-.54-.54-1.2-.78-1.98-.24-.72.06-1.26.84-1.62.78.3,1.5,1.14,2.16,2.58Zm12.42,2.34c-.18.84-.48,1.32-.78,1.62-.3.3-.66.24-1.14-.06-.48-.3-.6-.9-.3-2.04.3-1.02,1.26-2.88,3-5.46,1.68-2.58,2.7-4.02,3-4.44.24-.36.78-.36,1.56-.06.78.3.24,1.56-1.62,3.9-2.34,3.54-3.54,5.7-3.72,6.54Z"/>
      <path class="cls-1" d="m200.57,451.17c-2.46,1.86-4.44,3.36-5.94,4.32-1.62,1.02-2.52,1.38-2.94,1.08-.42-.3-.54-.66-.36-1.08.18-.36,1.26-1.26,3.12-2.7,1.8-1.5,3.66-2.94,5.58-4.44,1.86-1.44,3-2.28,3.42-2.46.42-.18.66.24.6,1.2.12.9-1.08,2.22-3.48,4.08Zm-5.82-17.04c1.8-1.32,3.84-2.4,6-3.06,2.16-.6,3.6-.84,4.14-.66.48.12.54.66.12,1.56-.54.9-1.08,1.32-1.62,1.5-.54.18-.84.12-.96-.18-.18-.3-1.08-.12-2.7.48-1.74.6-3.12,1.5-4.38,2.58-1.2,1.14-2.04,1.74-2.34,1.86-.36.12-.6,0-.9-.24-.3-.3-.54-.66-.66-1.08.3-.48,1.38-1.38,3.3-2.76Zm11.04,25.14c.06.78-.84,1.92-2.7,3.42-1.8,1.44-3.66,2.82-5.52,4.08-1.92,1.2-3,1.92-3.36,2.04-.36.12-.72-.18-1.02-.84-.36-.72.48-1.8,2.52-3.18,2.04-1.44,3.96-2.76,5.7-4.08,1.68-1.26,2.94-2.1,3.6-2.4.42-.18.72.18.78.96Zm35.52,5.58c.3.18.42.54.3.9-.12.42-.54.84-1.32,1.14-.72.3-1.2.42-1.38.3-.24-.12-2.28-1.02-6.12-2.64-3.78-1.62-9-5.22-15.6-10.68-1.2,6.3-1.92,10.92-2.04,13.98-.18,3-.54,4.68-.96,4.92-.48.24-1.02.24-1.62-.06-.66-.3-.48-3.48.6-9.54,1.14-6,1.98-14.7,2.58-25.92-2.34,1.86-3.42,3.18-3.3,3.78.12.66-.06,1.08-.6,1.14-.54.06-1.08-.06-1.5-.48-.36-.42-.48-.9-.24-1.38.12-.54,1.02-1.68,2.52-3.36,1.44-1.68,3.78-3.84,7.02-6.42,3.18-2.52,6.48-4.02,9.84-4.44,3.3-.42,5.64.66,6.72,3.12,1.14,2.46,1.14,5.28,0,8.4-1.08,3.06-2.1,5.4-3,6.84s-1.44,1.32-1.62-.3c-3.84,2.82-7.62,5.76-11.4,8.82,2.46,2.58,7.5,6,15,10.02,3.72,1.02,5.76,1.68,6.12,1.86Zm-8.46-25.02c1.32-2.82,1.8-5.28,1.44-7.44-.36-2.16-2.16-3.18-5.4-3-3.3.18-6.78,2.04-10.5,5.76-.54,5.4-.84,10.92-1.08,16.5,5.7-3.9,10.92-7.86,15.54-11.82Z"/>
      <path class="cls-1" d="m234.47,502.15c2.1,7.74,1.5,13.98-1.8,18.84-3.36,4.86-5.22,7.32-5.76,7.26-.54-.06-.9-.42-1.14-1.2-.24-.78.42-1.92,1.92-3.48,1.44-1.5,2.94-4.14,4.44-7.92,1.44-3.84,1.38-8.1-.12-12.84-1.62-4.74-3.48-7.56-5.76-8.52-2.28-.9-4.44-1.08-6.48-.48.48.54.48,1.68.12,3.48-.48,1.8-2.22,6.48-5.22,14.16-3.06,7.68-6.06,12.06-9,13.2-3,1.08-4.86,1.62-5.64,1.44-.9-.12-1.92-1.2-3.06-3.36-1.2-2.1-1.38-5.28-.48-9.48,3.78-12.84,12.12-20.28,24.9-22.38,6.54-.18,10.92,3.6,13.08,11.28Zm-33.96,7.5c-2.52,6.48-2.46,11.16.18,14.04,2.82-.54,4.98-1.8,6.6-3.96,1.5-2.1,3.24-5.34,5.34-9.72,2.04-4.38,3.72-9.72,5.1-16.2-8.94,4.08-14.7,9.36-17.22,15.84Z"/>
      <path class="cls-1" d="m121.11,6.32c.12.24.24.54.3.96.06.42.06,1.08-.12,2.1-.18,1.02-.6,2.46-1.26,4.38-.72,2.04-1.26,3.48-1.62,4.5-.36.96-.78,2.22-1.38,3.54-.6,1.38-1.14,2.52-1.62,3.48.48,1.02.84,1.74,1.14,2.1.3.36.54.72.84.96.3.36,2.16,2.16,5.64,5.34,3.54,3.24,5.82,5.28,6.9,6.18,1.02.9,2.22,1.74,3.48,2.7,1.32.96,2.88,2.28,4.8,3.84,1.98,1.62,3.18,2.64,3.78,3.12.6.54,1.02.96,1.32,1.26.3.42.54.72.66,1.02.12.3.12.54.06.72-.06.18-.24.3-.48.36s-.54,0-.84-.12c-.24-.12-.6-.3-.9-.48-.3-.18-1.08-.72-2.16-1.5-1.14-.84-2.88-2.22-5.28-4.14-2.4-1.86-5.46-4.5-9.18-7.92-3.66-3.3-6.24-5.7-7.68-7.14-1.5-1.32-2.64-2.58-3.6-3.54-.66,1.2-1.32,2.76-2.22,4.62-.9,1.92-1.74,3.72-2.7,5.46s-1.74,3.3-2.52,4.74c-.78,1.44-1.32,2.58-1.74,3.36-.42.9-1.08,1.98-1.92,3.18-.78,1.26-1.32,2.1-1.62,2.58-.3.54-.6.9-1.02,1.2-.36.18-.6.36-.78.42s-.3-.06-.36-.24c-.06-.12-.18-.48-.24-.96-.06-.48.36-1.44,1.26-2.82.84-1.38,1.8-3,2.7-4.74.96-1.68,2.52-4.92,4.86-9.66,2.28-4.68,3.9-8.22,5.04-10.56,2.28-4.74,3.72-7.92,4.38-9.6.66-1.74,1.2-3.54,1.74-5.52.54-1.92.84-3.12.9-3.42.06-.3.18-.42.3-.48s.3.06.6.24c.24.12.42.3.54.48Z"/>
      <path class="cls-1" d="m101.67,80.24c-.12,1.32-.54,2.04-1.2,2.16-.6.12-1.08-.3-1.26-1.2-.18-.84.06-2.1.78-3.66,2.1-7.2,3.42-11.46,4.02-12.54.6-1.14,1.02-1.86,1.14-2.16.18-.3.48-.42.78-.36.3.12.66.24.96.42.3.18.3.48-.06,1.02-.36.54-.54.96-.6,1.32-.06.36-1.08,3.3-3.24,9,6.78-2.34,12.72-4.26,18.06-5.88,5.34-1.5,8.04-2.4,8.16-2.58.12-.12.24.06.36.72.12.66.06,1.26-.18,1.68-.24.42-.9,1.08-1.86,1.92-1.02.84-1.62,1.02-1.8.66-.18-.42-.12-.84.12-1.32-7.74,1.98-13.14,3.54-16.14,4.56-3.06,1.14-5.52,2.1-7.38,3-.3.9-.54,1.92-.66,3.24Zm9.12,6.84c1.92-.54,4.02-1.08,6.18-1.68,2.16-.6,4.92-1.5,8.16-2.58,3.18-1.14,5.16-1.5,5.94-1.14.78.36,1.2,1.38,1.38,3.06.18,1.68.42,3.96.9,6.9.48,2.94,1.02,5.4,1.56,7.32.48,1.92,1.38,4.08,2.64,6.36,1.2,2.28,2.28,4.2,3.24,5.7,1.02,1.62,1.8,2.64,2.28,3.18.54.54.84,1.14.84,1.74s-.3.84-.96.72c-.6-.12-1.38-.72-2.28-1.74-.84-1.14-2.04-2.76-3.42-4.92-1.44-2.16-2.4-3.96-2.94-5.28-.54-1.32-1.08-2.88-1.62-4.74-.48-1.8-.9-3.78-1.32-5.82-.42-1.98-.72-3.96-.96-5.88-.24-1.98-.3-3.12-.3-3.66-.48.06-1.08.12-1.8.18-.66.12-1.92.42-3.6.9-1.74.42-5.1,1.38-10.2,2.76-5.1,1.5-8.22,2.52-9.42,3.24-1.26.72-2.16.6-2.76-.36-.66-.84.18-1.56,2.34-2.04,2.16-1.02,4.2-1.68,6.12-2.22Zm-5.34,28.56c-.6-.54-.36-1.92.66-4.08,1.08-2.1,2.94-4.98,5.58-8.58-3.54-3-5.58-4.62-6.12-4.68-.48,0-1.14-.12-1.8-.3-.66-.18-.84-.54-.42-1.08.42-.54,1.08-.9,1.98-1.08.96-.06,3.54,1.5,7.74,4.8,1.14-1.32,2.1-2.58,2.88-3.96.84-1.26,1.74-2.1,2.64-2.52.96-.36,1.5-.18,1.62.54.18.72-.24,1.44-1.38,2.28-1.14.9-2.28,2.58-3.54,5.1,4.8,4.62,7.38,7.08,7.68,7.44.36.42.48.84.42,1.26-.06.42-.42.66-.96.72-.6.06-3.54-2.4-8.88-7.38-2.76,4.14-4.56,7.2-5.52,9.18-1.08,2.1-1.92,2.82-2.58,2.34Zm.06-34.62c-.06-.18.06-.3.3-.48.24-.18,1.92-.66,5.04-1.56,3.12-.78,5.58-1.44,7.38-1.92,1.86-.48,3.12-.84,4.02-1.08.84-.18,2.22-.48,4.08-.9,1.86-.42,2.82-.18,2.88.72.06.84-.48,1.38-1.5,1.5-.96.12-2.1.3-3.18.54-1.14.24-3.96.9-8.46,2.1-4.5,1.2-7.14,1.86-7.92,1.92-.72.12-1.26.18-1.56.12-.3-.06-.54-.18-.78-.36-.18-.18-.24-.36-.3-.6Z"/>
      <path class="cls-1" d="m102.03,135.69c-.54-.66.24-1.44,2.28-2.46,2.04-.96,5.1-1.86,9.12-2.64,4.08-.78,6.78-1.5,8.4-2.1,1.5-.48,2.52-.84,2.94-1.02.42-.18.6.06.72.6.12.48.12.96,0,1.26-.12.36-.3.72-.72,1.08-.42.3-.96.48-1.74.48-.6.12-3.06.6-7.26,1.44-4.2.84-7.92,1.86-11.04,3.24-1.32.72-2.16.72-2.7.12Zm14.64,30.78c5.94-2.1,11.28-4.14,16.14-6.18,4.86-2.1,7.38-3.06,7.68-3.06s.6.12.84.42c.18.3.18.66-.06,1.08-.24.42-3.3,1.92-9.06,4.56-5.82,2.64-13.8,5.34-23.88,8.16-.9.18-1.92.06-2.94-.36s-1.56-.9-1.62-1.44.06-.96.42-1.2c.3-.18.72-.3,1.08-.3,1.62,1.02,5.4.42,11.4-1.68Zm23.52-37.2c.42,1.08.84,1.92,1.2,2.64.3.72.6,1.32.9,1.92.24.6.12,1.02-.36,1.2-.48.24-.96.3-1.44.18-.42-.12-1.02-1.02-1.8-2.58-.78-1.62-1.14-3.12-1.14-4.68-.06-1.56,0-2.46.12-2.82.06-.3.6-.42,1.5-.36.9.06,1.14.78.78,1.98-.3.66-.24,1.5.24,2.52Zm7.92,3c.24,0,.36.3.36.9,0,.54-.54.84-1.5.78-1.08,0-1.86-1.26-2.4-3.9-.54-2.64-.66-4.8-.36-6.6.3-1.74.96-2.58,1.8-2.4.9.18,1.14.66.84,1.44-.54,3.06-.18,6.3.9,9.78h.36Z"/>
      <path class="cls-1" d="m120.33,185.59c0,.36-.06,1.26-.18,2.7-.06,1.5-.12,3.3-.18,5.58-.06,2.28,0,3.96.12,4.98.06,1.08.3,2.94.72,5.58,1.86-.18,4.38-.42,7.62-.84s5.28-.48,6.24-.42c.9.12,1.68.42,2.28.84s1.08.96,1.5,1.56c.42.54.78,1.02,1.02,1.44s.42.84.48,1.26c.06.48.12,1.26.18,2.4.06,1.08,0,2.22-.06,3.36-.06,1.2-.24,2.4-.48,3.78-.24,1.32-.54,3-.96,5.1-.42,2.04-.84,3.48-1.26,4.38-.48.84-.9,1.38-1.2,1.68-.3.3-.84.6-1.56.96-.78.36-1.56.66-2.4.78-.9.18-2.4.6-4.68,1.14-2.34.54-4.74,1.08-7.38,1.5-2.58.48-5.22.96-7.98,1.5s-4.44.78-5.04.84c-.66,0-1.2,0-1.68-.12-.42-.12-.78-.42-1.08-.84-.3-.42-.12-.78.42-.96.48-.18,2.04-.48,4.5-.78,2.46-.36,5.04-.78,7.8-1.32,2.76-.54,4.86-.9,6.3-1.14,1.5-.3,3.06-.66,4.68-1.08,1.68-.42,2.82-.78,3.48-.96.66-.18,1.62-.48,2.88-.96.24-.78.48-1.44.66-1.86.12-.36.42-1.08.78-1.98.36-.84.66-1.98.84-3.18.18-1.26.36-2.34.42-3.06-2.4.48-4.8.96-7.2,1.56s-6.24,1.56-11.52,2.82c-5.28,1.32-8.46,2.04-9.6,2.28-1.14.24-1.92.36-2.34.42s-.78,0-1.08-.06c-.24-.06-.42-.18-.48-.36-.06-.18-.12-.36-.12-.54s.06-.36.24-.48c.12-.18.3-.3.6-.36.3-.06,2.64-.72,7.08-1.92,4.5-1.14,8.28-2.1,11.4-2.76,3.12-.72,5.76-1.32,7.92-1.8s3.9-.66,5.34-.66c.24-2.1.3-3.48.18-4.32-.12-.78-.36-1.62-.66-2.4-.3-.72-.78-1.56-1.44-2.34-1.2-.42-2.22-.6-2.82-.6-.66,0-1.92.06-3.6.18-1.68.12-3.48.3-5.16.54-1.68.24-3.06.42-3.9.6-.9.18-1.86.42-2.82.78-1.02.3-2.4.84-4.32,1.62-1.86.78-3.18,1.26-3.96,1.62-.78.36-1.56.9-2.4,1.68-.84.72-1.5,1.08-2.16,1.02s-1.08-.24-1.32-.6c-.24-.3-.3-.54-.3-.72.06-.18.42-.48,1.08-1.02.66-.54,1.26-.96,1.68-1.2.48-.3.96-.6,1.44-.84.48-.24,1.2-.6,2.28-1.08,1.02-.42,2.64-1.08,4.74-1.86,2.1-.78,3.72-1.32,4.8-1.62-.24-.9-.54-2.88-.84-6.06-.24-3.18-.36-5.46-.3-6.78.06-1.38.12-3,.18-4.92s.24-3.06.42-3.48.72-.3,1.62.36c.36.54.54,1.02.54,1.44Zm-15.12,4.5c.18.18.3.54.48,1.2.18.66.3,1.08.48,1.38.18.3.48.6.9,1.08.42.48.78,1.02,1.14,1.56.36.48.9,1.38,1.56,2.64.6,1.2,1.08,1.98,1.32,2.28.24.3.36.54.3.84-.06.3-.24.48-.6.54-.36.06-.6.06-.9-.12-.3-.18-.6-.42-.9-.72-.3-.24-.84-.9-1.44-1.8-.66-.84-1.2-1.62-1.5-2.16-.3-.54-.66-1.2-1.02-2.04-.42-.84-.78-1.74-1.14-2.76s-.24-1.68.3-2.1c.54-.06.9,0,1.02.18Zm30.36-1.32c-.66,1.14-1.62,2.7-2.76,4.62-1.08,1.98-1.74,3.42-1.86,4.32-.12.84-.24,1.44-.42,1.62-.18.18-.36.36-.48.42-.18.06-.42.12-.6.06s-.42-.12-.6-.3c-.18-.18-.36-.3-.48-.42-.12-.12-.18-.3-.18-.6s0-.54.06-.96c.06-.42.12-.84.3-1.32.18-.48,1.14-2.1,2.82-4.86,1.68-2.76,2.7-4.32,2.88-4.62.18-.3.54-.66,1.02-.96.54-.24.9-.06,1.14.84.18.3-.12,1.08-.84,2.16Z"/>
      <path class="cls-1" d="m101.13,284.93c-2.82,2.16-4.38,3.18-4.68,3-.36-.18-.6-.36-.72-.66-.12-.3.3-.96,1.32-2.04.96-1.14,3.12-2.58,6.36-4.44.12-5.16,0-10.38-.36-15.54-3.18.96-5.4,1.98-6.6,3-1.26.96-2.16,1.5-2.82,1.5s-1.02-.18-1.2-.48c-.18-.3-.12-.72.18-1.2.24-.54,1.2-1.2,2.82-1.98,1.62-.72,4.2-1.8,7.62-3.12,0-3.78.12-6.54.36-8.22.18-1.68.36-2.76.48-3.12.12-.3.54-.48,1.2-.48.6,0,.96.18,1.08.48.12.36,0,1.38-.3,2.94-.36,1.62-.42,4.08-.12,7.32,3.66-1.5,6.24-2.52,7.74-2.94s2.16-.3,2.1.48c-.06.78-.9,1.38-2.58,1.8-1.62.42-4.08,1.44-7.38,2.88.18,4.38.36,9.3.48,14.76,2.34-1.5,4.14-2.58,5.46-3.12,1.26-.48,2.16-1.02,2.64-1.56.42-.54.72-.36.84.48.12.9-.06,1.32-.54,1.44-6.12,3.72-10.56,6.66-13.38,8.82Zm14.46-14.76c-.6.6-1.14.96-1.68,1.14-.54.24-.96.12-1.26-.3-.3-.36,0-1.14.9-2.28.96-1.02,2.52-2.4,4.68-4.08,0-3.48.06-5.88.18-7.14.12-1.32.24-2.04.36-2.28.06-.24.3-.54.66-.84.3-.3.66-.36.96-.18.3.24.48.78.48,1.62-.06.9-.18,3.06-.48,6.54,4.26-2.82,7.26-4.62,9-5.4.06-3.06.06-5.28.06-6.66-.06-1.44,0-2.28.12-2.58.06-.3.42-.42.9-.3.54.12.9.36,1.02.66.12.24.24,1.08.42,2.4.18,1.26.18,3,.06,5.22,2.4-1.14,5.1-2.1,8.04-2.94,2.88-.9,5.4.12,7.62,2.94.6,6.48.06,11.64-1.86,15.42-1.08,2.16-2.16,3.48-3.24,3.78-1.14.36-1.98.42-2.46.18-.54-.18-.84-.6-.84-1.14s.06-.96.18-1.32c.12-.3.36-.48.72-.48.24,0,.54.18.78.48.18.36.9-.48,2.04-2.4,1.2-1.98,1.98-4.74,2.22-8.46.3-3.6-.12-5.88-1.44-6.72-4.14.24-8.04,1.32-11.64,3.24-.54,5.46-.72,9.6-.6,12.42.12,2.76.36,4.32.66,4.56.3.24.36.48.18.6-.24.24-.48.66-.66,1.2-.24.54-.48.96-.66,1.14-.24.18-.6.18-.96,0-.42-.18-.66-.36-.66-.48s0-6.12.06-17.94c-2.04.42-4.92,2.28-8.76,5.52.18,7.92,1.08,13.32,2.64,16.44,1.62,3.12,4.26,5.28,7.92,6.6,3.72,1.38,7.08,1.08,10.2-.72,3.12-1.86,5.1-3.12,6-3.78.84-.6,1.5-.96,1.92-.96s.78.24.96.6c.18.48-.24,1.32-1.44,2.46-1.2,1.26-3.36,2.58-6.36,4.14-2.76,1.2-5.46,1.68-8.04,1.5-2.58-.18-5.4-1.14-8.4-2.88-3-1.68-5.16-5.1-6.36-10.08-1.32-4.98-1.8-8.52-1.5-10.68-1.14.84-2.04,1.62-2.64,2.22Z"/>
      <path class="cls-1" d="m110.07,312.85c0,2.28.06,4.02.12,5.28.84-.24,1.74-.36,2.64-.36,2.22.36,3.72.84,4.62,1.44.84.6,1.38,1.86,1.68,3.96.3,2.04-.36,5.34-1.8,10.02,1.14-.6,1.86-.78,2.04-.54.18.24.24.54.18,1.02s-1.14,1.14-3.18,1.92c-1.2,2.58-2.22,3.36-2.94,2.46-.78.24-1.56.6-2.34.9-.06,1.44-.18,2.7-.24,3.9,5.1-2.58,7.86-3.72,8.34-3.36.48.36.66.78.54,1.2-.12.48-.42.72-.9.72s-3.18,1.26-8.1,3.66c-.3,3.24-.36,5.76-.18,7.5.18,1.68.24,2.7.06,2.88-.18.18-.54.36-1.32.54-.78.18-1.2-.6-1.26-2.46-.06-1.8-.06-4.2.12-7.08-1.2.66-3.18,1.56-5.82,2.7-1.74.96-2.7,1.2-2.94.66s-.3-1.02-.12-1.5c.18-.42,3.18-1.92,9-4.44.06-1.92.12-3.3.12-4.08-.84.24-1.92.42-3.24.54-1.26.12-1.92-.12-1.92-.78-2.58-4.98-3.9-9.72-4.08-14.1-.18-4.44.24-6.78,1.08-6.96.9-.18,1.38.06,1.44.78s0,1.68-.18,3.06c2.04-1.8,4.14-3.06,6.42-3.78-.06-1.2-.18-2.88-.3-5.04-2.16.54-3.72,1.02-4.86,1.38-1.08.36-2.04.54-2.88.54-.9,0-1.38-.3-1.5-.96-.12-.66.36-1.08,1.44-1.32,1.02-.18,2.1-.42,3.18-.6,1.14-.18,2.64-.6,4.62-1.26-.24-4.02-.36-6.36-.42-6.96s.36-1.02,1.14-1.26c.84-.3,1.26-.06,1.26.6,0,.72.18,3.06.48,7.02,1.92-.84,4.2-1.44,6.78-1.86s3.9-.3,4.02.3.12.96.06,1.08c-.06.12-.72.3-1.86.42-1.2.18-2.82.6-4.92,1.26l-4.08.96Zm-7.32,19.44c3.96-2.58,8.04-4.74,12.42-6.48.48-.24,1.02-.18,1.68.36.3-2.04.24-3.36-.24-4.02-.48-.66-.9-1.2-1.32-1.5-1.8-.36-4.02-.24-6.72.3-2.7.6-5.04,2.1-6.96,4.44.18,1.62.54,3.9,1.14,6.9Zm13.62-4.44c-4.26,1.8-8.7,3.96-13.14,6.54.48,1.38,1.02,2.64,1.56,3.66,3.18-.42,6.24-1.44,9.24-3.06,1.14-2.1,1.92-4.5,2.34-7.14Zm9.9,13.8c-.6-8.22-.6-15.78,0-22.74.6-6.96.96-10.56,1.02-10.74.06-.24.36-.3.78-.18.48.12.84.24,1.08.48.24.24.3,1.44.12,3.54,2.1-1.44,3.96-2.88,5.64-4.08,1.62-1.26,2.94-1.62,4.08-1.02s1.86,1.2,2.34,1.74c.48.6.78,2.58.84,6s.06,8.52,0,15.54c1.62-.48,1.44.36-.48,2.46,0,6.36.18,11.4.54,15.06.36,3.6.12,5.34-.72,5.16-.84-.18-1.32-1.86-1.56-4.92-.24-3.12-.48-7.62-.72-13.56-3.6,1.86-7.08,3.78-10.44,5.64.18,3.78.66,6.6,1.38,8.34.78,1.8.96,2.88.48,3.36s-.84.84-1.14,1.08c-1.62.72-2.64-2.94-3.24-11.16Zm2.4-4.56c3.96-1.44,7.44-3.36,10.56-5.52,0-3.54.06-6.84.24-9.84-4.26,2.52-7.86,4.8-10.92,6.9-.3,2.88-.3,5.7.12,8.46Zm-.12-11.58c3.78-2.4,7.44-4.86,11.16-7.2.18-2.76.18-5.16.06-7.14-.12-1.92-1.26-2.28-3.42-1.02-2.16,1.2-4.5,3-7.08,5.4-.48,3.24-.72,6.6-.72,9.96Z"/>
      <path class="cls-1" d="m138.45,376.37c5.04,4.5,7.32,6.9,6.78,7.26-.48.36-.96.48-1.44.3-.48-.18-3.36-2.52-8.64-7.14-5.28-4.62-11.4-8.82-18.24-12.78-6.24,6.96-10.68,12.84-13.32,17.64s-4.08,7.38-4.32,7.8c-.24.42-.6.66-1.08.84-.54.18-.84-.06-1.02-.6-.24-.54-.12-1.26.42-2.04.48-.84.84-1.62,1.14-2.28l3.96-6.48c.42-.72,1.74-2.7,3.84-6,2.04-3.36,5.1-7.08,9-11.1,1.2-.66,2.16-.6,2.94.06.78.66,1.62,1.26,2.46,1.92,6.66,3.96,12.42,8.1,17.52,12.6Zm-2.4,20.94c.48.66-.42,1.74-2.58,3.42-2.16,1.74-4.92,4.62-8.22,8.76,6.84,3.06,11.46,4.86,13.98,5.46,2.52.6,3.3,1.2,2.34,1.98-1.02.78-3.9.24-8.76-1.56-4.86-1.86-8.58-3.48-11.16-4.92-2.7,2.7-4.92,4.14-6.72,4.32-1.86.18-3.18.24-4.08.3-.84.06-1.74-1.14-2.58-3.54s-1.02-5.52-.6-9.42c.42-3.96.9-7.02,1.32-9.3.42-2.28.84-4.56,1.32-6.66-.96.18-1.74.54-2.28,1.2-.48.66-.96.96-1.32,1.14-.42.18-.78-.24-1.08-1.14-.3-.96,1.44-2.46,5.1-4.5,3.72-2.1,6.66-3.48,8.7-4.2-1.02-.42-1.74-.66-2.1-.9-.42-.24-1.14-.72-2.22-1.44-1.14-.66-1.62-1.32-1.32-1.98.24-.66.72-.84,1.44-.54.78.3,1.56.6,2.34.96.72.36,1.26.66,1.68.9.36.18.78.54,1.2.96.42.42.9.9,1.32,1.38.96-.24,2.46-.42,4.44-.48,1.92-.06,3.12,0,3.48.3.36.3.66.48,1.08.78.42.3.72,1.26.9,2.94.18,1.68-.54,4.2-2.1,7.68.6.9.78,1.38.72,1.5-.06.18-1.56,1.14-4.5,2.94-2.94,1.86-5.88,3.42-9,4.86-3.12,1.5-5.16,2.04-6.18,1.62-.42,2.88-.6,5.22-.6,7.02s.54,3.9,1.8,6.3c3.3-.48,6.12-1.8,8.52-3.84-2.22-1.56-3.66-2.58-4.38-3.12-.78-.54-1.26-.96-1.62-1.38-.42-.42-.36-.96.18-1.62.54-.6.9-.78,1.2-.54.3.18,1.02.78,2.1,1.68,1.14.9,2.94,2.16,5.58,3.78,3.3-4.26,6.9-8.16,10.98-11.7.66-.24,1.14-.06,1.68.6Zm-25.2,1.5c4.5-2.04,9.06-4.08,13.5-6.18,1.68-1.14,2.64-2.1,2.82-3.12.18-1.02.54-2.16,1.2-3.6-6.06,2.34-11.7,4.98-16.8,7.86-.24,1.14-.48,2.76-.72,5.04Zm.12-13.2c.66-.3,1.14-.36,1.5-.06.3.24.18,2.1-.6,5.52,3.3-1.56,6.06-2.94,8.46-4.2,2.34-1.26,5.22-2.34,8.7-3.3.18-1.56.18-2.52,0-2.88-.18-.3-.42-.6-.66-.84-6.72-.3-12.54,1.56-17.4,5.76Z"/>
      <path class="cls-1" d="m106.71,472.81c-.42.06-.84-.18-1.2-.78s.78-2.88,3.36-6.78c2.58-3.96,6.48-9.9,11.82-18.06-1.38-1.02-2.64-2.1-3.72-3.48-1.14-1.26-1.68-2.4-1.68-3.24,0-.9.06-1.44.18-1.68.12-.18.36-.3.72-.3.3,0,.6.12.84.3.18.24.6.84,1.08,1.86.54.96,1.86,2.34,3.9,3.96,4.68-6.06,8.22-10.56,10.68-13.56,2.46-2.94,3.84-4.5,4.14-4.68.24-.18.48,0,.72.42.12.42.18.84.06,1.2-.18.36-1.38,2.1-3.6,5.1-2.22,2.94-5.58,7.38-10.02,13.08,4.02,3.18,7.2,5.58,9.48,7.14,2.28,1.68,3.48,2.58,3.6,2.76.06.24-.06.6-.36,1.02-.3.48-.6.78-.84.84-.24.12-1.44-.66-3.72-2.28s-5.46-4.02-9.48-7.2c-4.92,7.26-8.4,12.78-10.5,16.5-2.16,3.66-3.6,5.94-4.26,6.84-.36.54-.78.9-1.2,1.02Z"/>
      <path class="cls-1" d="m104.91,527.2c-.54-.6-.72-1.02-.48-1.26.18-.18,3.24-1.56,9.12-4.2,5.88-2.64,11.94-4.74,18.36-6.36,6.36-1.62,9.66-2.52,9.9-2.76.18-.24.54,0,.96.6.42.66-.54,1.5-3,2.46-2.52,1.02-6.18,2.04-10.92,3.12-7.86,2.16-15.24,5.1-22.2,8.82-.66.3-1.26.18-1.74-.42Zm26.7-36c.3.54.36,1.02.18,1.32-.24.36-2.28,1.08-6.24,2.28-3.9,1.2-7.74,2.7-11.52,4.38-3.84,1.74-5.94,2.52-6.24,2.28-.24-.18-.48-.54-.6-.96-.12-.36-.12-.72,0-.96.12-.18,1.2-.72,3.24-1.56,2.1-.78,5.94-2.28,11.64-4.32,6-2.16,9.24-3,9.54-2.46Z"/>
      <path class="cls-1" d="m139.71,571.81c-2.04-.54-7.26.06-15.54,1.68-8.34,1.74-12.66,2.4-13.02,2.22-.36-.12-.48-.54-.3-1.08.12-.54.48-.9,1.08-1.02.54-.12,2.16-.42,4.8-1.02,2.64-.54,6.66-1.38,12.06-2.46,3.12-4.5,4.56-9.6,4.38-15.18-.48-1.26-2.22-1.44-5.22-.48-2.94.96-5.4,1.86-7.38,2.88-1.92.96-2.94,1.32-3.06.96-.12-.3-.18-.72-.12-1.26,0-.54,1.26-1.32,3.9-2.58,2.58-1.2,5.16-1.98,7.8-2.52,2.58-.54,4.14-.54,4.68-.12.54.48,1.2,1.26,1.8,2.22.66,1.02.72,2.64.18,4.86-.54,2.28-1.14,4.32-1.8,6.18-.72,1.86-1.26,3.36-1.74,4.62,3.78-.3,6.78-.42,8.94-.24,2.16.18,3.36.42,3.6.66.24.24.12.72-.3,1.56-1.14.6-2.7.66-4.74.12Z"/>
      <path class="cls-1" d="m121.41,648.31c-.72-.06-1.14-.78-1.26-2.4-.18-1.56-.12-5.88,0-12.96.18-7.14.36-16.2.54-27.3.18-1.08.66-1.32,1.5-.66.78.66,1.14,2.28,1.02,4.8-.12,2.52-.42,10.62-.78,24.36,0,9.54-.36,14.22-1.02,14.16Z"/>
      <path class="cls-1" d="m139.83,704.54c-.3.42-2.04,1.62-4.98,3.66-3.06,2.04-6.24,3.18-9.6,3.48-3.3.3-5.28.24-6-.3-.78-.48-1.68-1.62-2.88-3.48-1.2-1.92-.9-5.7.84-11.4-1.8-.78-3.36-2.64-4.8-5.52-1.5-2.82-1.26-7.02.66-12.36-3,1.02-5.28,1.92-6.66,2.58-1.38.72-2.4.72-2.94-.06-.54-.72.24-1.5,2.28-2.34,2.04-.72,4.8-1.74,8.28-2.94,1.62-3.66,3.12-6.06,4.44-7.26,1.32-1.08,2.16-1.62,2.64-1.5.48.18.78.42.9.72.12.36-.24.96-1.02,1.92-.78.96-1.8,2.46-3.06,4.56,4.86-2.04,8.52-3.6,10.98-4.8,2.46-1.14,3.78-1.26,4.08-.48.24.9-.24,1.56-1.32,2.04-1.2.54-1.98,1.08-2.46,1.68-.54.6-.96.78-1.32.54-.36-.18-1.56,0-3.6.72s-4.5,1.8-7.44,3.3c-.78.78-1.56,3.12-2.4,7.14-.9,4.02.48,7.14,4.02,9.42,2.1-2.94,4.2-5.04,6.24-6.3s3.84-1.92,5.52-2.04c1.68-.06,2.46.18,2.52.66.06.6-.12,1.38-.66,2.34-.54,1.02-1.68,2.22-3.48,3.84-1.8,1.56-4.26,2.7-7.38,3.42-2.52,3.42-3.18,7.32-1.8,11.64.66,1.38,1.98,2.1,3.9,2.1,4.38-.72,7.5-1.68,9.36-3,1.8-1.26,2.7-2.1,2.7-2.52,0-.36.36-.66,1.08-.84.72-.24,1.38-.3,2.16-.12,1.08.6,1.5,1.08,1.2,1.5Zm-16.02-12.24c2.16-1.02,3.9-2.28,5.34-3.84-2.4.54-4.2,1.86-5.34,3.84Z"/>
      <path class="cls-1" d="m8.23,35.79c-.3-.66.06-1.8,1.14-3.24,1.02-1.5,3.3-3.24,6.84-5.4.66-5.7,1.2-10.02,1.56-12.96.42-2.88.72-4.5.84-4.86.12-.3.6-.6,1.38-.84.72-.18,1.2-.06,1.44.36.18.42,0,1.86-.66,4.38-.6,2.52-1.14,6.54-1.56,12.12,5.58-3.72,11.16-6.48,16.86-8.28,2.4-.72,4.32.12,5.88,2.52,2.04,8.28,2.22,15.06.42,20.4-1.86,5.34-2.94,8.34-3.36,9.12s-.9,1.2-1.32,1.32c-.36.12-.9.06-1.44-.18-.6-.18.3-3.06,2.7-8.52,2.4-5.46,2.76-12.06,1.08-19.86-.24-1.74-1.14-2.76-2.64-2.94-6.54,1.92-12.72,5.1-18.66,9.48-.18,6.54-.18,11.58.12,15.12.24,3.6.42,5.7.54,6.36.12.66,0,.96-.36.96h-1.32c-.48,0-.78-.12-.84-.48-.12-.3-.3-1.86-.6-4.56-.3-2.64-.36-7.8-.18-15.36-1.68.54-3.3,1.8-4.86,3.66-1.68,1.86-2.7,2.46-3,1.68Z"/>
      <path class="cls-1" d="m8.53,82.78c-.36-.18-.54-.72-.54-1.5,0-.72,3.24-2.58,9.66-5.52,6.42-2.88,12.42-4.74,17.94-5.34,5.52-.66,8.46-.66,8.82-.12.3.48-.12,3.96-1.32,10.26-1.14,6.24-3,12.36-5.64,18.18-2.64,5.94-4.38,9.18-5.1,9.78-.78.66-1.32.9-1.56.6-.3-.24-.54-.54-.66-.96-.24-.3,1.08-3.12,3.96-8.46,2.88-5.34,5.52-14.28,7.86-26.94-2.16-.72-6.18-.3-11.82,1.14-5.76,1.5-12.54,4.56-20.46,9.24-.42,0-.84-.12-1.14-.36Z"/>
      <path class="cls-1" d="m16.75,134.77c.42-1.2.9-1.62,1.26-1.5.42.18,2.58-.24,6.48-1.38,3.78-1.14,7.8-2.1,11.88-3,4.02-.84,6.42-1.08,7.2-.78.78.3.9.78.48,1.44-.48.66-1.14,1.02-1.92,1.08-.9,0-2.16.18-3.96.48-1.8.3-3.9.78-6.36,1.44-.3,3.42-.36,6.9-.06,10.44.24,3.48.6,6.78,1.08,9.9,4.08-1.26,7.44-1.98,10.08-2.04s3.96.24,3.84.96c-.18.78-.54,1.2-1.2,1.32-.6.06-1.44.06-2.46,0-.96,0-3.72.48-8.22,1.68-4.56,1.14-8.58,2.52-12.18,4.02-3.6,1.62-5.52,2.16-5.7,1.8-.24-.3-.24-.84-.06-1.62.18-.72,1.68-1.56,4.68-2.64,2.94-1.02,5.82-1.98,8.58-2.76-.36-.18-.72-2.04-.9-5.58-.18-3.54-.3-8.46-.3-14.88-4.38,1.02-8.22,2.1-11.34,3.12-1.08.18-1.38-.3-.9-1.5Z"/>
      <path class="cls-1" d="m41.29,198.07c-.12,2.64-.12,4.92.06,6.96.12,2.04.66,4.68,1.62,7.92.96,3.18,2.22,6.96,3.72,11.16,1.44,4.2,2.58,5.64,3.24,4.26.6-1.32,1.26-1.68,1.86-1.02.6.66.42,1.8-.48,3.48-.9,1.74-1.74,2.4-2.64,1.98s-1.5-1.14-2.04-2.22c-.54-1.14-1.68-4.08-3.54-8.82-1.8-4.74-3.06-8.88-3.72-12.42-.66-3.54-.96-7.26-.84-11.22.12-4.02.18-6.6.24-7.74.06-1.2.18-2.58.36-4.26-.84.24-2.4.6-4.8,1.08-2.4.48-5.34,1.26-8.7,2.4-3.36,1.14-8.34,2.88-14.94,5.22-.48,5.1-1.38,11.28-2.88,18.72-1.44,7.44-2.64,12.84-3.48,16.32-.9,3.42-1.62,5.4-1.98,5.88-.48.42-.96.36-1.5-.24-.48-.72-.54-1.32-.24-1.74.3-.42,1.2-3.3,2.64-8.64,1.5-5.34,3.12-15.18,4.92-29.46-.6.36-1.2.54-1.74.48s-.84-.18-.84-.36c0-.12.24-.6.66-1.38.42-.78,1.44-1.26,3-1.68,1.56-.42,3.18-.9,4.62-1.44,5.94-2.04,11.64-3.96,17.28-5.76,5.64-1.86,9-2.7,10.02-2.64,1.02.06,1.2,2.28.48,6.66-.18,3.06-.3,5.88-.36,8.52Zm-17.04-.66c.36.54.6,2.1.66,4.68,2.28-1.2,4.14-1.8,5.46-1.98,1.38-.18,2.64.6,3.9,2.16,1.2,1.56,1.44,3.72.72,6.36,1.32.3,1.14,1.32-.54,2.94-.42,1.5-.78,2.22-1.02,2.22s-.78.06-1.68.12c-1.8,1.2-4.14,2.82-7.08,4.92-.06,2.64.24,5.34.78,8.1,2.4-1.68,4.62-3.24,6.54-4.44-.48-.48-.84-.96-1.08-1.44-.24-.42-.06-.84.54-1.2.6-.36,1.14-.3,1.62.18.48.48,1.2,1.38,2.16,2.88.96,1.44,1.8,2.4,2.52,2.88.72.42.9.96.54,1.62-.36.66-.84.84-1.56.6-.78-.24-1.98-1.5-3.78-3.66-5.94,4.26-9.84,7.14-11.64,8.64-1.8,1.44-3,2.04-3.6,1.8-.6-.24-.72-.78-.3-1.62.3-.9,1.02-1.68,2.16-2.34,1.08-.6,2.16-1.32,3.12-2.04-.24-2.76-.6-5.46-.96-8.04-1.8.9-3.18,1.56-3.96,1.98-.78.42-1.5.66-2.04.84-.54.18-1.26-1.14-2.16-4.14-.9-3-.96-5.94-.3-8.82.72-2.94,1.26-4.92,1.68-6,.36-1.08.78-1.32,1.26-.9.48.48.66,1.44.6,2.82,1.68-.96,3.36-1.98,5.16-2.94-.06-2.4-.18-4.14-.24-5.16-2.28,1.14-4.26,2.04-6.06,2.7-1.8.72-2.76.84-2.94.42-.12-.42.12-.84.9-1.38.78-.54,1.44-.96,2.04-1.38.66-.42,3.24-1.5,7.74-3.42,4.5-1.98,6.96-3,7.26-3.18.3-.18.84-.42,1.62-.66.72-.24,1.32-.12,1.62.36.3.48.06,1.14-.84,1.98-3.42,1.26-6.36,2.4-8.82,3.54Zm-2.4,20.52v-11.88c-1.44.78-3.06,1.86-4.98,3.06-2.04,4.44-1.98,8.04.24,10.8,2.22-1.2,3.78-1.8,4.74-1.98Zm2.76-2.04c2.76-2.1,5.22-3.72,7.38-4.92,1.2-1.92,1.2-3.9,0-5.94-.78-1.68-1.8-2.34-3.3-2.1-1.44.24-2.76.84-3.84,1.86-.54,3.72-.66,7.44-.24,11.1Z"/>
      <path class="cls-1" d="m9.49,251.25c.66.12,1.02.42,1.14.84.06.42-.42,3.24-1.38,8.46-1.08,5.16-1.26,10.5-.48,15.96.72,5.46,1.26,8.4,1.5,8.7.3.3.48.72.48,1.26s-.3.96-.9,1.14c-.66.24-1.32-.24-1.98-1.5-.6-1.14-1.08-2.88-1.32-5.34-1.32-9.78-.78-19.38,1.62-28.68.18-.66.66-.96,1.32-.84Zm9.9,12c-.3-.84.24-1.62,1.5-2.34,1.32-.66,3.12-1.8,5.4-3.24,2.28-1.5,6.06-3.24,11.28-5.16,1.26-.36,2.1-.06,2.46.78.24.96.42,1.62.42,1.92s-.36.84-1.14,1.74c-.84.9-1.56,1.14-2.04.72-.54-.42-.12-1.2,1.2-2.28-3.9.36-8.28,2.46-13.08,6-3.72,2.04-5.7,2.64-6,1.86Zm5.46,20.16c1.26.06,3.66-.36,7.14-1.38,3.42-.96,6.9-1.98,10.32-3.24,3.3-1.14,5.22-1.44,5.46-.84.3.54.3,1.02,0,1.32-.24.36-2.58,1.2-6.96,2.46-4.38,1.38-8.1,2.46-11.1,3.48-3.06.96-4.86,1.26-5.52.9-.66-.3-1.08-.66-1.26-1.08-.06-1.14.54-1.68,1.92-1.62Z"/>
      <path class="cls-1" d="m7.21,322.66c-.06-.48,2.34-1.98,7.2-4.5,4.86-2.46,10.02-4.38,15.6-5.76,5.46-1.44,9.12-2.04,10.86-1.86,1.74.12,3,1.08,3.9,2.76.6,1.08.48,2.16-.36,3.18-.96,1.08-2.28,2.76-4.14,5.04-1.8,2.34-3.66,4.26-5.46,5.82-1.86,1.5-3.06,2.22-3.6,2.1s-.78-.54-.66-1.2c.12-.6.66-1.26,1.68-1.92.96-.66,2.46-1.98,4.38-3.9s3.96-4.74,6.12-8.46c-2.52-1.02-5.28-1.2-8.34-.48-3.12.78-6.36,1.8-9.66,3-3.42,1.32-6.9,2.94-10.38,4.98-3.54,2.04-5.58,2.94-6.12,2.58-.6-.42-.96-.84-1.02-1.38Zm17.64,1.74c0-1.32-.12-2.76-.3-4.26-.24-1.56.06-2.4.78-2.64.78-.18,1.44.06,1.98.78.48.78.66,1.38.48,1.68-.18.36-.3,2.4-.36,6.18-.06,3.84.06,7.8.42,11.94.42,4.14.78,6.36,1.08,6.66.3.36.6.66.84.84.18.18.18.48,0,.78-.24.36-.72.84-1.38,1.44-.66.6-1.14.48-1.56-.24-1.56-7.8-2.16-15.54-1.98-23.16Z"/>
      <path class="cls-1" d="m11.77,372.16c.24-.9.78-1.08,1.5-.66.78.42,1.02,1.08.78,1.86-.42,2.82-.78,6.9-1.02,12.24-.3,5.28.54,11.58,2.34,18.78,1.74.66,4.98-.36,9.78-3,4.74-2.64,9-5.34,12.66-8.16,3.72-2.76,5.7-4.2,5.94-4.2.18,0,.42.18.66.48.18.36.3.72.3,1.02s-2.1,2.16-6.3,5.46c-4.14,3.36-8.64,6.12-13.5,8.16-4.86,2.1-7.8,3.3-8.94,3.54-1.08.24-1.74,0-1.92-.72-3.9-11.34-4.68-22.92-2.28-34.8Z"/>
      <path class="cls-1" d="m22.69,438.02c-.36-.3-1.92-.6-4.5-.84-2.64-.18-5.04-.54-7.32-1.02-2.28-.48-3.6-.9-3.96-1.32-.42-.42-.24-.9.54-1.56.66-.6,1.5-.66,2.4-.18.84.42,2.52.72,4.98.9,2.46.18,4.68.42,6.72.78,1.98.36,3.12.9,3.36,1.56.18.72-.06,1.32-.84,1.8-.48.18-.96.12-1.38-.12Zm23.46,7.56c.3.48.24,1.02-.06,1.56-.36.54-3,2.64-7.86,6.3-4.92,3.72-10.02,6.78-15.36,9.3-5.28,2.52-8.4,3.78-9.3,3.78s-1.26-.42-.96-1.26c.18-.9.9-1.38,2.04-1.56,1.08-.18,2.22-.48,3.24-.9,9.6-5.04,18.6-10.86,27.06-17.46.48-.36.9-.3,1.2.24Z"/>
      <path class="cls-1" d="m25.09,491.61c.42.6.6,1.2.48,1.68-.12.54-.3.96-.42,1.14-.24.24-.66.12-1.2-.3s-1.26-.42-2.1,0c-.9.42-2.46,1.14-4.74,2.1-2.28,1.02-4.08,1.86-5.34,2.46-1.38.66-2.16.9-2.46.66-.36-.24-.54-.72-.6-1.38-.06-.72,1.86-1.86,5.82-3.36,3.9-1.5,6.42-2.46,7.68-2.88,1.44-.66,2.4-.66,2.88-.12Zm2.1,14.82c-.54.06-2.1.84-4.8,2.34-2.76,1.56-5.04,2.88-6.9,4.14-1.86,1.2-3.06,1.74-3.72,1.62s-1.08-.48-1.14-1.14c-.06-.6.18-.96.84-1.14.6-.12,2.04-.96,4.38-2.4,2.28-1.5,4.68-2.88,7.08-4.2,2.4-1.26,4.02-1.86,4.68-1.68.6.18.9.72.9,1.62-.42.54-.84.84-1.32.84Zm9.66,4.14c3.42-3.6,5.58-5.46,6.24-5.64.72-.18.96.42.66,1.74-.3,1.38-.9,2.16-1.86,2.4-1.02.24-2.46,1.56-4.38,3.9-2.04,2.4-5.46,5.46-10.44,9.36-4.98,3.9-7.74,5.82-8.22,5.7-.54-.06-.9-.36-1.08-.84-.18-.48,0-1.08.78-1.74,8.76-6.42,14.82-11.34,18.3-14.88Zm-2.46-18.48c.48,1.08.84,1.92,1.2,2.64.3.72.6,1.32.9,1.92.24.6.12,1.02-.36,1.2-.48.24-.96.3-1.38.18-.48-.12-1.08-1.02-1.86-2.58-.72-1.62-1.14-3.12-1.14-4.74-.06-1.5,0-2.46.12-2.76.12-.3.66-.42,1.5-.36.9.06,1.2.72.78,1.98-.3.66-.24,1.5.24,2.52Zm7.98,3c.24,0,.3.3.3.84,0,.6-.48.9-1.5.84-1.02,0-1.86-1.26-2.4-3.9-.54-2.64-.66-4.8-.36-6.6.3-1.74.96-2.58,1.8-2.4.9.18,1.14.66.84,1.44-.54,3-.18,6.3.96,9.78h.36Z"/>
      <path class="cls-1" d="m23.83,585.96c-.18-1.68-.12-2.64.18-2.82.3-.18.66-.18.96,0,.24.18.84,1.02,1.62,2.58.78,1.5,1.14,2.58,1.14,3.24s-.3,1.14-.96,1.32c-.72.24-1.2.12-1.38-.3-.84-.9-1.38-2.22-1.56-4.02Zm2.82-11.7c-.42-.06-.84-.48-1.26-1.32-.42-.84-.48-3.3-.18-7.44.3-4.2.54-7.86.66-11.1.12-3.24.3-5.04.54-5.34.18-.3.66-.48,1.26-.48.66,0,1.08.18,1.32.48.18.3.06,2.4-.36,6.36-.42,3.9-.9,9.42-1.26,16.56-.12,1.56-.36,2.34-.72,2.28Z"/>
    </g>
  </g>
</svg>