<?xml version="1.0" encoding="UTF-8"?>
<svg id="Layer_2" data-name="Layer 2" xmlns="http://www.w3.org/2000/svg" viewBox="0 0 1000 275">
  <defs>
    <style>
      .cls-1, .cls-2 {
        fill: #fff;
      }

      .cls-3 {
        stroke: #65b7ec;
      }

      .cls-3, .cls-4 {
        fill: #65b7ec;
      }

      .cls-3, .cls-2 {
        stroke-linecap: round;
        stroke-linejoin: round;
        stroke-width: .85px;
      }

      .cls-4, .cls-5 {
        opacity: .8;
      }

      .cls-2 {
        stroke: #fff;
      }

      .cls-6 {
        opacity: .75;
      }
    </style>
  </defs>
  <g id="_文字" data-name="文字">
    <g class="cls-6">
      <polygon class="cls-1" points="1000 100 1000 0 210 0 265 50 210 100 1000 100"/>
    </g>
    <g class="cls-5">
      <path class="cls-3" d="m304.12,43.42c-.27-4.95-.5-8.63-.6-11.05-.11-2.42-.11-3.74-.05-3.96.05-.22.33-.33.77-.33.38,0,.71.17.88.44s.33,1.54.38,3.74.38,5.66.88,10.23c2.2-1.48,4.12-2.25,5.72-2.42,1.59-.16,2.42.06,2.47.66.05.66-.11.99-.44.99s-1.26.27-2.91.83c-1.59.49-3.52,1.37-5.83,2.64-1.76,5.94-2.97,9.95-3.41,12.1,1.71-.82,3.52-1.7,5.5-2.58,1.98-.83,3.74-.94,5.28-.39,1.54.6,2.09,2.75,1.65,6.38-.44,3.57-1.38,6.65-2.92,9.07-1.48,2.42-2.53,3.79-3.02,4.12-.55.33-.93.33-1.16.06-.22-.28-.49-.66-.77-1.04-.33-.33-.38-.66-.11-.88.22-.22.66-.44,1.38-.66.71-.22,1.49-1.48,2.53-3.9.99-2.42,1.65-4.45,2.03-6.27.38-1.76.22-3.35-.44-4.84-3.46-.28-7.04.99-10.5,3.85-1.32,5.99-1.98,9.9-2.14,11.6s-.33,2.75-.61,3.08c-.27.27-.6.5-.99.6-.33.11-.66,0-.83-.27-.17-.22.17-2.8.93-7.64.83-4.84,2.58-11.93,5.33-21.34-4.56,2.2-7.26,3.41-8.03,3.52-.83.06-1.32.06-1.54-.05-.22-.17-.33-.38-.38-.71s.11-.55.38-.71c3.52-1.32,7.04-2.97,10.56-4.84Zm25.9-2.48c-1.15,2.2-2.8,5-5,8.3.05.06.17.22.33.49.17.22,1.71,2.2,4.62,5.83.44-.94,1.59-2.36,3.35-4.29s2.8-3.02,3.08-3.3c.22-.27.66-.33,1.32-.16.44.66.28,1.37-.55,2.14-.77.82-1.76,1.92-2.91,3.24-1.1,1.32-1.98,2.75-2.53,4.18.55.5,1.65,1.54,3.19,3.13,1.54,1.54,2.92,2.91,4.01,3.9,1.16,1.04,2.31,2.09,3.68,3.24,1.32,1.1,2.09,1.81,2.37,2.09.27.27.33.6.27.88-.05.33-.22.5-.38.55-.17.06-.5-.05-.99-.27-.5-.22-1.54-.94-3.3-2.31-1.81-1.32-3.3-2.53-4.51-3.57-1.26-1.1-2.47-2.31-3.74-3.68-1.21-1.32-2.64-2.91-4.23-4.73-1.6-1.87-2.64-3.02-3.08-3.63,0,.17-.05.5-.05.99-.06.44-.11,1.15-.11,1.98,0,.77,0,2.47-.05,4.95-.06,2.48,0,4.29.11,5.39.06,1.15.17,2.31.33,3.46.17,1.1.17,2.03.11,2.64-.05.55-.28.94-.61,1.1-.38.17-.66.06-.82-.22s-.33-.6-.38-1.04c-.06-.44-.28-2.42-.61-5.94-.27-3.46-.38-5.99-.33-7.42.06-1.48.11-2.86.17-4.12.06-1.21.11-2.03.11-2.31-2.09,3.19-3.19,4.84-3.46,5.06-.27.22-.5.33-.71.38s-.44-.06-.6-.27c-.22-.22-.33-.5-.39-.88-.05-.33,0-.6.06-.88.05-.27.93-1.54,2.69-3.85,1.81-2.31,3.52-5,5.17-8.03,1.65-3.02,2.86-5.06,3.52-6.1l-9.24,4.29c-.05.71.05,1.48.38,2.36.28.82.06,1.38-.83,1.65-.88.27-1.43-.06-1.81-.88-.38-.77-.38-1.54,0-2.2.22-5.55.71-9.62,1.54-12.15s1.26-3.96,1.43-4.18c.17-.27.44-.38.83-.44.38-.05.82,0,1.21.06.33.06.44.33.22.71-.17.44-.55,1.65-1.16,3.57-.6,1.92-1.15,4.95-1.7,9.02,6.43-2.86,11.33-5.06,14.57-6.54,3.3-1.54,5-2.31,5.12-2.47.11-.17.33.05.6.6.27.5.38.94.27,1.32-.11.38-.6.93-1.48,1.7-.83.82-1.43,1.1-1.71.82-.27-.27-.38-.55-.33-.93l-4.84,2.25.11.11c-.39.72-1.1,2.2-2.31,4.4Z"/>
      <path class="cls-3" d="m388.6,33.19c2.09-.05,3.19.17,3.3.71.06.6-.22,1.21-.88,1.81-.71.55-1.1.39-1.37-.6-3.63.39-6.98.99-10.17,1.87.38,4.12.38,8.14-.11,12.04,2.53,5,3.46,9.57,2.64,13.8s-1.59,6.87-2.31,7.92c-.77,1.15-1.26,1.71-1.54,1.71-.33,0-.77-.17-1.26-.55-.55-.44,0-2.09,1.59-5.17,1.54-3.08,1.59-7.81.11-14.35-1.21,3.02-2.8,5.72-4.89,8.14s-4.18,3.79-6.05,4.18c-1.87.39-3.13.5-3.85.33s-1.27-.82-1.87-1.81c-.6-1.04-.6-2.53-.11-4.51,4.23-6.76,9.29-10.28,15.23-10.45.6-3.57.6-7.2,0-10.67-7.09,1.21-13.97,3.3-20.57,6.27-.77.33-1.48.27-1.98-.22-.5-.49-.33-.88.5-1.26,2.14-1.54,5.28-2.86,9.4-4.07,4.07-1.15,8.14-2.2,12.26-2.97-.28-1.15-.66-2.09-1.26-2.91-.61-.83-.88-1.48-.83-2.09s.5-.88,1.32-.88c1.38,1.04,2.47,2.8,3.25,5.39,4.18-1.04,7.37-1.54,9.46-1.65Zm-16.44,25.35c1.71-2.47,3.02-5,4.01-7.59-3.35.11-6.21,1.32-8.58,3.74-2.36,2.42-3.57,4.34-3.74,5.88-.17,1.48.28,2.25,1.21,2.31,3.02-.38,5.39-1.81,7.09-4.34Z"/>
      <path class="cls-3" d="m433.86,49.25c1.48,5.06.88,9.84-1.87,14.46-4.89,5.17-9.57,7.75-14.08,7.7-4.51,0-6.65-.88-6.49-2.53s.71-3.08,1.76-4.18c.99-1.15,3.02-2.58,6.1-4.45s6.76-1.48,11.11,1.04c1.81-3.68,2.2-7.37,1.1-11.05-.33-2.2-2.58-3.46-6.82-3.74-4.29-.28-7.59.77-10.12,3.08-2.53,2.31-4.23,3.96-5.17,4.89-.94.99-1.65,1.38-2.04,1.15-.38-.22-.66-.6-.77-1.15-.11-.49,0-.93.27-1.21.28-.27,1.54-1.76,3.74-4.51,2.2-2.75,4.95-7.31,8.41-13.58,0-.94-.33-1.43-1.04-1.48-.66-.11-1.81.11-3.35.77-1.59.71-2.97,1.59-4.07,2.86-1.15,1.21-1.92,1.76-2.36,1.48-.5-.22-.66-.6-.55-1.32.05-.66,1.04-1.7,3.02-3.19,1.92-1.43,3.79-2.47,5.61-3.02,1.81-.6,3.24-.44,4.18.44.93.93,1.1,2.47.44,4.67s-2.42,5.44-5.33,9.68c8.96-3.46,15.07-2.48,18.31,3.19Zm-5.17,14.41c-2.91-2.15-5.55-2.58-7.86-1.43-2.37,1.21-4.01,2.25-5.06,3.19-.99.88-1.54,2.09-1.54,3.41,5.77.94,10.56-.77,14.46-5.17Z"/>
      <path class="cls-3" d="m483.09,44.47c.83,1.38-.17,4.23-2.86,8.47-2.75,4.23-5.11,8.19-7.04,11.66-1.92,3.46-3.3,5.55-4.07,5.99-.83.5-1.38.72-1.65.6-.33-.05-.55-.44-.66-1.04-.17-.6.88-2.53,3.25-5.83,2.31-3.24,4.78-7.2,7.42-11.77,2.58-4.56,3.52-7.2,2.97-7.75-3.63-1.7-8.85-.71-15.73,2.86-6.87,3.63-10.45,5.5-10.72,5.72-.33.27-.66.33-.88.22-.28-.11-.61-.33-.88-.6-.33-.27-.39-.77-.17-1.32.17-.6.49-.93.88-.93.33,0,3.74-1.54,10.01-4.67s11.22-4.56,14.79-4.29c2.2,0,3.96.93,5.33,2.69Zm-5.66-10.83c-.83.11-1.26-.11-1.21-.77-7.09.82-12.37,1.7-15.67,2.8-3.25,1.1-5.11,1.71-5.33,1.76-.27.11-.71,0-1.21-.27-.5-.27-.77-.55-.77-.77,0-.17.17-.55.5-1.15.28-.6.99-.94,2.09-.99,1.1-.05,2.8-.33,5.22-.77,2.36-.5,5.33-1.04,8.8-1.76,3.52-.6,6.27-.99,8.47-1.04,2.09-.06,2.69.38,1.87,1.32-1.04.99-1.92,1.54-2.75,1.65Z"/>
      <path class="cls-3" d="m512.74,40.45c-.33-.27-1.76-.55-4.12-.77-2.42-.17-4.62-.5-6.71-.93-2.09-.44-3.3-.83-3.63-1.21-.38-.39-.22-.83.49-1.43.61-.55,1.38-.6,2.2-.17.77.38,2.31.66,4.56.82s4.29.38,6.16.71c1.81.33,2.86.82,3.08,1.43.17.66-.05,1.21-.77,1.65-.44.17-.88.11-1.26-.11Zm21.5,6.93c.28.44.22.93-.05,1.43-.33.5-2.75,2.42-7.2,5.77-4.51,3.41-9.18,6.21-14.08,8.52-4.84,2.31-7.7,3.46-8.52,3.46s-1.15-.39-.88-1.15c.17-.83.83-1.27,1.87-1.43.99-.17,2.04-.44,2.97-.82,8.8-4.62,17.05-9.95,24.8-16,.44-.33.82-.27,1.1.22Z"/>
      <path class="cls-3" d="m552.78,58.49c-3.02,1.21-4.62,1.76-4.78,1.65-.22-.11-.5-.5-.77-1.15-.22-.55,1.27-1.43,4.62-2.53,3.41-1.1,8.36-2.58,14.96-4.51.17-4.23-.55-8.08-2.09-11.66-.22-.38-.22-.77,0-1.1.22-.27.66-.55,1.21-.77.6-.11,1.1.05,1.48.77.33.72.66,2.09,1.04,4.18s.66,4.73.93,7.86c7.81-2.2,11.88-3.13,12.1-2.69.11.49.11.93,0,1.26-.22.39-.6.66-1.21.77-.6.11-4.29,1.1-11.11,2.91.38,4.62.05,8.19-.99,10.72-.99,2.53-2.2,4.45-3.46,5.77-1.38,1.32-2.2,2.15-2.64,2.48-.44.22-.88.22-1.26-.17-.5-.44-.39-1.1.22-1.98.66-.93,1.81-2.25,3.41-3.9,1.54-1.65,2.37-5.66,2.37-12.1-6.38,1.59-11.05,2.97-14.02,4.18Zm-3.57-17.05c-.28-.82,1.81-2.14,6.21-4.12,4.4-1.98,8.63-3.85,12.7-5.66,4.12-1.76,6.38-2.53,6.71-2.36.38.22.55.5.5.88-.11.38-.44.88-.88,1.32-.5.5-.93.88-1.21,1.04-.33.22-1.26.33-2.86.33-6.82,2.97-13.36,6.1-19.74,9.51-.71.17-1.21-.11-1.43-.94Z"/>
      <path class="cls-3" d="m648.86,41.44c.88-.17,1.81-.33,2.91-.44,1.04-.11,1.92.11,2.58.71.6.6.88,1.65.83,3.35-.06,1.65-.55,3.02-1.38,4.29-.88,1.21-1.54,1.98-1.98,2.36-.5.33-1.49.44-2.92.38-1.43-.05-2.97.06-4.45.44-.17,2.2-.28,4.07-.33,5.39,4.56-.94,7.37-1.48,8.3-1.65.99-.17,2.47-.27,4.56-.27s3.57.27,4.34.82c.82.6,1.48,1.59,1.98,2.91.44,1.38.55,2.75.27,4.18-.22,1.48-.71,3.3-1.48,5.5s-1.48,3.9-2.25,5.06c-.77,1.1-1.32,1.65-1.7,1.48-.39-.17-.44-.72-.06-1.71.38-1.04.77-1.98,1.16-3.02.44-.99.88-2.15,1.26-3.35.38-1.27.71-2.75.88-4.4.22-1.71,0-2.97-.6-3.85-.66-.82-1.87-1.32-3.52-1.43-1.65-.11-2.97-.06-3.96.11s-2.58.55-4.84.99c-2.25.5-3.74.88-4.56,1.1-.17,1.48-.33,3.63-.5,6.43s-.28,4.73-.33,5.83c-.05,1.15,0,2.09.11,2.86.11.82-.06,1.37-.44,1.7-.44.38-.88.22-1.26-.38-.38-.66-.61-1.27-.61-1.81,0-.5.06-1.38.11-2.47.05-1.15.17-2.8.22-4.89.06-2.09.17-4.01.22-5.55-.39.39-.94.94-1.87,1.7-.93.83-3.46,3.08-7.7,6.82-4.23,3.79-6.6,5.72-7.09,5.77-.44.05-.77-.22-.93-.83s1.26-2.14,4.29-4.62,5.39-4.51,7.15-6.16c1.76-1.65,3.02-2.8,3.68-3.46-1.43.17-2.91.33-4.34.6s-2.37,0-2.64-.77c-.28-.82-.33-1.32-.06-1.59.28-.27.61-.88,1.04-1.98.44-1.04.55-1.87.33-2.47-.22-.6-.38-1.15-.44-1.87-.05-.71,1.1-1.21,3.63-1.54,2.53-.38,4.4-.71,5.72-.99.17-1.04.27-2.03.33-2.86.05-.77.17-1.43.33-1.92.11-.49.27-.82.5-1.21-4.79.88-7.53,1.43-8.25,1.48-.71.06-1.21-.27-1.38-.99-.22-.66,2.69-1.54,8.91-2.53,3.25-.66,5.33-1.1,6.21-1.26Zm-18.92-11.16c-.27,1.15-.38,2.47-.22,4.12,4.29-2.2,7.64-3.79,9.95-4.73,2.31-.88,3.57-1.26,3.85-1.1.28.17.39.44.39.66,0,.27-.11.6-.39.88-.27.27-1.7,1.04-4.34,2.25-.61,2.8-.55,5.17.11,7.09.66,1.92.71,3.08.11,3.35-.6.22-1.21-.44-1.98-2.15-.77-1.65-1.04-4.12-.83-7.31-1.1.39-2.14.83-2.97,1.21-.88.38-2.2,1.1-4.01,1.98.17,1.71.39,3.02.77,4.12.38,1.15.17,1.81-.66,1.98-.77.17-1.26.05-1.43-.44-.17-.5-.44-2.03-.71-4.78-.28-2.75-.17-5.44.38-8.08.55-2.58,1.16-4.07,1.71-4.34.6-.27.99.22,1.04,1.38-.22,1.48-.5,2.75-.77,3.9Zm5.06,24.09c.5.82.66,1.76.44,2.8-.22,1.1-.6,1.98-1.21,2.8,1.7-.39,4.12-.88,7.42-1.48.05-.83.17-1.71.22-2.64.05-.99.17-1.92.22-2.86-3.79.83-6.16,1.27-7.09,1.38Zm10.12-9.95c-.17,1.32-.28,3.24-.44,5.77,1.71.05,3.79-.06,6.21-.33,1.21-1.43,1.87-2.53,2.04-3.46.17-.93.05-1.98-.33-3.3-2.14.27-4.67.71-7.48,1.32Zm11.49-12.48c-1.1.38-2.25.71-3.46.99s-2.25.17-3.13-.44c-1.32-1.87-1.98-3.41-1.87-4.73.11-1.26.33-2.14.6-2.64.28-.49.66-.71,1.1-.82.5-.11.94,0,1.32.27.38.22.33.94-.28,1.98-.6.99-.33,2.58.77,4.56.66.16,2.2-.27,4.51-1.21,1.98-1.04,4.12-2.31,6.32-3.74.88-.38,1.38-.17,1.59.6.22.71-.17,1.15-1.04,1.32-1.32.5-2.53,1.32-3.68,2.47-.44,2.36-.82,4.18-1.04,5.44-.22,1.32-.66,2.09-1.26,2.31-.55.28-.82,0-.77-.66-.05-1.65.05-3.57.33-5.72Z"/>
      <path class="cls-3" d="m705.56,30.28c.28-.49.66-.71,1.26-.71s.99.33,1.21,1.04c-1.43,2.09-3.9,5.88-7.48,11.55-3.63,5.61-6.71,11.44-9.35,17.38-2.64,5.99-4.12,9.29-4.51,9.9s-1.04.99-1.92,1.21c-.93.22-1.21-.17-.93-1.04,5.77-14.02,12.98-27.11,21.72-39.32Z"/>
      <path class="cls-3" d="m722.29,39.85c-.55-.33.38-1.54,2.86-3.79,2.47-2.2,6.32-3.85,11.55-5.06,2.91-.71,4.51-.66,4.78.17.27.77.33,2.09.22,3.74-.11,1.65-.71,3.46-1.81,5.39-1.16,1.87-1.92,2.69-2.37,2.53-.5-.22-1.48.05-3.13.82-1.65.82-3.79,2.47-6.43,5.06-.71,2.53-.99,5.17-.83,7.92,2.42-.55,4.73-1.48,6.93-2.69,2.2-1.26,4.4-1.43,6.65-.5,1.49,1.04,2.31,2.42,2.58,4.07.28,1.65-.17,4.01-1.26,7.2-1.21,3.19-2.47,5.88-3.85,8.19-1.43,2.31-2.31,3.52-2.75,3.57-.44.06-.71-.05-.82-.27-.17-.22-.22-.49-.28-.88-.05-.33.33-.88,1.04-1.65.66-.77,1.71-2.42,3.02-5,1.38-2.58,2.25-5.39,2.75-8.58.44-3.19-.61-4.78-3.25-4.84-4.23,1.43-7.31,2.53-9.13,3.3-1.92.72-3.03,1.04-3.52.99-.5-.06-.72-.94-.72-2.69s.5-3.96,1.49-6.76c-.5-.33-.77-.82-.88-1.43-.17-.6.05-1.04.66-1.21,3.3-2.8,7.37-5.44,12.26-7.86.28-1.27.71-2.42,1.21-3.57.5-1.21.44-2.31-.11-3.19-6.49.66-11.71,3.02-15.51,7.09-.33.27-.77.27-1.38-.06Zm21.72,32.72c-.27-.44-.33-.88-.17-1.38.11-.49,4.23-2.53,12.43-6.16-.06-2.58-.11-5.11-.11-7.64-2.8,1.04-4.84,1.81-6.16,2.42-1.26.6-2.14.6-2.53-.06-.38-.66.22-1.26,1.98-1.87,1.65-.6,3.9-1.48,6.71-2.64.05-1.76.05-3.9,0-6.43-3.19,1.32-5.94,2.91-8.14,4.62.55,1.04,1.04,1.65,1.43,1.76.33.11.44.39.33.88-.17.5-.61.88-1.21,1.27-.6.38-1.48-.88-2.69-3.9-1.21-3.02-1.54-7.09-.94-12.26,0-.77.33-1.26,1.16-1.43.77-.17,1.65-.55,2.8-1.15,1.04-.55,2.53-1.1,4.29-1.71-2.36-.44-4.01-1.65-4.95-3.74-.6-1.1-1.15-2.15-1.81-3.3-.71-1.1-.83-1.87-.33-2.36.5-.49.88-.6,1.26-.44.33.17.66.66.94,1.43.27.71.71,1.87,1.32,3.3.55,1.48,1.81,2.75,3.79,3.85.99-.22,1.37,0,.99.6,2.37-.39,4.89-.66,7.59-.83-.66-.22-.82-.55-.71-1.04.17-.5.55-1.43,1.16-2.92-.17-1.92.05-3.08.66-3.68.55-.6,1.04-.88,1.32-.88s.5.22.6.6c.11.39.06,1.27-.22,2.53-.27,1.32-.93,3.08-1.92,5.39,2.47.5,4.12,1.43,5.06,2.8.83,1.32,1.26,3.35,1.21,5.99s-.71,5.39-1.92,8.14c-1.26,2.8-1.92,4.29-2.2,4.45-.27.17-.55.28-.93.33-.38.06-.6-.17-.88-.6-.27-.49-.11-1.1.44-1.92-1.49.44-3.13,1.04-4.95,1.76.05,3.68,0,6.21-.06,7.48,7.42-3.41,11.44-4.95,11.88-4.67.44.33.6.72.55,1.21-.11.5-.38.71-.83.71-.5,0-4.34,1.65-11.49,5-.17,3.08-.05,5.44.17,7.09.27,1.7.33,2.58.17,2.75s-.55.38-1.26.6c-.71.22-1.16-.6-1.27-2.36-.22-1.76-.33-4.01-.27-6.65-3.74,1.65-6.87,3.02-9.46,4.29-1.65.88-2.53,1.15-2.8.77Zm13.03-33.99c.5-.55.93-.6,1.32-.17.38.49.55,1.32.44,2.53-.11,1.27-.17,2.69-.17,4.4,2.7-1.21,5.55-2.09,8.52-2.64-.28-1.1-.61-2.14-1.04-3.02-.38-.93-1.26-1.59-2.53-2.03-5.28-1.15-10.83.5-16.66,4.95-.55,2.69-.44,5.44.38,8.25,3.13-1.54,6.05-3.08,8.8-4.4.17-4.67.5-7.26.93-7.86Zm-1.7-7.92c-.22-1.32-.39-2.31-.55-3.08-.17-.77-.22-1.27-.05-1.65.11-.38.38-.6.88-.71.44-.11.83.11,1.1.71.28.6.44,1.43.39,2.64-.06,1.15.44,2.69,1.43,4.56.77,0,1.26.11,1.43.27s.17.33,0,.49c-.17.17-.55.33-1.1.44-.61.11-1.04.05-1.43-.17-1.15-1.04-1.87-2.25-2.09-3.52Zm11.55,13.97c-2.8,1.1-5.55,2.15-8.19,2.97-.06,2.36-.11,4.56-.06,6.71,1.87-.88,3.96-1.7,6.38-2.36,1.1-2.42,1.76-4.89,1.87-7.31Z"/>
    </g>
    <polygon class="cls-4" points="1000 275 1000 125 0 125 82.5 200 0 275 1000 275"/>
    <g>
      <path class="cls-2" d="m300.91,178.29c.48.4-.16,3.04-1.76,8-1.68,4.88-3.12,10.96-4.48,18-1.36,7.12-1.84,11.2-1.68,12.24.08,1.04-.24,1.6-.96,1.84-.72.24-1.6.16-2.4-.24-.88-.4-.64-3.92.72-10.72,1.36-6.8,3.28-15.12,5.84-25.04.48-1.68,1.28-3.04,2.24-3.92,1.2-.48,1.92-.56,2.48-.16Zm35.2,34.64c-.88-2.08-1.76-6.4-2.8-12.88-.96-6.48-2.56-14.4-4.56-23.68,0-.88.16-1.68.48-2.16.32-.56.96-.64,2-.24,1.04.32,1.68,1.04,1.92,1.92,1.44,12.4,3.84,24.8,7.36,36.96.8.88.4,1.6-1.04,2.24-1.52.64-2.64-.08-3.36-2.16Z"/>
      <path class="cls-2" d="m380.43,180.77c-.48-.4-2.56-.8-6-1.12-3.52-.24-6.72-.72-9.76-1.36s-4.8-1.2-5.28-1.76c-.56-.56-.32-1.2.72-2.08.88-.8,2-.88,3.2-.24,1.12.56,3.36.96,6.64,1.2,3.28.24,6.24.56,8.96,1.04,2.64.48,4.16,1.2,4.48,2.08.24.96-.08,1.76-1.12,2.4-.64.24-1.28.16-1.84-.16Zm31.28,10.08c.4.64.32,1.36-.08,2.08-.48.72-4,3.52-10.48,8.4-6.56,4.96-13.36,9.04-20.48,12.4-7.04,3.36-11.2,5.04-12.4,5.04s-1.68-.56-1.28-1.68c.24-1.2,1.2-1.84,2.72-2.08,1.44-.24,2.96-.64,4.32-1.2,12.8-6.72,24.8-14.48,36.08-23.28.64-.48,1.2-.4,1.6.32Z"/>
      <path class="cls-2" d="m444.03,198.37c.08,7.44.8,14.72,2.32,21.84.08,1.6-.4,2.48-1.36,2.56-.88.16-1.52-.32-1.76-1.44-2.32-13.6-3.04-24.56-2.48-33.12.48-8.4.96-13.92,1.2-16.64-.16-1.36.4-2.16,1.6-2.32,1.12-.16,1.76.4,1.68,1.6-1.04,7.84-1.36,15.92-1.2,24.16,3.84.08,8.08-.32,12.56-1.12,4.4-.88,8-1.36,10.88-1.44,2.96-.08,4.32.08,4.32.48s-.4,1.12-1.12,1.92c-.8.88-2.48,1.12-4.96.72-6.96.72-14.16,1.68-21.68,2.8Z"/>
      <path class="cls-2" d="m521.23,180.77c-.48-.4-2.56-.8-6-1.12-3.52-.24-6.72-.72-9.76-1.36s-4.8-1.2-5.28-1.76c-.56-.56-.32-1.2.72-2.08.88-.8,2-.88,3.2-.24,1.12.56,3.36.96,6.64,1.2,3.28.24,6.24.56,8.96,1.04,2.64.48,4.16,1.2,4.48,2.08.24.96-.08,1.76-1.12,2.4-.64.24-1.28.16-1.84-.16Zm31.28,10.08c.4.64.32,1.36-.08,2.08-.48.72-4,3.52-10.48,8.4-6.56,4.96-13.36,9.04-20.48,12.4-7.04,3.36-11.2,5.04-12.4,5.04s-1.68-.56-1.28-1.68c.24-1.2,1.2-1.84,2.72-2.08,1.44-.24,2.96-.64,4.32-1.2,12.8-6.72,24.8-14.48,36.08-23.28.64-.48,1.2-.4,1.6.32Z"/>
      <path class="cls-2" d="m618.51,186.61c1.2,2-.24,6.16-4.16,12.32-4,6.16-7.44,11.92-10.24,16.96-2.8,5.04-4.8,8.08-5.92,8.72-1.2.72-2,1.04-2.4.88-.48-.08-.8-.64-.96-1.52-.24-.88,1.28-3.68,4.72-8.48,3.36-4.72,6.96-10.48,10.8-17.12,3.76-6.64,5.12-10.48,4.32-11.28-5.28-2.48-12.88-1.04-22.88,4.16-10,5.28-15.2,8-15.6,8.32-.48.4-.96.48-1.28.32-.4-.16-.88-.48-1.28-.88-.48-.4-.56-1.12-.24-1.92.24-.88.72-1.36,1.28-1.36.48,0,5.44-2.24,14.56-6.8s16.32-6.64,21.52-6.24c3.2,0,5.76,1.36,7.76,3.92Zm-8.24-15.76c-1.2.16-1.84-.16-1.76-1.12-10.32,1.2-18,2.48-22.8,4.08-4.72,1.6-7.44,2.48-7.76,2.56-.4.16-1.04,0-1.76-.4-.72-.4-1.12-.8-1.12-1.12,0-.24.24-.8.72-1.68.4-.88,1.44-1.36,3.04-1.44,1.6-.08,4.08-.48,7.6-1.12,3.44-.72,7.76-1.52,12.8-2.56,5.12-.88,9.12-1.44,12.32-1.52,3.04-.08,3.92.56,2.72,1.92-1.52,1.44-2.8,2.24-4,2.4Z"/>
      <path class="cls-2" d="m647.31,214.94c-.48-.56-.56-1.04-.24-1.6.24-.56,1.6-2.4,3.92-5.52,2.24-3.04,6.16-8.16,11.52-15.52,5.44-7.28,10.8-13.28,16.08-18,5.2-4.56,8-6.56,8.4-5.68.32.88.48,1.52.48,1.92s-1.36,1.6-3.92,3.52c-2.56,1.84-6,5.2-10.32,10.16-.88,12.72-.64,22.32.72,28.64,1.28,6.4,1.92,9.76,2.08,10,.16.32-.16.72-.8,1.12-.8.4-1.6.4-2.4,0s-1.68-3.84-2.64-10.24c-.96-6.32-1.28-14.72-.88-25.12-5.84,6.88-11.28,14.24-16.24,22.16,0,1.12-.88,2.24-2.56,3.44-1.68,1.04-2.72,1.28-3.2.72Z"/>
      <path class="cls-2" d="m757.07,212.7c4.32,2.88,6.48,4.72,6.56,5.28.08.72-.4,1.2-1.36,1.6-1.12.4-3.84-1.12-8.24-4.48-4.4-3.28-10.88-6.72-19.44-10.24-4.16,6.08-7.12,10.56-8.88,13.76-1.84,3.2-3.04,5.12-3.44,5.68-.48.56-1.04.8-1.6.64-.64-.08-1.12-.4-1.44-.8-.32-.48.24-2.16,1.76-4.96,1.44-2.72,5.2-8.48,11.12-17.2,5.84-8.64,10.32-15.76,13.44-21.12,3.04-5.44,4.24-8.8,3.68-10.16-12.4,3.6-21.36,6.88-26.8,9.92-5.52,3.04-8.64,4.4-9.36,4.24-.72-.16-1.28-.64-1.52-1.52-.32-.88.4-1.6,2-2.08,1.68-.4,4.96-2.08,10-4.8,5.12-2.72,13.36-5.6,24.88-8.64,2.08-.56,3.84.32,4.96,2.88,0,2.64-.8,5.04-2.24,7.28-1.52,2.32-6.24,10-14.32,23.2,9.2,4.8,15.92,8.64,20.24,11.52Z"/>
    </g>
  </g>
</svg>