<?xml version="1.0" encoding="UTF-8"?>
<svg id="Layer_2" data-name="Layer 2" xmlns="http://www.w3.org/2000/svg" viewBox="0 0 645.3 221.51">
  <defs>
    <style>
      .cls-1, .cls-2 {
        fill: #fff;
      }

      .cls-3, .cls-4 {
        fill: #65b7ec;
      }

      .cls-3, .cls-5 {
        opacity: .8;
      }

      .cls-2 {
        stroke: #fff;
      }

      .cls-2, .cls-4 {
        stroke-linecap: round;
        stroke-linejoin: round;
        stroke-width: .63px;
      }

      .cls-4 {
        stroke: #65b7ec;
      }

      .cls-6 {
        opacity: .75;
      }
    </style>
  </defs>
  <g id="_文字" data-name="文字">
    <g class="cls-6">
      <polygon class="cls-1" points="645.3 73.74 645.3 0 129.1 0 169.66 36.87 129.1 73.74 645.3 73.74"/>
    </g>
    <g class="cls-5">
      <path class="cls-4" d="m223.59,31.79c-.21-3.69-.37-6.44-.45-8.24-.08-1.8-.08-2.79-.04-2.95.04-.16.25-.25.57-.25.29,0,.53.12.66.33.12.21.25,1.15.29,2.79.04,1.64.29,4.22.66,7.63,1.64-1.11,3.08-1.68,4.26-1.8,1.19-.12,1.8.04,1.84.49.04.49-.08.74-.33.74s-.94.21-2.17.61c-1.19.37-2.62,1.03-4.35,1.97-1.31,4.43-2.21,7.42-2.54,9.02,1.27-.61,2.62-1.27,4.1-1.93,1.48-.62,2.79-.7,3.94-.29,1.15.45,1.56,2.05,1.23,4.76-.33,2.67-1.02,4.96-2.17,6.77-1.11,1.8-1.89,2.83-2.26,3.08-.41.25-.7.25-.86.04-.16-.21-.37-.49-.57-.78-.25-.25-.29-.49-.08-.66.16-.16.49-.33,1.02-.49s1.11-1.11,1.89-2.91c.74-1.8,1.23-3.32,1.52-4.67.29-1.31.16-2.5-.33-3.61-2.58-.21-5.25.74-7.83,2.87-.98,4.47-1.48,7.38-1.6,8.65s-.25,2.05-.45,2.3c-.21.21-.45.37-.74.45-.25.08-.49,0-.62-.21-.12-.16.12-2.09.7-5.7.61-3.61,1.93-8.9,3.98-15.91-3.4,1.64-5.41,2.54-5.99,2.62-.62.04-.98.04-1.15-.04-.16-.12-.25-.29-.29-.53s.08-.41.29-.53c2.62-.98,5.25-2.21,7.87-3.61Zm19.31-1.85c-.86,1.64-2.09,3.73-3.73,6.19.04.04.12.16.25.37.12.16,1.27,1.64,3.44,4.35.33-.7,1.19-1.76,2.5-3.2,1.31-1.43,2.09-2.25,2.3-2.46.16-.2.49-.25.98-.12.33.49.21,1.03-.41,1.6-.57.62-1.31,1.44-2.17,2.42-.82.98-1.48,2.05-1.89,3.12.41.37,1.23,1.15,2.38,2.34,1.15,1.15,2.17,2.17,2.99,2.91.86.78,1.72,1.56,2.75,2.42.98.82,1.56,1.35,1.76,1.56s.25.45.21.66c-.04.25-.16.37-.29.41s-.37-.04-.74-.21-1.15-.7-2.46-1.72c-1.35-.98-2.46-1.89-3.36-2.67-.94-.82-1.84-1.72-2.79-2.75-.9-.98-1.97-2.17-3.16-3.53-1.19-1.39-1.97-2.25-2.29-2.71,0,.12-.04.37-.04.74-.04.33-.08.86-.08,1.48,0,.57,0,1.84-.04,3.69s0,3.2.08,4.02c.04.86.12,1.72.25,2.58.12.82.12,1.52.08,1.97-.04.41-.21.7-.45.82-.29.12-.49.04-.62-.16s-.25-.45-.29-.78c-.04-.33-.21-1.8-.45-4.43-.21-2.58-.29-4.47-.25-5.54.04-1.11.08-2.13.12-3.07.04-.9.08-1.52.08-1.72-1.56,2.38-2.38,3.61-2.58,3.77s-.37.25-.53.29-.33-.04-.45-.21c-.16-.16-.25-.37-.29-.66-.04-.25,0-.45.04-.66s.7-1.15,2.01-2.87c1.35-1.72,2.62-3.73,3.85-5.99,1.23-2.26,2.13-3.77,2.62-4.55l-6.89,3.2c-.04.53.04,1.11.29,1.76.21.62.04,1.03-.62,1.23-.66.21-1.07-.04-1.35-.66-.29-.57-.29-1.15,0-1.64.16-4.14.53-7.17,1.15-9.06.62-1.89.94-2.95,1.07-3.12.12-.2.33-.29.61-.33s.62,0,.9.04c.25.04.33.25.16.53-.12.33-.41,1.23-.86,2.67s-.86,3.69-1.27,6.72c4.8-2.13,8.45-3.77,10.87-4.88,2.46-1.15,3.73-1.72,3.81-1.85s.25.04.45.45c.21.37.29.7.21.98s-.45.7-1.11,1.27c-.62.62-1.07.82-1.27.62s-.29-.41-.25-.7l-3.61,1.68.08.08c-.29.53-.82,1.64-1.72,3.28Z"/>
      <path class="cls-4" d="m286.56,24.16c1.56-.04,2.38.12,2.46.53.04.45-.16.9-.66,1.35-.53.41-.82.29-1.02-.45-2.71.29-5.21.74-7.58,1.39.29,3.07.29,6.07-.08,8.98,1.89,3.73,2.58,7.13,1.97,10.29-.61,3.16-1.19,5.12-1.72,5.9-.57.86-.94,1.27-1.15,1.27-.25,0-.57-.12-.94-.41-.41-.33,0-1.56,1.19-3.85,1.15-2.3,1.19-5.82.08-10.7-.9,2.25-2.09,4.26-3.65,6.07-1.56,1.8-3.12,2.83-4.51,3.12s-2.34.37-2.87.25-.94-.62-1.39-1.35c-.45-.78-.45-1.89-.08-3.36,3.16-5.04,6.93-7.67,11.36-7.79.45-2.67.45-5.37,0-7.95-5.29.9-10.41,2.46-15.33,4.67-.57.25-1.11.21-1.48-.16s-.25-.66.37-.94c1.6-1.15,3.94-2.13,7.01-3.03,3.03-.86,6.07-1.64,9.14-2.21-.21-.86-.49-1.56-.94-2.17-.45-.61-.66-1.11-.62-1.56.04-.45.37-.66.98-.66,1.02.78,1.84,2.09,2.42,4.02,3.12-.78,5.49-1.15,7.05-1.23Zm-12.26,18.9c1.27-1.84,2.25-3.73,2.99-5.66-2.5.08-4.63.98-6.4,2.79-1.76,1.8-2.67,3.24-2.79,4.39-.12,1.11.21,1.68.9,1.72,2.25-.29,4.02-1.35,5.29-3.24Z"/>
      <path class="cls-4" d="m320.3,36.14c1.11,3.77.66,7.34-1.39,10.78-3.65,3.85-7.13,5.78-10.5,5.74-3.36,0-4.96-.66-4.84-1.89.12-1.23.53-2.3,1.31-3.12.74-.86,2.25-1.93,4.55-3.32,2.3-1.39,5.04-1.11,8.28.78,1.35-2.75,1.64-5.49.82-8.24-.25-1.64-1.93-2.58-5.08-2.79-3.2-.21-5.66.57-7.54,2.3-1.89,1.72-3.16,2.95-3.85,3.65-.7.74-1.23,1.02-1.52.86s-.49-.45-.57-.86c-.08-.37,0-.7.21-.9.21-.2,1.15-1.31,2.79-3.36,1.64-2.05,3.69-5.45,6.27-10.13,0-.7-.25-1.07-.78-1.11-.49-.08-1.35.08-2.5.57-1.19.53-2.21,1.19-3.04,2.13-.86.9-1.43,1.31-1.76,1.11-.37-.16-.49-.45-.41-.98.04-.49.78-1.27,2.25-2.38,1.44-1.07,2.83-1.84,4.18-2.25,1.35-.45,2.42-.33,3.12.33.7.7.82,1.84.33,3.48s-1.8,4.06-3.98,7.22c6.68-2.58,11.23-1.84,13.65,2.38Zm-3.85,10.74c-2.17-1.6-4.14-1.93-5.86-1.07-1.76.9-2.99,1.68-3.77,2.38-.74.66-1.15,1.56-1.15,2.54,4.3.7,7.87-.57,10.78-3.85Z"/>
      <path class="cls-4" d="m357,32.57c.61,1.03-.12,3.16-2.13,6.31-2.05,3.16-3.81,6.11-5.25,8.69-1.43,2.58-2.46,4.14-3.03,4.47-.62.37-1.03.53-1.23.45-.25-.04-.41-.33-.49-.78-.12-.45.66-1.89,2.42-4.35,1.72-2.42,3.57-5.37,5.54-8.77,1.93-3.4,2.62-5.37,2.21-5.78-2.71-1.27-6.6-.53-11.73,2.13-5.12,2.71-7.79,4.1-7.99,4.26-.25.21-.49.25-.66.16-.21-.08-.45-.25-.66-.45-.25-.21-.29-.57-.12-.98.12-.45.37-.7.66-.7.25,0,2.79-1.15,7.46-3.49,4.67-2.34,8.36-3.4,11.03-3.2,1.64,0,2.95.7,3.98,2.01Zm-4.22-8.08c-.62.08-.94-.08-.9-.57-5.29.61-9.23,1.27-11.69,2.09-2.42.82-3.81,1.27-3.98,1.31-.21.08-.53,0-.9-.2-.37-.21-.57-.41-.57-.57,0-.12.12-.41.37-.86.21-.45.74-.7,1.56-.74.82-.04,2.09-.25,3.9-.57,1.76-.37,3.98-.78,6.56-1.31,2.62-.45,4.67-.74,6.31-.78,1.56-.04,2.01.29,1.39.98-.78.74-1.43,1.15-2.05,1.23Z"/>
      <path class="cls-4" d="m379.1,29.57c-.25-.21-1.31-.41-3.07-.57-1.8-.12-3.44-.37-5-.7-1.56-.33-2.46-.62-2.71-.9-.29-.29-.16-.61.37-1.07.45-.41,1.03-.45,1.64-.12.57.29,1.72.49,3.4.62,1.68.12,3.2.29,4.59.53,1.35.25,2.13.62,2.3,1.07.12.49-.04.9-.57,1.23-.33.12-.66.08-.94-.08Zm16.03,5.17c.21.33.16.7-.04,1.07-.25.37-2.05,1.8-5.37,4.31-3.36,2.54-6.85,4.63-10.5,6.35-3.61,1.72-5.74,2.58-6.35,2.58s-.86-.29-.66-.86c.12-.61.61-.94,1.39-1.07.74-.12,1.52-.33,2.21-.61,6.56-3.44,12.71-7.42,18.49-11.93.33-.25.61-.21.82.16Z"/>
      <path class="cls-4" d="m408.95,43.02c-2.25.9-3.44,1.31-3.57,1.23-.16-.08-.37-.37-.57-.86-.16-.41.94-1.07,3.44-1.89,2.54-.82,6.23-1.93,11.15-3.36.12-3.16-.41-6.03-1.56-8.69-.16-.29-.16-.57,0-.82.16-.2.49-.41.9-.57.45-.08.82.04,1.11.57.25.53.49,1.56.78,3.12s.49,3.53.7,5.86c5.82-1.64,8.86-2.34,9.02-2.01.08.37.08.7,0,.94-.16.29-.45.49-.9.57-.45.08-3.2.82-8.28,2.17.29,3.44.04,6.11-.74,8-.74,1.89-1.64,3.32-2.58,4.31-1.03.98-1.64,1.6-1.97,1.84-.33.16-.66.16-.94-.12-.37-.33-.29-.82.16-1.48.49-.7,1.35-1.68,2.54-2.91,1.15-1.23,1.76-4.22,1.76-9.02-4.76,1.19-8.24,2.21-10.46,3.12Zm-2.67-12.71c-.21-.61,1.35-1.6,4.63-3.08,3.28-1.48,6.44-2.87,9.47-4.22,3.08-1.31,4.76-1.89,5-1.76.29.16.41.37.37.66-.08.29-.33.66-.66.98-.37.37-.7.66-.9.78-.25.16-.94.25-2.13.25-5.08,2.21-9.96,4.55-14.72,7.09-.53.12-.9-.08-1.07-.7Z"/>
      <path class="cls-4" d="m480.57,30.31c.66-.12,1.35-.25,2.17-.33.78-.08,1.44.08,1.93.53.45.45.66,1.23.62,2.5-.04,1.23-.41,2.25-1.03,3.2-.66.9-1.15,1.48-1.48,1.76-.37.25-1.11.33-2.17.29-1.07-.04-2.21.04-3.32.33-.12,1.64-.21,3.03-.25,4.02,3.4-.7,5.49-1.11,6.19-1.23.74-.12,1.85-.21,3.4-.21s2.67.21,3.24.61c.62.45,1.11,1.19,1.48,2.17.33,1.02.41,2.05.21,3.12-.16,1.11-.53,2.46-1.11,4.1s-1.11,2.91-1.68,3.77c-.57.82-.98,1.23-1.27,1.11-.29-.12-.33-.53-.04-1.27.29-.78.57-1.48.86-2.25.33-.74.66-1.6.94-2.5.29-.94.53-2.05.66-3.28.16-1.27,0-2.21-.45-2.87-.49-.62-1.39-.98-2.62-1.07-1.23-.08-2.21-.04-2.95.08-.74.12-1.93.41-3.61.74-1.68.37-2.79.66-3.4.82-.12,1.11-.25,2.71-.37,4.8-.12,2.09-.21,3.53-.25,4.35-.04.86,0,1.56.08,2.13.08.61-.04,1.02-.33,1.27-.33.29-.66.16-.94-.29-.29-.49-.45-.94-.45-1.35,0-.37.04-1.02.08-1.85.04-.86.12-2.09.16-3.65s.12-2.99.16-4.14c-.29.29-.7.7-1.39,1.27-.7.62-2.58,2.3-5.74,5.08-3.16,2.83-4.92,4.26-5.29,4.3-.33.04-.57-.16-.7-.61-.12-.45.94-1.6,3.2-3.44,2.25-1.84,4.02-3.36,5.33-4.59s2.25-2.09,2.75-2.58c-1.07.12-2.17.25-3.24.45-1.07.21-1.76,0-1.97-.57-.21-.62-.25-.98-.04-1.19s.45-.66.78-1.48c.33-.78.41-1.39.25-1.85-.16-.45-.29-.86-.33-1.39-.04-.53.82-.9,2.71-1.15,1.89-.29,3.28-.53,4.26-.74.12-.78.21-1.52.25-2.13.04-.57.12-1.07.25-1.43.08-.37.21-.62.37-.9-3.57.66-5.62,1.07-6.15,1.11-.53.04-.9-.2-1.02-.74-.16-.49,2.01-1.15,6.64-1.89,2.42-.49,3.98-.82,4.63-.94Zm-14.11-8.32c-.2.86-.29,1.85-.16,3.08,3.2-1.64,5.7-2.83,7.42-3.53,1.72-.66,2.67-.94,2.87-.82.21.12.29.33.29.49,0,.21-.08.45-.29.66-.21.2-1.27.78-3.24,1.68-.45,2.09-.41,3.85.08,5.29s.53,2.3.08,2.5c-.45.16-.9-.33-1.48-1.6-.57-1.23-.78-3.08-.61-5.45-.82.29-1.6.61-2.21.9-.66.29-1.64.82-2.99,1.48.12,1.27.29,2.25.57,3.08.29.86.12,1.35-.49,1.48-.57.12-.94.04-1.07-.33-.12-.37-.33-1.52-.53-3.57-.21-2.05-.12-4.06.29-6.03.41-1.93.86-3.03,1.27-3.24.45-.2.74.16.78,1.03-.16,1.11-.37,2.05-.57,2.91Zm3.77,17.96c.37.61.49,1.31.33,2.09-.16.82-.45,1.48-.9,2.09,1.27-.29,3.07-.66,5.54-1.11.04-.61.12-1.27.16-1.97.04-.74.12-1.44.16-2.13-2.83.61-4.59.94-5.29,1.02Zm7.54-7.42c-.12.98-.21,2.42-.33,4.31,1.27.04,2.83-.04,4.63-.25.9-1.07,1.39-1.89,1.52-2.58.12-.7.04-1.48-.25-2.46-1.6.21-3.48.53-5.58.98Zm8.57-9.31c-.82.29-1.68.53-2.58.74s-1.68.12-2.34-.33c-.98-1.39-1.48-2.54-1.39-3.53.08-.94.25-1.6.45-1.97.21-.37.49-.53.82-.61.37-.08.7,0,.98.21.29.16.25.7-.21,1.48-.45.74-.25,1.93.57,3.4.49.12,1.64-.21,3.36-.9,1.48-.78,3.08-1.72,4.72-2.79.66-.29,1.02-.12,1.19.45.16.53-.12.86-.78.98-.98.37-1.89.98-2.75,1.84-.33,1.76-.62,3.12-.78,4.06-.16.98-.49,1.56-.94,1.72-.41.21-.62,0-.57-.49-.04-1.23.04-2.67.25-4.26Z"/>
      <path class="cls-4" d="m522.84,21.99c.21-.37.49-.53.94-.53s.74.25.9.78c-1.07,1.56-2.91,4.39-5.58,8.61-2.71,4.18-5,8.53-6.97,12.96-1.97,4.47-3.08,6.93-3.36,7.38-.29.45-.78.74-1.43.9-.7.16-.9-.12-.7-.78,4.31-10.46,9.68-20.21,16.2-29.32Z"/>
      <path class="cls-4" d="m535.31,29.12c-.41-.25.29-1.15,2.13-2.83,1.84-1.64,4.72-2.87,8.61-3.77,2.17-.53,3.36-.49,3.57.12.21.57.25,1.56.16,2.79s-.53,2.58-1.35,4.02c-.86,1.39-1.43,2.01-1.76,1.89-.37-.16-1.11.04-2.34.62-1.23.61-2.83,1.84-4.8,3.77-.53,1.89-.74,3.85-.62,5.9,1.8-.41,3.53-1.11,5.17-2.01,1.64-.94,3.28-1.07,4.96-.37,1.11.78,1.72,1.8,1.93,3.03s-.12,2.99-.94,5.37c-.9,2.38-1.84,4.39-2.87,6.11-1.07,1.72-1.72,2.62-2.05,2.67s-.53-.04-.62-.21c-.12-.16-.16-.37-.21-.66-.04-.25.25-.66.78-1.23.49-.57,1.27-1.8,2.26-3.73,1.02-1.93,1.68-4.02,2.05-6.4.33-2.38-.45-3.57-2.42-3.61-3.16,1.07-5.45,1.89-6.81,2.46-1.44.53-2.25.78-2.62.74-.37-.04-.53-.7-.53-2.01s.37-2.95,1.11-5.04c-.37-.25-.57-.61-.66-1.07-.12-.45.04-.78.49-.9,2.46-2.09,5.49-4.06,9.14-5.86.21-.94.53-1.8.9-2.67.37-.9.33-1.72-.08-2.38-4.84.49-8.73,2.25-11.56,5.29-.25.21-.57.21-1.03-.04Zm16.2,24.4c-.21-.33-.25-.66-.12-1.02.08-.37,3.16-1.89,9.27-4.59-.04-1.93-.08-3.81-.08-5.7-2.09.78-3.61,1.35-4.59,1.8-.94.45-1.6.45-1.89-.04-.29-.49.16-.94,1.48-1.39,1.23-.45,2.91-1.11,5-1.97.04-1.31.04-2.91,0-4.8-2.38.98-4.43,2.17-6.07,3.44.41.78.78,1.23,1.07,1.31.25.08.33.29.25.66-.12.37-.45.66-.9.94s-1.11-.66-2.01-2.91c-.9-2.25-1.15-5.29-.7-9.14,0-.57.25-.94.86-1.07.57-.12,1.23-.41,2.09-.86.78-.41,1.89-.82,3.2-1.27-1.76-.33-2.99-1.23-3.69-2.79-.45-.82-.86-1.6-1.35-2.46-.53-.82-.61-1.39-.25-1.76.37-.37.66-.45.94-.33.25.12.49.49.7,1.07.21.53.53,1.39.98,2.46.41,1.11,1.35,2.05,2.83,2.87.74-.16,1.03,0,.74.45,1.76-.29,3.65-.49,5.66-.61-.49-.16-.61-.41-.53-.78.12-.37.41-1.07.86-2.17-.12-1.44.04-2.3.49-2.75.41-.45.78-.66.98-.66s.37.16.45.45.04.94-.16,1.89c-.21.98-.7,2.3-1.44,4.02,1.85.37,3.08,1.07,3.77,2.09.62.98.94,2.5.9,4.47-.04,1.97-.53,4.02-1.43,6.07-.94,2.09-1.43,3.2-1.64,3.32s-.41.21-.7.25-.45-.12-.66-.45c-.21-.37-.08-.82.33-1.44-1.11.33-2.34.78-3.69,1.31.04,2.75,0,4.63-.04,5.58,5.54-2.54,8.53-3.69,8.86-3.48.33.25.45.53.41.9-.08.37-.29.53-.62.53-.37,0-3.24,1.23-8.57,3.73-.12,2.3-.04,4.06.12,5.29.21,1.27.25,1.93.12,2.05-.12.12-.41.29-.94.45s-.86-.45-.94-1.76c-.16-1.31-.25-2.99-.21-4.96-2.79,1.23-5.12,2.26-7.05,3.2-1.23.66-1.89.86-2.09.57Zm9.72-25.34c.37-.41.7-.45.98-.12.29.37.41.98.33,1.89-.08.94-.12,2.01-.12,3.28,2.01-.9,4.14-1.56,6.36-1.97-.21-.82-.45-1.6-.78-2.25-.29-.7-.94-1.19-1.89-1.52-3.94-.86-8.08.37-12.42,3.69-.41,2.01-.33,4.06.29,6.15,2.34-1.15,4.51-2.3,6.56-3.28.12-3.48.37-5.41.7-5.86Zm-1.27-5.9c-.16-.98-.29-1.72-.41-2.3-.12-.57-.16-.94-.04-1.23.08-.29.29-.45.66-.53.33-.08.62.08.82.53s.33,1.07.29,1.97c-.04.86.33,2.01,1.07,3.4.57,0,.94.08,1.07.21s.12.25,0,.37-.41.25-.82.33c-.45.08-.78.04-1.07-.12-.86-.78-1.39-1.68-1.56-2.62Zm8.61,10.41c-2.09.82-4.14,1.6-6.11,2.21-.04,1.76-.08,3.4-.04,5,1.39-.66,2.95-1.27,4.76-1.76.82-1.8,1.31-3.65,1.39-5.45Z"/>
    </g>
    <polygon class="cls-3" points="645.08 221.51 645.08 98.74 0 98.74 67.53 160.12 0 221.51 645.08 221.51"/>
    <g>
      <path class="cls-2" d="m220.42,143.92c.36.3-.12,2.28-1.32,6-1.26,3.66-2.34,8.22-3.36,13.5-1.02,5.34-1.38,8.4-1.26,9.18.06.78-.18,1.2-.72,1.38-.54.18-1.2.12-1.8-.18-.66-.3-.48-2.94.54-8.04,1.02-5.1,2.46-11.34,4.38-18.78.36-1.26.96-2.28,1.68-2.94.9-.36,1.44-.42,1.86-.12Zm26.4,25.98c-.66-1.56-1.32-4.8-2.1-9.66-.72-4.86-1.92-10.8-3.42-17.76,0-.66.12-1.26.36-1.62.24-.42.72-.48,1.5-.18.78.24,1.26.78,1.44,1.44,1.08,9.3,2.88,18.6,5.52,27.72.6.66.3,1.2-.78,1.68-1.14.48-1.98-.06-2.52-1.62Z"/>
      <path class="cls-2" d="m280.06,145.78c-.36-.3-1.92-.6-4.5-.84-2.64-.18-5.04-.54-7.32-1.02-2.28-.48-3.6-.9-3.96-1.32-.42-.42-.24-.9.54-1.56.66-.6,1.5-.66,2.4-.18.84.42,2.52.72,4.98.9s4.68.42,6.72.78c1.98.36,3.12.9,3.36,1.56.18.72-.06,1.32-.84,1.8-.48.18-.96.12-1.38-.12Zm23.46,7.56c.3.48.24,1.02-.06,1.56-.36.54-3,2.64-7.86,6.3-4.92,3.72-10.02,6.78-15.36,9.3-5.28,2.52-8.4,3.78-9.3,3.78s-1.26-.42-.96-1.26c.18-.9.9-1.38,2.04-1.56,1.08-.18,2.22-.48,3.24-.9,9.6-5.04,18.6-10.86,27.06-17.46.48-.36.9-.3,1.2.24Z"/>
      <path class="cls-2" d="m327.76,158.98c.06,5.58.6,11.04,1.74,16.38.06,1.2-.3,1.86-1.02,1.92-.66.12-1.14-.24-1.32-1.08-1.74-10.2-2.28-18.42-1.86-24.84.36-6.3.72-10.44.9-12.48-.12-1.02.3-1.62,1.2-1.74.84-.12,1.32.3,1.26,1.2-.78,5.88-1.02,11.94-.9,18.12,2.88.06,6.06-.24,9.42-.84,3.3-.66,6-1.02,8.16-1.08,2.22-.06,3.24.06,3.24.36s-.3.84-.84,1.44c-.6.66-1.86.84-3.72.54-5.22.54-10.62,1.26-16.26,2.1Z"/>
      <path class="cls-2" d="m385.66,145.78c-.36-.3-1.92-.6-4.5-.84-2.64-.18-5.04-.54-7.32-1.02-2.28-.48-3.6-.9-3.96-1.32-.42-.42-.24-.9.54-1.56.66-.6,1.5-.66,2.4-.18.84.42,2.52.72,4.98.9s4.68.42,6.72.78c1.98.36,3.12.9,3.36,1.56.18.72-.06,1.32-.84,1.8-.48.18-.96.12-1.38-.12Zm23.46,7.56c.3.48.24,1.02-.06,1.56-.36.54-3,2.64-7.86,6.3-4.92,3.72-10.02,6.78-15.36,9.3-5.28,2.52-8.4,3.78-9.3,3.78s-1.26-.42-.96-1.26c.18-.9.9-1.38,2.04-1.56,1.08-.18,2.22-.48,3.24-.9,9.6-5.04,18.6-10.86,27.06-17.46.48-.36.9-.3,1.2.24Z"/>
      <path class="cls-2" d="m458.62,150.16c.9,1.5-.18,4.62-3.12,9.24-3,4.62-5.58,8.94-7.68,12.72s-3.6,6.06-4.44,6.54c-.9.54-1.5.78-1.8.66-.36-.06-.6-.48-.72-1.14-.18-.66.96-2.76,3.54-6.36,2.52-3.54,5.22-7.86,8.1-12.84,2.82-4.98,3.84-7.86,3.24-8.46-3.96-1.86-9.66-.78-17.16,3.12-7.5,3.96-11.4,6-11.7,6.24-.36.3-.72.36-.96.24-.3-.12-.66-.36-.96-.66-.36-.3-.42-.84-.18-1.44.18-.66.54-1.02.96-1.02.36,0,4.08-1.68,10.92-5.1s12.24-4.98,16.14-4.68c2.4,0,4.32,1.02,5.82,2.94Zm-6.18-11.82c-.9.12-1.38-.12-1.32-.84-7.74.9-13.5,1.86-17.1,3.06-3.54,1.2-5.58,1.86-5.82,1.92-.3.12-.78,0-1.32-.3-.54-.3-.84-.6-.84-.84,0-.18.18-.6.54-1.26.3-.66,1.08-1.02,2.28-1.08s3.06-.36,5.7-.84c2.58-.54,5.82-1.14,9.6-1.92,3.84-.66,6.84-1.08,9.24-1.14,2.28-.06,2.94.42,2.04,1.44-1.14,1.08-2.1,1.68-3,1.8Z"/>
      <path class="cls-2" d="m480.22,171.4c-.36-.42-.42-.78-.18-1.2.18-.42,1.2-1.8,2.94-4.14,1.68-2.28,4.62-6.12,8.64-11.64,4.08-5.46,8.1-9.96,12.06-13.5,3.9-3.42,6-4.92,6.3-4.26.24.66.36,1.14.36,1.44s-1.02,1.2-2.94,2.64c-1.92,1.38-4.5,3.9-7.74,7.62-.66,9.54-.48,16.74.54,21.48.96,4.8,1.44,7.32,1.56,7.5.12.24-.12.54-.6.84-.6.3-1.2.3-1.8,0-.6-.3-1.26-2.88-1.98-7.68-.72-4.74-.96-11.04-.66-18.84-4.38,5.16-8.46,10.68-12.18,16.62,0,.84-.66,1.68-1.92,2.58-1.26.78-2.04.96-2.4.54Z"/>
      <path class="cls-2" d="m562.54,169.72c3.24,2.16,4.86,3.54,4.92,3.96.06.54-.3.9-1.02,1.2-.84.3-2.88-.84-6.18-3.36-3.3-2.46-8.16-5.04-14.58-7.68-3.12,4.56-5.34,7.92-6.66,10.32-1.38,2.4-2.28,3.84-2.58,4.26-.36.42-.78.6-1.2.48-.48-.06-.84-.3-1.08-.6-.24-.36.18-1.62,1.32-3.72,1.08-2.04,3.9-6.36,8.34-12.9,4.38-6.48,7.74-11.82,10.08-15.84,2.28-4.08,3.18-6.6,2.76-7.62-9.3,2.7-16.02,5.16-20.1,7.44-4.14,2.28-6.48,3.3-7.02,3.18-.54-.12-.96-.48-1.14-1.14-.24-.66.3-1.2,1.5-1.56,1.26-.3,3.72-1.56,7.5-3.6,3.84-2.04,10.02-4.2,18.66-6.48,1.56-.42,2.88.24,3.72,2.16,0,1.98-.6,3.78-1.68,5.46-1.14,1.74-4.68,7.5-10.74,17.4,6.9,3.6,11.94,6.48,15.18,8.64Z"/>
    </g>
  </g>
</svg>