<?xml version="1.0" encoding="UTF-8"?>
<svg id="Layer_2" data-name="Layer 2" xmlns="http://www.w3.org/2000/svg" viewBox="0 0 402.73 53.71">
  <defs>
    <style>
      .cls-1 {
        fill: #65b7ec;
        stroke: #65b7ec;
        stroke-linecap: round;
        stroke-linejoin: round;
        stroke-width: .85px;
      }

      .cls-2 {
        opacity: .8;
      }
    </style>
  </defs>
  <g id="_文字" data-name="文字">
    <g class="cls-2">
      <path class="cls-1" d="m9.89,35.29c.77-.99,1.82-2.09,3.08-3.24,1.32-1.21,2.31-1.81,3.03-1.87.71-.06,1.21.11,1.32.55.16.5.05.77-.28.83-.38.05-1.38.77-2.86,2.09-1.49,1.32-2.97,2.92-4.29,4.67-.16,3.85-.22,6.82-.22,8.85s-.11,3.24-.38,3.63c-.28.33-.66.38-1.1.22-.5-.11-.66-1.15-.44-2.97.22-1.81.22-4.45,0-7.92-2.58,1.87-4.29,3.13-5.17,3.85-.88.66-1.43.82-1.71.55s-.44-.6-.38-1.1.77-1.16,2.09-1.92c1.32-.83,3.13-2.2,5.28-4.18v-19.74c-2.31,1.1-4.02,1.81-5.12,2.25-1.15.44-1.81.38-2.2-.22-.38-.61.22-1.16,1.65-1.87s3.35-1.54,5.66-2.64c.16-4.95.27-8.19.33-9.79.11-1.54.22-2.53.27-2.75.06-.27.33-.38.83-.33.49.05.77.33.82.66.05.39.11,1.38.11,2.86s-.05,4.23-.22,8.3c3.13-1.59,5.39-2.75,6.76-3.46,1.32-.71,2.09-.66,2.14.28.05.93-.11,1.26-.61,1.1-.49-.11-3.24,1.38-8.3,4.46-.17,8.58-.17,14.85-.11,18.86Zm16.77-6.54c3.41-1.21,6.32-2.2,8.63-2.97,2.31-.71,4.29-1.32,5.94-1.81,1.65-.49,2.69-.66,3.08-.66s.66.06.94.11c.28,0,.49.17.77.39.28.22.33.44.28.6s-.22.38-.44.55c-.22.17-.5.28-.77.22-.27-.05-.49-.05-.77,0-.27.06-.71.17-1.32.33-.55.17-1.65.5-3.13,1.04-1.54.55-3.52,1.21-5.94,1.98.05.94.05,1.98-.11,3.19-.16,1.16-.33,2.86-.49,5,2.14-.88,3.52-1.49,4.23-1.82.66-.27,1.15-.49,1.54-.6.39-.11.77-.22,1.21-.27.49-.06.82-.06.99.05.16.11.27.44.33.93.05.55,0,.88-.06,1.04-.05.17-.27.17-.55.06-.28-.11-.66-.11-1.04.05-.44.16-1.71.6-3.69,1.26-1.98.71-3.02,1.1-3.19,1.1.06,1.98.17,4.12.22,6.43.44.16,1.54.44,3.08.88,1.54.44,3.63,1.04,6.1,1.98,2.42.88,4.02,1.38,4.62,1.54.55.17,1.16.28,1.76.33.55.06.94.17,1.21.22.27.05.44.22.49.49.05.28-.05.55-.38.83-.33.33-.66.5-.99.44-.38-.05-.93-.17-1.76-.44-.77-.27-1.38-.33-1.81-.33s-1.54-.33-3.35-.99c-1.87-.66-3.3-1.16-4.35-1.38-1.1-.28-2.37-.61-3.85-.94-1.43-.33-2.75-.66-3.85-1.04-1.15-.33-2.03-.77-2.75-1.26-.71-.5-1.76-1.32-3.24-2.47-.66,2.75-1.04,4.56-1.04,5.55,0,.93-.11,1.65-.38,2.09s-.49.6-.71.66c-.16.06-.38,0-.66-.11-.27-.05-.38-.44-.44-1.15s0-1.27.05-1.82.66-2.58,1.65-6.1c1.04-3.46,1.54-5.33,1.59-5.61.06-.27.22-.6.61-.99s.71-.5,1.04-.44c.33,0,.33.77-.05,2.2-.38,1.38-.71,2.69-1.1,4.01.61,0,1.32.22,2.09.66.82.38,1.54.82,2.04,1.32.55.5.99.77,1.32.93.33.11.77.28,1.32.5-.38-5.17-.49-8.36-.33-9.46.17-1.04.44-3.03.88-5.88-4.95,1.65-7.87,2.58-8.69,2.8-.88.22-1.48.38-1.76.44-.33.05-.61,0-.88-.27-.27-.28-.22-.66.17-1.26.44-.22,2.37-.88,5.72-2.14Zm-3.57-17.98c-.05-4.34.28-6.6,1.1-6.76.77-.17,1.21.05,1.27.66.05.55,0,1.49-.22,2.64,3.19-2.58,6.6-3.96,10.45-4.01,1.92.27,3.24.71,4.07,1.26.77.55,1.27,1.92,1.43,4.18.17,2.25-.44,5.5-1.76,9.62,1.04-.6,1.71-.77,1.87-.55.16.22.22.55.16.99-.05.38-1.04.93-2.91,1.59-1.04,2.2-1.93,2.97-2.58,2.14-2.7,1.1-4.89,1.76-6.71,1.92-1.76.17-2.64-.05-2.64-.55-2.31-4.46-3.46-8.8-3.52-13.14Zm3.13,6.71c3.57-2.2,7.31-4.12,11.27-5.67.44-.27.88-.17,1.48.28.28-1.76.28-3.19-.11-4.24-.38-.99-.71-1.7-1.04-2.09-5.12-.83-9.24.55-12.48,4.18,0,2.42.28,4.95.88,7.54Zm12.32-3.85c-3.9,1.54-7.86,3.46-11.93,5.66.44,1.32.94,2.36,1.43,3.24,2.86-.38,5.61-1.26,8.36-2.69,1.1-1.87,1.76-3.91,2.14-6.21Z"/>
      <path class="cls-1" d="m66.65,49.26v-1.32l-.44-.44.44-.38v-.5l-.5-.44v-.82l.5-.5v-.55l-.5-.44v-1.43l-.44-.5v-.27l.44-.5v-1.04l-.44-.49v-12.37l.44-.44v-2.75l.5-.44v-1.43l.49-.49v-2.8l.44-.38v-1.6l-.44-.49-.44.49v.5l-.5.5v.44l-.49.44v.5l-1.38,1.43v1.43h-.55l-.33.38v.5l-.5.44v.44l-.44.5v.44l-.49.44v.49l-.44.5v1.32l-.44.44v.44l-.49.44v.55l-.44.49v.5l.44.5v.38l-.99.99h-.5l-.44.44h-.33l-.55-.49v-.55l-.38-.27.38-.44v-.93l.44-.5v-.93l.49-.5v-.82l.44-.44v-.5l.44-.5v-.88l.99-.99v-.44l.44-.44v-.94l.94-.99v-.38l.44-.49v-.44l.93-.99v-.38l.44-.5v-.93l.93-.93v-.44l.94-.94v-.5l.44-.44v-.93l1.43-1.38v-.5l1.38-1.38v-.44l.5-.49v-.44l1.38-1.37v-.5l1.92-1.92h.44l.5-.5h.82l.49.55v1.76l-3.19,3.24v.44l-.99.93v.5l-1.82,1.87v.44l-.49.5v.55l.44.44.55-.55h.33l.44.49h.55v.61l.38.27-.38.44v.49l-.44.44v.5l-.44.49v1.32l-.49.44v2.37l-.44.5v.88l-.49.5v2.31l-.44.44v14.02l.44.5v3.19l.49.5v1.76l.94.93v1.32h-1.1l-.44.5h-1.16l-.16-.22-.44-.38Zm34.43-2.09h-.55l-1.38-1.38h-.44l-.55-.55v-.55l-.33-.33h-.49l-3.3-3.24h-.55v-.61l-.44-.44v-.44l-1.38-1.38v-.44l-.5-.5v-2.75l-.38-.44-.93.88v.44l-.5.49v.44l-.49.44v.49l-.38.5v.44l-.99.93v.44l-.44.49v.94l-.5.49v.38l-.88.99v.44l-.5.5v.44l-.44.44v1.87l-.55.55h-2.31v-.55l-.44-.44v-.33l.44-.44v-.99l.49-.44v-.5l.44-.44v-.49l1.38-1.38v-1.43l.99-.88v-.5l.44-.44v-.5l.49-.44v-.44l.44-.5v-.66l-.49-.44-.5.6h-.44l-.49.44h-1.38l-.94.99h-.49l-.38.38h-.55l-.44.5h-.38l-.88.93h-.49l-.49.5h-2.26v-.55l-.49-.49v-.33l.55-.55h.55l.44-.44h.38l.5-.5h.44l.49-.44h.55l.38-.49h.44l.88-.88h.88l.5-.5h.55l.44-.5h.44l.44-.44h.49l.5-.39-.61-.55v-4.23l-.49-.44v-9.68l-.39-.5v-1.81l-.44-.44h-1.04l-.49.5h-.38l-.5.5h-1.38l-.38.38h-.49l-.49.5h-.33l-.5-.5h-.44l-.55-.5v-.83l.55-.55h1.38l.49-.39h1.43l.44-.5h1.26l.5-.49h.49l.38-.38v-5.17h1.81l.55.55v1.38l.49.44v1.43l.33.38h1.04l.49-.44h.44l.44-.5h.94l.49-.49h.94l.38-.33v-.5l.44-.44v-1.43l.49-.44v-1.48h1.87v.55l.49.5v.33l-.49.44v1.1l.33.38h1.15l.44-.49h1.38l.44-.5h3.25v.55l.44.49v.77l-.55.55h-.82l-.44-.5h-1.04l-.5.5h-.93l-.44.5h-1.37l-.44.44h-.55l-.33.38v1.87l-.5.5v3.68l-.44.49v4.12l-.49.55.49.5v.33l-.44.5v2.25l-.5.44v1.59l.39.33h1.04l.93-.93h.99l.44-.44h.44l.5-.44h.44l.44-.44h.94l.49-.49h1.71l1.04.99v.33l-1.04.99h-.93l-.44.5h-1.43l-.44.44h-.49l-.44.49h-.99l-.44.44h-.38l-.49.44h-.44l-.5.49h-.55l-.38.5h-.44l-.44.44h-.49l-.83.82v1.1l.28.39h1.48l.99.93v.5l.44.5v.44l.99.94v.44l5.94,5.94h.44l.5.49h.49l.94.99v.5l.49.44v.33l-.55.44h-1.76l-.11-.17-.27-.17Zm-12.54-15.84h.38l.49-.44h.44l.88-.83v-6.93l.44-.5v-4.62l.5-.49v-1.98l-.38-.44.38-.28v-2.09l-.55-.44-.38.55h-1.43l-.49.5h-.88l-.49.5h-.55l-.77.88.44.49v.39l-.38.44v1.54l.28.38-.28.38v.55l.38.49v5.12l.5.49v5.44l.44.5v.55l.55.44.5-.61Z"/>
      <path class="cls-1" d="m124.51,24.02c-.17,4.02-.71,8.19-1.71,12.43-1.32,5.33-2.42,9.4-3.41,12.04-.94,2.58-1.54,4.07-1.76,4.29-.22.17-.49.33-.77.44-.28.17-.61,0-.99-.49-.38-.55.49-3.74,2.64-9.62,2.14-5.88,3.46-14.74,4.07-26.67-1.76.44-2.86.66-3.13.66s-.55-.11-.77-.27c-.28-.17-.28-.5-.11-.99.16-.5,1.92-1.38,5.28-2.58,3.41-1.27,8.36-2.97,14.85-5.06-2.09-1.7-3.52-3.08-4.29-4.18-.83-1.04-1.27-1.71-1.32-1.98-.05-.28,0-.66.28-1.04.27-.38.55-.55.88-.55s.61.11.88.22c.27.22,1.1,1.15,2.42,2.8,1.37,1.65,2.47,2.97,3.52,3.96,3.85-1.38,6.76-2.31,8.63-2.8,1.87-.49,3.24-.6,3.96-.44.77.16.71.77-.22,1.71-.88.99-1.48,1.37-1.87,1.15-.38-.22-3.02.38-7.86,1.87-4.89,1.49-11.22,3.69-18.86,6.65.22,2.75.11,5.61-.33,8.47Zm17.38-5v2.31c.38-.17,1.15-.44,2.25-.93,1.16-.5,2.26-.99,3.36-1.48,1.04-.44,1.87-.77,2.42-.94.55-.17,1.15-.38,1.87-.6.71-.17,1.32.05,1.71.71.44.66,0,1.1-1.21,1.43-1.26.33-3.19,1.04-5.72,2.09-2.53,1.1-4.12,1.76-4.78,1.87-.06,1.98-.06,3.41.05,4.4.11.94.28,2.31.49,3.96,2.59-1.32,5.28-2.31,8.08-3.08.88-.17,1.87-.06,2.8.33.99.38,1.71,1.21,2.14,2.31.77,3.63.5,7.53-.77,11.6.77.38.99.77.66,1.21-.38.5-.88.83-1.54.93-1.87,2.2-2.92,2.64-3.3,1.27-7.15,2.31-11.88,3.85-14.08,4.56-2.2.66-3.46.99-3.74.93-.22-.06-.44-.27-.61-.71-.17-.44.11-.88.88-1.32-2.09-5.06-3.02-8.8-2.97-11.27.05-2.42.28-3.69.71-3.79.44-.05.88.05,1.26.38.39.38.55.88.44,1.54-.11.66-.11,1.26.05,1.81,2.53-2.25,5.28-4.18,8.14-5.77-.38-1.65-.61-3.79-.71-6.49-.11-2.7-.05-5.33.11-8.03.17-2.7.66-4.07,1.49-4.12.77-.05.99.61.71,2.09-.17,1.32-.22,2.31-.22,2.8Zm11.66,15.95c-.16-2.36-.61-3.74-1.43-4.01s-3.03.22-6.65,1.59c-3.68,1.32-7.81,4.23-12.48,8.69.22,2.09,1.04,4.73,2.47,7.81,5.55-1.54,10.89-3.13,16.11-4.95,1.54-3.63,2.15-6.71,1.98-9.13Z"/>
      <path class="cls-1" d="m165.76,24.24c-.5-.66.05-2.92,1.48-6.71,1.48-3.79,3.08-7.2,4.73-10.12,1.71-2.8,2.7-4.45,3.03-4.67.28-.28.99,0,1.98.88,4.51,2.2,8.14,4.18,10.83,5.88,2.75,1.65,3.58,2.75,2.42,3.24-1.1.55-1.92.71-2.42.5-.44-.17-.66-.44-.55-.77.11-.27-.83-1.1-2.7-2.53-1.87-1.32-4.95-2.69-9.13-4.12-3.19,5.17-5.17,9.18-5.99,12.1-.77,2.91-.99,4.56-.66,4.95.33.44-.11,1.04-1.32,1.92-.66.27-1.21.11-1.71-.55Zm20.95,1.76c.83-.17,1.21.11,1.21.77s-.33,1.16-1.04,1.43c-.77.38-1.43.61-2.14.77-.71.17-2.14.66-4.46,1.54-2.31.93-4.62,1.81-6.88,2.64-2.25.88-3.52,1.21-3.79.99-.22-.22-.28-.61-.22-1.15,0-.44.66-.94,1.98-1.32,1.26-.38,2.97-1.04,5.11-1.92l.5-6.16c-2.75,1.04-4.95,2.14-6.6,3.35s-2.47,1.32-2.42.44c.05-.94.16-1.49.33-1.65.16-.22.38-.38.61-.49.16-.06.88-.44,2.2-1.16,1.26-.66,3.24-1.59,5.88-2.86.11-2.14.22-3.74.27-4.73.06-1.04.22-1.65.38-1.87.17-.17.55-.27.99-.27.5,0,.77.22.88.6.05.38,0,1.16-.17,2.25-.22,1.15-.27,2.14-.22,3.08.27-.22,1.26-.55,2.8-1.04,1.54-.44,2.2-.28,2.03.66-.16.93-.88,1.43-2.25,1.59-1.32.17-2.2.55-2.7,1.16l-.33,6.21,5.67-2.04c.71-.38,1.48-.66,2.36-.82Zm-16.22,22.77c-.16-2.14-.22-3.74-.28-4.89-.05-1.16.28-2.92.94-5.33.61-2.36,1.15-2.31,1.65.17.93-.55,1.92-1.1,3.08-1.54,1.1-.5,2.2-1.04,3.3-1.7,1.1-.61,2.25-1.04,3.63-1.21,1.32-.16,2.14.61,2.42,2.2.22,1.59.22,2.92-.16,3.79-.39.99-.55,2.31-.5,4.01.05,1.76-.61,2.2-1.98,1.43l-5.45,3.08-3.41,1.43c-2.03,1.1-3.13.71-3.24-1.43Zm2.14-.66l9.68-4.4c.71-2.36.99-4.23.93-5.5-.05-1.26-.66-1.76-1.87-1.48-1.21.33-4.12,1.87-8.69,4.73-.55,2.31-.55,4.51-.05,6.65Zm37.34-28.16c1.21,1.54,2.53,3.96,3.79,7.15,1.32,3.19,1.87,7.37,1.71,12.43-.17,5.12-.55,7.87-1.15,8.19-.61.28-.99.44-1.04.44-.11,0-.33-.5-.55-1.48-.33-.88-.28-2.31.11-4.18.55-3.58.55-7.04,0-10.39-3.41.88-6.05,2.42-8.03,4.4.27,2.91.49,5.28.66,7.04.16,1.76-.17,2.75-.94,2.8-.77,0-1.15-.66-1.32-2.2-.16-1.49-.38-3.74-.77-6.71-3.24,1.7-6.27,3.63-9.13,5.83.28,1.76.61,2.8,1.1,3.08.38.22.5.55.33.93-.11.38-.38.77-.77,1.16-.38.33-.71.49-.88.49-.22,0-.66-.66-1.26-2.09-.66-1.38-1.04-3.46-1.21-6.27-.6-6.05-.66-10.67-.11-13.75.61-3.08.99-4.73,1.21-4.89.17-.16.5-.16.94,0,.5.17.61.44.44.83-.22.38-.22.77,0,1.15,2.26-1.87,4.84-3.63,7.75-5.17-.27-2.53-.55-5-.71-7.42-3.19,1.21-5.55,2.14-7.15,2.75-1.54.61-2.47.66-2.64.22-.22-.5-.28-.77-.17-.88.11-.11,1.04-.49,2.8-1.1,1.76-.55,4.12-1.54,7.21-2.97-.06-1.16-.06-2.31-.06-3.57s.28-1.98.88-2.25c.55-.28,1.04-.28,1.43,0s.38.94.11,1.92c-.28,1.04-.38,1.98-.22,2.8,1.87-.93,3.52-1.38,4.78-1.26,1.27.16,1.65.55,1.27,1.38-.38.82-.77,1.32-1.15,1.32-.39.11-.72-.06-.94-.6-1.48,0-2.75.49-3.9,1.38,0,2.42.22,4.95.6,7.59,2.64-.38,4.95.28,6.98,1.93Zm-17.49,12.15c3.19-1.54,6.21-3.24,8.96-5.17-.05-1.98-.22-4.07-.49-6.21-3.19,1.76-5.94,3.96-8.2,6.6l-.27,4.78Zm9.18-3.08c-2.92,1.87-5.88,3.63-8.91,5.39-.27,2.03-.16,4.18.33,6.43,3.41-2.25,6.38-4.12,9.07-5.66-.11-2.25-.28-4.29-.49-6.16Zm5.28-5.55c.93-.61,2.04-.66,3.35-.11-1.71-2.8-4.07-4.07-7.04-3.68-.05,2.2.11,4.18.38,6.05,1.21-.82,2.37-1.59,3.3-2.25Zm3.68.66c.05.17,0,.33-.28.55-.27.28-.49.55-.77.94-.28.33-.6.49-.99.38-.33-.11-.66-.22-.82-.33-1.38.5-2.58,1.32-3.85,2.37.17,1.81.38,3.9.61,6.21,2.7-1.76,5.39-3.3,8.03-4.4-.38-2.14-.99-4.07-1.93-5.72Zm6.54-11.93c.05.22.05.38,0,.49-.05.17-.38.28-.99.38-.61.11-.94.17-1.1.17s-.55-.83-1.1-2.42c-.61-1.54-.99-3.19-1.1-4.79-.22-1.54-.38-2.53-.5-2.86-.11-.33.17-.55.83-.82.71-.28,1.1-.28,1.21-.11.05.22.28,1.16.55,2.86.27,1.65.6,3.74,1.21,6.21.61.38.94.66.99.88Z"/>
      <path class="cls-1" d="m230,36.5c-.33-8.03-.28-13.97.22-17.87.5-3.9.83-5.99.94-6.32.11-.28.44-.33.88-.17.49.22.82.5.93.77.05.33-.16,3.02-.71,8.14-.55,5.06-.44,10.01.33,14.9s1.27,7.75,1.48,8.41c.17.77-.16.88-.99.38-2.04-2.36-3.08-5.11-3.08-8.25Zm38.38,4.62c-.38.16-.82.11-1.32-.17-.55-.28-1.1-.83-1.71-1.71-.66-.93-1.32-1.65-2.09-2.09-.82-.5-1.87-.71-3.3-.71-1.54,4.12-3.96,6.65-7.26,7.59-3.24.88-5.5,1.04-6.82.44-1.32-.55-2.09-1.21-2.25-1.82-.17-.6-.28-1.38-.28-2.53,0-1.04.61-2.09,1.92-2.97,1.27-.93,2.86-1.7,4.89-2.25,1.98-.6,4.56-.88,7.7-.88.49-5,.33-10.83-.49-17.65-5.61,2.97-9.57,5.44-11.88,7.31-2.31,1.93-3.63,2.92-3.9,2.97-.33.11-.61-.06-.88-.44-.27-.38-.38-.66-.27-.88.05-.17,1.32-1.32,3.85-3.3,2.48-1.98,6.71-4.51,12.71-7.59,0-.88-.33-1.92-1.04-3.02s-.83-1.87-.33-2.36c.49-.5.99-.61,1.43-.44.33.22,1.04,1.65,2.04,4.34,1.98-1.27,3.63-2.14,4.95-2.58,1.26-.38,2.09-.5,2.36-.33.28.22.38.55.33.93-.11.44-.77.88-2.09,1.32-1.32.5-3.02,1.43-5.22,2.75.77,5.66,1.1,11.99.94,18.97,3.74.6,6.32,2.31,7.92,5.17.38,1.1.44,1.76.11,1.92Zm-10.78-4.89c-1.59-.22-3.96.05-7.04.82-3.02.71-4.73,2.26-4.89,4.46,0,.55.33.99,1.04,1.15.71.22,2.31.11,4.89-.27,3.57-1.98,5.61-4.07,5.99-6.16Z"/>
      <path class="cls-1" d="m279.28,14.28c-.49-.6.22-1.32,2.09-2.25,1.87-.88,4.68-1.7,8.36-2.42,3.74-.71,6.21-1.37,7.7-1.92,1.38-.44,2.31-.77,2.7-.94.38-.16.55.06.66.55.11.44.11.88,0,1.15-.11.33-.28.66-.66.99-.38.28-.88.44-1.6.44-.55.11-2.8.55-6.65,1.32s-7.26,1.71-10.12,2.97c-1.21.66-1.98.66-2.47.11Zm13.42,28.21c5.44-1.93,10.34-3.79,14.79-5.66,4.45-1.93,6.76-2.8,7.04-2.8s.55.11.77.38c.16.27.16.6-.05.99-.22.39-3.03,1.76-8.3,4.18-5.33,2.42-12.65,4.89-21.89,7.48-.83.16-1.76.05-2.7-.33-.93-.38-1.43-.83-1.48-1.32-.05-.49.05-.88.38-1.1.28-.17.66-.28.99-.28,1.48.94,4.95.38,10.45-1.54Z"/>
      <path class="cls-1" d="m333.78,16.7c-6.21,3.74-9.57,5.28-10.01,4.67-.5-.55-.66-1.04-.44-1.54.22-.44,3.79-2.36,10.72-5.83.33-2.31.38-3.96.17-4.89-.22-.94.22-1.65,1.26-2.04,1.04-.44,1.38,1.54.88,5.88,3.96-2.25,7.2-3.52,9.73-3.9,2.47-.38,3.9-.33,4.29.16.39.44.39.83,0,1.21-.38.38-1.92.71-4.67.99s-5.83,1.65-9.35,4.07c-.61,5.11-.77,10.39-.61,15.95,5.44-.93,9.84-1.76,13.31-2.53,3.41-.77,5.88-.55,7.42.71,1.76,2.04,2.2,4.46,1.32,7.26-.88,2.25-2.64,4.45-5.34,6.65-2.75,2.2-4.45,3.41-5.17,3.57-.66.17-1.16,0-1.43-.5-.28-.44-.33-.77-.17-.88.17-.11,1.98-1.65,5.45-4.46,3.35-2.86,5.06-5.94,5.06-9.18-1.76-1.48-4.89-1.65-9.51-.49-4.62,1.1-7.97,1.92-10.06,2.31-2.09.44-3.3.11-3.52-.99.17-5.77.38-11.22.66-16.22Z"/>
      <path class="cls-1" d="m374.21,30.01c.44-4.12.66-7.64.66-10.61.38-.77.94-1.1,1.65-.88.71.22,1.04.77,1.04,1.76-1.04,4.78-1.32,9.79-.94,14.96.38.77,2.86.28,7.31-1.38,4.46-1.65,8.19-2.64,11.33-2.91s5.22.22,6.32,1.43c1.1,1.15.94,3.02-.55,5.61-1.43,2.58-3.35,4.73-5.72,6.49-2.36,1.81-3.74,2.69-4.23,2.75-.49.11-.88,0-1.15-.38s-.22-.88.16-1.59,1.43-1.43,3.03-2.25c1.54-.82,3.13-2.2,4.56-4.07s2.09-3.52,1.98-4.89c-3.03-1.21-6.44-1.1-10.29.27-3.96,1.38-7.04,2.47-9.4,3.13-2.42.71-3.9.88-4.46.44-1.38-1.16-1.81-3.79-1.32-7.87Zm15.01-15.45c-.22-.17-.33-.5-.33-.99s-.38-1.04-1.21-1.59c-2.75-1.38-4.84-2.09-6.16-2.2-1.32-.05-2.2-.22-2.7-.61-.49-.33-.77-.6-.82-.82-.11-.17-.11-.5.05-.94.11-.38.28-.66.5-.77.16-.11,1.48.17,3.9.77,2.42.61,4.73,1.65,7.04,3.03,2.31,1.43,3.13,2.36,2.58,2.97-.49.61-1.04.99-1.54,1.27-.71.16-1.1.11-1.32-.11Z"/>
    </g>
  </g>
</svg>