<?xml version="1.0" encoding="UTF-8"?>
<svg id="Layer_2" data-name="Layer 2" xmlns="http://www.w3.org/2000/svg" viewBox="0 0 72 72">
  <defs>
    <style>
      .cls-1 {
        fill: #84c5f0;
      }
    </style>
  </defs>
  <g id="_文字" data-name="文字">
    <g>
      <path class="cls-1" d="m61.8,72H10.2c-5.6,0-10.2-4.6-10.2-10.2V10.2C0,4.6,4.6,0,10.2,0h51.6c5.6,0,10.2,4.6,10.2,10.2v51.6c0,5.6-4.6,10.2-10.2,10.2ZM10.2.8C5,.8.8,5,.8,10.2v51.6c0,5.2,4.2,9.4,9.4,9.4h51.6c5.2,0,9.4-4.2,9.4-9.4V10.2c0-5.2-4.2-9.4-9.4-9.4H10.2Z"/>
      <g>
        <path class="cls-1" d="m9.5,56.5v1.5h-.8v-2.5h3v-.5h-2.5v-1.1h5.8v1.1h-2.4v.5h3v2.5h-.9v-1.5h-2.2v2.5h-.9v-2.6h-2.1v.1Zm3,6.7c0,.5.1.6.6.6h1.5c.4,0,.5-.2.5-1.2.2.2.5.4.8.5-.1,1.5-.4,1.9-1.2,1.9h-1.6c-1.1,0-1.4-.4-1.4-1.7h-1.3v.5h-1v-4.5h5.4v3.9h-2.3Zm-2.9-4.3v-.8h1.7v.8h-1.7Zm.2-2h1.5v.8h-1.5v-.8Zm1.8,3.4h-1.3v.5h1.3v-.5Zm-1.3,2h1.3v-.5h-1.3v.5Zm3.6-1.4v-.5h-1.4v.5h1.4Zm-1.4,1.4h1.4v-.5h-1.4v.5Zm.3-5.4h1.5v.8h-1.5v-.8Zm0,2v-.8h1.7v.8h-1.7Z"/>
        <path class="cls-1" d="m16.8,56.9c.4.3,1,.8,1.3,1.2l-.6,1.2c-.3-.4-.8-.9-1.3-1.2l.6-1.2Zm-.4,7.1c.3-1,.8-2.5,1.1-3.9l.8.8c-.3,1.3-.7,2.6-.9,3.6,0,.1.1.2.1.2v.2l-1.1-.9Zm.8-10.4c.4.3,1,.8,1.3,1.2l-.6,1.2c-.3-.4-.8-1-1.3-1.3l.6-1.1Zm6.1,7.3h-1.3v2.7c0,1-.2,1.4-1.5,1.4,0-.4-.1-.9-.2-1.2h.7q.1,0,.1-.2v-2.6h-1.2v-4.3h1.1c0-.4.1-.8.1-1.1h-1.5v2.1c0,1.7-.1,4.1-.6,6,.4-.5.8-1.4,1-2.3l.9.5c0,.1-.1.1-.2.1-.3.9-.7,1.8-1.2,2.5-.1-.2-.4-.6-.6-.8-.1.5-.3.9-.5,1.3-.2-.2-.6-.6-.8-.8.9-1.9,1-4.7,1-6.6v-3.4h4.9v1.3h-1.5l.3.1c0,.1-.1.1-.2.2,0,.3-.1.5-.2.8h1.4v4.3Zm-2.5-3.2v.6h1.7v-.6h-1.7Zm0,1.6v.6h1.7v-.6h-1.7Zm2.2,5c-.2-.7-.6-1.7-.9-2.5l.8-.6c.3.7.8,1.7.9,2.4l-.8.7Z"/>
        <path class="cls-1" d="m30.3,55.5v8.4h-1v-.6h-4.5v-1.4h4.5v-4.9h-4.5v-1.4h5.5v-.1Z"/>
        <path class="cls-1" d="m31.5,54.7c.8.4,1.7,1,2.3,1.6l-.5,1.4c-.6-.6-1.5-1.2-2.2-1.7l.4-1.3Zm-.3,8.2c2.6-1.3,4.4-3.6,5.3-7,.3.4.6.7.9.9-1,3.3-2.8,5.9-5.4,7.3,0,.1-.1.3-.1.3l-.7-1.5Z"/>
        <path class="cls-1" d="m44.1,56.7c0,.1-.1.2-.2.2-.3,1.3-1,3-1.5,4-.2-.2-.6-.5-.9-.7.4-.6.8-1.5,1-2.3l-2.1.9v2.7c0,1,.3,1.3.8,1.3h1.2c.3,0,.9-.1,1.2-.2v1.5c-.3.1-.9.1-1.2.1h-1.3c-1.2,0-1.8-.8-1.8-2.7v-2.4l-1.7.7-.2-1.4,2-.7v-3.5l1.2.1c0,.2-.1.2-.2.3v2.7l2.7-1.1.1-.1.9.6Z"/>
        <path class="cls-1" d="m44.8,54.7c.8.4,1.7,1,2.3,1.6l-.5,1.4c-.6-.6-1.5-1.2-2.2-1.7l.4-1.3Zm-.3,8.2c2.6-1.3,4.4-3.6,5.3-7,.3.4.6.7.9.9-1,3.3-2.8,5.9-5.4,7.3,0,.1-.1.3-.1.3l-.7-1.5Z"/>
        <path class="cls-1" d="m55.5,60.7c-.6-.6-1.7-1.3-2.4-1.8v5.7h-1v-10.7l1.3.1c0,.1-.1.3-.2.3v3.4l.2-.4c.9.5,2,1.3,2.8,1.9l-.7,1.5Z"/>
        <path class="cls-1" d="m63.4,56.4h-4.1c-.1.3-.2.6-.3.9h3.4v6c0,1.5-.4,1.6-1.8,1.6,0-.4-.2-1.1-.3-1.4h.7c.4,0,.5,0,.5-.2v-.7h-2.6v2.3h-.9v-5.1c-.3.6-.7,1.2-1.1,1.6-.1-.3-.5-.9-.7-1.2.9-.9,1.5-2.4,2-3.9h-1.8v-1.3h2.1c.1-.5.2-1,.3-1.5l1.2.5c0,.1-.1.2-.2.2-.1.3-.1.6-.2.9h3.8v1.3Zm-1.9,3v-.8h-2.6v.8h2.6Zm-2.6,2h2.6v-.8h-2.6v.8Z"/>
      </g>
      <g>
        <path class="cls-1" d="m43.4,16.8v-8.3c0-.6-.5-1-1-1h-1.6c-.6,0-1,.5-1,1v8.2h-7.5v-8.2c0-.6-.5-1-1-1h-1.6c-.6,0-1,.5-1,1v8.2h-4.3v3.5h23.5v-3.5h-4.5v.1Z"/>
        <path class="cls-1" d="m24.3,26.2c0,4.2,2.5,7.8,6.1,9.5v2.3c0,1.1.9,2,2,2h7.3c1.1,0,2-.9,2-2v-2.3c3.6-1.6,6.1-5.3,6.1-9.5v-4.3h-23.5v4.3Z"/>
        <rect class="cls-1" x="33.8" y="41.4" width="4.5" height="5.2"/>
      </g>
    </g>
  </g>
</svg>