<?xml version="1.0" encoding="UTF-8"?>
<svg id="Layer_2" data-name="Layer 2" xmlns="http://www.w3.org/2000/svg" viewBox="0 0 79.2 79.2">
  <defs>
    <style>
      .cls-1 {
        fill: #84c5f0;
      }
    </style>
  </defs>
  <g id="_文字" data-name="文字">
    <g>
      <path class="cls-1" d="m67.98,79.2H11.22c-6.16,0-11.22-5.06-11.22-11.22V11.22C0,5.06,5.06,0,11.22,0h56.76c6.16,0,11.22,5.06,11.22,11.22v56.76c0,6.16-5.06,11.22-11.22,11.22ZM11.22.88C5.5.88.88,5.5.88,11.22v56.76c0,5.72,4.62,10.34,10.34,10.34h56.76c5.72,0,10.34-4.62,10.34-10.34V11.22c0-5.72-4.62-10.34-10.34-10.34H11.22Z"/>
      <g>
        <path class="cls-1" d="m20.68,61.71h-1.43v.66h-.77v-5.61h2.2v4.95Zm-.88-3.96h-.55v3.08h.55v-3.08Zm6.49,4.07h-2.09c.44.77,1.1,1.21,2.31,1.32-.22.22-.44.66-.66.88-1.21-.22-1.87-.77-2.42-1.65-.44.77-1.1,1.32-2.64,1.65-.11-.22-.33-.66-.55-.88,1.43-.33,2.09-.77,2.42-1.43h-1.87v-.88h2.09c0-.22,0-.44.11-.77h.33c-.11-.11-.22-.22-.33-.33-.66.11-1.32.22-1.76.33,0,.11-.11.11-.11.11l-.44-.77c.33,0,.66-.11,1.1-.11v-.66h-.88v-.77h.77v-.55h-.77v-.77h.88v-.66l1.1.11c0,.11-.11.11-.22.11v.55h.77v.77h-.77v.55h.66v.77h-.66v.55l.66-.11v.33c.44-.44.55-1.1.55-2.09h-.44v-.77h2.75v.33c-.11,2.09-.11,2.86-.33,3.19-.11.22-.33.33-1.21.33,0-.22-.11-.55-.22-.77h.44q.11,0,.22-.11c.11-.11.11-.66.22-2.09h-.55c-.11,1.32-.22,2.31-1.21,2.97h.55c0,.11-.11.11-.22.11,0,.22,0,.33-.11.44h2.31v.77h.22Z"/>
        <path class="cls-1" d="m33.33,63.03h2.09v.88h-5.28v-.88h2.2v-.88h-1.65v-.88h1.65v-.77h-1.76v-2.53c-.22.44-.44,1.1-.66,1.54l-.44-.22c0,.55,0,.99-.11,1.54.33.33,1.1,1.32,1.21,1.54l-.77.66c-.22-.33-.44-.77-.77-1.21-.22.77-.66,1.54-1.21,2.2-.11-.22-.44-.55-.66-.77,1.21-1.21,1.32-2.86,1.32-4.4v-2.97c.44,0,.77,0,1.21.11,0,.11-.11.11-.22.11v2.64c.22-.44.33-1.1.44-1.54l.99.44h.88v-.66h-1.43v-.88h5.06v.88h-1.43v.66h1.21v2.86h-1.54s-.11.11-.22.11v.66h1.65v.88h-1.65v.88h-.11Zm-6.16-3.08c.22-.44.33-1.43.33-2.2l.77.11c0,.77-.11,1.76-.44,2.42l-.66-.33Zm4.29-1.32v.99h.44v-.99h-.44Zm1.1-1.54v.66h.44v-.66h-.44Zm.44,1.54h-.44v.99h.44v-.99Zm1.21.99v-.99h-.44v.99h.44Z"/>
        <path class="cls-1" d="m38.72,57.53c0,.11-.11.22-.22.22,0,2.53-.33,4.51-1.43,6.05-.22-.11-.66-.44-.99-.55,1.1-1.32,1.32-3.63,1.32-5.83l1.32.11Zm2.2,4.51c1.21-.66,1.87-1.76,2.31-3.19.22.22.77.44.99.55-.66,1.76-1.65,3.08-3.52,3.96,0,.11-.11.22-.22.22l-.77-.88.11-.22v-6.16l1.32.11c0,.11-.11.22-.22.22v5.39Z"/>
        <path class="cls-1" d="m45.21,59.29h7.26v1.1h-6.82c0,.11-.22.11-.33.11l-.11-1.21Z"/>
        <path class="cls-1" d="m59.62,63.69c-.11-.33-.33-.66-.44-.99-1.87.22-4.29.44-5.61.44,0,.11-.11.22-.22.22l-.33-1.32h.88c.55-1.65,1.21-4.07,1.65-5.72l1.43.33c0,.11-.11.11-.22.11-.44,1.43-1.1,3.52-1.65,5.17.99,0,2.64-.11,3.63-.22-.33-.66-.77-1.21-1.21-1.65l.88-.55c.88.99,1.76,2.53,2.31,3.63l-1.1.55Z"/>
        <path class="cls-1" d="m17.27,70.18c-.44.99-.88,1.87-1.54,2.53l-.88-.55c.55-.55,1.1-1.32,1.43-2.31l.99.33Zm1.87-1.21v3.63c0,.55-.22.88-.55,1.1s-.88.22-1.76.22c0-.33-.22-.66-.33-.99h1.21c.22,0,.33-.11.33-.33v-3.63h-2.75v-.99h2.75v-1.65l1.32.11c0,.11-.11.22-.22.22v1.32h2.75v.99h-2.75Zm1.54.77c.66.66,1.32,1.65,1.65,2.42l-.99.55c-.33-.77-1.1-1.87-1.54-2.53l.88-.44Z"/>
        <path class="cls-1" d="m30.36,69.96h-2.75.22s-.11.11-.22.11c-.22,1.43-.77,2.86-2.64,3.74-.22-.22-.66-.55-.88-.77,1.76-.88,2.09-1.87,2.31-3.19h-3.08v-.99h7.04v1.1Zm-.88-2.42h-5.28v-.99h5.28v.99Z"/>
        <path class="cls-1" d="m33.55,67.54c0,.11-.11.22-.22.22,0,2.53-.33,4.51-1.43,6.05-.22-.11-.66-.44-.99-.55,1.1-1.32,1.32-3.63,1.32-5.83l1.32.11Zm2.2,4.51c1.21-.66,1.87-1.76,2.31-3.19.22.22.77.44.99.55-.66,1.76-1.65,3.08-3.52,3.96,0,.11-.11.22-.22.22l-.77-.99.11-.22v-6.16l1.32.11c0,.11-.11.22-.22.22v5.5Z"/>
        <path class="cls-1" d="m47.19,67.43v5.5c0,1.1-.44,1.21-2.2,1.21,0-.33-.22-.77-.33-.99h.88q.55,0,.55-.22v-4.51h-2.09c0,.33,0,.55-.11.88.77.66,1.76,1.54,2.2,2.2l-.88.66c-.33-.44-.99-1.21-1.65-1.87-.33.77-.88,1.43-1.87,2.09-.11-.22-.44-.55-.66-.66v2.53h-.99v-6.71h2.86v-1.54l1.32.11c0,.11-.11.11-.22.22v1.21h3.19v-.11Zm-6.16.99v3.08c1.54-.88,1.87-2.09,1.87-3.08h-1.87Z"/>
        <path class="cls-1" d="m50.49,66.66c0,.11-.11.11-.22.22-.33,1.54-.44,3.08-.44,3.85,0,.44,0,.88.11,1.21.11-.22.44-.99.55-1.21l.55.77c-.33.66-.55,1.1-.77,1.54,0,.11-.11.33-.11.44v.33l-1.1.11c-.33-.88-.44-1.98-.44-3.08,0-1.21.22-2.75.44-4.18h1.43Zm5.17,6.49h-.99c-.55,0-1.1,0-1.43-.11-1.21-.22-1.65-.77-1.65-1.54,0-.66.33-1.21.77-1.76l.99.33c-.44.33-.66.77-.66,1.21,0,.66.77.77,1.76.77.44,0,.88,0,1.21-.11v1.21Zm-3.96-5.61c.99,0,2.64-.11,3.63-.33l.11,1.1c-.99.22-2.75.33-3.74.33v-1.1Z"/>
        <path class="cls-1" d="m64.46,67.98h-4.62c-.11.22-.22.44-.33.66h3.85v4.29c0,1.1-.44,1.21-1.98,1.21,0-.33-.22-.77-.33-.99h.77c.44,0,.55,0,.55-.22v-.44h-2.97v1.65h-1.1v-3.63c-.33.44-.77.88-1.21,1.21-.11-.22-.55-.66-.77-.77.99-.66,1.65-1.76,2.2-2.86h-1.98v-.99h2.42c.11-.33.22-.66.33-1.1l1.32.33c0,.11-.11.11-.22.11-.11.22-.11.44-.22.66h4.18v.88h.11Zm-2.09,2.2v-.55h-2.97v.55h2.97Zm-2.97,1.43h2.86v-.55h-2.86v.55Z"/>
      </g>
      <g>
        <path class="cls-1" d="m35.97,19.8c.66.99,1.76,1.76,2.97,2.2,1.21.44,2.53.55,4.18.55h2.09c.88,0,1.43.11,1.87.22.33.11.44.22.44.22.11,0,.11.11.11.22.11.11.11.33.11.66v1.32c0,1.21,0,2.64.44,4.07.22.66.66,1.32,1.43,1.76.66.44,1.54.66,2.53.66h1.98v2.42h2.2v-1.65c0-.55,0-.88-.11-1.32-.11-.33-.22-.77-.55-.99-.22-.22-.55-.33-.77-.44-.44-.11-.77-.11-1.21-.22h-1.54c-.66,0-1.1-.11-1.32-.33-.22-.11-.33-.33-.44-.55-.22-.33-.33-.88-.44-1.43-.11-.66-.11-1.32-.11-1.98s0-1.21-.11-1.76c0-.44-.11-.88-.33-1.32-.11-.33-.44-.66-.66-.88-.44-.33-.99-.55-1.54-.77-.44-.11-.99-.11-1.54-.22h-2.75c-1.32,0-2.31-.11-3.19-.33-.66-.22-1.1-.44-1.43-.66-.55-.44-.99-1.1-1.32-2.09-.33-.99-.44-2.42-.44-4.18v-3.96h-2.2v3.96c0,1.76.11,3.19.44,4.4.33.88.66,1.76,1.21,2.42Z"/>
        <path class="cls-1" d="m60.94,26.4c-.11-.55-.33-1.32-.99-1.76-.33-.22-.66-.44-1.1-.55s-.88-.22-1.32-.22c-.33,0-.55,0-.66-.11h0c0-.11-.11-.44-.11-.88v-4.84c0-.77-.11-1.54-.33-2.2-.33-.99-.99-1.76-1.87-2.31s-1.98-.77-3.19-.77h-.44c-.66,0-.99-.11-1.21-.22-.22-.11-.33-.22-.44-.44-.11-.22-.33-.66-.33-1.1-.11-.44-.11-.99-.11-1.54v-.55h-2.2v.55c0,.99,0,2.2.55,3.41.22.55.77,1.1,1.32,1.54.66.33,1.43.55,2.31.55h.44c.66,0,1.1.11,1.54.22.66.22.99.44,1.21.88.22.44.44,1.1.44,1.98v4.84c0,.33,0,.77.11,1.1,0,.22.11.55.22.88.11.22.22.44.44.55.33.22.66.44.99.44.33.11.66.11,1.1.11s.66.11.77.11.22.11.22.22c.11.11.11.22.22.44,0,.22.11.44.11.77v6.6h2.2v-6.6c.22-.33.22-.77.11-1.1Z"/>
        <rect class="cls-1" x="18.15" y="38.28" width="13.31" height="8.25"/>
        <rect class="cls-1" x="34.76" y="38.28" width="25.74" height="8.25"/>
      </g>
    </g>
  </g>
</svg>