<?xml version="1.0" encoding="UTF-8"?>
<svg id="Layer_2" data-name="Layer 2" xmlns="http://www.w3.org/2000/svg" viewBox="0 0 79.2 79.2">
  <defs>
    <style>
      .cls-1 {
        fill: #84c5f0;
      }
    </style>
  </defs>
  <g id="_文字" data-name="文字">
    <g>
      <path class="cls-1" d="m67.98,79.2H11.22c-6.16,0-11.22-5.06-11.22-11.22V11.22C0,5.06,5.06,0,11.22,0h56.76c6.16,0,11.22,5.06,11.22,11.22v56.76c0,6.16-5.06,11.22-11.22,11.22ZM11.22.88C5.5.88.88,5.5.88,11.22v56.76c0,5.72,4.62,10.34,10.34,10.34h56.76c5.72,0,10.34-4.62,10.34-10.34V11.22c0-5.72-4.62-10.34-10.34-10.34H11.22Z"/>
      <g>
        <path class="cls-1" d="m10.12,70.18v-10.23h5.5v1.65h-3.52v2.75h3.3v1.65h-3.3v4.29h-1.98v-.11Z"/>
        <path class="cls-1" d="m20.79,64.57h-.55c-.88,0-1.54.55-1.54,1.87v3.85h-1.98v-7.37h1.65l.11,1.32h0c.33-.99,1.1-1.43,1.87-1.43h.44v1.76Z"/>
        <path class="cls-1" d="m27.5,69.96c-.66.22-1.43.44-2.42.44-2.31,0-3.63-1.43-3.63-3.74,0-2.09,1.21-3.96,3.41-3.96,1.76,0,2.97,1.32,2.97,3.63v.77h-4.4c0,1.32.99,1.76,1.98,1.76.77,0,1.32-.11,1.87-.33l.22,1.43Zm-1.43-4.29c0-.77-.33-1.76-1.32-1.76s-1.32.99-1.43,1.76h2.75Z"/>
        <path class="cls-1" d="m34.87,69.96c-.66.22-1.43.44-2.42.44-2.31,0-3.63-1.43-3.63-3.74,0-2.09,1.21-3.96,3.41-3.96,1.76,0,2.97,1.32,2.97,3.63v.77h-4.4c0,1.32.99,1.76,1.98,1.76.77,0,1.32-.11,1.87-.33l.22,1.43Zm-1.43-4.29c0-.77-.33-1.76-1.32-1.76s-1.32.99-1.43,1.76h2.75Z"/>
        <path class="cls-1" d="m50.71,59.95l-2.42,10.23h-2.09l-.88-4.4c-.22-1.1-.44-2.09-.55-3.3h0c-.22,1.21-.33,2.2-.66,3.3l-.99,4.4h-2.09l-2.31-10.23h2.09l.77,4.4c.22,1.21.44,2.53.55,3.63h0c.11-1.1.44-2.31.66-3.63l.88-4.4h1.98l.88,4.51c.22,1.21.44,2.31.55,3.52h0c.11-1.21.33-2.42.55-3.63l.88-4.4h2.2Z"/>
        <path class="cls-1" d="m52.69,61.82c-.66,0-1.1-.44-1.1-1.1s.44-1.1,1.1-1.1,1.1.44,1.1,1.1-.44,1.1-1.1,1.1Zm.99,8.36h-1.98v-7.48h1.98v7.48Z"/>
        <path class="cls-1" d="m55.22,65.45h3.63v1.32h-3.63v-1.32Z"/>
        <path class="cls-1" d="m60.39,70.18v-10.23h5.5v1.65h-3.52v2.75h3.3v1.65h-3.3v4.29h-1.98v-.11Z"/>
        <path class="cls-1" d="m68.2,61.82c-.66,0-1.1-.44-1.1-1.1s.44-1.1,1.1-1.1,1.1.44,1.1,1.1-.55,1.1-1.1,1.1Zm.99,8.36h-1.98v-7.48h1.98v7.48Z"/>
      </g>
      <g>
        <path class="cls-1" d="m13.86,21.78l3.63,3.63c12.21-12.21,32.01-12.21,44.22,0l3.63-3.63c-14.19-14.3-37.29-14.3-51.48,0Z"/>
        <path class="cls-1" d="m21.23,29.15l3.63,3.63c8.14-8.14,21.34-8.14,29.48,0l3.63-3.63c-10.12-10.23-26.62-10.23-36.74,0Z"/>
        <path class="cls-1" d="m28.6,36.41l3.63,3.63c4.07-4.07,10.67-4.07,14.74,0l3.63-3.63c-6.05-6.05-15.95-6.05-22,0Z"/>
        <path class="cls-1" d="m35.97,43.78l3.63,3.63,3.63-3.63c-1.98-1.98-5.28-1.98-7.26,0Z"/>
      </g>
    </g>
  </g>
</svg>